<svg width="20" height="20" viewBox="0 0 20 20" fill="none" xmlns="http://www.w3.org/2000/svg">
<path d="M5.37498 14.781L6.62498 13.219L2.60098 10L6.62498 6.781L5.37498 5.219L0.374981 9.219C0.257826 9.31268 0.163249 9.43152 0.098254 9.56671C0.033259 9.70191 -0.000488281 9.84999 -0.000488281 10C-0.000488281 10.15 0.033259 10.2981 0.098254 10.4333C0.163249 10.5685 0.257826 10.6873 0.374981 10.781L5.37498 14.781ZM14.625 5.219L13.375 6.781L17.399 10L13.375 13.219L14.625 14.781L19.625 10.781C19.7421 10.6873 19.8367 10.5685 19.9017 10.4333C19.9667 10.2981 20.0005 10.15 20.0005 10C20.0005 9.84999 19.9667 9.70191 19.9017 9.56671C19.8367 9.43152 19.7421 9.31268 19.625 9.219L14.625 5.219ZM12.976 1.216L8.97598 19.216L7.02298 18.782L11.023 0.781998L12.976 1.216Z" fill="#515A6E"/>
</svg>
