<svg width="30" height="24" viewBox="0 0 30 24" fill="none" xmlns="http://www.w3.org/2000/svg">
<path d="M25.2 10.6219C25.3922 10.1203 25.5 9.57187 25.5 9C25.5 6.51562 23.4844 4.5 21 4.5C20.0766 4.5 19.2141 4.78125 18.5016 5.25937C17.2031 3.00937 14.7797 1.5 12 1.5C7.85625 1.5 4.5 4.85625 4.5 9C4.5 9.12656 4.50469 9.25313 4.50937 9.37969C1.88437 10.3031 0 12.8062 0 15.75C0 19.4766 3.02344 22.5 6.75 22.5H24C27.3141 22.5 30 19.8141 30 16.5C30 13.5984 27.9375 11.175 25.2 10.6219ZM18.9703 14.7797L14.0297 19.7203C13.7391 20.0109 13.2609 20.0109 12.9703 19.7203L8.02969 14.7797C7.55625 14.3062 7.89375 13.5 8.55938 13.5H11.625V8.25C11.625 7.8375 11.9625 7.5 12.375 7.5H14.625C15.0375 7.5 15.375 7.8375 15.375 8.25V13.5H18.4406C19.1062 13.5 19.4438 14.3062 18.9703 14.7797Z" fill="white"/>
</svg>
