<svg width="22" height="16" viewBox="0 0 22 16" fill="none" xmlns="http://www.w3.org/2000/svg">
<path d="M21.0827 7.39531C18.8608 2.71484 15.5022 0.359375 10.9999 0.359375C6.4952 0.359375 3.13895 2.71484 0.917079 7.39766C0.827959 7.58637 0.781738 7.79247 0.781738 8.00117C0.781738 8.20987 0.827959 8.41598 0.917079 8.60469C3.13895 13.2852 6.49755 15.6406 10.9999 15.6406C15.5046 15.6406 18.8608 13.2852 21.0827 8.60234C21.2632 8.22266 21.2632 7.78203 21.0827 7.39531ZM10.9999 13.9531C7.21942 13.9531 4.45145 12.0359 2.49911 8C4.45145 3.96406 7.21942 2.04688 10.9999 2.04688C14.7804 2.04688 17.5483 3.96406 19.5007 8C17.5507 12.0359 14.7827 13.9531 10.9999 13.9531ZM10.9061 3.875C8.62802 3.875 6.78114 5.72188 6.78114 8C6.78114 10.2781 8.62802 12.125 10.9061 12.125C13.1843 12.125 15.0311 10.2781 15.0311 8C15.0311 5.72188 13.1843 3.875 10.9061 3.875ZM10.9061 10.625C9.45536 10.625 8.28114 9.45078 8.28114 8C8.28114 6.54922 9.45536 5.375 10.9061 5.375C12.3569 5.375 13.5311 6.54922 13.5311 8C13.5311 9.45078 12.3569 10.625 10.9061 10.625Z" fill="#515A6E"/>
</svg>
