<svg width="36" height="36" viewBox="0 0 36 36" fill="none" xmlns="http://www.w3.org/2000/svg">
<path d="M17.9998 1.15804e-05C15.2323 -0.00313464 12.5018 0.634844 10.0222 1.86392V5.28331H14.9467V10.1766H10.1586V18.0045C10.1581 19.5529 10.6166 21.0668 11.4762 22.3547C12.3358 23.6427 13.558 24.6468 14.9883 25.2403C16.4185 25.8337 17.9926 25.9898 19.5115 25.6889C21.0304 25.3879 22.426 24.6433 23.5219 23.5493C24.6178 22.4553 25.3647 21.061 25.6682 19.5426C25.9718 18.0242 25.8184 16.4498 25.2274 15.0186C24.6364 13.5873 23.6343 12.3634 22.3478 11.5016C21.0614 10.6398 19.5483 10.1787 17.9998 10.1766H17.3533V5.26997H17.9998C20.5143 5.27202 22.9718 6.01941 25.0617 7.41769C27.1516 8.81597 28.7801 10.8024 29.7415 13.1259C30.7028 15.4494 30.9538 18.0058 30.4627 20.4719C29.9716 22.938 28.7606 25.2032 26.9825 26.9812C25.2045 28.7593 22.9393 29.9704 20.4731 30.4614C18.007 30.9525 15.4507 30.7015 13.1272 29.7402C10.8037 28.7789 8.81725 27.1504 7.41898 25.0605C6.0207 22.9706 5.27331 20.5131 5.27125 17.9985V6.58078V5.27293C2.32681 8.21777 0.494529 12.0924 0.0865981 16.2368C-0.321333 20.3811 0.720328 24.5386 3.0341 28.0011C5.34787 31.4635 8.79059 34.0165 12.7757 35.2252C16.7608 36.4338 21.0416 36.2233 24.8889 34.6296C28.7362 33.0358 31.9119 30.1573 33.8748 26.4846C35.8378 22.8119 36.4665 18.5722 35.654 14.4879C34.8415 10.4036 32.6379 6.72739 29.4188 4.08561C26.1997 1.44384 22.1641 -3.58974e-05 17.9998 1.15804e-05Z" fill="url(#paint0_radial_1002_825)"/>
<path d="M17.9998 1.15804e-05C15.2323 -0.00313464 12.5018 0.634844 10.0222 1.86392V5.28331H14.9467V10.1766H10.1586V18.0045C10.1581 19.5529 10.6166 21.0668 11.4762 22.3547C12.3358 23.6427 13.558 24.6468 14.9883 25.2403C16.4185 25.8337 17.9926 25.9898 19.5115 25.6889C21.0304 25.3879 22.426 24.6433 23.5219 23.5493C24.6178 22.4553 25.3647 21.061 25.6682 19.5426C25.9718 18.0242 25.8184 16.4498 25.2274 15.0186C24.6364 13.5873 23.6343 12.3634 22.3478 11.5016C21.0614 10.6398 19.5483 10.1787 17.9998 10.1766H17.3533V5.26997H17.9998C20.5143 5.27202 22.9718 6.01941 25.0617 7.41769C27.1516 8.81597 28.7801 10.8024 29.7415 13.1259C30.7028 15.4494 30.9538 18.0058 30.4627 20.4719C29.9716 22.938 28.7606 25.2032 26.9825 26.9812C25.2045 28.7593 22.9393 29.9704 20.4731 30.4614C18.007 30.9525 15.4507 30.7015 13.1272 29.7402C10.8037 28.7789 8.81725 27.1504 7.41898 25.0605C6.0207 22.9706 5.27331 20.5131 5.27125 17.9985V6.58078V5.27293C2.32681 8.21777 0.494529 12.0924 0.0865981 16.2368C-0.321333 20.3811 0.720328 24.5386 3.0341 28.0011C5.34787 31.4635 8.79059 34.0165 12.7757 35.2252C16.7608 36.4338 21.0416 36.2233 24.8889 34.6296C28.7362 33.0358 31.9119 30.1573 33.8748 26.4846C35.8378 22.8119 36.4665 18.5722 35.654 14.4879C34.8415 10.4036 32.6379 6.72739 29.4188 4.08561C26.1997 1.44384 22.1641 -3.58974e-05 17.9998 1.15804e-05Z" fill="url(#paint1_linear_1002_825)" fillOpacity="0.2"/>
<path d="M17.9998 1.15804e-05C15.2323 -0.00313464 12.5018 0.634844 10.0222 1.86392V5.28331H14.9467V10.1766H10.1586V18.0045C10.1581 19.5529 10.6166 21.0668 11.4762 22.3547C12.3358 23.6427 13.558 24.6468 14.9883 25.2403C16.4185 25.8337 17.9926 25.9898 19.5115 25.6889C21.0304 25.3879 22.426 24.6433 23.5219 23.5493C24.6178 22.4553 25.3647 21.061 25.6682 19.5426C25.9718 18.0242 25.8184 16.4498 25.2274 15.0186C24.6364 13.5873 23.6343 12.3634 22.3478 11.5016C21.0614 10.6398 19.5483 10.1787 17.9998 10.1766H17.3533V5.26997H17.9998C20.5143 5.27202 22.9718 6.01941 25.0617 7.41769C27.1516 8.81597 28.7801 10.8024 29.7415 13.1259C30.7028 15.4494 30.9538 18.0058 30.4627 20.4719C29.9716 22.938 28.7606 25.2032 26.9825 26.9812C25.2045 28.7593 22.9393 29.9704 20.4731 30.4614C18.007 30.9525 15.4507 30.7015 13.1272 29.7402C10.8037 28.7789 8.81725 27.1504 7.41898 25.0605C6.0207 22.9706 5.27331 20.5131 5.27125 17.9985V6.58078V5.27293C2.32681 8.21777 0.494529 12.0924 0.0865981 16.2368C-0.321333 20.3811 0.720328 24.5386 3.0341 28.0011C5.34787 31.4635 8.79059 34.0165 12.7757 35.2252C16.7608 36.4338 21.0416 36.2233 24.8889 34.6296C28.7362 33.0358 31.9119 30.1573 33.8748 26.4846C35.8378 22.8119 36.4665 18.5722 35.654 14.4879C34.8415 10.4036 32.6379 6.72739 29.4188 4.08561C26.1997 1.44384 22.1641 -3.58974e-05 17.9998 1.15804e-05Z" fill="url(#paint2_angular_1002_825)" fillOpacity="0.2"/>
<path d="M17.9998 1.15804e-05C15.2323 -0.00313464 12.5018 0.634844 10.0222 1.86392V5.28331H14.9467V10.1766H10.1586V18.0045C10.1581 19.5529 10.6166 21.0668 11.4762 22.3547C12.3358 23.6427 13.558 24.6468 14.9883 25.2403C16.4185 25.8337 17.9926 25.9898 19.5115 25.6889C21.0304 25.3879 22.426 24.6433 23.5219 23.5493C24.6178 22.4553 25.3647 21.061 25.6682 19.5426C25.9718 18.0242 25.8184 16.4498 25.2274 15.0186C24.6364 13.5873 23.6343 12.3634 22.3478 11.5016C21.0614 10.6398 19.5483 10.1787 17.9998 10.1766H17.3533V5.26997H17.9998C20.5143 5.27202 22.9718 6.01941 25.0617 7.41769C27.1516 8.81597 28.7801 10.8024 29.7415 13.1259C30.7028 15.4494 30.9538 18.0058 30.4627 20.4719C29.9716 22.938 28.7606 25.2032 26.9825 26.9812C25.2045 28.7593 22.9393 29.9704 20.4731 30.4614C18.007 30.9525 15.4507 30.7015 13.1272 29.7402C10.8037 28.7789 8.81725 27.1504 7.41898 25.0605C6.0207 22.9706 5.27331 20.5131 5.27125 17.9985V6.58078V5.27293C2.32681 8.21777 0.494529 12.0924 0.0865981 16.2368C-0.321333 20.3811 0.720328 24.5386 3.0341 28.0011C5.34787 31.4635 8.79059 34.0165 12.7757 35.2252C16.7608 36.4338 21.0416 36.2233 24.8889 34.6296C28.7362 33.0358 31.9119 30.1573 33.8748 26.4846C35.8378 22.8119 36.4665 18.5722 35.654 14.4879C34.8415 10.4036 32.6379 6.72739 29.4188 4.08561C26.1997 1.44384 22.1641 -3.58974e-05 17.9998 1.15804e-05Z" fill="url(#paint3_angular_1002_825)" fillOpacity="0.2"/>
<defs>
<radialGradient id="paint0_radial_1002_825" cx="0" cy="0" r="1" gradientUnits="userSpaceOnUse" gradientTransform="translate(27.4737 33.9868) rotate(-119.827) scale(30.7133)">
<stop stopColor="#8C66FB"/>
<stop offset="1" stopColor="#01C2DE"/>
</radialGradient>
<linearGradient id="paint1_linear_1002_825" x1="13.2632" y1="36" x2="13.6184" y2="12.1974" gradientUnits="userSpaceOnUse">
<stop stopColor="#8C66FB"/>
<stop offset="1" stopColor="#01C2DE"/>
</linearGradient>
<radialGradient id="paint2_angular_1002_825" cx="0" cy="0" r="1" gradientUnits="userSpaceOnUse" gradientTransform="translate(10.1842 10.4211) rotate(89.4996) scale(27.1195)">
<stop stopColor="#000404" stopOpacity="0.44"/>
<stop offset="1" stopOpacity="0"/>
</radialGradient>
<radialGradient id="paint3_angular_1002_825" cx="0" cy="0" r="1" gradientUnits="userSpaceOnUse" gradientTransform="translate(10.7763 10.1842) scale(27.9474)">
<stop stopColor="#8C66FB" stopOpacity="0.71"/>
<stop offset="1" stopOpacity="0"/>
</radialGradient>
</defs>
</svg>
