<svg width="57" height="58" viewBox="0 0 57 58" fill="none" xmlns="http://www.w3.org/2000/svg">
<path d="M28.4997 0.500018C24.1179 0.495037 19.7945 1.50517 15.8685 3.45121V8.86524H23.6656V16.613H16.0845V29.007C16.0836 31.4588 16.8095 33.8558 18.1707 35.895C19.5318 37.9342 21.4669 39.5241 23.7314 40.4638C25.9959 41.4034 28.4882 41.6506 30.8932 41.174C33.2982 40.6975 35.5079 39.5186 37.243 37.7864C38.9781 36.0543 40.1607 33.8466 40.6414 31.4424C41.122 29.0382 40.8791 26.5455 39.9433 24.2794C39.0076 22.0133 37.421 20.0754 35.3841 18.7109C33.3472 17.3463 30.9514 16.6162 28.4997 16.613H27.476V8.84411H28.4997C32.481 8.84736 36.372 10.0307 39.6811 12.2447C42.9901 14.4586 45.5685 17.6038 47.0906 21.2827C48.6127 24.9616 49.0101 29.0091 48.2326 32.9138C47.4551 36.8185 45.5375 40.4051 42.7223 43.2203C39.9071 46.0355 36.3205 47.9531 32.4158 48.7306C28.5111 49.5081 24.4636 49.1107 20.7847 47.5886C17.1058 46.0665 13.9607 43.4881 11.7467 40.179C9.53277 36.87 8.3494 32.979 8.34615 28.9977V10.9196V8.84881C3.68412 13.5115 0.783004 19.6464 0.137114 26.2082C-0.508777 32.77 1.14052 39.3528 4.80399 44.835C8.46745 50.3171 13.9184 54.3594 20.2281 56.2732C26.5379 58.1869 33.3159 57.8536 39.4075 55.3301C45.499 52.8067 50.5272 48.2491 53.6352 42.434C56.7431 36.6189 57.7387 29.9061 56.4522 23.4392C55.1657 16.9724 51.6767 11.1517 46.5798 6.96889C41.4828 2.78607 35.0932 0.499943 28.4997 0.500018Z" fill="url(#paint0_radial_226_305)"/>
<path d="M28.4997 0.500018C24.1179 0.495037 19.7945 1.50517 15.8685 3.45121V8.86524H23.6656V16.613H16.0845V29.007C16.0836 31.4588 16.8095 33.8558 18.1707 35.895C19.5318 37.9342 21.4669 39.5241 23.7314 40.4638C25.9959 41.4034 28.4882 41.6506 30.8932 41.174C33.2982 40.6975 35.5079 39.5186 37.243 37.7864C38.9781 36.0543 40.1607 33.8466 40.6414 31.4424C41.122 29.0382 40.8791 26.5455 39.9433 24.2794C39.0076 22.0133 37.421 20.0754 35.3841 18.7109C33.3472 17.3463 30.9514 16.6162 28.4997 16.613H27.476V8.84411H28.4997C32.481 8.84736 36.372 10.0307 39.6811 12.2447C42.9901 14.4586 45.5685 17.6038 47.0906 21.2827C48.6127 24.9616 49.0101 29.0091 48.2326 32.9138C47.4551 36.8185 45.5375 40.4051 42.7223 43.2203C39.9071 46.0355 36.3205 47.9531 32.4158 48.7306C28.5111 49.5081 24.4636 49.1107 20.7847 47.5886C17.1058 46.0665 13.9607 43.4881 11.7467 40.179C9.53277 36.87 8.3494 32.979 8.34615 28.9977V10.9196V8.84881C3.68412 13.5115 0.783004 19.6464 0.137114 26.2082C-0.508777 32.77 1.14052 39.3528 4.80399 44.835C8.46745 50.3171 13.9184 54.3594 20.2281 56.2732C26.5379 58.1869 33.3159 57.8536 39.4075 55.3301C45.499 52.8067 50.5272 48.2491 53.6352 42.434C56.7431 36.6189 57.7387 29.9061 56.4522 23.4392C55.1657 16.9724 51.6767 11.1517 46.5798 6.96889C41.4828 2.78607 35.0932 0.499943 28.4997 0.500018Z" fill="url(#paint1_linear_226_305)" fillOpacity="0.2"/>
<path d="M28.4997 0.500018C24.1179 0.495037 19.7945 1.50517 15.8685 3.45121V8.86524H23.6656V16.613H16.0845V29.007C16.0836 31.4588 16.8095 33.8558 18.1707 35.895C19.5318 37.9342 21.4669 39.5241 23.7314 40.4638C25.9959 41.4034 28.4882 41.6506 30.8932 41.174C33.2982 40.6975 35.5079 39.5186 37.243 37.7864C38.9781 36.0543 40.1607 33.8466 40.6414 31.4424C41.122 29.0382 40.8791 26.5455 39.9433 24.2794C39.0076 22.0133 37.421 20.0754 35.3841 18.7109C33.3472 17.3463 30.9514 16.6162 28.4997 16.613H27.476V8.84411H28.4997C32.481 8.84736 36.372 10.0307 39.6811 12.2447C42.9901 14.4586 45.5685 17.6038 47.0906 21.2827C48.6127 24.9616 49.0101 29.0091 48.2326 32.9138C47.4551 36.8185 45.5375 40.4051 42.7223 43.2203C39.9071 46.0355 36.3205 47.9531 32.4158 48.7306C28.5111 49.5081 24.4636 49.1107 20.7847 47.5886C17.1058 46.0665 13.9607 43.4881 11.7467 40.179C9.53277 36.87 8.3494 32.979 8.34615 28.9977V10.9196V8.84881C3.68412 13.5115 0.783004 19.6464 0.137114 26.2082C-0.508777 32.77 1.14052 39.3528 4.80399 44.835C8.46745 50.3171 13.9184 54.3594 20.2281 56.2732C26.5379 58.1869 33.3159 57.8536 39.4075 55.3301C45.499 52.8067 50.5272 48.2491 53.6352 42.434C56.7431 36.6189 57.7387 29.9061 56.4522 23.4392C55.1657 16.9724 51.6767 11.1517 46.5798 6.96889C41.4828 2.78607 35.0932 0.499943 28.4997 0.500018Z" fill="url(#paint2_angular_226_305)" fillOpacity="0.2"/>
<path d="M28.4997 0.500018C24.1179 0.495037 19.7945 1.50517 15.8685 3.45121V8.86524H23.6656V16.613H16.0845V29.007C16.0836 31.4588 16.8095 33.8558 18.1707 35.895C19.5318 37.9342 21.4669 39.5241 23.7314 40.4638C25.9959 41.4034 28.4882 41.6506 30.8932 41.174C33.2982 40.6975 35.5079 39.5186 37.243 37.7864C38.9781 36.0543 40.1607 33.8466 40.6414 31.4424C41.122 29.0382 40.8791 26.5455 39.9433 24.2794C39.0076 22.0133 37.421 20.0754 35.3841 18.7109C33.3472 17.3463 30.9514 16.6162 28.4997 16.613H27.476V8.84411H28.4997C32.481 8.84736 36.372 10.0307 39.6811 12.2447C42.9901 14.4586 45.5685 17.6038 47.0906 21.2827C48.6127 24.9616 49.0101 29.0091 48.2326 32.9138C47.4551 36.8185 45.5375 40.4051 42.7223 43.2203C39.9071 46.0355 36.3205 47.9531 32.4158 48.7306C28.5111 49.5081 24.4636 49.1107 20.7847 47.5886C17.1058 46.0665 13.9607 43.4881 11.7467 40.179C9.53277 36.87 8.3494 32.979 8.34615 28.9977V10.9196V8.84881C3.68412 13.5115 0.783004 19.6464 0.137114 26.2082C-0.508777 32.77 1.14052 39.3528 4.80399 44.835C8.46745 50.3171 13.9184 54.3594 20.2281 56.2732C26.5379 58.1869 33.3159 57.8536 39.4075 55.3301C45.499 52.8067 50.5272 48.2491 53.6352 42.434C56.7431 36.6189 57.7387 29.9061 56.4522 23.4392C55.1657 16.9724 51.6767 11.1517 46.5798 6.96889C41.4828 2.78607 35.0932 0.499943 28.4997 0.500018Z" fill="url(#paint3_angular_226_305)" fillOpacity="0.2"/>
<defs>
<radialGradient id="paint0_radial_226_305" cx="0" cy="0" r="1" gradientUnits="userSpaceOnUse" gradientTransform="translate(43.5 54.3125) rotate(-119.827) scale(48.6294)">
<stop stopColor="#8C66FB"/>
<stop offset="1" stopColor="#01C2DE"/>
</radialGradient>
<linearGradient id="paint1_linear_226_305" x1="21" y1="57.5" x2="21.5625" y2="19.8125" gradientUnits="userSpaceOnUse">
<stop stopColor="#8C66FB"/>
<stop offset="1" stopColor="#01C2DE"/>
</linearGradient>
<radialGradient id="paint2_angular_226_305" cx="0" cy="0" r="1" gradientUnits="userSpaceOnUse" gradientTransform="translate(16.125 17) rotate(89.4996) scale(42.9391)">
<stop stopColor="#000404" stopOpacity="0.44"/>
<stop offset="1" stopOpacity="0"/>
</radialGradient>
<radialGradient id="paint3_angular_226_305" cx="0" cy="0" r="1" gradientUnits="userSpaceOnUse" gradientTransform="translate(17.0625 16.625) scale(44.25)">
<stop stopColor="#8C66FB" stopOpacity="0.71"/>
<stop offset="1" stopOpacity="0"/>
</radialGradient>
</defs>
</svg>
