<svg width="29" height="29" viewBox="0 0 29 29" fill="none" xmlns="http://www.w3.org/2000/svg">
<circle cx="14.5" cy="14.5" r="14.5" fill="#0F9918"/>
<path d="M13 18.6666C12.9124 18.6667 12.8257 18.6495 12.7448 18.616C12.664 18.5825 12.5905 18.5333 12.5287 18.4712L8.52875 14.4712C8.40756 14.3455 8.34057 14.1772 8.34219 14.0026C8.34381 13.8279 8.4139 13.6609 8.53739 13.5374C8.66089 13.4139 8.82791 13.3438 9.00255 13.3422C9.17719 13.3406 9.34549 13.4076 9.47125 13.5287L13 17.0572L20.5284 9.52875C20.5903 9.46682 20.6638 9.41769 20.7447 9.38416C20.8255 9.35063 20.9122 9.33336 20.9998 9.33333C21.0873 9.3333 21.174 9.35051 21.2549 9.38399C21.3358 9.41747 21.4093 9.46655 21.4712 9.52843C21.5332 9.59032 21.5823 9.6638 21.6158 9.74467C21.6494 9.82554 21.6666 9.91223 21.6667 9.99978C21.6667 10.0873 21.6495 10.174 21.616 10.2549C21.5825 10.3358 21.5334 10.4093 21.4716 10.4712L13.4716 18.4712C13.4097 18.5333 13.3362 18.5825 13.2553 18.6161C13.1744 18.6496 13.0876 18.6667 13 18.6666Z" fill="white"/>
</svg>
