<svg width="62" height="61" viewBox="0 0 62 61" fill="none" xmlns="http://www.w3.org/2000/svg">
<circle cx="41.4199" cy="24.4165" r="15.7666" fill="#282828"/>
<path d="M21.2535 7.23676C21.3527 6.93144 21.7846 6.93144 21.8838 7.23676L22.6431 9.57354C22.6875 9.71008 22.8147 9.80253 22.9583 9.80253H25.4153C25.7364 9.80253 25.8698 10.2133 25.6101 10.402L23.6223 11.8462C23.5062 11.9306 23.4576 12.0802 23.5019 12.2167L24.2612 14.5535C24.3604 14.8588 24.011 15.1127 23.7513 14.924L21.7635 13.4798C21.6473 13.3954 21.49 13.3954 21.3739 13.4798L19.3861 14.924C19.1264 15.1127 18.7769 14.8588 18.8761 14.5535L19.6354 12.2167C19.6798 12.0802 19.6312 11.9306 19.515 11.8462L17.5272 10.402C17.2675 10.2133 17.401 9.80253 17.722 9.80253H20.1791C20.3226 9.80253 20.4499 9.71008 20.4942 9.57354L21.2535 7.23676Z" fill="#FFCC4A"/>
<path d="M7.99931 48.375C8.17969 48.5554 8.09716 48.8634 7.85075 48.9294L1.01773 50.7603C0.771316 50.8263 0.545833 50.6008 0.611859 50.3544L2.44276 43.5214C2.50879 43.275 2.8168 43.1925 2.99719 43.3729L7.99931 48.375Z" fill="#4EAF4E"/>
<circle cx="57.9885" cy="19.5108" r="3.90159" fill="white"/>
<path d="M48.9698 21.0538H17.4816C16.6911 21.0538 16.0503 21.6946 16.0503 22.4851V43.9543C16.0503 44.7448 16.6911 45.3856 17.4816 45.3856H48.9698C49.7603 45.3856 50.4011 44.7448 50.4011 43.9543V22.4851C50.4011 21.6946 49.7603 21.0538 48.9698 21.0538Z" fill="#181818" stroke="white" stroke-width="1.32557" stroke-linecap="round" stroke-linejoin="round"/>
<path d="M48.9698 21.0538H17.4816C16.6911 21.0538 16.0503 21.6946 16.0503 22.4851V43.9544C16.0503 44.7448 16.6911 45.3856 17.4816 45.3856H48.9698C49.7603 45.3856 50.4011 44.7448 50.4011 43.9544V22.4851C50.4011 21.6946 49.7603 21.0538 48.9698 21.0538Z" fill="#181818" stroke="white" stroke-width="1.32557" stroke-linecap="round" stroke-linejoin="round"/>
<path d="M48.9698 38.5631H17.4816C16.6911 38.5631 16.0503 38.7428 16.0503 38.9645V44.9843C16.0503 45.206 16.6911 45.3856 17.4816 45.3856H48.9698C49.7603 45.3856 50.4011 45.206 50.4011 44.9843V38.9645C50.4011 38.7428 49.7603 38.5631 48.9698 38.5631Z" fill="#4EAF4E" stroke="white" stroke-width="1.32557" stroke-linecap="round" stroke-linejoin="round"/>
<path d="M38.9507 45.3852L44.6758 52.5417" stroke="white" stroke-width="1.32557" stroke-linecap="round" stroke-linejoin="round"/>
<path d="M27.5 45.3852L21.7749 52.5417" stroke="white" stroke-width="1.32557" stroke-linecap="round" stroke-linejoin="round"/>
<path d="M27.5005 33.9354V38.2292" stroke="white" stroke-width="1.32557" stroke-linecap="round" stroke-linejoin="round"/>
<path d="M33.2256 31.0733V38.2297" stroke="white" stroke-width="1.32557" stroke-linecap="round" stroke-linejoin="round"/>
<path d="M38.9507 28.2098V38.2288" stroke="white" stroke-width="1.32557" stroke-linecap="round" stroke-linejoin="round"/>
<path d="M33.2256 21.0538V16.76" stroke="white" stroke-width="1.32557" stroke-linecap="round" stroke-linejoin="round"/>
</svg>
