<svg width="66" height="61" viewBox="0 0 66 61" fill="none" xmlns="http://www.w3.org/2000/svg">
<circle cx="15.7592" cy="44.7324" r="15.7666" fill="#DDDDDD"/>
<path d="M52.6078 2.12608C52.707 1.82077 53.1389 1.82077 53.2381 2.12608L53.8502 4.00994C53.8946 4.14648 54.0218 4.23893 54.1654 4.23893H56.1462C56.4672 4.23893 56.6007 4.64972 56.341 4.83842L54.7385 6.00271C54.6223 6.08709 54.5737 6.23667 54.6181 6.37321L55.2302 8.25707C55.3294 8.56239 54.98 8.81627 54.7203 8.62758L53.1177 7.46329C53.0016 7.3789 52.8443 7.3789 52.7282 7.46329L51.1257 8.62758C50.866 8.81627 50.5165 8.56239 50.6157 8.25707L51.2278 6.37321C51.2722 6.23667 51.2236 6.08709 51.1074 6.00271L49.5049 4.83842C49.2452 4.64972 49.3787 4.23893 49.6997 4.23893H51.6805C51.8241 4.23893 51.9513 4.14648 51.9957 4.00994L52.6078 2.12608Z" fill="#141414"/>
<path d="M19.6761 52.1109C19.8565 52.2913 19.7739 52.5993 19.5275 52.6653L12.6945 54.4962C12.4481 54.5623 12.2226 54.3368 12.2886 54.0904L14.1195 47.2574C14.1855 47.0109 14.4936 46.9284 14.6739 47.1088L19.6761 52.1109Z" fill="#4EAF4E"/>
<circle cx="60.7068" cy="16.8655" r="4.80984" fill="#DADADA"/>
<path d="M20.7381 41.851C23.2658 46.229 27.4291 49.4236 32.3122 50.7321C37.1953 52.0405 42.3981 51.3555 46.7762 48.8278C51.1543 46.3002 54.3489 42.1368 55.6573 37.2538C56.9657 32.3707 56.2808 27.1678 53.7531 22.7897L37.2456 32.3203L20.7381 41.851Z" fill="#FFCC4A"/>
<path d="M37.0947 31.7706V12.5218" stroke="#141414" stroke-width="1.32557" stroke-linecap="round" stroke-linejoin="round"/>
<path d="M53.7571 22.1464L20.4326 41.3952" stroke="#141414" stroke-width="1.32557" stroke-linecap="round" stroke-linejoin="round"/>
<path d="M18.1672 35.2996C17.9484 34.1362 17.8409 32.9545 17.8464 31.7707C17.8439 27.7898 19.0769 23.9062 21.3755 20.656C23.674 17.4057 26.9247 14.9489 30.6789 13.6247V28.0613L18.1672 35.2996Z" fill="#4EAF4E" stroke="#141414" stroke-width="1.32557" stroke-linecap="round" stroke-linejoin="round"/>
<path d="M18.1672 35.2996C17.9484 34.1362 17.8409 32.9545 17.8464 31.7707C17.8439 27.7898 19.0769 23.9062 21.3755 20.656C23.674 17.4057 26.9247 14.9489 30.6789 13.6247V28.0613L18.1672 35.2996Z" stroke="#141414" stroke-width="1.32557" stroke-linecap="round" stroke-linejoin="round"/>
<path d="M37.0947 12.5218C40.4676 12.5222 43.7812 13.4088 46.7035 15.0929C49.6259 16.777 52.0544 19.1994 53.7459 22.1175C55.4374 25.0356 56.3324 28.3469 56.3413 31.7197C56.3502 35.0926 55.4727 38.4086 53.7966 41.3356C52.1206 44.2625 49.7049 46.6977 46.7915 48.3972C43.8781 50.0967 40.5692 51.0009 37.1964 51.0191C33.8236 51.0373 30.5052 50.1689 27.5736 48.5009C24.642 46.833 22.2002 44.424 20.4927 41.5153" stroke="#141414" stroke-width="1.32557" stroke-linecap="round" stroke-linejoin="round"/>
</svg>
