<svg width="650" height="415" viewBox="0 0 638 515" fill="none" xmlns="http://www.w3.org/2000/svg">
<g clip-path="url(#clip0_316_5159)">
<path d="M638.071 452.583H-53V452.928H638.071V452.583Z" fill="#EBEBEB"/>
<path d="M274.582 390.939H7.68988C3.33613 390.939 -0.202148 387.401 -0.202148 383.047V7.89203C-0.202148 3.53828 3.33613 0 7.68988 0H274.582C278.935 0 282.474 3.53828 282.474 7.89203V383.047C282.474 387.401 278.935 390.939 274.582 390.939ZM7.68988 0.345536C3.52963 0.345536 0.143387 3.73178 0.143387 7.89203V383.047C0.143387 387.207 3.52963 390.593 7.68988 390.593H274.582C278.742 390.593 282.128 387.207 282.128 383.047V7.89203C282.128 3.73178 278.742 0.345536 274.582 0.345536H7.68988Z" fill="#EBEBEB"/>
<path d="M573.539 390.939H306.647C302.293 390.939 298.755 387.401 298.755 383.047V7.89203C298.755 3.53828 302.293 0 306.647 0H573.539C577.893 0 581.431 3.53828 581.431 7.89203V383.047C581.431 387.401 577.893 390.939 573.539 390.939ZM306.647 0.345536C302.487 0.345536 299.101 3.73178 299.101 7.89203V383.047C299.101 387.207 302.487 390.593 306.647 390.593H573.539C577.699 390.593 581.085 387.207 581.085 383.047V7.89203C581.085 3.73178 577.699 0.345536 573.539 0.345536H306.647Z" fill="#EBEBEB"/>
<path d="M224.036 465.74H188.101V466.086H224.036V465.74Z" fill="#EBEBEB"/>
<path d="M94.281 461.995H19.5071V462.34H94.281V461.995Z" fill="#EBEBEB"/>
<path d="M186.719 478.581H150.341V478.926H186.719V478.581Z" fill="#EBEBEB"/>
<path d="M357.579 476.259H303.91V476.604H357.579V476.259Z" fill="#EBEBEB"/>
<path d="M384.655 476.259H369.88V476.604H384.655V476.259Z" fill="#EBEBEB"/>
<path d="M568.839 470.412H493.43V470.758H568.839V470.412Z" fill="#EBEBEB"/>
<path d="M258.397 50.1717H53.3145V266.588H258.397V50.1717Z" fill="#E6E6E6"/>
<path d="M280.387 43.1642H40.0459C38.9264 43.1642 38.0142 44.0765 38.0142 45.196C38.0142 46.3155 38.9264 47.2277 40.0459 47.2277H280.387C281.506 47.2277 282.418 46.3155 282.418 45.196C282.418 44.0765 281.506 43.1642 280.387 43.1642Z" fill="#E6E6E6"/>
<path d="M267.118 50.1717H57.3918V266.588H267.118V50.1717Z" fill="#F0F0F0"/>
<path d="M258.397 266.588H53.3145V274.673H258.397V266.588Z" fill="#E6E6E6"/>
<path d="M281.603 266.588H71.8767V274.673H281.603V266.588Z" fill="#F0F0F0"/>
<path d="M254.928 254.411V62.3622L69.5686 62.3622V254.411H254.928Z" fill="#FAFAFA"/>
<path d="M111.641 254.411L183.153 62.3484H216.905L145.407 254.411H111.641Z" fill="white"/>
<path d="M152.649 254.411L224.161 62.3484H237.319L165.807 254.411H152.649Z" fill="white"/>
<path d="M254.928 254.397V62.3484H253.38V254.397H254.928Z" fill="#E6E6E6"/>
<g opacity="0.6">
<path d="M64.5376 235.006H38.7883L52.665 39.5154H78.4143L64.5376 235.006Z" fill="#F0F0F0"/>
<path d="M74.5721 235.006H54.5034L68.3801 39.5154H88.4488L74.5721 235.006Z" fill="#E6E6E6"/>
<path d="M90.2871 235.006H64.5378L78.4146 39.5154H104.164L90.2871 235.006Z" fill="#F0F0F0"/>
<path d="M100.321 235.006H80.2527L94.1432 39.5154H114.198L100.321 235.006Z" fill="#E6E6E6"/>
<path d="M116.036 235.006H90.2871L104.164 39.5154H129.927L116.036 235.006Z" fill="#F0F0F0"/>
</g>
<g opacity="0.6">
<path d="M262.861 235.006H277.415L269.579 39.5154H255.025L262.861 235.006Z" fill="#F0F0F0"/>
<path d="M257.194 235.006H268.528L260.691 39.5154H249.344L257.194 235.006Z" fill="#E6E6E6"/>
<path d="M248.307 235.006H262.861L255.025 39.5154H240.471L248.307 235.006Z" fill="#F0F0F0"/>
<path d="M242.641 235.006H253.974L246.137 39.5154H234.79L242.641 235.006Z" fill="#E6E6E6"/>
<path d="M233.753 235.006H248.307L240.47 39.5154H225.917L233.753 235.006Z" fill="#F0F0F0"/>
</g>
<path d="M536.705 39.5154H394.883V228.067H536.705V39.5154Z" fill="#E6E6E6"/>
<path d="M547.472 39.5154H399.306V228.067H547.472V39.5154Z" fill="#F5F5F5"/>
<path d="M418.501 47.2329L405.313 210.429L528.254 220.364L541.442 57.1677L418.501 47.2329Z" fill="white"/>
<path d="M538.403 56.9204L525.216 220.117L528.246 220.362L541.434 57.1653L538.403 56.9204Z" fill="#E6E6E6"/>
<path d="M555.295 298.501H476.084V452.569H555.295V298.501Z" fill="#F5F5F5"/>
<path d="M555.295 298.501H548.757V452.569H555.295V298.501Z" fill="#F0F0F0"/>
<path d="M299.806 368.106H482.193V302.91H299.806V368.106Z" fill="#E6E6E6"/>
<path d="M308.583 310.07L555.281 310.07V298.515L308.583 298.515V310.07Z" fill="#F0F0F0"/>
<path d="M308.596 298.501H229.385V452.569H308.596V298.501Z" fill="#F5F5F5"/>
<path d="M232.247 347.595H232.606C243.124 347.595 251.666 356.137 251.666 366.655V452.569H213.187V366.655C213.187 356.137 221.729 347.595 232.247 347.595Z" fill="#E6E6E6"/>
<path d="M308.596 298.501H302.059V452.569H308.596V298.501Z" fill="#F0F0F0"/>
<path d="M397.744 298.501H380.661L384.808 265.247H401.905L397.744 298.501Z" fill="#F0F0F0"/>
<path d="M401.531 298.501H384.434L388.595 265.247H405.678L401.531 298.501Z" fill="#F5F5F5"/>
<path d="M403.605 281.874H386.508L388.595 265.247H405.678L403.605 281.874Z" fill="#F0F0F0"/>
<path d="M340.814 277.893H461.696C462.705 277.893 463.479 277.009 463.355 276.014L454.039 201.489C453.929 200.646 453.224 200.024 452.381 200.024H331.498C330.489 200.024 329.715 200.908 329.84 201.903L339.155 276.428C339.266 277.272 339.971 277.893 340.814 277.893Z" fill="#F0F0F0"/>
<path d="M342.611 277.893H463.493C464.502 277.893 465.276 277.009 465.152 276.014L455.836 201.489C455.725 200.646 455.021 200.024 454.177 200.024H333.295C332.286 200.024 331.512 200.908 331.637 201.903L340.952 276.428C341.063 277.272 341.768 277.893 342.611 277.893Z" fill="#F5F5F5"/>
<path d="M461.254 273.775L452.533 204.018C452.505 203.783 452.298 203.603 452.063 203.603H335.991C335.714 203.603 335.493 203.852 335.521 204.129L344.242 273.885C344.27 274.12 344.477 274.3 344.712 274.3H460.784C461.061 274.3 461.282 274.051 461.254 273.775Z" fill="#E6E6E6"/>
<path d="M448.87 274.3L418.186 203.603H391.276L421.96 274.3H448.87Z" fill="#EBEBEB"/>
<path d="M416.776 274.3L386.093 203.603H376.404L407.088 274.3H416.776Z" fill="#EBEBEB"/>
<path d="M417.081 298.501H389.244V298.156C389.244 296.622 390.488 295.378 392.022 295.378H414.316C415.851 295.378 417.094 296.622 417.094 298.156V298.501H417.081Z" fill="#F5F5F5"/>
<path d="M392.465 298.501H373.585V298.156C373.585 296.622 374.829 295.378 376.363 295.378H389.7C391.235 295.378 392.479 296.622 392.479 298.156V298.501H392.465Z" fill="#F0F0F0"/>
<path d="M447.833 298.501H361.781L359.459 291.604H436.638L447.833 298.501Z" fill="#F5F5F5"/>
<path d="M371.249 298.501H357.027L355.105 291.604H369.328L371.249 298.501Z" fill="#F0F0F0"/>
<path d="M343.868 298.515H319.377C319.377 295.322 321.961 292.738 325.154 292.738H338.091C341.284 292.738 343.868 295.322 343.868 298.515Z" fill="#F0F0F0"/>
<path d="M70.3147 452.582H94.3225L94.3225 341.002H70.3147L70.3147 452.582Z" fill="#E0E0E0"/>
<path d="M176.906 452.582H79.8515L67.8545 320.726H164.909L176.906 452.582Z" fill="#E6E6E6"/>
<path d="M181.936 452.582H84.8824L72.8716 320.726H169.939L181.936 452.582Z" fill="#F0F0F0"/>
<path d="M98.1511 437.987L88.8079 335.321H156.671L166.014 437.987H98.1511Z" fill="white"/>
<path d="M292.536 515C440.539 515 560.519 507.995 560.519 499.354C560.519 490.713 440.539 483.708 292.536 483.708C144.532 483.708 24.552 490.713 24.552 499.354C24.552 507.995 144.532 515 292.536 515Z" fill="#F5F5F5"/>
<path d="M83.9422 168.683L82.5608 168.728L83.162 187.142L84.5434 187.097L83.9422 168.683Z" fill="#407BFF"/>
<path d="M83.4246 152.791L82.0432 152.836L82.3292 161.595L83.7106 161.549L83.4246 152.791Z" fill="#407BFF"/>
<path d="M102.076 285.993H365.872C371.843 285.993 376.556 281.114 376.362 275.143L370.488 95.1467C370.295 89.1758 365.25 84.2968 359.279 84.2968H95.4972C89.5263 84.2968 84.8132 89.1758 85.0067 95.1467L90.8808 275.143C91.0743 281.114 96.1192 285.993 102.09 285.993H102.076Z" fill="#407BFF"/>
<path d="M102.919 285.993H366.715C372.686 285.993 377.399 281.114 377.206 275.143L371.331 95.1467C371.138 89.1758 366.093 84.2968 360.122 84.2968H96.3405C90.3696 84.2968 85.6565 89.1758 85.85 95.1467L91.7241 275.143C91.9176 281.114 96.9624 285.993 102.933 285.993H102.919Z" fill="#407BFF"/>
<path opacity="0.5" d="M102.919 285.993H366.715C372.686 285.993 377.399 281.114 377.206 275.143L371.331 95.1467C371.138 89.1758 366.093 84.2968 360.122 84.2968H96.3405C90.3696 84.2968 85.6565 89.1758 85.85 95.1467L91.7241 275.143C91.9176 281.114 96.9624 285.993 102.933 285.993H102.919Z" fill="white"/>
<path opacity="0.5" d="M359.473 89.7148H95.6634C95.3594 89.7148 95.0691 89.7148 94.7789 89.7563C88.0202 90.3091 88.9877 100.565 95.7878 100.565H360.04C366.84 100.565 367.144 90.3091 360.344 89.7563C360.053 89.7286 359.749 89.7148 359.459 89.7148H359.473Z" fill="#407BFF"/>
<path d="M102.325 95.1328C102.367 96.5011 101.289 97.6207 99.9203 97.6207C98.552 97.6207 97.391 96.5011 97.3495 95.1328C97.3081 93.7645 98.3861 92.645 99.7545 92.645C101.123 92.645 102.284 93.7645 102.325 95.1328Z" fill="#FAFAFA"/>
<path d="M110.784 95.1328C110.825 96.5011 109.747 97.6207 108.379 97.6207C107.011 97.6207 105.85 96.5011 105.808 95.1328C105.767 93.7645 106.845 92.645 108.213 92.645C109.582 92.645 110.743 93.7645 110.784 95.1328Z" fill="#FAFAFA"/>
<path d="M119.243 95.1328C119.284 96.5011 118.206 97.6207 116.838 97.6207C115.469 97.6207 114.308 96.5011 114.267 95.1328C114.226 93.7645 115.304 92.645 116.672 92.645C118.04 92.645 119.201 93.7645 119.243 95.1328Z" fill="#FAFAFA"/>
<path d="M108.033 268.025H360.426C362.596 268.025 364.296 266.27 364.227 264.086L359.403 116.058C359.334 113.889 357.51 112.119 355.34 112.119H102.947C100.777 112.119 99.077 113.875 99.1461 116.058L103.97 264.086C104.039 266.256 105.863 268.025 108.033 268.025Z" fill="white"/>
<g opacity="0.3">
<path d="M293.268 249.698H288.652V248.399H291.914L291.803 245.137L293.116 245.095L293.268 249.698Z" fill="#407BFF"/>
<path d="M281.313 249.698H273.973V248.385H281.313V249.698ZM266.634 249.698H259.295V248.385H266.634V249.698ZM251.956 249.698H244.617V248.385H251.956V249.698ZM237.278 249.698H229.938V248.385H237.278V249.698ZM222.599 249.698H215.26V248.385H222.599V249.698ZM207.921 249.698H200.582V248.385H207.921V249.698ZM193.242 249.698H185.903V248.385H193.242V249.698Z" fill="#407BFF"/>
<path d="M178.578 249.698H174.003L173.865 245.137L175.164 245.095L175.275 248.399H178.578V249.698Z" fill="#407BFF"/>
<path d="M173.616 237.798L173.381 230.458L174.694 230.417L174.929 237.756L173.616 237.798ZM173.132 223.119L172.898 215.78L174.211 215.739L174.446 223.078L173.132 223.119ZM172.649 208.441L172.414 201.102L173.727 201.06L173.962 208.399L172.649 208.441ZM172.165 193.763L171.93 186.423L173.243 186.382L173.478 193.721L172.165 193.763ZM171.681 179.084L171.446 171.745L172.759 171.704L172.994 179.043L171.681 179.084ZM171.197 164.406L170.962 157.067L172.276 157.025L172.511 164.364L171.197 164.406ZM170.714 149.727L170.479 142.388L171.792 142.347L172.027 149.686L170.714 149.727Z" fill="#407BFF"/>
<path d="M170.271 135.049L170.119 130.447H174.722V131.76H171.474L171.57 135.008L170.271 135.049Z" fill="#407BFF"/>
<path d="M277.47 131.76H270.131V130.447H277.47V131.76ZM262.792 131.76H255.453V130.447H262.792V131.76ZM248.114 131.76H240.774V130.447H248.114V131.76ZM233.435 131.76H226.096V130.447H233.435V131.76ZM218.757 131.76H211.418V130.447H218.757V131.76ZM204.079 131.76H196.739V130.447H204.079V131.76ZM189.4 131.76H182.061V130.447H189.4V131.76Z" fill="#407BFF"/>
<path d="M288.209 135.049L288.099 131.76H284.809V130.447H289.37L289.522 135.008L288.209 135.049Z" fill="#407BFF"/>
<path d="M291.568 237.798L291.333 230.458L292.646 230.417L292.881 237.756L291.568 237.798ZM291.084 223.119L290.849 215.78L292.162 215.739L292.397 223.078L291.084 223.119ZM290.601 208.441L290.366 201.102L291.679 201.06L291.914 208.399L290.601 208.441ZM290.117 193.763L289.882 186.423L291.195 186.382L291.43 193.721L290.117 193.763ZM289.633 179.084L289.398 171.745L290.711 171.704L290.946 179.043L289.633 179.084ZM289.149 164.406L288.914 157.067L290.227 157.025L290.462 164.364L289.149 164.406ZM288.666 149.727L288.431 142.388L289.744 142.347L289.979 149.686L288.666 149.727Z" fill="#407BFF"/>
</g>
<path d="M257.733 208.786H209.483C200.264 208.786 192.51 201.281 192.206 192.063C191.929 183.631 197.983 176.527 206.179 175.394C208.28 167.267 215.688 161.476 224.244 161.476C231.168 161.476 237.512 165.097 241.134 171.012C242.64 170.543 244.216 170.308 245.819 170.308C254.292 170.308 261.534 176.928 262.405 185.276C266.676 187.308 269.578 191.648 269.73 196.361C269.841 199.678 268.652 202.788 266.372 205.138C264.105 207.487 261.023 208.773 257.719 208.773L257.733 208.786ZM224.258 164.71C216.836 164.71 210.464 169.962 209.096 177.191L208.861 178.421L207.617 178.504C200.554 178.96 195.205 184.875 195.44 191.966C195.689 199.471 201.991 205.566 209.483 205.566H257.733C260.166 205.566 262.419 204.626 264.063 202.912C265.722 201.198 266.593 198.918 266.51 196.485C266.385 192.698 263.898 189.243 260.304 187.902L259.309 187.529L259.267 186.465C258.977 179.347 252.951 173.556 245.833 173.556C244.161 173.556 242.543 173.874 241.023 174.495L239.669 175.048L238.991 173.749C236.089 168.179 230.45 164.724 224.258 164.724V164.71Z" fill="#407BFF"/>
<path d="M243.829 193.127L230.519 180.231L218.052 193.127H225.349L225.792 206.451H236.973L236.531 193.127H243.829Z" fill="#407BFF"/>
<path d="M454.177 140.771C455.449 142.596 456.471 144.157 457.536 145.871C458.586 147.544 459.581 149.244 460.549 150.971C462.484 154.399 464.28 157.91 465.939 161.531C467.584 165.152 469.132 168.842 470.417 172.699C471.758 176.513 472.85 180.522 473.665 184.654L474.204 187.805L474.273 188.192L474.342 188.69C474.398 189.174 474.453 189.588 474.481 190.127C474.494 190.653 474.522 191.15 474.481 191.758L474.411 192.629L474.259 193.597C474.163 194.205 473.942 194.951 473.734 195.615C473.458 196.333 473.181 197.024 472.767 197.715C471.993 199.098 470.859 200.328 469.712 201.198C467.349 203.009 465.206 203.52 463.479 203.852C461.723 204.142 460.3 204.142 458.973 204.073C457.646 204.004 456.444 203.852 455.296 203.645C453.03 203.216 450.957 202.65 448.98 202.028C445.027 200.728 441.392 199.194 437.868 197.467C434.329 195.739 430.985 193.915 427.626 191.745L431.607 182.926C438.586 184.64 445.815 186.52 452.449 187.432C454.094 187.667 455.697 187.819 457.135 187.833C458.517 187.861 459.885 187.709 460.106 187.501C460.189 187.432 459.885 187.336 458.959 187.944C458.545 188.234 458.047 188.759 457.701 189.312C457.536 189.616 457.397 189.851 457.301 190.141C457.19 190.349 457.149 190.653 457.093 190.791L457.01 191.233C457.01 191.385 456.983 191.399 456.983 191.468C456.983 191.537 456.955 191.496 456.955 191.523C456.955 191.565 456.927 191.427 456.9 191.344L456.817 191.053L456.195 188.731C454.343 182.498 451.62 176.154 448.427 169.948C446.865 166.825 445.152 163.756 443.41 160.688C442.539 159.154 441.627 157.647 440.743 156.141C439.858 154.676 438.877 153.072 438.075 151.801L454.191 140.757L454.177 140.771Z" fill="#FFB573"/>
<path d="M433.224 183.631L427.239 177.661L421.268 190.943C421.268 190.943 426.907 194.067 431.938 191.786L433.224 183.631Z" fill="#FFB573"/>
<path d="M418.366 172.892L413.943 184.115L421.268 190.943L427.226 177.647L418.366 172.892Z" fill="#FFB573"/>
<path d="M438.608 145.207L323.533 124.937L303.263 240.012L418.338 260.282L438.608 145.207Z" fill="#407BFF"/>
<path opacity="0.6" d="M438.608 145.207L323.533 124.937L303.263 240.012L418.338 260.282L438.608 145.207Z" fill="white"/>
<path d="M432.012 149.827L328.14 131.531L309.843 235.403L413.716 253.699L432.012 149.827Z" fill="white"/>
<path opacity="0.3" d="M377.01 184.575C385.82 178.405 387.959 166.261 381.788 157.452C375.617 148.643 363.474 146.504 354.665 152.674C345.855 158.845 343.716 170.989 349.887 179.798C356.058 188.607 368.201 190.746 377.01 184.575Z" fill="#407BFF"/>
<path opacity="0.2" d="M390.198 196.997L355.381 221.364L339.376 198.503L313.102 216.914L309.84 235.407L413.708 253.706L416.97 235.213L390.198 196.997Z" fill="#407BFF"/>
<path d="M395.906 98.9061C395.92 99.8321 395.45 100.578 394.856 100.592C394.261 100.606 393.75 99.8736 393.736 98.9475C393.722 98.0215 394.192 97.2752 394.787 97.2613C395.381 97.2613 395.892 97.9801 395.906 98.9061Z" fill="#263238"/>
<path d="M395.546 100.578C395.546 100.578 393.57 105.927 391.317 108.54C392.976 110.018 395.726 109.272 395.726 109.272L395.546 100.578Z" fill="#FF5652"/>
<path d="M399.154 93.7369C399.016 93.7645 398.878 93.7369 398.753 93.654C396.79 92.2995 394.98 93.0044 394.897 93.032C394.621 93.1426 394.303 93.0044 394.192 92.7279C394.081 92.4515 394.206 92.1336 394.482 92.023C394.579 91.9816 396.901 91.0555 399.361 92.7556C399.61 92.9214 399.665 93.267 399.499 93.5019C399.417 93.6263 399.292 93.7092 399.154 93.7231V93.7369Z" fill="#263238"/>
<path d="M422.554 102.417C421.973 110.903 422.637 128.028 429.119 132.824C429.119 132.824 427.529 139.735 412.146 141.67C395.229 143.798 403.01 134.289 403.01 134.289C411.966 130.93 410.861 124.103 408.442 117.883L422.54 102.417H422.554Z" fill="#FFB573"/>
<path d="M464.46 469.403C464.46 469.403 464.391 469.376 464.35 469.362C464.073 469.237 463.755 468.919 463.769 468.215C463.769 467.841 463.935 467.523 464.239 467.261C465.538 466.155 469.325 466.639 469.491 466.667C469.602 466.68 469.685 466.749 469.712 466.86C469.74 466.957 469.712 467.067 469.63 467.136C468.745 467.897 465.815 469.873 464.46 469.403ZM468.773 467.136C467.487 467.04 465.372 467.026 464.598 467.675C464.419 467.828 464.322 468.007 464.322 468.228C464.308 468.74 464.516 468.836 464.585 468.864C465.317 469.21 467.39 468.159 468.773 467.123V467.136Z" fill="#407BFF"/>
<path d="M467.556 466.791C466.229 466.335 464.82 465.547 464.585 464.745C464.516 464.524 464.488 464.082 465.027 463.723C465.373 463.488 465.773 463.419 466.202 463.501C467.874 463.847 469.616 466.667 469.685 466.791C469.74 466.874 469.74 466.984 469.685 467.067C469.63 467.15 469.547 467.206 469.45 467.206C468.98 467.206 468.275 467.04 467.542 466.791H467.556ZM466.285 464.096C466.285 464.096 466.16 464.054 466.105 464.04C465.815 463.971 465.566 464.027 465.345 464.179C465.055 464.372 465.096 464.538 465.124 464.607C465.345 465.34 467.487 466.362 468.938 466.611C468.413 465.865 467.321 464.455 466.299 464.096H466.285Z" fill="#407BFF"/>
<path d="M380.536 488.297C379.071 488.297 377.662 488.09 377.192 487.44C377.026 487.205 376.901 486.818 377.219 486.265C377.399 485.947 377.689 485.74 378.076 485.629C379.97 485.118 383.964 487.385 384.13 487.482C384.227 487.537 384.282 487.647 384.268 487.758C384.254 487.869 384.171 487.951 384.061 487.979C383.328 488.131 381.932 488.297 380.564 488.297H380.536ZM378.726 486.086C378.532 486.086 378.366 486.099 378.201 486.141C377.952 486.21 377.772 486.334 377.675 486.514C377.482 486.846 377.551 487.012 377.62 487.108C378.145 487.841 381.034 487.855 383.149 487.565C382.084 487.025 380.053 486.072 378.712 486.072L378.726 486.086Z" fill="#407BFF"/>
<path d="M383.978 487.979C383.978 487.979 383.909 487.979 383.868 487.952C382.485 487.33 379.763 484.869 379.97 483.584C380.025 483.28 380.233 482.907 380.979 482.824C381.532 482.768 382.029 482.921 382.472 483.294C383.923 484.482 384.227 487.551 384.241 487.689C384.241 487.786 384.213 487.882 384.13 487.938C384.089 487.965 384.033 487.993 383.978 487.993V487.979ZM381.2 483.363C381.2 483.363 381.089 483.363 381.034 483.363C380.55 483.418 380.523 483.598 380.509 483.667C380.385 484.441 382.237 486.376 383.646 487.219C383.494 486.321 383.094 484.482 382.14 483.708C381.85 483.473 381.546 483.363 381.2 483.363Z" fill="#407BFF"/>
<path d="M396.514 487.703H385.111L383.978 461.304H395.381L396.514 487.703Z" fill="#FFB573"/>
<path d="M481.778 463.626L471.205 466.528L457.674 441.774L468.247 438.872L481.778 463.626Z" fill="#FFB573"/>
<path d="M469.616 465.367L481.018 459.535C481.433 459.327 481.944 459.424 482.234 459.783L488.855 467.786C489.546 468.615 489.256 469.873 488.288 470.357C484.266 472.32 482.221 473.08 477.203 475.65C474.121 477.226 464.944 484.054 460.314 485.256C455.78 486.431 453.887 482.036 455.67 481.138C463.686 477.06 466.934 470.384 468.275 466.846C468.524 466.21 468.994 465.685 469.602 465.381L469.616 465.367Z" fill="#263238"/>
<path d="M385.194 486.39H397.647C398.117 486.39 398.518 486.708 398.615 487.164L400.868 497.295C401.103 498.345 400.301 499.34 399.223 499.327C394.731 499.244 388.235 498.981 382.596 498.981C375.989 498.981 370.295 499.34 362.555 499.34C357.869 499.34 356.57 494.613 358.533 494.185C367.448 492.236 374.731 492.029 382.444 487.274C383.287 486.763 384.213 486.39 385.194 486.39Z" fill="#263238"/>
<path d="M434.177 153.929C435.366 156.998 436.679 159.983 437.992 162.775C440.259 167.612 442.526 171.856 444.17 174.772C445.635 177.398 446.603 178.96 446.603 178.96L471.509 166.603C471.509 166.603 461.475 137.758 450.998 134.538C440.259 131.276 428.801 140.149 434.177 153.902V153.929Z" fill="#263238"/>
<path opacity="0.2" d="M445.221 156.79C443.051 158.38 441.503 162.678 440.397 167.723C441.821 170.501 443.12 172.906 444.184 174.786C445.649 177.426 446.603 178.987 446.603 178.987L449.464 177.564C449.27 170.888 448.206 163.383 445.221 156.79Z" fill="black"/>
<path d="M381.518 172.325C381.518 176.209 381.615 180.48 381.822 185.179C382.375 197.964 383.771 213.914 386.452 233.72H447.432C447.847 224.363 441.973 178.683 450.998 134.565C450.998 134.565 440.535 132.464 430.57 131.995C422.775 131.621 411.497 131.373 404.655 131.995C395.616 132.838 387.116 135.16 387.116 135.16C387.116 135.16 381.49 141.504 381.518 172.339V172.325Z" fill="#263238"/>
<path d="M397.205 154.233C396.127 156.5 395.201 158.103 394.178 159.776C393.169 161.407 392.16 162.968 391.096 164.489C388.995 167.543 386.798 170.46 384.489 173.321C379.873 179.015 374.883 184.447 369.106 189.464C366.231 191.98 363.094 194.357 359.569 196.527L358.215 197.315L357.855 197.522L357.358 197.771L356.349 198.254C354.994 198.835 353.626 199.291 352.285 199.567C349.59 200.12 347.061 200.162 344.725 199.954C340.067 199.457 336.156 198.033 332.59 196.319C330.821 195.435 329.121 194.495 327.504 193.417C325.859 192.353 324.421 191.261 322.791 189.892L327.683 181.544C333.654 183.106 340.413 184.516 345.057 183.853C346.19 183.714 347.144 183.438 347.793 183.092C348.125 182.913 348.374 182.747 348.581 182.581C348.623 182.526 348.678 182.484 348.719 182.443L348.789 182.387L348.982 182.249L349.825 181.655C352.078 179.996 354.331 177.978 356.542 175.795C360.951 171.413 365.153 166.396 369.106 161.227C371.083 158.628 373.004 155.975 374.828 153.321C375.727 151.98 376.625 150.653 377.454 149.354C378.256 148.069 379.113 146.701 379.541 145.857L397.191 154.233H397.205Z" fill="#FFB573"/>
<path d="M330.157 182.761L319.639 177.771L318.686 191.883C318.686 191.883 326.854 193.293 331.194 190.1L330.157 182.761Z" fill="#FFB573"/>
<path d="M306.385 180.162L310.434 190.915L318.686 191.869L319.639 177.771L306.385 180.162Z" fill="#FFB573"/>
<path d="M404.738 146.756C404.378 157.647 381.932 182.761 381.932 182.761L358.215 167.267C358.215 167.267 365.734 153.197 375.492 143.024C390.225 127.668 405.152 133.681 404.724 146.756H404.738Z" fill="#263238"/>
<path opacity="0.2" d="M383.978 461.304L384.559 474.918H395.975L395.395 461.304H383.978Z" fill="black"/>
<path opacity="0.2" d="M468.247 438.872L457.674 441.774L464.654 454.545L475.227 451.629L468.247 438.872Z" fill="black"/>
<path d="M426.534 96.3215C426.078 107.627 426.382 114.276 420.798 120.191C412.395 129.092 398.352 124.213 395.422 112.99C392.782 102.9 393.971 86.0936 404.931 81.3667C415.726 76.7089 426.976 85.0156 426.52 96.3215H426.534Z" fill="#FFB573"/>
<path d="M404.033 101.712C399.969 98.8093 395.975 92.8247 396.279 88.3742C392.52 88.2221 389.976 82.0025 392.05 77.4691C393.349 80.3854 397.841 78.2431 399.596 75.9349C398.656 73.7096 398.808 70.0193 405.263 67.4071C404.724 69.2868 405 72.4519 411.483 70.1713C419.347 67.4071 433.182 69.2453 429.133 78.6162C434.675 79.6114 441.862 91.0417 435.753 97.0678C429.644 103.094 428.386 112.783 423.162 113.792C417.937 114.801 404.351 115.132 404.047 101.712H404.033Z" fill="#263238"/>
<path d="M425.442 78.2431C429.077 76.5845 434.924 77.2894 438.075 81.7952C433.79 80.0399 431.33 78.8927 425.442 78.2431Z" fill="#263238"/>
<path d="M407.005 101.228C406.922 103.882 405.761 106.397 404.323 108.07C402.167 110.585 399.804 109.12 399.334 106.148C398.905 103.467 399.513 98.9475 402.195 97.5101C404.835 96.1003 407.101 98.1874 407.005 101.214V101.228Z" fill="#FFB573"/>
<path d="M408.083 233.72C408.083 233.72 402.706 320.007 412.906 351.824C429.063 402.217 457.853 453.702 457.853 453.702L478.447 447.51C478.447 447.51 455.794 393.164 448.344 350.719C441.655 312.585 447.432 264.874 447.432 233.734H408.083V233.72Z" fill="#407BFF"/>
<path opacity="0.2" d="M407.212 252.946C412.962 251.26 417.454 251.895 418.615 257.023C421.655 270.389 412.533 305.647 407.986 321.777C406.148 298.667 406.576 271.024 407.198 252.946H407.212Z" fill="black"/>
<path d="M452.035 447.786C451.952 447.814 457.411 454.158 457.411 454.158L479.913 447.386L477.052 439.77L452.035 447.773V447.786Z" fill="#263238"/>
<path d="M386.452 233.72C386.452 233.72 369.272 306.518 368.069 341.292C366.715 380.296 380.329 472.278 380.329 472.278H399.651C399.651 472.278 402.029 379.578 402.886 344.057C403.825 305.329 426.548 233.72 426.548 233.72H386.452Z" fill="#407BFF"/>
<path d="M376.597 464.593C376.515 464.593 377.689 472.61 377.689 472.61H401.186L401.822 465.45L376.597 464.593Z" fill="#263238"/>
<path d="M394.98 129.313C397.592 128.401 417.523 125.872 431.98 126.646C440.231 127.088 444.889 127.986 448.261 129.617C451.634 131.248 445.594 139.472 442.802 140.467C443.935 143.618 437.647 147.64 434.053 149.548C432.616 152.506 418.49 155.242 410.183 148.884C403.812 143.992 387.516 131.898 394.98 129.313Z" fill="#407BFF"/>
</g>
<defs>
<clipPath id="clip0_316_5159">
<rect width="638" height="515" fill="white"/>
</clipPath>
</defs>
</svg>
