<svg width="123" height="123" viewBox="0 0 123 123" fill="none" xmlns="http://www.w3.org/2000/svg">
<g filter="url(#filter0_d_509_1927)">
<circle cx="61.7109" cy="61.5" r="36" fill="white"/>
</g>
<path d="M61.5391 69.7344C65.2497 69.7344 68.2578 66.7263 68.2578 63.0156C68.2578 59.305 65.2497 56.2969 61.5391 56.2969C57.8284 56.2969 54.8203 59.305 54.8203 63.0156C54.8203 66.7263 57.8284 69.7344 61.5391 69.7344Z" stroke="#6B77E5" stroke-width="2" stroke-linecap="round" stroke-linejoin="round"/>
<path d="M72.9609 58.9844C74.526 58.9818 76.07 59.3449 77.4698 60.0448C78.8696 60.7447 80.0865 61.762 81.0234 63.0156" stroke="#6B77E5" stroke-width="2" stroke-linecap="round" stroke-linejoin="round"/>
<path d="M42.0547 63.0156C42.9916 61.762 44.2085 60.7447 45.6083 60.0448C47.0081 59.3449 48.5521 58.9818 50.1172 58.9844" stroke="#6B77E5" stroke-width="2" stroke-linecap="round" stroke-linejoin="round"/>
<path d="M51.8633 75.7812C52.7482 73.969 54.1243 72.4417 55.8348 71.3734C57.5453 70.3051 59.5215 69.7386 61.5383 69.7386C63.555 69.7386 65.5312 70.3051 67.2418 71.3734C68.9523 72.4417 70.3284 73.969 71.2133 75.7812" stroke="#6B77E5" stroke-width="2" stroke-linecap="round" stroke-linejoin="round"/>
<path d="M50.1168 58.9844C49.0966 58.9854 48.0972 58.6961 47.2354 58.1502C46.3735 57.6044 45.6848 56.8245 45.2497 55.9018C44.8146 54.9791 44.6511 53.9515 44.7783 52.9393C44.9054 51.9271 45.318 50.972 45.9679 50.1856C46.6177 49.3991 47.4779 48.8139 48.448 48.4982C49.4181 48.1825 50.458 48.1494 51.4462 48.4028C52.4345 48.6561 53.3302 49.1855 54.0287 49.929C54.7272 50.6725 55.1997 51.5995 55.391 52.6016" stroke="#6B77E5" stroke-width="2" stroke-linecap="round" stroke-linejoin="round"/>
<path d="M67.6875 52.6016C67.8788 51.5995 68.3513 50.6725 69.0498 49.929C69.7484 49.1855 70.644 48.6561 71.6323 48.4028C72.6205 48.1494 73.6604 48.1825 74.6305 48.4982C75.6006 48.8139 76.4608 49.3991 77.1106 50.1856C77.7605 50.972 78.1731 51.9271 78.3002 52.9393C78.4274 53.9515 78.2639 54.9791 77.8288 55.9018C77.3937 56.8245 76.705 57.6044 75.8431 58.1502C74.9813 58.6961 73.9819 58.9854 72.9617 58.9844" stroke="#6B77E5" stroke-width="2" stroke-linecap="round" stroke-linejoin="round"/>
<defs>
<filter id="filter0_d_509_1927" x="0.710938" y="0.5" width="122" height="122" filterUnits="userSpaceOnUse" color-interpolation-filters="sRGB">
<feFlood flood-opacity="0" result="BackgroundImageFix"/>
<feColorMatrix in="SourceAlpha" type="matrix" values="0 0 0 0 0 0 0 0 0 0 0 0 0 0 0 0 0 0 127 0" result="hardAlpha"/>
<feMorphology radius="11" operator="dilate" in="SourceAlpha" result="effect1_dropShadow_509_1927"/>
<feOffset/>
<feGaussianBlur stdDeviation="7"/>
<feComposite in2="hardAlpha" operator="out"/>
<feColorMatrix type="matrix" values="0 0 0 0 0.945833 0 0 0 0 0.945833 0 0 0 0 0.945833 0 0 0 0.44 0"/>
<feBlend mode="multiply" in2="BackgroundImageFix" result="effect1_dropShadow_509_1927"/>
<feBlend mode="normal" in="SourceGraphic" in2="effect1_dropShadow_509_1927" result="shape"/>
</filter>
</defs>
</svg>
