<svg width="123" height="123" viewBox="0 0 123 123" fill="none" xmlns="http://www.w3.org/2000/svg">
<g filter="url(#filter0_d_509_1898)">
<circle cx="61.0195" cy="61.5" r="36" fill="#6B77E5"/>
</g>
<path d="M80.2798 61.4405L76.0586 63.5425L70.5898 53.0835L74.8623 50.9473C75.1798 50.7855 75.5484 50.7557 75.8878 50.8646C76.2271 50.9734 76.5097 51.212 76.6738 51.5284L80.8779 59.5777C80.9632 59.7388 81.0153 59.9154 81.0314 60.0969C81.0474 60.2785 81.0269 60.4615 80.9712 60.6351C80.9155 60.8086 80.8256 60.9693 80.7068 61.1076C80.5881 61.2459 80.4429 61.3591 80.2798 61.4405V61.4405Z" stroke="white" stroke-width="2" stroke-linecap="round" stroke-linejoin="round"/>
<path d="M45.981 63.3714L41.7598 61.2523C41.5973 61.1726 41.4525 61.0611 41.3339 60.9244C41.2153 60.7876 41.1255 60.6284 41.0697 60.4562C41.0139 60.284 40.9933 60.1024 41.0091 59.922C41.0249 59.7417 41.0768 59.5664 41.1617 59.4066L45.3658 51.3573C45.5303 51.0412 45.8116 50.8018 46.15 50.69C46.4884 50.5783 46.857 50.6031 47.1773 50.7591L51.4498 52.8954L45.981 63.3714Z" stroke="white" stroke-width="2" stroke-linecap="round" stroke-linejoin="round"/>
<path d="M76.0586 63.5426L73.3242 66.7555L67.0352 73.0446C66.8638 73.2048 66.6561 73.3212 66.4299 73.3837C66.2037 73.4462 65.9657 73.453 65.7363 73.4034L55.8242 70.9254C55.6432 70.8749 55.4744 70.7877 55.3286 70.6691L45.9805 63.3717" stroke="white" stroke-width="2" stroke-linecap="round" stroke-linejoin="round"/>
<path d="M73.3248 66.7553L65.8053 61.2865L63.6178 62.9271C62.6701 63.6345 61.5191 64.0166 60.3365 64.0166C59.1539 64.0166 58.003 63.6345 57.0553 62.9271L56.1324 62.2264C55.9764 62.1078 55.8473 61.9574 55.7537 61.7851C55.6602 61.6128 55.6043 61.4227 55.5898 61.2272C55.5752 61.0317 55.6024 60.8353 55.6694 60.6511C55.7364 60.4669 55.8418 60.299 55.9786 60.1586L62.6778 53.4764C62.8037 53.3512 62.953 53.2521 63.1172 53.1846C63.2814 53.1172 63.4573 53.0828 63.6349 53.0834H70.5904" stroke="white" stroke-width="2" stroke-linecap="round" stroke-linejoin="round"/>
<path d="M51.5508 52.8955L60.3179 50.332C60.6294 50.2427 60.9625 50.2669 61.2578 50.4004L67.1709 53.0835" stroke="white" stroke-width="2" stroke-linecap="round" stroke-linejoin="round"/>
<path d="M58.2852 77.0093L53.1411 75.7104C52.9315 75.6631 52.7374 75.5631 52.5771 75.4199L48.7148 72.0703" stroke="white" stroke-width="2" stroke-linecap="round" stroke-linejoin="round"/>
<defs>
<filter id="filter0_d_509_1898" x="0.0195312" y="0.5" width="122" height="122" filterUnits="userSpaceOnUse" color-interpolation-filters="sRGB">
<feFlood flood-opacity="0" result="BackgroundImageFix"/>
<feColorMatrix in="SourceAlpha" type="matrix" values="0 0 0 0 0 0 0 0 0 0 0 0 0 0 0 0 0 0 127 0" result="hardAlpha"/>
<feMorphology radius="11" operator="dilate" in="SourceAlpha" result="effect1_dropShadow_509_1898"/>
<feOffset/>
<feGaussianBlur stdDeviation="7"/>
<feComposite in2="hardAlpha" operator="out"/>
<feColorMatrix type="matrix" values="0 0 0 0 0.945833 0 0 0 0 0.945833 0 0 0 0 0.945833 0 0 0 0.44 0"/>
<feBlend mode="multiply" in2="BackgroundImageFix" result="effect1_dropShadow_509_1898"/>
<feBlend mode="normal" in="SourceGraphic" in2="effect1_dropShadow_509_1898" result="shape"/>
</filter>
</defs>
</svg>

