<svg width="87" height="87" viewBox="0 0 87 87" fill="none" xmlns="http://www.w3.org/2000/svg">
<rect width="87" height="87" rx="43.5" fill="#FED8FF"/>
<path d="M28.2142 37.8462H59.7858M51.3333 37.92L55 29.24L44 28M51.3333 37.92L44 28M51.3333 37.92L44 59L36.6667 37.92M44 28L36.6667 37.92M44 28L33 29.24L36.6667 37.92M27.2594 38.7854L43.0263 59.5132C43.1409 59.6646 43.2883 59.7873 43.4571 59.8717C43.626 59.9561 43.8117 60 44 60C44.1883 60 44.374 59.9561 44.5429 59.8717C44.7117 59.7873 44.8591 59.6646 44.9737 59.5132L60.7406 38.7854C60.8956 38.5809 60.9855 38.3333 60.9984 38.0757C61.0113 37.818 60.9465 37.5625 60.8127 37.3431L55.4644 28.5931C55.3543 28.412 55.2004 28.2625 55.0172 28.1587C54.8341 28.0549 54.6277 28.0002 54.4179 28H33.5821C33.3723 28.0002 33.1659 28.0549 32.9828 28.1587C32.7996 28.2625 32.6457 28.412 32.5355 28.5931L27.1873 37.3431C27.0535 37.5625 26.9887 37.818 27.0016 38.0757C27.0145 38.3333 27.1044 38.5809 27.2594 38.7854Z" stroke="#E174E3" stroke-width="2" stroke-linecap="round" stroke-linejoin="round"/>
</svg>
