<svg width="817" height="811" viewBox="0 0 817 811" fill="none" xmlns="http://www.w3.org/2000/svg">
<rect width="816" height="804" rx="40" fill="url(#paint0_linear_432_2506)"/>
<path d="M815.367 4.12091L566.942 629.191C565.65 632.444 560.683 631.152 561.026 627.669C595.633 275.928 506.165 2.18118 424.94 0.0129138L423 0.012914C423.646 -0.00442007 424.293 -0.0043591 424.94 0.0129138L812.579 0.0128788C814.699 0.0128786 816.15 2.15118 815.367 4.12091Z" fill="white" fillOpacity="0.2"/>
<path d="M41.5391 799.917L202.395 375.333C203.674 371.956 208.892 373.433 208.385 377.008C160.421 715.226 253.401 802.481 310.031 803.98L313 803.98C312.022 804.006 311.032 804.007 310.031 803.98L44.3446 803.98C42.2456 803.98 40.7955 801.88 41.5391 799.917Z" fill="white" fillOpacity="0.2"/>
<path d="M75 124C75 107.984 87.9837 95 104 95H473C489.569 95 503 108.431 503 125V804H75V124Z" fill="#F1F1F1"/>
<path d="M632.501 197C591.334 253.667 546.001 388.3 694.001 473.5C751 523.5 694.5 573 646 668" stroke="white" stroke-width="1.5" stroke-dasharray="6 6"/>
<g filter="url(#filter0_d_432_2506)">
<circle cx="646" cy="665" r="32" fill="#F2A4F9"/>
</g>
<path fill-rule="evenodd" clip-rule="evenodd" d="M648.807 669.009C644.235 671.271 640.673 673.894 642.043 676.663C643.413 679.431 647.647 678.227 652.243 675.953C656.815 673.69 660.376 671.066 659.007 668.299C657.637 665.532 653.404 666.734 648.807 669.009Z" stroke="#C557CF" stroke-width="2" stroke-linecap="round" stroke-linejoin="round"/>
<path fill-rule="evenodd" clip-rule="evenodd" d="M646.853 665.059C649.853 663.575 651.081 659.938 649.596 656.938C648.112 653.938 644.476 652.709 641.476 654.194C638.476 655.679 637.246 659.315 638.731 662.315C640.201 665.31 643.821 666.547 646.815 665.078L646.853 665.059Z" stroke="#C557CF" stroke-width="2" stroke-linecap="round" stroke-linejoin="round"/>
<g filter="url(#filter1_d_432_2506)">
<circle cx="590" cy="343" r="32" fill="#8FF8DF"/>
</g>
<path d="M604 343C604 335.268 597.731 329 590 329C582.268 329 576 335.268 576 343C576 350.733 582.268 357 590 357C597.731 357 604 350.733 604 343Z" stroke="#3FC9A8" stroke-width="2" stroke-linecap="round" stroke-linejoin="round"/>
<path d="M595.105 342.993C595.105 342.494 594.822 342.085 594.649 341.862C594.438 341.591 594.162 341.317 593.867 341.056C593.272 340.532 592.494 339.972 591.713 339.48C590.933 338.989 590.11 338.54 589.417 338.251C589.077 338.109 588.724 337.987 588.401 337.93C588.24 337.902 588.042 337.881 587.834 337.905C587.632 337.928 587.325 338.005 587.067 338.26C586.891 338.434 586.791 338.637 586.735 338.769C586.673 338.916 586.625 339.074 586.586 339.226C586.509 339.531 586.451 339.896 586.405 340.282C586.314 341.06 586.267 342.019 586.263 342.966C586.259 343.913 586.298 344.879 586.387 345.666C586.432 346.058 586.491 346.43 586.572 346.745C586.613 346.902 586.664 347.065 586.73 347.217C586.791 347.357 586.894 347.556 587.068 347.727L587.77 347.016L587.066 347.726C587.31 347.968 587.6 348.056 587.813 348.088C588.025 348.119 588.229 348.104 588.397 348.078C588.732 348.027 589.094 347.906 589.438 347.764C590.139 347.476 590.964 347.023 591.741 346.527C592.52 346.029 593.292 345.463 593.883 344.932C594.176 344.669 594.449 344.393 594.657 344.12C594.828 343.895 595.105 343.487 595.105 342.993Z" stroke="#3FC9A8" stroke-width="2" stroke-linecap="round" stroke-linejoin="round"/>
<g filter="url(#filter2_d_432_2506)">
<circle cx="625" cy="204" r="32" fill="#9B99FF"/>
</g>
<path fill-rule="evenodd" clip-rule="evenodd" d="M630.711 192.423L630.98 198.007C631.007 198.555 631.302 199.058 631.772 199.351L636.567 202.35C637.752 203.092 637.578 204.847 636.274 205.321L631 207.244C630.482 207.433 630.094 207.863 629.962 208.395L628.617 213.804C628.283 215.141 626.542 215.505 625.671 214.418L622.143 210.023C621.797 209.592 621.26 209.355 620.707 209.389L615.082 209.741C613.692 209.829 612.788 208.297 613.553 207.15L616.644 202.512C616.949 202.057 617.005 201.48 616.796 200.97L614.664 195.777C614.137 194.494 615.318 193.183 616.663 193.559L622.109 195.083C622.643 195.233 623.215 195.114 623.638 194.764L627.945 191.202C629.01 190.321 630.645 191.043 630.711 192.423Z" stroke="#6D6ADC" stroke-width="2" stroke-linecap="round" stroke-linejoin="round"/>
<g filter="url(#filter3_d_432_2506)">
<circle cx="710" cy="493" r="32" fill="#FCF9B3"/>
</g>
<path d="M703.585 501.549L704.7 498.26C704.983 497.424 705.896 496.975 706.742 497.256L709.837 498.305C710.686 498.592 711.144 499.507 710.859 500.347L709.741 503.646C709.5 504.356 709.876 505.131 710.587 505.39L712.651 506.089C714.708 506.786 716.934 505.701 717.624 503.664L720.794 494.309C721.055 493.504 720.93 492.623 720.455 491.917L715.305 483.898C714.401 482.5 712.644 481.904 711.076 482.465L702.14 485.722C701.332 485.992 700.696 486.616 700.416 487.415L697.249 496.76C696.559 498.797 697.667 501.012 699.724 501.709L701.788 502.408C702.523 502.657 703.318 502.269 703.565 501.542" stroke="#ABA860" stroke-width="2" stroke-linecap="round" stroke-linejoin="round"/>
<g filter="url(#filter4_d_432_2506)">
<rect x="101" y="715" width="366" height="58" rx="15" fill="white"/>
</g>
<path d="M429 744C429 743.605 429.278 743.279 429.636 743.231L429.727 743.225H444.273C444.568 743.225 444.832 743.414 444.945 743.704C444.982 743.799 445 743.9 445 744C445 744.168 444.949 744.334 444.85 744.471L444.786 744.549L438.919 750.774C438.635 751.076 438.174 751.075 437.891 750.772C437.632 750.494 437.61 750.058 437.828 749.755L437.893 749.676L442.512 744.775H429.727C429.326 744.775 429 744.428 429 744ZM437.893 738.324C437.608 738.022 437.608 737.532 437.891 737.228C438.151 736.95 438.559 736.926 438.845 737.157L438.92 737.226L442.155 740.659C442.298 740.811 442.369 741.01 442.369 741.209C442.369 741.407 442.298 741.604 442.157 741.756C441.897 742.034 441.489 742.058 441.204 741.827L441.129 741.758L437.893 738.324Z" fill="#141414"/>
<path d="M169.914 740.895C169.914 742.195 169.469 743.197 168.578 743.9C167.693 744.598 166.425 744.946 164.772 744.946H163.261V750H161.767V737.15H165.098C168.309 737.15 169.914 738.398 169.914 740.895ZM163.261 743.663H164.605C165.93 743.663 166.888 743.449 167.479 743.021C168.071 742.594 168.367 741.908 168.367 740.965C168.367 740.115 168.089 739.482 167.532 739.066C166.976 738.65 166.108 738.442 164.931 738.442H163.261V743.663ZM178.804 750V743.769C178.804 742.983 178.626 742.397 178.268 742.011C177.911 741.624 177.351 741.431 176.59 741.431C175.576 741.431 174.835 741.706 174.366 742.257C173.903 742.808 173.672 743.71 173.672 744.964V750H172.213V736.324H173.672V740.464C173.672 740.962 173.648 741.375 173.601 741.703H173.689C173.976 741.24 174.383 740.877 174.911 740.613C175.444 740.344 176.05 740.209 176.73 740.209C177.908 740.209 178.79 740.49 179.376 741.053C179.967 741.609 180.263 742.497 180.263 743.716V750H178.804ZM191.404 745.175C191.404 746.745 191.008 747.973 190.217 748.857C189.426 749.736 188.333 750.176 186.939 750.176C186.077 750.176 185.313 749.974 184.645 749.569C183.977 749.165 183.461 748.585 183.098 747.829C182.735 747.073 182.553 746.188 182.553 745.175C182.553 743.604 182.946 742.383 183.731 741.51C184.516 740.631 185.606 740.191 187 740.191C188.348 740.191 189.417 740.64 190.208 741.536C191.005 742.433 191.404 743.646 191.404 745.175ZM184.065 745.175C184.065 746.405 184.311 747.343 184.803 747.987C185.295 748.632 186.019 748.954 186.974 748.954C187.929 748.954 188.653 748.635 189.145 747.996C189.643 747.352 189.892 746.411 189.892 745.175C189.892 743.95 189.643 743.021 189.145 742.389C188.653 741.75 187.923 741.431 186.956 741.431C186.001 741.431 185.281 741.744 184.794 742.371C184.308 742.998 184.065 743.933 184.065 745.175ZM196.901 748.972C197.159 748.972 197.408 748.954 197.648 748.919C197.889 748.878 198.079 748.837 198.22 748.796V749.912C198.062 749.988 197.827 750.05 197.517 750.097C197.212 750.149 196.937 750.176 196.69 750.176C194.827 750.176 193.896 749.194 193.896 747.231V741.501H192.516V740.798L193.896 740.191L194.511 738.135H195.355V740.367H198.149V741.501H195.355V747.17C195.355 747.75 195.492 748.195 195.768 748.506C196.043 748.816 196.421 748.972 196.901 748.972ZM208.288 745.175C208.288 746.745 207.892 747.973 207.101 748.857C206.31 749.736 205.217 750.176 203.823 750.176C202.962 750.176 202.197 749.974 201.529 749.569C200.861 749.165 200.345 748.585 199.982 747.829C199.619 747.073 199.437 746.188 199.437 745.175C199.437 743.604 199.83 742.383 200.615 741.51C201.4 740.631 202.49 740.191 203.884 740.191C205.232 740.191 206.301 740.64 207.092 741.536C207.889 742.433 208.288 743.646 208.288 745.175ZM200.949 745.175C200.949 746.405 201.195 747.343 201.687 747.987C202.179 748.632 202.903 748.954 203.858 748.954C204.813 748.954 205.537 748.635 206.029 747.996C206.527 747.352 206.776 746.411 206.776 745.175C206.776 743.95 206.527 743.021 206.029 742.389C205.537 741.75 204.807 741.431 203.841 741.431C202.885 741.431 202.165 741.744 201.678 742.371C201.192 742.998 200.949 743.933 200.949 745.175ZM218.558 740.367V741.29L216.774 741.501C216.938 741.706 217.084 741.976 217.213 742.31C217.342 742.638 217.407 743.01 217.407 743.426C217.407 744.369 217.084 745.122 216.44 745.685C215.795 746.247 214.911 746.528 213.786 746.528C213.498 746.528 213.229 746.505 212.977 746.458C212.356 746.786 212.045 747.199 212.045 747.697C212.045 747.961 212.154 748.157 212.371 748.286C212.587 748.409 212.959 748.471 213.487 748.471H215.192C216.235 748.471 217.035 748.69 217.591 749.13C218.154 749.569 218.435 750.208 218.435 751.046C218.435 752.112 218.007 752.924 217.152 753.48C216.296 754.043 215.048 754.324 213.408 754.324C212.148 754.324 211.175 754.09 210.49 753.621C209.81 753.152 209.47 752.49 209.47 751.635C209.47 751.049 209.658 750.542 210.033 750.114C210.408 749.687 210.935 749.396 211.615 749.244C211.369 749.133 211.161 748.96 210.991 748.726C210.827 748.491 210.745 748.219 210.745 747.908C210.745 747.557 210.838 747.249 211.026 746.985C211.213 746.722 211.509 746.467 211.913 746.221C211.415 746.016 211.008 745.667 210.692 745.175C210.381 744.683 210.226 744.12 210.226 743.487C210.226 742.433 210.542 741.621 211.175 741.053C211.808 740.479 212.704 740.191 213.865 740.191C214.369 740.191 214.823 740.25 215.227 740.367H218.558ZM210.876 751.617C210.876 752.139 211.096 752.534 211.536 752.804C211.975 753.073 212.605 753.208 213.425 753.208C214.65 753.208 215.555 753.023 216.141 752.654C216.733 752.291 217.029 751.796 217.029 751.169C217.029 750.647 216.868 750.284 216.545 750.079C216.223 749.88 215.617 749.78 214.726 749.78H212.977C212.315 749.78 211.799 749.938 211.43 750.255C211.061 750.571 210.876 751.025 210.876 751.617ZM211.667 743.452C211.667 744.126 211.858 744.636 212.239 744.981C212.62 745.327 213.15 745.5 213.829 745.5C215.253 745.5 215.965 744.809 215.965 743.426C215.965 741.979 215.245 741.255 213.803 741.255C213.118 741.255 212.59 741.439 212.221 741.809C211.852 742.178 211.667 742.726 211.667 743.452ZM224.75 740.191C225.178 740.191 225.562 740.227 225.901 740.297L225.699 741.65C225.301 741.562 224.949 741.519 224.645 741.519C223.865 741.519 223.197 741.835 222.641 742.468C222.09 743.101 221.815 743.889 221.815 744.832V750H220.356V740.367H221.56L221.727 742.151H221.797C222.154 741.524 222.585 741.041 223.089 740.701C223.593 740.361 224.147 740.191 224.75 740.191ZM233.447 750L233.157 748.629H233.087C232.606 749.232 232.126 749.643 231.645 749.859C231.171 750.07 230.576 750.176 229.861 750.176C228.906 750.176 228.156 749.93 227.611 749.438C227.072 748.945 226.802 748.245 226.802 747.337C226.802 745.392 228.358 744.372 231.469 744.278L233.104 744.226V743.628C233.104 742.872 232.94 742.315 232.612 741.958C232.29 741.595 231.771 741.413 231.056 741.413C230.254 741.413 229.345 741.659 228.332 742.151L227.884 741.035C228.358 740.777 228.877 740.575 229.439 740.429C230.008 740.282 230.576 740.209 231.144 740.209C232.293 740.209 233.142 740.464 233.693 740.974C234.25 741.483 234.528 742.301 234.528 743.426V750H233.447ZM230.151 748.972C231.059 748.972 231.771 748.723 232.287 748.225C232.808 747.727 233.069 747.029 233.069 746.133V745.263L231.61 745.324C230.45 745.365 229.612 745.547 229.096 745.869C228.587 746.186 228.332 746.681 228.332 747.354C228.332 747.882 228.49 748.283 228.806 748.559C229.129 748.834 229.577 748.972 230.151 748.972ZM241.845 750.176C241.218 750.176 240.644 750.062 240.122 749.833C239.607 749.599 239.173 749.241 238.822 748.761H238.716C238.787 749.323 238.822 749.856 238.822 750.36V754.324H237.363V740.367H238.549L238.751 741.686H238.822C239.197 741.158 239.633 740.777 240.131 740.543C240.629 740.309 241.201 740.191 241.845 740.191C243.122 740.191 244.107 740.628 244.798 741.501C245.496 742.374 245.844 743.599 245.844 745.175C245.844 746.757 245.49 747.987 244.781 748.866C244.078 749.739 243.099 750.176 241.845 750.176ZM241.634 741.431C240.65 741.431 239.938 741.703 239.498 742.248C239.059 742.793 238.833 743.66 238.822 744.85V745.175C238.822 746.528 239.047 747.498 239.498 748.084C239.95 748.664 240.673 748.954 241.669 748.954C242.501 748.954 243.152 748.617 243.621 747.943C244.095 747.27 244.332 746.341 244.332 745.157C244.332 743.956 244.095 743.036 243.621 742.397C243.152 741.753 242.49 741.431 241.634 741.431ZM254.814 750V743.769C254.814 742.983 254.635 742.397 254.277 742.011C253.92 741.624 253.36 741.431 252.599 741.431C251.585 741.431 250.844 741.706 250.375 742.257C249.912 742.808 249.681 743.71 249.681 744.964V750H248.222V736.324H249.681V740.464C249.681 740.962 249.657 741.375 249.61 741.703H249.698C249.985 741.24 250.393 740.877 250.92 740.613C251.453 740.344 252.06 740.209 252.739 740.209C253.917 740.209 254.799 740.49 255.385 741.053C255.977 741.609 256.273 742.497 256.273 743.716V750H254.814ZM257.569 740.367H259.134L261.243 745.86C261.706 747.114 261.993 748.02 262.104 748.576H262.175C262.251 748.277 262.409 747.768 262.649 747.047C262.895 746.32 263.692 744.094 265.04 740.367H266.604L262.465 751.336C262.054 752.42 261.574 753.188 261.023 753.639C260.478 754.096 259.807 754.324 259.011 754.324C258.565 754.324 258.126 754.274 257.692 754.175V753.006C258.014 753.076 258.375 753.111 258.773 753.111C259.775 753.111 260.49 752.549 260.918 751.424L261.454 750.053L257.569 740.367Z" fill="#141414"/>
<path d="M122 734V731H124V734H127V736H124V739H122V736H119V734H122ZM125 740V737H128V734H135L136.83 736H140C141.1 736 142 736.9 142 738V750C142 751.1 141.1 752 140 752H124C122.9 752 122 751.1 122 750V740H125ZM132 749C134.76 749 137 746.76 137 744C137 741.24 134.76 739 132 739C129.24 739 127 741.24 127 744C127 746.76 129.24 749 132 749ZM128.8 744C128.8 745.77 130.23 747.2 132 747.2C133.77 747.2 135.2 745.77 135.2 744C135.2 742.23 133.77 740.8 132 740.8C130.23 740.8 128.8 742.23 128.8 744Z" fill="#1EA1FF"/>
<g filter="url(#filter5_d_432_2506)">
<rect x="101" y="641" width="366" height="58" rx="15" fill="white"/>
</g>
<path d="M429 669C429 668.605 429.278 668.279 429.636 668.231L429.727 668.225H444.273C444.568 668.225 444.832 668.414 444.945 668.704C444.982 668.799 445 668.9 445 669C445 669.168 444.949 669.334 444.85 669.471L444.786 669.549L438.919 675.774C438.635 676.076 438.174 676.075 437.891 675.772C437.632 675.494 437.61 675.058 437.828 674.755L437.893 674.676L442.512 669.775H429.727C429.326 669.775 429 669.428 429 669ZM437.893 663.324C437.608 663.022 437.608 662.532 437.891 662.228C438.151 661.95 438.559 661.926 438.845 662.157L438.92 662.226L442.155 665.659C442.298 665.811 442.369 666.01 442.369 666.209C442.369 666.407 442.298 666.604 442.157 666.756C441.897 667.034 441.489 667.058 441.204 666.827L441.129 666.758L437.893 663.324Z" fill="#141414"/>
<path d="M161.767 675V662.15H163.261V675H161.767ZM170.569 675H169.075V663.478H165.006V662.15H174.638V663.478H170.569V675ZM188.147 671.581C188.147 672.712 187.737 673.594 186.917 674.227C186.097 674.859 184.983 675.176 183.577 675.176C182.054 675.176 180.882 674.979 180.062 674.587V673.146C180.589 673.368 181.163 673.544 181.784 673.673C182.405 673.802 183.021 673.866 183.63 673.866C184.626 673.866 185.376 673.679 185.88 673.304C186.384 672.923 186.636 672.396 186.636 671.722C186.636 671.276 186.545 670.913 186.363 670.632C186.188 670.345 185.889 670.081 185.467 669.841C185.051 669.601 184.415 669.328 183.56 669.023C182.364 668.596 181.509 668.089 180.993 667.503C180.483 666.917 180.229 666.152 180.229 665.209C180.229 664.219 180.601 663.431 181.345 662.845C182.089 662.259 183.073 661.966 184.298 661.966C185.575 661.966 186.75 662.2 187.822 662.669L187.356 663.97C186.296 663.524 185.265 663.302 184.263 663.302C183.472 663.302 182.854 663.472 182.408 663.812C181.963 664.151 181.74 664.623 181.74 665.227C181.74 665.672 181.822 666.038 181.986 666.325C182.15 666.606 182.426 666.867 182.813 667.107C183.205 667.342 183.803 667.603 184.606 667.89C185.953 668.37 186.879 668.886 187.383 669.437C187.893 669.987 188.147 670.702 188.147 671.581ZM194.445 675.176C193.021 675.176 191.896 674.742 191.07 673.875C190.25 673.008 189.84 671.804 189.84 670.263C189.84 668.71 190.22 667.477 190.982 666.562C191.75 665.648 192.778 665.191 194.067 665.191C195.274 665.191 196.229 665.59 196.932 666.387C197.635 667.178 197.987 668.224 197.987 669.524V670.447H191.351C191.381 671.578 191.665 672.437 192.204 673.022C192.749 673.608 193.513 673.901 194.498 673.901C195.535 673.901 196.56 673.685 197.574 673.251V674.552C197.058 674.774 196.569 674.933 196.106 675.026C195.649 675.126 195.095 675.176 194.445 675.176ZM194.05 666.413C193.276 666.413 192.658 666.665 192.195 667.169C191.738 667.673 191.468 668.37 191.386 669.261H196.423C196.423 668.341 196.218 667.638 195.807 667.151C195.397 666.659 194.811 666.413 194.05 666.413ZM204.153 675.176C202.758 675.176 201.677 674.748 200.91 673.893C200.148 673.031 199.767 671.815 199.767 670.245C199.767 668.634 200.154 667.389 200.927 666.51C201.706 665.631 202.814 665.191 204.249 665.191C204.712 665.191 205.175 665.241 205.638 665.341C206.101 665.44 206.464 665.558 206.728 665.692L206.28 666.932C205.957 666.803 205.606 666.697 205.225 666.615C204.844 666.527 204.507 666.483 204.214 666.483C202.257 666.483 201.279 667.731 201.279 670.228C201.279 671.411 201.516 672.319 201.991 672.952C202.471 673.585 203.18 673.901 204.118 673.901C204.92 673.901 205.744 673.729 206.587 673.383V674.675C205.943 675.009 205.131 675.176 204.153 675.176ZM211.813 673.972C212.07 673.972 212.319 673.954 212.56 673.919C212.8 673.878 212.99 673.837 213.131 673.796V674.912C212.973 674.988 212.738 675.05 212.428 675.097C212.123 675.149 211.848 675.176 211.602 675.176C209.738 675.176 208.807 674.194 208.807 672.231V666.501H207.427V665.798L208.807 665.191L209.422 663.135H210.266V665.367H213.061V666.501H210.266V672.17C210.266 672.75 210.403 673.195 210.679 673.506C210.954 673.816 211.332 673.972 211.813 673.972ZM223.199 670.175C223.199 671.745 222.803 672.973 222.012 673.857C221.221 674.736 220.129 675.176 218.734 675.176C217.873 675.176 217.108 674.974 216.44 674.569C215.772 674.165 215.257 673.585 214.893 672.829C214.53 672.073 214.348 671.188 214.348 670.175C214.348 668.604 214.741 667.383 215.526 666.51C216.311 665.631 217.401 665.191 218.796 665.191C220.143 665.191 221.213 665.64 222.004 666.536C222.801 667.433 223.199 668.646 223.199 670.175ZM215.86 670.175C215.86 671.405 216.106 672.343 216.598 672.987C217.091 673.632 217.814 673.954 218.769 673.954C219.724 673.954 220.448 673.635 220.94 672.996C221.438 672.352 221.687 671.411 221.687 670.175C221.687 668.95 221.438 668.021 220.94 667.389C220.448 666.75 219.719 666.431 218.752 666.431C217.797 666.431 217.076 666.744 216.59 667.371C216.103 667.998 215.86 668.933 215.86 670.175ZM229.98 665.191C230.408 665.191 230.791 665.227 231.131 665.297L230.929 666.65C230.531 666.562 230.179 666.519 229.874 666.519C229.095 666.519 228.427 666.835 227.871 667.468C227.32 668.101 227.044 668.889 227.044 669.832V675H225.585V665.367H226.789L226.956 667.151H227.027C227.384 666.524 227.815 666.041 228.319 665.701C228.823 665.361 229.376 665.191 229.98 665.191ZM238.967 672.372C238.967 673.269 238.633 673.96 237.965 674.446C237.297 674.933 236.359 675.176 235.152 675.176C233.875 675.176 232.879 674.974 232.164 674.569V673.216C232.627 673.45 233.122 673.635 233.65 673.77C234.183 673.904 234.695 673.972 235.188 673.972C235.949 673.972 236.535 673.852 236.945 673.611C237.356 673.365 237.561 672.993 237.561 672.495C237.561 672.12 237.397 671.801 237.068 671.537C236.746 671.268 236.113 670.951 235.17 670.588C234.274 670.254 233.635 669.964 233.254 669.718C232.879 669.466 232.598 669.182 232.41 668.865C232.229 668.549 232.138 668.171 232.138 667.731C232.138 666.946 232.457 666.328 233.096 665.877C233.734 665.42 234.61 665.191 235.724 665.191C236.761 665.191 237.775 665.402 238.765 665.824L238.246 667.011C237.279 666.612 236.403 666.413 235.618 666.413C234.927 666.413 234.405 666.521 234.054 666.738C233.702 666.955 233.526 667.254 233.526 667.635C233.526 667.893 233.591 668.112 233.72 668.294C233.855 668.476 234.068 668.648 234.361 668.812C234.654 668.977 235.217 669.214 236.049 669.524C237.192 669.94 237.962 670.359 238.36 670.781C238.765 671.203 238.967 671.733 238.967 672.372Z" fill="#141414"/>
<g clip-path="url(#clip0_432_2506)">
<path d="M139.667 676.5C140.858 676.5 141.823 675.525 141.823 674.333L141.833 662.417C141.833 661.225 140.858 660.25 139.667 660.25H122.333C121.142 660.25 120.167 661.225 120.167 662.417V674.333C120.167 675.525 121.142 676.5 122.333 676.5H118C118 677.692 118.975 678.667 120.167 678.667H141.833C143.025 678.667 144 677.692 144 676.5H139.667ZM122.333 662.417H139.667V674.333H122.333V662.417ZM131 677.583C130.404 677.583 129.917 677.096 129.917 676.5C129.917 675.904 130.404 675.417 131 675.417C131.596 675.417 132.083 675.904 132.083 676.5C132.083 677.096 131.596 677.583 131 677.583Z" fill="#1EA1FF"/>
</g>
<g filter="url(#filter6_d_432_2506)">
<rect x="101" y="566" width="366" height="58" rx="15" fill="white"/>
</g>
<path d="M429 595C429 594.605 429.278 594.279 429.636 594.231L429.727 594.225H444.273C444.568 594.225 444.832 594.414 444.945 594.704C444.982 594.799 445 594.9 445 595C445 595.168 444.949 595.334 444.85 595.471L444.786 595.549L438.919 601.774C438.635 602.076 438.174 602.075 437.891 601.772C437.632 601.494 437.61 601.058 437.828 600.755L437.893 600.676L442.512 595.775H429.727C429.326 595.775 429 595.428 429 595ZM437.893 589.324C437.608 589.022 437.608 588.532 437.891 588.228C438.151 587.95 438.559 587.926 438.845 588.157L438.92 588.226L442.155 591.659C442.298 591.811 442.369 592.01 442.369 592.209C442.369 592.407 442.298 592.604 442.157 592.756C441.897 593.034 441.489 593.058 441.204 592.827L441.129 592.758L437.893 589.324Z" fill="#141414"/>
<path d="M163.261 601H161.767V588.15H168.93V589.478H163.261V594.18H168.587V595.507H163.261V601ZM172.125 601H170.666V591.367H172.125V601ZM170.543 588.757C170.543 588.423 170.625 588.18 170.789 588.027C170.953 587.869 171.158 587.79 171.404 587.79C171.638 587.79 171.841 587.869 172.01 588.027C172.18 588.186 172.265 588.429 172.265 588.757C172.265 589.085 172.18 589.331 172.01 589.495C171.841 589.653 171.638 589.732 171.404 589.732C171.158 589.732 170.953 589.653 170.789 589.495C170.625 589.331 170.543 589.085 170.543 588.757ZM181.63 601V594.769C181.63 593.983 181.452 593.397 181.094 593.011C180.737 592.624 180.177 592.431 179.415 592.431C178.408 592.431 177.669 592.703 177.201 593.248C176.732 593.793 176.497 594.692 176.497 595.946V601H175.038V591.367H176.225L176.462 592.686H176.533C176.831 592.211 177.25 591.845 177.789 591.587C178.328 591.323 178.929 591.191 179.591 591.191C180.751 591.191 181.624 591.473 182.21 592.035C182.796 592.592 183.089 593.485 183.089 594.716V601H181.63ZM191.839 601L191.549 599.629H191.479C190.998 600.232 190.518 600.643 190.037 600.859C189.563 601.07 188.968 601.176 188.253 601.176C187.298 601.176 186.548 600.93 186.003 600.438C185.464 599.945 185.194 599.245 185.194 598.337C185.194 596.392 186.75 595.372 189.861 595.278L191.496 595.226V594.628C191.496 593.872 191.332 593.315 191.004 592.958C190.682 592.595 190.163 592.413 189.448 592.413C188.646 592.413 187.737 592.659 186.724 593.151L186.275 592.035C186.75 591.777 187.269 591.575 187.831 591.429C188.399 591.282 188.968 591.209 189.536 591.209C190.685 591.209 191.534 591.464 192.085 591.974C192.642 592.483 192.92 593.301 192.92 594.426V601H191.839ZM188.543 599.972C189.451 599.972 190.163 599.723 190.679 599.225C191.2 598.727 191.461 598.029 191.461 597.133V596.263L190.002 596.324C188.842 596.365 188.004 596.547 187.488 596.869C186.979 597.186 186.724 597.681 186.724 598.354C186.724 598.882 186.882 599.283 187.198 599.559C187.521 599.834 187.969 599.972 188.543 599.972ZM202.346 601V594.769C202.346 593.983 202.168 593.397 201.81 593.011C201.453 592.624 200.893 592.431 200.132 592.431C199.124 592.431 198.385 592.703 197.917 593.248C197.448 593.793 197.214 594.692 197.214 595.946V601H195.755V591.367H196.941L197.178 592.686H197.249C197.548 592.211 197.967 591.845 198.506 591.587C199.045 591.323 199.645 591.191 200.307 591.191C201.467 591.191 202.341 591.473 202.926 592.035C203.512 592.592 203.805 593.485 203.805 594.716V601H202.346ZM210.481 601.176C209.086 601.176 208.005 600.748 207.238 599.893C206.476 599.031 206.095 597.815 206.095 596.245C206.095 594.634 206.482 593.389 207.255 592.51C208.035 591.631 209.142 591.191 210.578 591.191C211.04 591.191 211.503 591.241 211.966 591.341C212.429 591.44 212.792 591.558 213.056 591.692L212.608 592.932C212.286 592.803 211.934 592.697 211.553 592.615C211.172 592.527 210.835 592.483 210.542 592.483C208.585 592.483 207.607 593.731 207.607 596.228C207.607 597.411 207.844 598.319 208.319 598.952C208.799 599.585 209.508 599.901 210.446 599.901C211.248 599.901 212.072 599.729 212.915 599.383V600.675C212.271 601.009 211.459 601.176 210.481 601.176ZM219.099 601.176C217.675 601.176 216.55 600.742 215.724 599.875C214.903 599.008 214.493 597.804 214.493 596.263C214.493 594.71 214.874 593.477 215.636 592.562C216.403 591.648 217.432 591.191 218.721 591.191C219.928 591.191 220.883 591.59 221.586 592.387C222.289 593.178 222.641 594.224 222.641 595.524V596.447H216.005C216.034 597.578 216.318 598.437 216.857 599.022C217.402 599.608 218.167 599.901 219.151 599.901C220.189 599.901 221.214 599.685 222.228 599.251V600.552C221.712 600.774 221.223 600.933 220.76 601.026C220.303 601.126 219.749 601.176 219.099 601.176ZM218.703 592.413C217.93 592.413 217.312 592.665 216.849 593.169C216.392 593.673 216.122 594.37 216.04 595.261H221.076C221.076 594.341 220.871 593.638 220.461 593.151C220.051 592.659 219.465 592.413 218.703 592.413ZM231.544 590.708C231.544 591.112 231.65 591.499 231.861 591.868C232.072 592.231 232.432 592.671 232.942 593.187C233.698 592.747 234.222 592.343 234.515 591.974C234.814 591.599 234.963 591.168 234.963 590.682C234.963 590.23 234.811 589.864 234.506 589.583C234.207 589.296 233.806 589.152 233.302 589.152C232.781 589.152 232.356 589.293 232.028 589.574C231.706 589.855 231.544 590.233 231.544 590.708ZM232.907 599.866C234.319 599.866 235.491 599.415 236.422 598.513L232.581 594.786C231.931 595.185 231.471 595.516 231.202 595.779C230.932 596.037 230.733 596.315 230.604 596.614C230.475 596.913 230.411 597.253 230.411 597.634C230.411 598.319 230.636 598.864 231.087 599.269C231.544 599.667 232.151 599.866 232.907 599.866ZM228.899 597.669C228.899 596.907 229.101 596.233 229.505 595.647C229.915 595.062 230.648 594.47 231.703 593.872C231.205 593.315 230.865 592.894 230.683 592.606C230.507 592.319 230.367 592.021 230.261 591.71C230.156 591.399 230.103 591.077 230.103 590.743C230.103 589.864 230.39 589.179 230.964 588.687C231.539 588.194 232.338 587.948 233.364 587.948C234.313 587.948 235.06 588.194 235.605 588.687C236.15 589.173 236.422 589.853 236.422 590.726C236.422 591.353 236.223 591.933 235.825 592.466C235.426 592.993 234.767 593.529 233.847 594.074L237.424 597.511C237.752 597.147 238.013 596.723 238.206 596.236C238.406 595.744 238.573 595.208 238.707 594.628H240.184C239.786 596.304 239.185 597.575 238.382 598.442L241.01 601H238.997L237.372 599.436C236.68 600.057 235.977 600.502 235.262 600.771C234.547 601.041 233.75 601.176 232.872 601.176C231.612 601.176 230.633 600.865 229.936 600.244C229.245 599.623 228.899 598.765 228.899 597.669ZM255.214 601L253.614 596.913H248.464L246.882 601H245.37L250.45 588.098H251.707L256.761 601H255.214ZM253.148 595.568L251.654 591.587C251.461 591.083 251.262 590.465 251.056 589.732C250.928 590.295 250.743 590.913 250.503 591.587L248.991 595.568H253.148ZM261.977 601.176C260.582 601.176 259.501 600.748 258.734 599.893C257.972 599.031 257.591 597.815 257.591 596.245C257.591 594.634 257.978 593.389 258.751 592.51C259.531 591.631 260.638 591.191 262.074 591.191C262.537 591.191 262.999 591.241 263.462 591.341C263.925 591.44 264.289 591.558 264.552 591.692L264.104 592.932C263.782 592.803 263.43 592.697 263.049 592.615C262.668 592.527 262.332 592.483 262.039 592.483C260.082 592.483 259.103 593.731 259.103 596.228C259.103 597.411 259.34 598.319 259.815 598.952C260.295 599.585 261.004 599.901 261.942 599.901C262.745 599.901 263.568 599.729 264.412 599.383V600.675C263.767 601.009 262.956 601.176 261.977 601.176ZM270.375 601.176C268.981 601.176 267.9 600.748 267.132 599.893C266.37 599.031 265.989 597.815 265.989 596.245C265.989 594.634 266.376 593.389 267.15 592.51C267.929 591.631 269.036 591.191 270.472 591.191C270.935 591.191 271.398 591.241 271.861 591.341C272.323 591.44 272.687 591.558 272.95 591.692L272.502 592.932C272.18 592.803 271.828 592.697 271.447 592.615C271.067 592.527 270.73 592.483 270.437 592.483C268.48 592.483 267.501 593.731 267.501 596.228C267.501 597.411 267.738 598.319 268.213 598.952C268.694 599.585 269.402 599.901 270.34 599.901C271.143 599.901 271.966 599.729 272.81 599.383V600.675C272.165 601.009 271.354 601.176 270.375 601.176ZM283.238 596.175C283.238 597.745 282.843 598.973 282.052 599.857C281.261 600.736 280.168 601.176 278.773 601.176C277.912 601.176 277.147 600.974 276.479 600.569C275.811 600.165 275.296 599.585 274.932 598.829C274.569 598.073 274.388 597.188 274.388 596.175C274.388 594.604 274.78 593.383 275.565 592.51C276.35 591.631 277.44 591.191 278.835 591.191C280.182 591.191 281.252 591.64 282.043 592.536C282.84 593.433 283.238 594.646 283.238 596.175ZM275.899 596.175C275.899 597.405 276.145 598.343 276.638 598.987C277.13 599.632 277.853 599.954 278.808 599.954C279.764 599.954 280.487 599.635 280.979 598.996C281.477 598.352 281.726 597.411 281.726 596.175C281.726 594.95 281.477 594.021 280.979 593.389C280.487 592.75 279.758 592.431 278.791 592.431C277.836 592.431 277.115 592.744 276.629 593.371C276.142 593.998 275.899 594.933 275.899 596.175ZM286.996 591.367V597.616C286.996 598.401 287.174 598.987 287.532 599.374C287.889 599.761 288.449 599.954 289.21 599.954C290.218 599.954 290.954 599.679 291.417 599.128C291.885 598.577 292.12 597.678 292.12 596.43V591.367H293.579V601H292.375L292.164 599.708H292.084C291.786 600.183 291.37 600.546 290.836 600.798C290.309 601.05 289.706 601.176 289.026 601.176C287.854 601.176 286.975 600.897 286.389 600.341C285.809 599.784 285.519 598.894 285.519 597.669V591.367H286.996ZM303.093 601V594.769C303.093 593.983 302.914 593.397 302.557 593.011C302.199 592.624 301.64 592.431 300.878 592.431C299.87 592.431 299.132 592.703 298.663 593.248C298.195 593.793 297.96 594.692 297.96 595.946V601H296.501V591.367H297.688L297.925 592.686H297.995C298.294 592.211 298.713 591.845 299.252 591.587C299.791 591.323 300.392 591.191 301.054 591.191C302.214 591.191 303.087 591.473 303.673 592.035C304.259 592.592 304.552 593.485 304.552 594.716V601H303.093ZM310.489 599.972C310.747 599.972 310.996 599.954 311.236 599.919C311.476 599.878 311.667 599.837 311.807 599.796V600.912C311.649 600.988 311.415 601.05 311.104 601.097C310.8 601.149 310.524 601.176 310.278 601.176C308.415 601.176 307.483 600.194 307.483 598.231V592.501H306.103V591.798L307.483 591.191L308.099 589.135H308.942V591.367H311.737V592.501H308.942V598.17C308.942 598.75 309.08 599.195 309.355 599.506C309.631 599.816 310.009 599.972 310.489 599.972ZM315.02 601H313.561V591.367H315.02V601ZM313.438 588.757C313.438 588.423 313.52 588.18 313.684 588.027C313.848 587.869 314.053 587.79 314.299 587.79C314.534 587.79 314.736 587.869 314.906 588.027C315.076 588.186 315.161 588.429 315.161 588.757C315.161 589.085 315.076 589.331 314.906 589.495C314.736 589.653 314.534 589.732 314.299 589.732C314.053 589.732 313.848 589.653 313.684 589.495C313.52 589.331 313.438 589.085 313.438 588.757ZM324.526 601V594.769C324.526 593.983 324.347 593.397 323.989 593.011C323.632 592.624 323.072 592.431 322.311 592.431C321.303 592.431 320.565 592.703 320.096 593.248C319.627 593.793 319.393 594.692 319.393 595.946V601H317.934V591.367H319.12L319.358 592.686H319.428C319.727 592.211 320.146 591.845 320.685 591.587C321.224 591.323 321.824 591.191 322.487 591.191C323.647 591.191 324.52 591.473 325.106 592.035C325.692 592.592 325.985 593.485 325.985 594.716V601H324.526ZM336.694 591.367V592.29L334.91 592.501C335.074 592.706 335.221 592.976 335.35 593.31C335.478 593.638 335.543 594.01 335.543 594.426C335.543 595.369 335.221 596.122 334.576 596.685C333.932 597.247 333.047 597.528 331.922 597.528C331.635 597.528 331.365 597.505 331.113 597.458C330.492 597.786 330.182 598.199 330.182 598.697C330.182 598.961 330.29 599.157 330.507 599.286C330.724 599.409 331.096 599.471 331.623 599.471H333.328C334.371 599.471 335.171 599.69 335.727 600.13C336.29 600.569 336.571 601.208 336.571 602.046C336.571 603.112 336.143 603.924 335.288 604.48C334.433 605.043 333.184 605.324 331.544 605.324C330.284 605.324 329.311 605.09 328.626 604.621C327.946 604.152 327.606 603.49 327.606 602.635C327.606 602.049 327.794 601.542 328.169 601.114C328.544 600.687 329.071 600.396 329.751 600.244C329.505 600.133 329.297 599.96 329.127 599.726C328.963 599.491 328.881 599.219 328.881 598.908C328.881 598.557 328.975 598.249 329.162 597.985C329.35 597.722 329.645 597.467 330.05 597.221C329.552 597.016 329.144 596.667 328.828 596.175C328.518 595.683 328.362 595.12 328.362 594.487C328.362 593.433 328.679 592.621 329.311 592.053C329.944 591.479 330.841 591.191 332.001 591.191C332.505 591.191 332.959 591.25 333.363 591.367H336.694ZM329.013 602.617C329.013 603.139 329.232 603.534 329.672 603.804C330.111 604.073 330.741 604.208 331.561 604.208C332.786 604.208 333.691 604.023 334.277 603.654C334.869 603.291 335.165 602.796 335.165 602.169C335.165 601.647 335.004 601.284 334.682 601.079C334.359 600.88 333.753 600.78 332.862 600.78H331.113C330.451 600.78 329.935 600.938 329.566 601.255C329.197 601.571 329.013 602.025 329.013 602.617ZM329.804 594.452C329.804 595.126 329.994 595.636 330.375 595.981C330.756 596.327 331.286 596.5 331.966 596.5C333.39 596.5 334.101 595.809 334.101 594.426C334.101 592.979 333.381 592.255 331.939 592.255C331.254 592.255 330.726 592.439 330.357 592.809C329.988 593.178 329.804 593.726 329.804 594.452Z" fill="#141414"/>
<g clip-path="url(#clip1_432_2506)">
<path d="M140.75 601.5V602.583C140.75 603.775 139.775 604.75 138.583 604.75H123.417C122.214 604.75 121.25 603.775 121.25 602.583V587.417C121.25 586.225 122.214 585.25 123.417 585.25H138.583C139.775 585.25 140.75 586.225 140.75 587.417V588.5H131C129.798 588.5 128.833 589.475 128.833 590.667V599.333C128.833 600.525 129.798 601.5 131 601.5H140.75ZM131 599.333H141.833V590.667H131V599.333ZM135.333 596.625C134.434 596.625 133.708 595.899 133.708 595C133.708 594.101 134.434 593.375 135.333 593.375C136.233 593.375 136.958 594.101 136.958 595C136.958 595.899 136.233 596.625 135.333 596.625Z" fill="#1EA1FF"/>
</g>
<g filter="url(#filter7_d_432_2506)">
<rect x="101" y="416" width="366" height="58" rx="15" fill="white"/>
</g>
<path d="M429 445C429 444.605 429.278 444.279 429.636 444.231L429.727 444.225H444.273C444.568 444.225 444.832 444.414 444.945 444.704C444.982 444.799 445 444.9 445 445C445 445.168 444.949 445.334 444.85 445.471L444.786 445.549L438.919 451.774C438.635 452.076 438.174 452.075 437.891 451.772C437.632 451.494 437.61 451.058 437.828 450.755L437.893 450.676L442.512 445.775H429.727C429.326 445.775 429 445.428 429 445ZM437.893 439.324C437.608 439.022 437.608 438.532 437.891 438.228C438.151 437.95 438.559 437.926 438.845 438.157L438.92 438.226L442.155 441.659C442.298 441.811 442.369 442.01 442.369 442.209C442.369 442.407 442.298 442.604 442.157 442.756C441.897 443.034 441.489 443.058 441.204 442.827L441.129 442.758L437.893 439.324Z" fill="#141414"/>
<path d="M172.023 444.452C172.023 446.573 171.446 448.196 170.292 449.321C169.144 450.44 167.488 451 165.326 451H161.767V438.15H165.704C167.702 438.15 169.255 438.704 170.362 439.812C171.47 440.919 172.023 442.466 172.023 444.452ZM170.441 444.505C170.441 442.829 170.02 441.566 169.176 440.717C168.338 439.867 167.09 439.442 165.432 439.442H163.261V449.708H165.08C166.861 449.708 168.2 449.271 169.097 448.398C169.993 447.52 170.441 446.222 170.441 444.505ZM178.567 451.176C177.143 451.176 176.018 450.742 175.192 449.875C174.372 449.008 173.962 447.804 173.962 446.263C173.962 444.71 174.342 443.477 175.104 442.562C175.872 441.648 176.9 441.191 178.189 441.191C179.396 441.191 180.351 441.59 181.054 442.387C181.757 443.178 182.109 444.224 182.109 445.524V446.447H175.473C175.503 447.578 175.787 448.437 176.326 449.022C176.871 449.608 177.635 449.901 178.62 449.901C179.657 449.901 180.682 449.685 181.696 449.251V450.552C181.18 450.774 180.691 450.933 180.228 451.026C179.771 451.126 179.217 451.176 178.567 451.176ZM178.172 442.413C177.398 442.413 176.78 442.665 176.317 443.169C175.86 443.673 175.591 444.37 175.508 445.261H180.545C180.545 444.341 180.34 443.638 179.929 443.151C179.519 442.659 178.933 442.413 178.172 442.413ZM186.535 451L182.878 441.367H184.443L186.517 447.08C186.986 448.416 187.261 449.283 187.343 449.682H187.413C187.478 449.371 187.68 448.729 188.02 447.757C188.366 446.778 189.136 444.648 190.331 441.367H191.896L188.24 451H186.535ZM197.332 451.176C195.908 451.176 194.783 450.742 193.957 449.875C193.137 449.008 192.727 447.804 192.727 446.263C192.727 444.71 193.107 443.477 193.869 442.562C194.637 441.648 195.665 441.191 196.954 441.191C198.161 441.191 199.116 441.59 199.819 442.387C200.522 443.178 200.874 444.224 200.874 445.524V446.447H194.238C194.268 447.578 194.552 448.437 195.091 449.022C195.636 449.608 196.4 449.901 197.385 449.901C198.422 449.901 199.447 449.685 200.461 449.251V450.552C199.945 450.774 199.456 450.933 198.993 451.026C198.536 451.126 197.982 451.176 197.332 451.176ZM196.937 442.413C196.163 442.413 195.545 442.665 195.082 443.169C194.625 443.673 194.356 444.37 194.273 445.261H199.31C199.31 444.341 199.105 443.638 198.694 443.151C198.284 442.659 197.698 442.413 196.937 442.413ZM204.649 451H203.19V437.324H204.649V451ZM215.877 446.175C215.877 447.745 215.482 448.973 214.691 449.857C213.9 450.736 212.807 451.176 211.412 451.176C210.551 451.176 209.787 450.974 209.119 450.569C208.451 450.165 207.935 449.585 207.572 448.829C207.208 448.073 207.027 447.188 207.027 446.175C207.027 444.604 207.419 443.383 208.204 442.51C208.99 441.631 210.079 441.191 211.474 441.191C212.822 441.191 213.891 441.64 214.682 442.536C215.479 443.433 215.877 444.646 215.877 446.175ZM208.538 446.175C208.538 447.405 208.785 448.343 209.277 448.987C209.769 449.632 210.493 449.954 211.448 449.954C212.403 449.954 213.126 449.635 213.619 448.996C214.117 448.352 214.366 447.411 214.366 446.175C214.366 444.95 214.117 444.021 213.619 443.389C213.126 442.75 212.397 442.431 211.43 442.431C210.475 442.431 209.754 442.744 209.268 443.371C208.782 443.998 208.538 444.933 208.538 446.175ZM222.746 451.176C222.119 451.176 221.545 451.062 221.024 450.833C220.508 450.599 220.074 450.241 219.723 449.761H219.617C219.688 450.323 219.723 450.856 219.723 451.36V455.324H218.264V441.367H219.45L219.652 442.686H219.723C220.098 442.158 220.534 441.777 221.032 441.543C221.53 441.309 222.102 441.191 222.746 441.191C224.024 441.191 225.008 441.628 225.699 442.501C226.397 443.374 226.745 444.599 226.745 446.175C226.745 447.757 226.391 448.987 225.682 449.866C224.979 450.739 224 451.176 222.746 451.176ZM222.535 442.431C221.551 442.431 220.839 442.703 220.399 443.248C219.96 443.793 219.734 444.66 219.723 445.85V446.175C219.723 447.528 219.948 448.498 220.399 449.084C220.851 449.664 221.574 449.954 222.57 449.954C223.402 449.954 224.053 449.617 224.522 448.943C224.996 448.27 225.233 447.341 225.233 446.157C225.233 444.956 224.996 444.036 224.522 443.397C224.053 442.753 223.391 442.431 222.535 442.431ZM241.401 451V444.733C241.401 443.966 241.237 443.392 240.909 443.011C240.581 442.624 240.071 442.431 239.38 442.431C238.471 442.431 237.801 442.691 237.367 443.213C236.933 443.734 236.717 444.537 236.717 445.621V451H235.258V444.733C235.258 443.966 235.094 443.392 234.765 443.011C234.437 442.624 233.925 442.431 233.227 442.431C232.313 442.431 231.642 442.706 231.215 443.257C230.793 443.802 230.582 444.698 230.582 445.946V451H229.123V441.367H230.309L230.547 442.686H230.617C230.892 442.217 231.279 441.851 231.777 441.587C232.281 441.323 232.844 441.191 233.465 441.191C234.97 441.191 235.955 441.736 236.418 442.826H236.488C236.775 442.322 237.191 441.924 237.736 441.631C238.281 441.338 238.902 441.191 239.599 441.191C240.689 441.191 241.504 441.473 242.043 442.035C242.588 442.592 242.86 443.485 242.86 444.716V451H241.401ZM249.764 451.176C248.34 451.176 247.215 450.742 246.389 449.875C245.569 449.008 245.159 447.804 245.159 446.263C245.159 444.71 245.539 443.477 246.301 442.562C247.069 441.648 248.097 441.191 249.386 441.191C250.593 441.191 251.548 441.59 252.251 442.387C252.955 443.178 253.306 444.224 253.306 445.524V446.447H246.67C246.7 447.578 246.984 448.437 247.523 449.022C248.068 449.608 248.832 449.901 249.817 449.901C250.854 449.901 251.879 449.685 252.893 449.251V450.552C252.377 450.774 251.888 450.933 251.425 451.026C250.968 451.126 250.414 451.176 249.764 451.176ZM249.369 442.413C248.595 442.413 247.977 442.665 247.514 443.169C247.057 443.673 246.788 444.37 246.706 445.261H251.742C251.742 444.341 251.537 443.638 251.126 443.151C250.716 442.659 250.13 442.413 249.369 442.413ZM262.214 451V444.769C262.214 443.983 262.035 443.397 261.678 443.011C261.32 442.624 260.761 442.431 259.999 442.431C258.991 442.431 258.253 442.703 257.784 443.248C257.316 443.793 257.081 444.692 257.081 445.946V451H255.622V441.367H256.809L257.046 442.686H257.116C257.415 442.211 257.834 441.845 258.373 441.587C258.912 441.323 259.513 441.191 260.175 441.191C261.335 441.191 262.208 441.473 262.794 442.035C263.38 442.592 263.673 443.485 263.673 444.716V451H262.214ZM269.61 449.972C269.868 449.972 270.117 449.954 270.357 449.919C270.597 449.878 270.788 449.837 270.929 449.796V450.912C270.77 450.988 270.536 451.05 270.225 451.097C269.921 451.149 269.645 451.176 269.399 451.176C267.536 451.176 266.604 450.194 266.604 448.231V442.501H265.224V441.798L266.604 441.191L267.22 439.135H268.063V441.367H270.858V442.501H268.063V448.17C268.063 448.75 268.201 449.195 268.476 449.506C268.752 449.816 269.13 449.972 269.61 449.972Z" fill="#141414"/>
<g clip-path="url(#clip2_432_2506)">
<path d="M139.666 437.417H122.333C121.141 437.417 120.177 438.392 120.177 439.584L120.166 450.417C120.166 451.609 121.141 452.584 122.333 452.584H139.666C140.858 452.584 141.833 451.609 141.833 450.417V439.584C141.833 438.392 140.858 437.417 139.666 437.417ZM129.916 440.667H132.083V442.834H129.916V440.667ZM129.916 443.917H132.083V446.084H129.916V443.917ZM126.666 440.667H128.833V442.834H126.666V440.667ZM126.666 443.917H128.833V446.084H126.666V443.917ZM125.583 446.084H123.416V443.917H125.583V446.084ZM125.583 442.834H123.416V440.667H125.583V442.834ZM135.333 450.417H126.666V448.25H135.333V450.417ZM135.333 446.084H133.166V443.917H135.333V446.084ZM135.333 442.834H133.166V440.667H135.333V442.834ZM138.583 446.084H136.416V443.917H138.583V446.084ZM138.583 442.834H136.416V440.667H138.583V442.834Z" fill="#1EA1FF"/>
</g>
<g filter="url(#filter8_d_432_2506)">
<rect x="101" y="341" width="366" height="58" rx="15" fill="white"/>
</g>
<path d="M429 371C429 370.605 429.278 370.279 429.636 370.231L429.727 370.225H444.273C444.568 370.225 444.832 370.414 444.945 370.704C444.982 370.799 445 370.9 445 371C445 371.168 444.949 371.334 444.85 371.471L444.786 371.549L438.919 377.774C438.635 378.076 438.174 378.075 437.891 377.772C437.632 377.494 437.61 377.058 437.828 376.755L437.893 376.676L442.512 371.775H429.727C429.326 371.775 429 371.428 429 371ZM437.893 365.324C437.608 365.022 437.608 364.532 437.891 364.228C438.151 363.95 438.559 363.926 438.845 364.157L438.92 364.226L442.155 367.659C442.298 367.811 442.369 368.01 442.369 368.209C442.369 368.407 442.298 368.604 442.157 368.756C441.897 369.034 441.489 369.058 441.204 368.827L441.129 368.758L437.893 365.324Z" fill="#141414"/>
<path d="M172.023 369.452C172.023 371.573 171.446 373.196 170.292 374.321C169.144 375.44 167.488 376 165.326 376H161.767V363.15H165.704C167.702 363.15 169.255 363.704 170.362 364.812C171.47 365.919 172.023 367.466 172.023 369.452ZM170.441 369.505C170.441 367.829 170.02 366.566 169.176 365.717C168.338 364.867 167.09 364.442 165.432 364.442H163.261V374.708H165.08C166.861 374.708 168.2 374.271 169.097 373.398C169.993 372.52 170.441 371.222 170.441 369.505ZM178.567 376.176C177.143 376.176 176.018 375.742 175.192 374.875C174.372 374.008 173.962 372.804 173.962 371.263C173.962 369.71 174.342 368.477 175.104 367.562C175.872 366.648 176.9 366.191 178.189 366.191C179.396 366.191 180.351 366.59 181.054 367.387C181.757 368.178 182.109 369.224 182.109 370.524V371.447H175.473C175.503 372.578 175.787 373.437 176.326 374.022C176.871 374.608 177.635 374.901 178.62 374.901C179.657 374.901 180.682 374.685 181.696 374.251V375.552C181.18 375.774 180.691 375.933 180.228 376.026C179.771 376.126 179.217 376.176 178.567 376.176ZM178.172 367.413C177.398 367.413 176.78 367.665 176.317 368.169C175.86 368.673 175.591 369.37 175.508 370.261H180.545C180.545 369.341 180.34 368.638 179.929 368.151C179.519 367.659 178.933 367.413 178.172 367.413ZM190.639 373.372C190.639 374.269 190.305 374.96 189.637 375.446C188.969 375.933 188.032 376.176 186.825 376.176C185.547 376.176 184.551 375.974 183.836 375.569V374.216C184.299 374.45 184.794 374.635 185.322 374.77C185.855 374.904 186.368 374.972 186.86 374.972C187.621 374.972 188.207 374.852 188.618 374.611C189.028 374.365 189.233 373.993 189.233 373.495C189.233 373.12 189.069 372.801 188.741 372.537C188.418 372.268 187.786 371.951 186.842 371.588C185.946 371.254 185.307 370.964 184.926 370.718C184.551 370.466 184.27 370.182 184.082 369.865C183.901 369.549 183.81 369.171 183.81 368.731C183.81 367.946 184.129 367.328 184.768 366.877C185.407 366.42 186.283 366.191 187.396 366.191C188.433 366.191 189.447 366.402 190.437 366.824L189.918 368.011C188.952 367.612 188.076 367.413 187.29 367.413C186.599 367.413 186.077 367.521 185.726 367.738C185.374 367.955 185.199 368.254 185.199 368.635C185.199 368.893 185.263 369.112 185.392 369.294C185.527 369.476 185.741 369.648 186.034 369.812C186.327 369.977 186.889 370.214 187.721 370.524C188.864 370.94 189.634 371.359 190.033 371.781C190.437 372.203 190.639 372.733 190.639 373.372ZM194.3 376H192.841V366.367H194.3V376ZM192.718 363.757C192.718 363.423 192.8 363.18 192.964 363.027C193.128 362.869 193.333 362.79 193.579 362.79C193.814 362.79 194.016 362.869 194.186 363.027C194.356 363.186 194.44 363.429 194.44 363.757C194.44 364.085 194.356 364.331 194.186 364.495C194.016 364.653 193.814 364.732 193.579 364.732C193.333 364.732 193.128 364.653 192.964 364.495C192.8 364.331 192.718 364.085 192.718 363.757ZM205.097 366.367V367.29L203.313 367.501C203.477 367.706 203.624 367.976 203.753 368.31C203.882 368.638 203.946 369.01 203.946 369.426C203.946 370.369 203.624 371.122 202.979 371.685C202.335 372.247 201.45 372.528 200.325 372.528C200.038 372.528 199.768 372.505 199.516 372.458C198.895 372.786 198.585 373.199 198.585 373.697C198.585 373.961 198.693 374.157 198.91 374.286C199.127 374.409 199.499 374.471 200.026 374.471H201.731C202.774 374.471 203.574 374.69 204.131 375.13C204.693 375.569 204.974 376.208 204.974 377.046C204.974 378.112 204.547 378.924 203.691 379.48C202.836 380.043 201.588 380.324 199.947 380.324C198.687 380.324 197.715 380.09 197.029 379.621C196.349 379.152 196.009 378.49 196.009 377.635C196.009 377.049 196.197 376.542 196.572 376.114C196.947 375.687 197.474 375.396 198.154 375.244C197.908 375.133 197.7 374.96 197.53 374.726C197.366 374.491 197.284 374.219 197.284 373.908C197.284 373.557 197.378 373.249 197.565 372.985C197.753 372.722 198.049 372.467 198.453 372.221C197.955 372.016 197.548 371.667 197.231 371.175C196.921 370.683 196.765 370.12 196.765 369.487C196.765 368.433 197.082 367.621 197.715 367.053C198.347 366.479 199.244 366.191 200.404 366.191C200.908 366.191 201.362 366.25 201.766 366.367H205.097ZM197.416 377.617C197.416 378.139 197.635 378.534 198.075 378.804C198.514 379.073 199.144 379.208 199.965 379.208C201.189 379.208 202.094 379.023 202.68 378.654C203.272 378.291 203.568 377.796 203.568 377.169C203.568 376.647 203.407 376.284 203.085 376.079C202.762 375.88 202.156 375.78 201.265 375.78H199.516C198.854 375.78 198.339 375.938 197.969 376.255C197.6 376.571 197.416 377.025 197.416 377.617ZM198.207 369.452C198.207 370.126 198.397 370.636 198.778 370.981C199.159 371.327 199.689 371.5 200.369 371.5C201.793 371.5 202.505 370.809 202.505 369.426C202.505 367.979 201.784 367.255 200.342 367.255C199.657 367.255 199.13 367.439 198.76 367.809C198.391 368.178 198.207 368.726 198.207 369.452ZM213.487 376V369.769C213.487 368.983 213.308 368.397 212.951 368.011C212.593 367.624 212.034 367.431 211.272 367.431C210.264 367.431 209.526 367.703 209.057 368.248C208.588 368.793 208.354 369.692 208.354 370.946V376H206.895V366.367H208.081L208.319 367.686H208.389C208.688 367.211 209.107 366.845 209.646 366.587C210.185 366.323 210.786 366.191 211.448 366.191C212.608 366.191 213.481 366.473 214.067 367.035C214.653 367.592 214.946 368.485 214.946 369.716V376H213.487ZM219.231 376H217.772V366.367H219.231V376ZM217.649 363.757C217.649 363.423 217.731 363.18 217.895 363.027C218.059 362.869 218.264 362.79 218.51 362.79C218.744 362.79 218.946 362.869 219.116 363.027C219.286 363.186 219.371 363.429 219.371 363.757C219.371 364.085 219.286 364.331 219.116 364.495C218.946 364.653 218.744 364.732 218.51 364.732C218.264 364.732 218.059 364.653 217.895 364.495C217.731 364.331 217.649 364.085 217.649 363.757ZM228.736 376V369.769C228.736 368.983 228.557 368.397 228.2 368.011C227.843 367.624 227.283 367.431 226.521 367.431C225.513 367.431 224.775 367.703 224.306 368.248C223.838 368.793 223.603 369.692 223.603 370.946V376H222.144V366.367H223.331L223.568 367.686H223.638C223.937 367.211 224.356 366.845 224.895 366.587C225.434 366.323 226.035 366.191 226.697 366.191C227.857 366.191 228.73 366.473 229.316 367.035C229.902 367.592 230.195 368.485 230.195 369.716V376H228.736ZM240.905 366.367V367.29L239.121 367.501C239.285 367.706 239.431 367.976 239.56 368.31C239.689 368.638 239.753 369.01 239.753 369.426C239.753 370.369 239.431 371.122 238.787 371.685C238.142 372.247 237.257 372.528 236.132 372.528C235.845 372.528 235.576 372.505 235.324 372.458C234.703 372.786 234.392 373.199 234.392 373.697C234.392 373.961 234.5 374.157 234.717 374.286C234.934 374.409 235.306 374.471 235.833 374.471H237.539C238.581 374.471 239.381 374.69 239.938 375.13C240.5 375.569 240.782 376.208 240.782 377.046C240.782 378.112 240.354 378.924 239.498 379.48C238.643 380.043 237.395 380.324 235.754 380.324C234.495 380.324 233.522 380.09 232.836 379.621C232.157 379.152 231.817 378.49 231.817 377.635C231.817 377.049 232.004 376.542 232.379 376.114C232.754 375.687 233.282 375.396 233.961 375.244C233.715 375.133 233.507 374.96 233.337 374.726C233.173 374.491 233.091 374.219 233.091 373.908C233.091 373.557 233.185 373.249 233.372 372.985C233.56 372.722 233.856 372.467 234.26 372.221C233.762 372.016 233.355 371.667 233.039 371.175C232.728 370.683 232.573 370.12 232.573 369.487C232.573 368.433 232.889 367.621 233.522 367.053C234.155 366.479 235.051 366.191 236.211 366.191C236.715 366.191 237.169 366.25 237.574 366.367H240.905ZM233.223 377.617C233.223 378.139 233.443 378.534 233.882 378.804C234.322 379.073 234.952 379.208 235.772 379.208C236.997 379.208 237.902 379.023 238.488 378.654C239.08 378.291 239.375 377.796 239.375 377.169C239.375 376.647 239.214 376.284 238.892 376.079C238.57 375.88 237.963 375.78 237.073 375.78H235.324C234.662 375.78 234.146 375.938 233.777 376.255C233.408 376.571 233.223 377.025 233.223 377.617ZM234.014 369.452C234.014 370.126 234.205 370.636 234.585 370.981C234.966 371.327 235.497 371.5 236.176 371.5C237.6 371.5 238.312 370.809 238.312 369.426C238.312 367.979 237.591 367.255 236.15 367.255C235.464 367.255 234.937 367.439 234.568 367.809C234.199 368.178 234.014 368.726 234.014 369.452Z" fill="#141414"/>
<g clip-path="url(#clip3_432_2506)">
<path d="M131 361.25C125.616 361.25 121.25 365.616 121.25 371C121.25 376.384 125.616 380.75 131 380.75C131.899 380.75 132.625 380.024 132.625 379.125C132.625 378.703 132.462 378.323 132.203 378.031C131.953 377.749 131.791 377.37 131.791 376.958C131.791 376.059 132.517 375.333 133.416 375.333H135.333C138.323 375.333 140.75 372.907 140.75 369.917C140.75 365.128 136.384 361.25 131 361.25ZM125.042 371C124.143 371 123.417 370.274 123.417 369.375C123.417 368.476 124.143 367.75 125.042 367.75C125.941 367.75 126.667 368.476 126.667 369.375C126.667 370.274 125.941 371 125.042 371ZM128.292 366.667C127.393 366.667 126.667 365.941 126.667 365.042C126.667 364.143 127.393 363.417 128.292 363.417C129.191 363.417 129.917 364.143 129.917 365.042C129.917 365.941 129.191 366.667 128.292 366.667ZM133.708 366.667C132.809 366.667 132.083 365.941 132.083 365.042C132.083 364.143 132.809 363.417 133.708 363.417C134.608 363.417 135.333 364.143 135.333 365.042C135.333 365.941 134.608 366.667 133.708 366.667ZM136.958 371C136.059 371 135.333 370.274 135.333 369.375C135.333 368.476 136.059 367.75 136.958 367.75C137.858 367.75 138.583 368.476 138.583 369.375C138.583 370.274 137.858 371 136.958 371Z" fill="#1EA1FF"/>
</g>
<rect x="101.5" y="482.5" width="478.586" height="75" rx="14.5" stroke="#D8D8D8"/>
<g filter="url(#filter9_d_432_2506)">
<rect x="160" y="482" width="479.586" height="76" rx="15" fill="#FCAAFE"/>
</g>
<path d="M589.793 519.999C589.793 519.482 590.157 519.054 590.626 518.992L590.746 518.984H609.806C610.192 518.984 610.539 519.232 610.686 519.612C610.734 519.737 610.758 519.868 610.758 519.999C610.758 520.219 610.691 520.438 610.562 520.616L610.478 520.718L602.79 528.876C602.418 529.272 601.814 529.27 601.443 528.874C601.103 528.509 601.075 527.938 601.36 527.541L601.446 527.437L607.498 521.015H590.746C590.22 521.015 589.793 520.56 589.793 519.999ZM601.446 512.562C601.072 512.167 601.072 511.524 601.443 511.126C601.783 510.762 602.319 510.73 602.694 511.032L602.791 511.123L607.03 515.622C607.218 515.821 607.311 516.081 607.311 516.343C607.311 516.601 607.218 516.86 607.033 517.059C606.693 517.424 606.158 517.455 605.784 517.152L605.686 517.062L601.446 512.562Z" fill="white"/>
<path d="M231.812 511.584H238.185C240.948 511.584 243.033 511.984 244.439 512.785C245.846 513.586 246.549 514.968 246.549 516.931C246.549 517.751 246.402 518.493 246.109 519.157C245.826 519.812 245.411 520.354 244.864 520.783C244.317 521.203 243.644 521.486 242.843 521.633V521.779C243.673 521.926 244.41 522.185 245.055 522.556C245.709 522.927 246.222 523.459 246.593 524.152C246.974 524.846 247.164 525.744 247.164 526.848C247.164 528.156 246.852 529.27 246.227 530.188C245.611 531.105 244.728 531.804 243.575 532.282C242.433 532.761 241.075 533 239.503 533H231.812V511.584ZM235.328 520.417H238.697C240.289 520.417 241.393 520.158 242.008 519.641C242.623 519.123 242.931 518.366 242.931 517.37C242.931 516.354 242.564 515.622 241.832 515.173C241.109 514.724 239.957 514.499 238.375 514.499H235.328V520.417ZM235.328 523.259V530.056H239.034C240.675 530.056 241.827 529.738 242.491 529.104C243.155 528.469 243.487 527.609 243.487 526.525C243.487 525.861 243.336 525.285 243.033 524.797C242.74 524.309 242.257 523.933 241.583 523.669C240.909 523.396 240.001 523.259 238.858 523.259H235.328ZM265.072 516.784V533H262.362L261.893 530.817H261.703C261.361 531.374 260.927 531.838 260.399 532.209C259.872 532.57 259.286 532.839 258.641 533.015C257.997 533.2 257.318 533.293 256.605 533.293C255.385 533.293 254.34 533.088 253.471 532.678C252.611 532.258 251.952 531.613 251.493 530.744C251.034 529.875 250.804 528.752 250.804 527.375V516.784H254.262V526.73C254.262 527.99 254.515 528.933 255.023 529.558C255.541 530.183 256.342 530.495 257.426 530.495C258.471 530.495 259.301 530.28 259.916 529.851C260.531 529.421 260.966 528.786 261.22 527.946C261.483 527.106 261.615 526.076 261.615 524.855V516.784H265.072ZM280.607 528.371C280.607 529.436 280.348 530.334 279.831 531.066C279.313 531.799 278.556 532.355 277.56 532.736C276.574 533.107 275.363 533.293 273.927 533.293C272.795 533.293 271.818 533.21 270.998 533.044C270.187 532.888 269.421 532.644 268.698 532.312V529.338C269.469 529.699 270.334 530.012 271.291 530.275C272.257 530.539 273.171 530.671 274.03 530.671C275.163 530.671 275.978 530.495 276.476 530.144C276.974 529.782 277.223 529.304 277.223 528.708C277.223 528.356 277.121 528.044 276.916 527.771C276.72 527.487 276.349 527.199 275.802 526.906C275.265 526.604 274.474 526.242 273.429 525.822C272.404 525.412 271.54 525.002 270.837 524.592C270.133 524.182 269.601 523.688 269.24 523.112C268.879 522.526 268.698 521.779 268.698 520.871C268.698 519.436 269.264 518.347 270.397 517.604C271.54 516.853 273.048 516.477 274.923 516.477C275.92 516.477 276.857 516.579 277.736 516.784C278.625 516.979 279.494 517.268 280.343 517.648L279.259 520.241C278.527 519.919 277.79 519.655 277.047 519.45C276.315 519.235 275.568 519.128 274.806 519.128C273.918 519.128 273.239 519.265 272.77 519.538C272.311 519.812 272.082 520.202 272.082 520.71C272.082 521.091 272.194 521.413 272.419 521.677C272.643 521.94 273.029 522.204 273.576 522.468C274.132 522.731 274.904 523.059 275.89 523.449C276.857 523.82 277.692 524.211 278.395 524.621C279.108 525.021 279.655 525.515 280.036 526.101C280.417 526.687 280.607 527.443 280.607 528.371ZM287.47 516.784V533H284.028V516.784H287.47ZM285.771 510.573C286.298 510.573 286.752 510.715 287.133 510.998C287.524 511.281 287.719 511.77 287.719 512.463C287.719 513.146 287.524 513.635 287.133 513.928C286.752 514.211 286.298 514.353 285.771 514.353C285.224 514.353 284.76 514.211 284.379 513.928C284.008 513.635 283.823 513.146 283.823 512.463C283.823 511.77 284.008 511.281 284.379 510.998C284.76 510.715 285.224 510.573 285.771 510.573ZM300.559 516.477C302.385 516.477 303.806 516.95 304.821 517.897C305.847 518.835 306.36 520.344 306.36 522.424V533H302.917V523.068C302.917 521.809 302.658 520.866 302.141 520.241C301.623 519.606 300.822 519.289 299.738 519.289C298.166 519.289 297.072 519.772 296.457 520.739C295.852 521.706 295.549 523.107 295.549 524.943V533H292.107V516.784H294.787L295.271 518.981H295.461C295.813 518.415 296.247 517.951 296.765 517.59C297.292 517.219 297.878 516.94 298.523 516.755C299.177 516.569 299.856 516.477 300.559 516.477ZM317.339 516.477C318.784 516.477 320.024 516.774 321.06 517.37C322.095 517.966 322.891 518.811 323.447 519.904C324.004 520.998 324.282 522.307 324.282 523.83V525.676H313.457C313.496 527.248 313.916 528.459 314.717 529.309C315.527 530.158 316.66 530.583 318.115 530.583C319.15 530.583 320.078 530.485 320.898 530.29C321.729 530.085 322.583 529.787 323.462 529.396V532.194C322.651 532.575 321.826 532.854 320.986 533.029C320.146 533.205 319.141 533.293 317.969 533.293C316.377 533.293 314.976 532.985 313.765 532.37C312.563 531.745 311.621 530.817 310.938 529.587C310.264 528.356 309.927 526.828 309.927 525.002C309.927 523.186 310.234 521.643 310.85 520.373C311.465 519.104 312.329 518.137 313.442 517.473C314.556 516.809 315.854 516.477 317.339 516.477ZM317.339 519.069C316.255 519.069 315.376 519.421 314.702 520.124C314.038 520.827 313.647 521.857 313.53 523.215H320.913C320.903 522.404 320.767 521.687 320.503 521.062C320.249 520.437 319.858 519.948 319.331 519.597C318.813 519.245 318.149 519.069 317.339 519.069ZM338.762 528.371C338.762 529.436 338.504 530.334 337.986 531.066C337.469 531.799 336.712 532.355 335.716 532.736C334.729 533.107 333.518 533.293 332.083 533.293C330.95 533.293 329.973 533.21 329.153 533.044C328.343 532.888 327.576 532.644 326.853 532.312V529.338C327.625 529.699 328.489 530.012 329.446 530.275C330.413 530.539 331.326 530.671 332.185 530.671C333.318 530.671 334.134 530.495 334.632 530.144C335.13 529.782 335.379 529.304 335.379 528.708C335.379 528.356 335.276 528.044 335.071 527.771C334.876 527.487 334.505 527.199 333.958 526.906C333.421 526.604 332.63 526.242 331.585 525.822C330.559 525.412 329.695 525.002 328.992 524.592C328.289 524.182 327.757 523.688 327.395 523.112C327.034 522.526 326.853 521.779 326.853 520.871C326.853 519.436 327.42 518.347 328.553 517.604C329.695 516.853 331.204 516.477 333.079 516.477C334.075 516.477 335.012 516.579 335.891 516.784C336.78 516.979 337.649 517.268 338.499 517.648L337.415 520.241C336.682 519.919 335.945 519.655 335.203 519.45C334.471 519.235 333.723 519.128 332.962 519.128C332.073 519.128 331.394 519.265 330.926 519.538C330.467 519.812 330.237 520.202 330.237 520.71C330.237 521.091 330.349 521.413 330.574 521.677C330.799 521.94 331.184 522.204 331.731 522.468C332.288 522.731 333.059 523.059 334.046 523.449C335.012 523.82 335.847 524.211 336.551 524.621C337.263 525.021 337.81 525.515 338.191 526.101C338.572 526.687 338.762 527.443 338.762 528.371ZM353.082 528.371C353.082 529.436 352.823 530.334 352.305 531.066C351.788 531.799 351.031 532.355 350.035 532.736C349.048 533.107 347.838 533.293 346.402 533.293C345.269 533.293 344.293 533.21 343.472 533.044C342.662 532.888 341.895 532.644 341.172 532.312V529.338C341.944 529.699 342.808 530.012 343.765 530.275C344.732 530.539 345.645 530.671 346.504 530.671C347.637 530.671 348.453 530.495 348.951 530.144C349.449 529.782 349.698 529.304 349.698 528.708C349.698 528.356 349.595 528.044 349.39 527.771C349.195 527.487 348.824 527.199 348.277 526.906C347.74 526.604 346.949 526.242 345.904 525.822C344.879 525.412 344.014 525.002 343.311 524.592C342.608 524.182 342.076 523.688 341.714 523.112C341.353 522.526 341.172 521.779 341.172 520.871C341.172 519.436 341.739 518.347 342.872 517.604C344.014 516.853 345.523 516.477 347.398 516.477C348.394 516.477 349.332 516.579 350.211 516.784C351.099 516.979 351.968 517.268 352.818 517.648L351.734 520.241C351.002 519.919 350.264 519.655 349.522 519.45C348.79 519.235 348.043 519.128 347.281 519.128C346.392 519.128 345.713 519.265 345.245 519.538C344.786 519.812 344.556 520.202 344.556 520.71C344.556 521.091 344.669 521.413 344.893 521.677C345.118 521.94 345.504 522.204 346.05 522.468C346.607 522.731 347.379 523.059 348.365 523.449C349.332 523.82 350.167 524.211 350.87 524.621C351.583 525.021 352.129 525.515 352.51 526.101C352.891 526.687 353.082 527.443 353.082 528.371Z" fill="white"/>
<g clip-path="url(#clip4_432_2506)">
<path d="M195.87 527.479H193.14V517.925H195.87V527.479ZM201.33 527.479H198.6V513.83H201.33V527.479ZM206.79 527.479H204.06V522.02H206.79V527.479ZM210.202 530.346H189.728V511.1H210.202V530.346ZM210.202 508.37H189.728C188.226 508.37 186.998 509.599 186.998 511.1V530.209C186.998 531.711 188.226 532.939 189.728 532.939H210.202C211.704 532.939 212.932 531.711 212.932 530.209V511.1C212.932 509.599 211.704 508.37 210.202 508.37Z" fill="white"/>
</g>
<g filter="url(#filter10_d_432_2506)">
<path d="M75 124C75 107.984 87.9837 95 104 95H473C489.569 95 503 108.431 503 125V275C503 297.091 485.091 315 463 315H115C92.9086 315 75 297.091 75 275V124Z" fill="#29A0F5"/>
</g>
<g filter="url(#filter11_d_432_2506)">
<rect x="100" y="230" width="378" height="60" rx="20" fill="white"/>
</g>
<path d="M163.864 256.273H164.892C164.812 254.506 163.284 253.199 161.119 253.199C158.972 253.199 157.318 254.489 157.318 256.364C157.318 257.858 158.375 258.795 160.199 259.335L161.591 259.744C163.034 260.165 164.023 260.705 164.023 261.892C164.023 263.29 162.756 264.227 161.017 264.227C159.449 264.227 158.222 263.472 158.108 262.091H157.017C157.142 263.932 158.642 265.199 161.017 265.199C163.54 265.199 165.051 263.773 165.051 261.909C165.051 259.977 163.369 259.205 161.892 258.79L160.665 258.438C159.534 258.119 158.347 257.545 158.347 256.318C158.347 255.068 159.466 254.153 161.091 254.153C162.631 254.153 163.733 254.977 163.864 256.273ZM170.766 265.182C172.516 265.182 173.692 264.233 174.09 263.136L173.13 262.824C172.795 263.608 172.005 264.256 170.766 264.256C168.982 264.256 167.851 262.955 167.806 260.938H174.306V260.438C174.306 257.523 172.505 256.153 170.613 256.153C168.351 256.153 166.789 258.045 166.789 260.688C166.789 263.335 168.323 265.182 170.766 265.182ZM167.812 260.045C167.92 258.42 169.016 257.074 170.613 257.074C172.175 257.074 173.272 258.364 173.272 260.045H167.812ZM178.812 265.199C180.267 265.199 181.153 264.392 181.517 263.619H181.579V265H182.591V259.074C182.591 256.733 180.829 256.153 179.494 256.153C178.159 256.153 176.784 256.682 176.193 258.108L177.153 258.455C177.471 257.705 178.261 257.062 179.522 257.062C180.846 257.062 181.579 257.79 181.579 258.983V259.188C181.579 259.847 180.761 259.858 179.295 260.04C177.323 260.284 175.943 260.835 175.943 262.562C175.943 264.244 177.227 265.199 178.812 265.199ZM178.948 264.273C177.806 264.273 176.954 263.665 176.954 262.608C176.954 261.551 177.818 261.108 179.295 260.926C180.011 260.841 181.284 260.682 181.579 260.392V261.653C181.579 263.085 180.562 264.273 178.948 264.273ZM185.121 265H186.132V259.364C186.132 258.068 187.127 257.131 188.49 257.131C188.757 257.131 189.007 257.176 189.098 257.188V256.159C188.962 256.153 188.729 256.142 188.564 256.142C187.467 256.142 186.53 256.733 186.178 257.614H186.104V256.273H185.121V265ZM193.807 265.182C195.626 265.182 196.904 264.034 197.137 262.455H196.114C195.881 263.568 194.967 264.256 193.807 264.256C192.097 264.256 190.967 262.767 190.967 260.642C190.967 258.528 192.131 257.074 193.807 257.074C195.052 257.074 195.893 257.875 196.109 258.864H197.131C196.893 257.244 195.54 256.153 193.79 256.153C191.506 256.153 189.949 258.051 189.949 260.676C189.949 263.278 191.461 265.182 193.807 265.182ZM200.156 259.545C200.156 258.023 201.179 257.085 202.576 257.085C203.929 257.085 204.792 257.972 204.792 259.409V265H205.809V259.347C205.809 257.267 204.605 256.159 202.832 256.159C201.514 256.159 200.656 256.739 200.247 257.642H200.156V253.364H199.145V265H200.156V259.545ZM213.664 259.545C213.664 258.023 214.687 257.085 216.085 257.085C217.437 257.085 218.3 257.972 218.3 259.409V265H219.318V259.347C219.318 257.267 218.113 256.159 216.34 256.159C215.022 256.159 214.164 256.739 213.755 257.642H213.664V253.364H212.653V265H213.664V259.545ZM225.349 265.182C227.099 265.182 228.275 264.233 228.673 263.136L227.713 262.824C227.378 263.608 226.588 264.256 225.349 264.256C223.565 264.256 222.434 262.955 222.389 260.938H228.889V260.438C228.889 257.523 227.088 256.153 225.196 256.153C222.934 256.153 221.372 258.045 221.372 260.688C221.372 263.335 222.906 265.182 225.349 265.182ZM222.395 260.045C222.503 258.42 223.599 257.074 225.196 257.074C226.758 257.074 227.855 258.364 227.855 260.045H222.395ZM230.958 265H231.969V259.364C231.969 258.068 232.963 257.131 234.327 257.131C234.594 257.131 234.844 257.176 234.935 257.188V256.159C234.799 256.153 234.566 256.142 234.401 256.142C233.304 256.142 232.367 256.733 232.015 257.614H231.941V256.273H230.958V265ZM239.764 265.182C241.514 265.182 242.69 264.233 243.088 263.136L242.127 262.824C241.792 263.608 241.002 264.256 239.764 264.256C237.98 264.256 236.849 262.955 236.803 260.938H243.303V260.438C243.303 257.523 241.502 256.153 239.61 256.153C237.349 256.153 235.786 258.045 235.786 260.688C235.786 263.335 237.32 265.182 239.764 265.182ZM236.809 260.045C236.917 258.42 238.014 257.074 239.61 257.074C241.173 257.074 242.269 258.364 242.269 260.045H236.809ZM246.179 265.085C246.633 265.085 246.997 264.716 246.997 264.267C246.997 263.812 246.633 263.449 246.179 263.449C245.73 263.449 245.361 263.812 245.361 264.267C245.361 264.716 245.73 265.085 246.179 265.085ZM250.316 265.085C250.77 265.085 251.134 264.716 251.134 264.267C251.134 263.812 250.77 263.449 250.316 263.449C249.867 263.449 249.498 263.812 249.498 264.267C249.498 264.716 249.867 265.085 250.316 265.085ZM254.453 265.085C254.907 265.085 255.271 264.716 255.271 264.267C255.271 263.812 254.907 263.449 254.453 263.449C254.004 263.449 253.634 263.812 253.634 264.267C253.634 264.716 254.004 265.085 254.453 265.085Z" fill="#555555"/>
<path d="M142.256 267.607L138.818 264.246L138.738 264.123C138.588 263.974 138.383 263.89 138.169 263.89C137.955 263.89 137.751 263.974 137.601 264.123C134.679 266.803 130.178 266.949 127.082 264.464C123.986 261.978 123.256 257.633 125.376 254.31C127.496 250.987 131.808 249.717 135.453 251.342C139.098 252.967 140.944 256.984 139.767 260.728C139.682 260.998 139.752 261.292 139.949 261.499C140.146 261.706 140.441 261.795 140.723 261.731C141.005 261.668 141.231 261.462 141.316 261.191C142.722 256.749 140.598 251.968 136.316 249.941C132.034 247.915 126.881 249.251 124.189 253.085C121.497 256.92 122.075 262.102 125.549 265.28C129.023 268.457 134.35 268.676 138.084 265.795L141.128 268.771C141.442 269.076 141.95 269.076 142.264 268.771C142.579 268.46 142.579 267.961 142.264 267.65L142.256 267.607Z" fill="#555555"/>
<g filter="url(#filter12_d_432_2506)">
<rect x="423" y="155" width="55" height="55" rx="20" fill="white"/>
</g>
<path d="M445.851 189.523C446.79 189.523 447.554 190.303 447.554 191.262C447.554 192.22 446.79 193 445.851 193C444.911 193 444.146 192.22 444.146 191.262C444.146 190.303 444.911 189.523 445.851 189.523ZM458.509 189.523C459.448 189.523 460.213 190.303 460.213 191.262C460.213 192.22 459.448 193 458.509 193C457.57 193 456.806 192.22 456.806 191.262C456.806 190.303 457.57 189.523 458.509 189.523ZM440.622 170.5L440.738 170.511L443.079 170.926C443.457 170.992 443.744 171.313 443.775 171.703L444.858 184.873C444.91 185.505 445.418 185.981 446.04 185.981H458.314C458.899 185.981 459.403 185.536 459.488 184.945L460.555 177.416C460.593 177.149 460.474 176.962 460.4 176.874C460.326 176.787 460.161 176.64 459.897 176.64H447.809C447.343 176.64 446.966 176.254 446.966 175.779C446.966 175.303 447.343 174.918 447.809 174.918H459.897C460.58 174.918 461.229 175.221 461.676 175.748C462.122 176.274 462.324 176.971 462.226 177.662L461.157 185.192C460.955 186.624 459.733 187.703 458.314 187.703H446.04C444.533 187.703 443.303 186.548 443.177 185.017L442.148 172.509L440.45 172.209C439.991 172.128 439.684 171.682 439.762 171.214C439.841 170.744 440.273 170.436 440.738 170.511L440.622 170.5ZM456.511 179.161C456.977 179.161 457.355 179.547 457.355 180.022C457.355 180.498 456.977 180.883 456.511 180.883H453.392C452.925 180.883 452.548 180.498 452.548 180.022C452.548 179.547 452.925 179.161 453.392 179.161H456.511Z" fill="black"/>
<path d="M381.026 180.666C381.611 180.257 382.493 180.336 383.018 180.769L382.415 179.894C381.931 179.202 382.104 178.454 382.796 177.969C383.488 177.485 385.449 178.785 385.449 178.785C384.96 178.087 385.052 177.202 385.75 176.712C386.448 176.224 387.412 176.393 387.901 177.093L394.386 186.253L393.559 194.266L386.662 191.751L380.646 182.831C380.152 182.128 380.323 181.159 381.026 180.666Z" fill="#EF9645"/>
<path d="M379.677 185.763C379.677 185.763 378.973 184.736 380 184.032C381.026 183.328 381.73 184.355 381.73 184.355L384.998 189.121C385.111 188.933 385.234 188.747 385.371 188.564L380.836 181.951C380.836 181.951 380.132 180.924 381.159 180.221C382.185 179.517 382.889 180.543 382.889 180.543L387.155 186.764C387.314 186.635 387.476 186.505 387.644 186.377L382.698 179.164C382.698 179.164 381.994 178.138 383.021 177.434C384.047 176.73 384.751 177.756 384.751 177.756L389.697 184.968C389.878 184.857 390.058 184.76 390.239 184.658L385.616 177.917C385.616 177.917 384.912 176.891 385.938 176.187C386.965 175.483 387.669 176.509 387.669 176.509L392.556 183.638L393.299 184.722C390.22 186.834 389.927 190.808 391.686 193.374C392.038 193.887 392.551 193.536 392.551 193.536C390.44 190.456 391.085 186.995 394.165 184.883L393.257 180.339C393.257 180.339 392.917 179.141 394.114 178.802C395.312 178.462 395.651 179.66 395.651 179.66L396.7 182.774C397.116 184.009 397.558 185.239 398.144 186.403C399.797 189.689 398.81 193.773 395.692 195.912C392.291 198.244 387.641 197.377 385.309 193.976L379.677 185.763Z" fill="#FFDC5D"/>
<path d="M385.468 194.915C382.979 194.915 380.463 192.4 380.463 189.91C380.463 189.566 380.211 189.288 379.867 189.288C379.523 189.288 379.219 189.566 379.219 189.91C379.219 193.644 381.734 196.16 385.468 196.16C385.812 196.16 386.091 195.856 386.091 195.512C386.091 195.167 385.812 194.915 385.468 194.915Z" fill="white"/>
<path d="M382.356 196.133C380.489 196.133 379.245 194.889 379.245 193.022C379.245 192.678 378.966 192.399 378.622 192.399C378.278 192.399 378 192.678 378 193.022C378 195.511 379.867 197.378 382.356 197.378C382.701 197.378 382.979 197.1 382.979 196.756C382.979 196.412 382.701 196.133 382.356 196.133ZM392.936 176.219C392.593 176.219 392.314 176.497 392.314 176.841C392.314 177.184 392.593 177.463 392.936 177.463C395.426 177.463 397.915 179.697 397.915 182.442C397.915 182.785 398.194 183.064 398.537 183.064C398.881 183.064 399.16 182.785 399.16 182.442C399.16 179.01 396.67 176.219 392.936 176.219Z" fill="white"/>
<path d="M396.048 175C395.705 175 395.426 175.253 395.426 175.596C395.426 175.94 395.705 176.245 396.048 176.245C397.915 176.245 399.134 177.629 399.134 179.33C399.134 179.674 399.438 179.953 399.782 179.953C400.126 179.953 400.378 179.674 400.378 179.33C400.378 176.942 398.537 175 396.048 175Z" fill="white"/>
<path d="M205.075 194H202.041V185.621H193.484V194H190.438V175.439H193.484V183.031H202.041V175.439H205.075V194ZM212.667 179.946V194H209.684V179.946H212.667ZM211.194 174.563C211.651 174.563 212.045 174.686 212.375 174.932C212.714 175.177 212.883 175.6 212.883 176.201C212.883 176.794 212.714 177.217 212.375 177.471C212.045 177.716 211.651 177.839 211.194 177.839C210.72 177.839 210.318 177.716 209.988 177.471C209.667 177.217 209.506 176.794 209.506 176.201C209.506 175.6 209.667 175.177 209.988 174.932C210.318 174.686 210.72 174.563 211.194 174.563ZM219.954 190.979L220.132 191.271C219.979 191.88 219.785 192.536 219.548 193.238C219.311 193.941 219.053 194.643 218.773 195.346C218.494 196.057 218.211 196.725 217.923 197.352H215.739C215.917 196.666 216.086 195.947 216.247 195.193C216.416 194.449 216.569 193.712 216.704 192.984C216.848 192.248 216.962 191.579 217.047 190.979H219.954ZM237.524 194H234.465V178.029H229.031V175.439H242.945V178.029H237.524V194ZM248.468 174.246V179.21C248.468 179.726 248.451 180.23 248.417 180.721C248.392 181.212 248.362 181.592 248.328 181.863H248.493C248.789 181.372 249.153 180.97 249.585 180.657C250.017 180.336 250.499 180.094 251.032 179.934C251.574 179.773 252.149 179.692 252.759 179.692C253.834 179.692 254.748 179.874 255.501 180.238C256.254 180.594 256.83 181.148 257.228 181.901C257.634 182.655 257.837 183.632 257.837 184.834V194H254.854V185.393C254.854 184.301 254.629 183.484 254.181 182.942C253.732 182.392 253.038 182.117 252.099 182.117C251.193 182.117 250.474 182.308 249.94 182.688C249.416 183.061 249.039 183.615 248.811 184.352C248.582 185.079 248.468 185.968 248.468 187.018V194H245.484V174.246H248.468ZM274.455 186.941C274.455 188.109 274.303 189.146 273.998 190.052C273.693 190.957 273.249 191.723 272.665 192.35C272.081 192.967 271.379 193.441 270.558 193.771C269.737 194.093 268.81 194.254 267.777 194.254C266.812 194.254 265.928 194.093 265.124 193.771C264.32 193.441 263.622 192.967 263.029 192.35C262.445 191.723 261.993 190.957 261.671 190.052C261.349 189.146 261.188 188.109 261.188 186.941C261.188 185.393 261.455 184.081 261.988 183.006C262.53 181.923 263.3 181.097 264.299 180.53C265.298 179.963 266.487 179.68 267.866 179.68C269.161 179.68 270.304 179.963 271.294 180.53C272.284 181.097 273.059 181.923 273.617 183.006C274.176 184.089 274.455 185.401 274.455 186.941ZM264.261 186.941C264.261 187.965 264.383 188.841 264.629 189.569C264.883 190.297 265.272 190.856 265.797 191.245C266.322 191.626 266.999 191.816 267.828 191.816C268.658 191.816 269.335 191.626 269.859 191.245C270.384 190.856 270.769 190.297 271.015 189.569C271.26 188.841 271.383 187.965 271.383 186.941C271.383 185.917 271.26 185.05 271.015 184.339C270.769 183.619 270.384 183.074 269.859 182.701C269.335 182.32 268.653 182.13 267.815 182.13C266.58 182.13 265.678 182.545 265.111 183.374C264.544 184.203 264.261 185.393 264.261 186.941ZM293.765 179.68C295.339 179.68 296.524 180.086 297.319 180.898C298.123 181.711 298.525 183.014 298.525 184.809V194H295.542V185.342C295.542 184.275 295.335 183.471 294.92 182.93C294.505 182.388 293.875 182.117 293.028 182.117C291.843 182.117 290.989 182.498 290.464 183.26C289.948 184.013 289.689 185.109 289.689 186.548V194H286.706V185.342C286.706 184.631 286.613 184.038 286.427 183.564C286.249 183.082 285.974 182.722 285.602 182.485C285.229 182.24 284.759 182.117 284.192 182.117C283.371 182.117 282.715 182.303 282.225 182.676C281.742 183.048 281.395 183.598 281.184 184.326C280.972 185.046 280.866 185.93 280.866 186.979V194H277.883V179.946H280.206L280.625 181.838H280.79C281.078 181.347 281.433 180.945 281.856 180.632C282.288 180.31 282.766 180.073 283.291 179.921C283.816 179.76 284.362 179.68 284.929 179.68C285.978 179.68 286.863 179.866 287.582 180.238C288.301 180.602 288.839 181.161 289.194 181.914H289.423C289.863 181.152 290.477 180.59 291.264 180.226C292.051 179.862 292.884 179.68 293.765 179.68ZM308.199 179.68C309.977 179.68 311.318 180.073 312.224 180.86C313.138 181.647 313.595 182.875 313.595 184.542V194H311.475L310.903 192.007H310.802C310.404 192.515 309.993 192.934 309.57 193.264C309.147 193.594 308.656 193.839 308.098 194C307.548 194.169 306.875 194.254 306.079 194.254C305.241 194.254 304.492 194.102 303.832 193.797C303.172 193.484 302.651 193.01 302.271 192.375C301.89 191.74 301.699 190.936 301.699 189.963C301.699 188.516 302.237 187.428 303.312 186.7C304.395 185.972 306.028 185.57 308.212 185.494L310.649 185.405V184.669C310.649 183.696 310.421 183.002 309.964 182.587C309.515 182.172 308.881 181.965 308.06 181.965C307.357 181.965 306.676 182.066 306.016 182.27C305.355 182.473 304.712 182.722 304.086 183.019L303.121 180.911C303.807 180.547 304.585 180.251 305.457 180.022C306.337 179.794 307.251 179.68 308.199 179.68ZM310.637 187.284L308.821 187.348C307.332 187.398 306.286 187.652 305.686 188.109C305.085 188.566 304.784 189.193 304.784 189.988C304.784 190.682 304.992 191.19 305.406 191.512C305.821 191.825 306.367 191.981 307.044 191.981C308.076 191.981 308.931 191.689 309.608 191.105C310.294 190.513 310.637 189.646 310.637 188.503V187.284ZM327.217 189.988C327.217 190.911 326.993 191.689 326.544 192.324C326.095 192.959 325.439 193.441 324.576 193.771C323.721 194.093 322.672 194.254 321.428 194.254C320.446 194.254 319.6 194.182 318.889 194.038C318.186 193.903 317.522 193.691 316.896 193.403V190.826C317.564 191.139 318.313 191.41 319.143 191.639C319.98 191.867 320.772 191.981 321.517 191.981C322.498 191.981 323.205 191.829 323.637 191.524C324.068 191.211 324.284 190.797 324.284 190.28C324.284 189.976 324.195 189.705 324.018 189.468C323.848 189.222 323.527 188.973 323.053 188.719C322.587 188.456 321.902 188.143 320.996 187.779C320.107 187.424 319.358 187.068 318.749 186.713C318.14 186.357 317.678 185.93 317.365 185.431C317.052 184.923 316.896 184.275 316.896 183.488C316.896 182.244 317.386 181.3 318.368 180.657C319.358 180.006 320.666 179.68 322.291 179.68C323.154 179.68 323.967 179.769 324.729 179.946C325.499 180.116 326.252 180.365 326.988 180.695L326.049 182.942C325.414 182.663 324.775 182.435 324.132 182.257C323.497 182.071 322.85 181.978 322.189 181.978C321.419 181.978 320.831 182.096 320.425 182.333C320.027 182.57 319.828 182.909 319.828 183.349C319.828 183.679 319.925 183.958 320.12 184.187C320.315 184.415 320.649 184.644 321.123 184.872C321.605 185.101 322.274 185.384 323.129 185.723C323.967 186.044 324.69 186.383 325.3 186.738C325.918 187.085 326.392 187.513 326.722 188.021C327.052 188.528 327.217 189.184 327.217 189.988ZM335.189 199.167C334.724 199.167 334.318 199.137 333.971 199.078C333.615 199.027 333.311 198.955 333.057 198.862V196.311C333.327 196.378 333.619 196.438 333.933 196.488C334.246 196.539 334.58 196.564 334.936 196.564C335.401 196.564 335.824 196.476 336.205 196.298C336.586 196.12 336.886 195.799 337.106 195.333C337.335 194.868 337.449 194.212 337.449 193.365V175.439H340.496V193.264C340.496 194.643 340.276 195.765 339.836 196.628C339.396 197.5 338.778 198.139 337.982 198.545C337.187 198.96 336.256 199.167 335.189 199.167ZM357.432 186.941C357.432 188.109 357.279 189.146 356.975 190.052C356.67 190.957 356.226 191.723 355.642 192.35C355.058 192.967 354.355 193.441 353.534 193.771C352.713 194.093 351.786 194.254 350.754 194.254C349.789 194.254 348.905 194.093 348.101 193.771C347.297 193.441 346.598 192.967 346.006 192.35C345.422 191.723 344.969 190.957 344.647 190.052C344.326 189.146 344.165 188.109 344.165 186.941C344.165 185.393 344.432 184.081 344.965 183.006C345.507 181.923 346.277 181.097 347.275 180.53C348.274 179.963 349.463 179.68 350.843 179.68C352.138 179.68 353.28 179.963 354.271 180.53C355.261 181.097 356.035 181.923 356.594 183.006C357.152 184.089 357.432 185.401 357.432 186.941ZM347.237 186.941C347.237 187.965 347.36 188.841 347.605 189.569C347.859 190.297 348.249 190.856 348.773 191.245C349.298 191.626 349.975 191.816 350.805 191.816C351.634 191.816 352.311 191.626 352.836 191.245C353.361 190.856 353.746 190.297 353.991 189.569C354.237 188.841 354.359 187.965 354.359 186.941C354.359 185.917 354.237 185.05 353.991 184.339C353.746 183.619 353.361 183.074 352.836 182.701C352.311 182.32 351.63 182.13 350.792 182.13C349.556 182.13 348.655 182.545 348.088 183.374C347.521 184.203 347.237 185.393 347.237 186.941ZM366.458 179.68C367.711 179.68 368.785 179.938 369.683 180.454C370.58 180.97 371.27 181.702 371.752 182.65C372.234 183.598 372.476 184.732 372.476 186.053V187.652H363.094C363.128 189.015 363.492 190.064 364.186 190.801C364.888 191.537 365.87 191.905 367.131 191.905C368.028 191.905 368.832 191.821 369.543 191.651C370.262 191.474 371.003 191.215 371.765 190.877V193.302C371.062 193.632 370.347 193.873 369.619 194.025C368.891 194.178 368.02 194.254 367.004 194.254C365.624 194.254 364.41 193.987 363.36 193.454C362.319 192.912 361.503 192.108 360.91 191.042C360.326 189.976 360.034 188.651 360.034 187.068C360.034 185.494 360.301 184.157 360.834 183.057C361.367 181.956 362.116 181.118 363.081 180.543C364.046 179.967 365.172 179.68 366.458 179.68ZM366.458 181.927C365.519 181.927 364.757 182.231 364.173 182.841C363.597 183.45 363.259 184.343 363.157 185.52H369.556C369.547 184.817 369.429 184.195 369.2 183.653C368.98 183.112 368.642 182.688 368.185 182.384C367.736 182.079 367.16 181.927 366.458 181.927Z" fill="white"/>
<g filter="url(#filter13_d_432_2506)">
<rect x="101" y="155" width="55" height="55" rx="20" fill="white"/>
</g>
<path d="M141 182C141 181.436 140.584 180.97 140.046 180.901L139.909 180.893H118.091C117.649 180.893 117.252 181.163 117.083 181.578C117.028 181.713 117 181.857 117 182C117 182.24 117.077 182.477 117.224 182.672L117.321 182.784L126.121 191.678C126.548 192.109 127.239 192.107 127.663 191.675C128.053 191.277 128.085 190.655 127.758 190.222L127.66 190.108L120.732 183.107H139.909C140.511 183.107 141 182.611 141 182ZM127.661 173.892C128.088 173.461 128.088 172.759 127.663 172.325C127.274 171.929 126.661 171.895 126.232 172.224L126.12 172.322L121.268 177.228C121.053 177.445 120.946 177.728 120.946 178.013C120.946 178.295 121.053 178.577 121.265 178.794C121.654 179.192 122.266 179.226 122.695 178.896L122.807 178.797L127.661 173.892Z" fill="#141414"/>
<defs>
<filter id="filter0_d_432_2506" x="604" y="633" width="84" height="89" filterUnits="userSpaceOnUse" color-interpolation-filters="sRGB">
<feFlood flood-opacity="0" result="BackgroundImageFix"/>
<feColorMatrix in="SourceAlpha" type="matrix" values="0 0 0 0 0 0 0 0 0 0 0 0 0 0 0 0 0 0 127 0" result="hardAlpha"/>
<feOffset dy="15"/>
<feGaussianBlur stdDeviation="5"/>
<feComposite in2="hardAlpha" operator="out"/>
<feColorMatrix type="matrix" values="0 0 0 0 0.898507 0 0 0 0 0.938481 0 0 0 0 0.954167 0 0 0 1 0"/>
<feBlend mode="multiply" in2="BackgroundImageFix" result="effect1_dropShadow_432_2506"/>
<feBlend mode="normal" in="SourceGraphic" in2="effect1_dropShadow_432_2506" result="shape"/>
</filter>
<filter id="filter1_d_432_2506" x="548" y="311" width="84" height="89" filterUnits="userSpaceOnUse" color-interpolation-filters="sRGB">
<feFlood flood-opacity="0" result="BackgroundImageFix"/>
<feColorMatrix in="SourceAlpha" type="matrix" values="0 0 0 0 0 0 0 0 0 0 0 0 0 0 0 0 0 0 127 0" result="hardAlpha"/>
<feOffset dy="15"/>
<feGaussianBlur stdDeviation="5"/>
<feComposite in2="hardAlpha" operator="out"/>
<feColorMatrix type="matrix" values="0 0 0 0 0.898507 0 0 0 0 0.938481 0 0 0 0 0.954167 0 0 0 1 0"/>
<feBlend mode="multiply" in2="BackgroundImageFix" result="effect1_dropShadow_432_2506"/>
<feBlend mode="normal" in="SourceGraphic" in2="effect1_dropShadow_432_2506" result="shape"/>
</filter>
<filter id="filter2_d_432_2506" x="583" y="172" width="84" height="89" filterUnits="userSpaceOnUse" color-interpolation-filters="sRGB">
<feFlood flood-opacity="0" result="BackgroundImageFix"/>
<feColorMatrix in="SourceAlpha" type="matrix" values="0 0 0 0 0 0 0 0 0 0 0 0 0 0 0 0 0 0 127 0" result="hardAlpha"/>
<feOffset dy="15"/>
<feGaussianBlur stdDeviation="5"/>
<feComposite in2="hardAlpha" operator="out"/>
<feColorMatrix type="matrix" values="0 0 0 0 0.898507 0 0 0 0 0.938481 0 0 0 0 0.954167 0 0 0 1 0"/>
<feBlend mode="multiply" in2="BackgroundImageFix" result="effect1_dropShadow_432_2506"/>
<feBlend mode="normal" in="SourceGraphic" in2="effect1_dropShadow_432_2506" result="shape"/>
</filter>
<filter id="filter3_d_432_2506" x="668" y="461" width="84" height="89" filterUnits="userSpaceOnUse" color-interpolation-filters="sRGB">
<feFlood flood-opacity="0" result="BackgroundImageFix"/>
<feColorMatrix in="SourceAlpha" type="matrix" values="0 0 0 0 0 0 0 0 0 0 0 0 0 0 0 0 0 0 127 0" result="hardAlpha"/>
<feOffset dy="15"/>
<feGaussianBlur stdDeviation="5"/>
<feComposite in2="hardAlpha" operator="out"/>
<feColorMatrix type="matrix" values="0 0 0 0 0.898507 0 0 0 0 0.938481 0 0 0 0 0.954167 0 0 0 1 0"/>
<feBlend mode="multiply" in2="BackgroundImageFix" result="effect1_dropShadow_432_2506"/>
<feBlend mode="normal" in="SourceGraphic" in2="effect1_dropShadow_432_2506" result="shape"/>
</filter>
<filter id="filter4_d_432_2506" x="72" y="695" width="424" height="116" filterUnits="userSpaceOnUse" color-interpolation-filters="sRGB">
<feFlood flood-opacity="0" result="BackgroundImageFix"/>
<feColorMatrix in="SourceAlpha" type="matrix" values="0 0 0 0 0 0 0 0 0 0 0 0 0 0 0 0 0 0 127 0" result="hardAlpha"/>
<feOffset dy="9"/>
<feGaussianBlur stdDeviation="14.5"/>
<feColorMatrix type="matrix" values="0 0 0 0 0.875503 0 0 0 0 0.875503 0 0 0 0 0.995833 0 0 0 0.46 0"/>
<feBlend mode="normal" in2="BackgroundImageFix" result="effect1_dropShadow_432_2506"/>
<feBlend mode="normal" in="SourceGraphic" in2="effect1_dropShadow_432_2506" result="shape"/>
</filter>
<filter id="filter5_d_432_2506" x="72" y="621" width="424" height="116" filterUnits="userSpaceOnUse" color-interpolation-filters="sRGB">
<feFlood flood-opacity="0" result="BackgroundImageFix"/>
<feColorMatrix in="SourceAlpha" type="matrix" values="0 0 0 0 0 0 0 0 0 0 0 0 0 0 0 0 0 0 127 0" result="hardAlpha"/>
<feOffset dy="9"/>
<feGaussianBlur stdDeviation="14.5"/>
<feColorMatrix type="matrix" values="0 0 0 0 0.875503 0 0 0 0 0.875503 0 0 0 0 0.995833 0 0 0 0.46 0"/>
<feBlend mode="normal" in2="BackgroundImageFix" result="effect1_dropShadow_432_2506"/>
<feBlend mode="normal" in="SourceGraphic" in2="effect1_dropShadow_432_2506" result="shape"/>
</filter>
<filter id="filter6_d_432_2506" x="72" y="546" width="424" height="116" filterUnits="userSpaceOnUse" color-interpolation-filters="sRGB">
<feFlood flood-opacity="0" result="BackgroundImageFix"/>
<feColorMatrix in="SourceAlpha" type="matrix" values="0 0 0 0 0 0 0 0 0 0 0 0 0 0 0 0 0 0 127 0" result="hardAlpha"/>
<feOffset dy="9"/>
<feGaussianBlur stdDeviation="14.5"/>
<feColorMatrix type="matrix" values="0 0 0 0 0.875503 0 0 0 0 0.875503 0 0 0 0 0.995833 0 0 0 0.46 0"/>
<feBlend mode="normal" in2="BackgroundImageFix" result="effect1_dropShadow_432_2506"/>
<feBlend mode="normal" in="SourceGraphic" in2="effect1_dropShadow_432_2506" result="shape"/>
</filter>
<filter id="filter7_d_432_2506" x="72" y="396" width="424" height="116" filterUnits="userSpaceOnUse" color-interpolation-filters="sRGB">
<feFlood flood-opacity="0" result="BackgroundImageFix"/>
<feColorMatrix in="SourceAlpha" type="matrix" values="0 0 0 0 0 0 0 0 0 0 0 0 0 0 0 0 0 0 127 0" result="hardAlpha"/>
<feOffset dy="9"/>
<feGaussianBlur stdDeviation="14.5"/>
<feColorMatrix type="matrix" values="0 0 0 0 0.875503 0 0 0 0 0.875503 0 0 0 0 0.995833 0 0 0 0.46 0"/>
<feBlend mode="normal" in2="BackgroundImageFix" result="effect1_dropShadow_432_2506"/>
<feBlend mode="normal" in="SourceGraphic" in2="effect1_dropShadow_432_2506" result="shape"/>
</filter>
<filter id="filter8_d_432_2506" x="72" y="321" width="424" height="116" filterUnits="userSpaceOnUse" color-interpolation-filters="sRGB">
<feFlood flood-opacity="0" result="BackgroundImageFix"/>
<feColorMatrix in="SourceAlpha" type="matrix" values="0 0 0 0 0 0 0 0 0 0 0 0 0 0 0 0 0 0 127 0" result="hardAlpha"/>
<feOffset dy="9"/>
<feGaussianBlur stdDeviation="14.5"/>
<feColorMatrix type="matrix" values="0 0 0 0 0.875503 0 0 0 0 0.875503 0 0 0 0 0.995833 0 0 0 0.46 0"/>
<feBlend mode="normal" in2="BackgroundImageFix" result="effect1_dropShadow_432_2506"/>
<feBlend mode="normal" in="SourceGraphic" in2="effect1_dropShadow_432_2506" result="shape"/>
</filter>
<filter id="filter9_d_432_2506" x="131" y="462" width="537.586" height="134" filterUnits="userSpaceOnUse" color-interpolation-filters="sRGB">
<feFlood flood-opacity="0" result="BackgroundImageFix"/>
<feColorMatrix in="SourceAlpha" type="matrix" values="0 0 0 0 0 0 0 0 0 0 0 0 0 0 0 0 0 0 127 0" result="hardAlpha"/>
<feOffset dy="9"/>
<feGaussianBlur stdDeviation="14.5"/>
<feColorMatrix type="matrix" values="0 0 0 0 0.875503 0 0 0 0 0.875503 0 0 0 0 0.995833 0 0 0 0.46 0"/>
<feBlend mode="normal" in2="BackgroundImageFix" result="effect1_dropShadow_432_2506"/>
<feBlend mode="normal" in="SourceGraphic" in2="effect1_dropShadow_432_2506" result="shape"/>
</filter>
<filter id="filter10_d_432_2506" x="45" y="82" width="488" height="280" filterUnits="userSpaceOnUse" color-interpolation-filters="sRGB">
<feFlood flood-opacity="0" result="BackgroundImageFix"/>
<feColorMatrix in="SourceAlpha" type="matrix" values="0 0 0 0 0 0 0 0 0 0 0 0 0 0 0 0 0 0 127 0" result="hardAlpha"/>
<feOffset dy="17"/>
<feGaussianBlur stdDeviation="15"/>
<feComposite in2="hardAlpha" operator="out"/>
<feColorMatrix type="matrix" values="0 0 0 0 0.361201 0 0 0 0 0.322917 0 0 0 0 0.645833 0 0 0 0.24 0"/>
<feBlend mode="normal" in2="BackgroundImageFix" result="effect1_dropShadow_432_2506"/>
<feBlend mode="normal" in="SourceGraphic" in2="effect1_dropShadow_432_2506" result="shape"/>
</filter>
<filter id="filter11_d_432_2506" x="60" y="208" width="458" height="140" filterUnits="userSpaceOnUse" color-interpolation-filters="sRGB">
<feFlood flood-opacity="0" result="BackgroundImageFix"/>
<feColorMatrix in="SourceAlpha" type="matrix" values="0 0 0 0 0 0 0 0 0 0 0 0 0 0 0 0 0 0 127 0" result="hardAlpha"/>
<feOffset dy="18"/>
<feGaussianBlur stdDeviation="20"/>
<feComposite in2="hardAlpha" operator="out"/>
<feColorMatrix type="matrix" values="0 0 0 0 0 0 0 0 0 0 0 0 0 0 0 0 0 0 0.17 0"/>
<feBlend mode="normal" in2="BackgroundImageFix" result="effect1_dropShadow_432_2506"/>
<feBlend mode="normal" in="SourceGraphic" in2="effect1_dropShadow_432_2506" result="shape"/>
</filter>
<filter id="filter12_d_432_2506" x="393" y="129" width="115" height="115" filterUnits="userSpaceOnUse" color-interpolation-filters="sRGB">
<feFlood flood-opacity="0" result="BackgroundImageFix"/>
<feColorMatrix in="SourceAlpha" type="matrix" values="0 0 0 0 0 0 0 0 0 0 0 0 0 0 0 0 0 0 127 0" result="hardAlpha"/>
<feOffset dy="4"/>
<feGaussianBlur stdDeviation="15"/>
<feComposite in2="hardAlpha" operator="out"/>
<feColorMatrix type="matrix" values="0 0 0 0 0 0 0 0 0 0 0 0 0 0 0 0 0 0 0.07 0"/>
<feBlend mode="normal" in2="BackgroundImageFix" result="effect1_dropShadow_432_2506"/>
<feBlend mode="normal" in="SourceGraphic" in2="effect1_dropShadow_432_2506" result="shape"/>
</filter>
<filter id="filter13_d_432_2506" x="71" y="129" width="115" height="115" filterUnits="userSpaceOnUse" color-interpolation-filters="sRGB">
<feFlood flood-opacity="0" result="BackgroundImageFix"/>
<feColorMatrix in="SourceAlpha" type="matrix" values="0 0 0 0 0 0 0 0 0 0 0 0 0 0 0 0 0 0 127 0" result="hardAlpha"/>
<feOffset dy="4"/>
<feGaussianBlur stdDeviation="15"/>
<feComposite in2="hardAlpha" operator="out"/>
<feColorMatrix type="matrix" values="0 0 0 0 0 0 0 0 0 0 0 0 0 0 0 0 0 0 0.07 0"/>
<feBlend mode="normal" in2="BackgroundImageFix" result="effect1_dropShadow_432_2506"/>
<feBlend mode="normal" in="SourceGraphic" in2="effect1_dropShadow_432_2506" result="shape"/>
</filter>
<linearGradient id="paint0_linear_432_2506" x1="18" y1="2.8632e-05" x2="1019.7" y2="521.818" gradientUnits="userSpaceOnUse">
<stop offset="0.485006" stopColor="#84D5FF"/>
<stop offset="1" stopColor="#B4FBF2"/>
</linearGradient>
<clipPath id="clip0_432_2506">
<rect width="26" height="26" fill="white" transform="translate(118 657)"/>
</clipPath>
<clipPath id="clip1_432_2506">
<rect width="26" height="26" fill="white" transform="translate(118 582)"/>
</clipPath>
<clipPath id="clip2_432_2506">
<rect width="26" height="26" fill="white" transform="translate(118 432)"/>
</clipPath>
<clipPath id="clip3_432_2506">
<rect width="26" height="26" fill="white" transform="translate(118 358)"/>
</clipPath>
<clipPath id="clip4_432_2506">
<rect width="32.7586" height="32.7586" fill="white" transform="translate(183.586 504.275)"/>
</clipPath>
</defs>
</svg>
