<svg width="64" height="64" viewBox="0 0 64 64" fill="none" xmlns="http://www.w3.org/2000/svg">
<circle cx="32" cy="32" r="32" fill="url(#paint0_linear_432_2494)"/>
<path d="M32 47C31.5677 46.9995 31.1456 46.868 30.7885 46.6229C25.4991 43.0106 23.2087 40.5339 21.9454 38.9854C19.2533 35.6846 17.9644 32.2958 18.0007 28.626C18.0431 24.4206 21.3969 21 25.4769 21C28.4437 21 30.4984 22.6812 31.6951 24.0814C31.733 24.1253 31.7799 24.1605 31.8325 24.1847C31.8851 24.2088 31.9422 24.2213 32 24.2213C32.0578 24.2213 32.1149 24.2088 32.1675 24.1847C32.2201 24.1605 32.267 24.1253 32.3049 24.0814C33.5016 22.6798 35.5564 21 38.5231 21C42.6031 21 45.9569 24.4206 45.9993 28.6267C46.0356 32.2971 44.7454 35.6859 42.0546 38.986C40.7913 40.5345 38.5009 43.0113 33.2115 46.6235C32.8543 46.8685 32.4322 46.9997 32 47Z" fill="white"/>
<defs>
<linearGradient id="paint0_linear_432_2494" x1="5" y1="6.5" x2="62" y2="65.5" gradientUnits="userSpaceOnUse">
<stop stopColor="#FF96C8"/>
<stop offset="1" stopColor="#CB4D6B"/>
</linearGradient>
</defs>
</svg>
