<svg width="86" height="27" viewBox="0 0 86 27" fill="none" xmlns="http://www.w3.org/2000/svg">
<path d="M18.7555 6.75636V14.9499C18.7555 15.0827 18.7028 15.2101 18.6089 15.304C18.515 15.3979 18.3877 15.4507 18.2549 15.4507H15.6691C15.5364 15.4506 15.4091 15.3978 15.3152 15.3039C15.2213 15.21 15.1686 15.0827 15.1685 14.9499V1.62272C15.1685 1.48991 15.2213 1.36253 15.3151 1.26862C15.409 1.17471 15.5364 1.12194 15.6691 1.12194H18.062C18.1947 1.12194 18.3221 1.17471 18.416 1.26862C18.5098 1.36253 18.5626 1.48991 18.5626 1.62272V3.49954C18.5626 3.49954 19.418 0.822317 21.9565 0.822317C21.9565 0.822317 24.4674 0.518715 25.4883 3.30634C25.4883 3.30634 26.3437 0.822317 28.9373 0.822317C28.9373 0.822317 32.7945 0.592904 32.7945 4.58522L32.8239 6.78396V14.9775C32.8239 15.1103 32.7712 15.2377 32.6773 15.3316C32.5834 15.4255 32.456 15.4783 32.3233 15.4783H29.7373C29.6045 15.4782 29.4772 15.4254 29.3834 15.3315C29.2895 15.2376 29.2367 15.1103 29.2367 14.9775L29.213 6.03876C29.2866 4.01467 27.6495 4.16194 27.6495 4.16194C25.5894 4.19882 25.7876 6.78396 25.7876 6.78396V14.9775C25.7876 15.1103 25.7349 15.2377 25.641 15.3316C25.5471 15.4255 25.4198 15.4783 25.287 15.4783H22.7012C22.5685 15.4782 22.4412 15.4254 22.3473 15.3315C22.2534 15.2376 22.2007 15.1103 22.2006 14.9775V6.24101C22.2006 6.24101 22.3518 4.1434 20.5122 4.1434C20.5124 4.1434 18.6913 3.90427 18.7555 6.75636ZM85.4089 6.73185V14.9251C85.4088 15.0579 85.356 15.1853 85.2622 15.2792C85.1683 15.3731 85.041 15.4259 84.9082 15.4259L82.2189 15.478C82.0862 15.478 81.9589 15.4252 81.865 15.3313C81.7711 15.2374 81.7184 15.1101 81.7183 14.9773V6.24101C81.7183 6.24101 81.8695 4.1434 80.0301 4.1434C80.0301 4.1434 78.2732 4.05684 78.2732 7.34568V14.9497C78.2732 15.0825 78.2204 15.2098 78.1265 15.3037C78.0327 15.3976 77.9054 15.4504 77.7726 15.4504H75.1866C75.0539 15.4504 74.9266 15.3976 74.8327 15.3037C74.7388 15.2098 74.6861 15.0825 74.686 14.9497V1.62272C74.6861 1.48993 74.7388 1.36259 74.8327 1.26868C74.9266 1.17478 75.0539 1.122 75.1866 1.12194H77.5795C77.7122 1.12194 77.8396 1.17471 77.9335 1.26862C78.0273 1.36253 78.0801 1.48991 78.0801 1.62272V3.49954C78.0801 3.49954 78.9355 0.822317 81.474 0.822317C81.474 0.822317 84.1932 0.409639 85.1091 3.25445C85.1093 3.25423 85.4089 3.84112 85.4089 6.73185ZM66.7387 0.767116C63.4321 0.767116 60.7512 3.55474 60.7512 8.24678C60.7512 12.3778 62.8206 15.7264 66.7387 15.7264C70.4361 15.7264 72.7263 12.3778 72.7263 8.24678C72.7263 3.63754 70.0456 0.767116 66.7387 0.767116ZM68.8258 8.41238C68.8258 10.1788 68.6051 11.1172 68.6051 11.1172C68.291 12.9845 66.9359 12.9872 66.7361 12.9772C66.5204 12.9858 65.1538 12.9664 64.8711 11.1172C64.8711 11.1172 64.6503 10.1788 64.6503 8.41238V8.11805C64.6503 6.35163 64.8711 5.41323 64.8711 5.41323C65.1538 3.56401 66.5206 3.54458 66.7361 3.55297C66.9359 3.54304 68.291 3.54546 68.6051 5.41323C68.6051 5.41323 68.8258 6.35163 68.8258 8.11805V8.41238ZM59.2504 3.48099V1.56885C59.2503 1.43605 59.1975 1.30871 59.1037 1.21481C59.0098 1.12091 58.8825 1.06813 58.7497 1.06807H50.2027C50.0699 1.06807 49.9426 1.12083 49.8487 1.21474C49.7548 1.30866 49.7021 1.43603 49.7021 1.56885V3.4662C49.7021 3.59899 49.7549 3.72634 49.8488 3.82024C49.9426 3.91414 50.0699 3.96692 50.2027 3.96698H54.661L49.384 11.6244C49.384 11.6244 49.176 11.9348 49.1829 12.2777V14.607C49.1829 14.607 49.1485 15.4056 50.0539 14.9421C50.0539 14.9421 51.6622 13.9702 54.359 13.9702C54.359 13.9702 57.0222 13.9371 58.7979 15.0258C58.7979 15.0258 59.5349 15.361 59.5349 14.624V12.5966C59.5349 12.5966 59.6018 12.06 58.8983 11.7251C58.8983 11.7251 56.8547 10.6025 54.1747 10.7867L59.2504 3.48099ZM13.1728 13.0673L12.3634 11.8348C12.1058 11.3747 12.1243 10.8593 12.1243 10.8593V5.17388C12.2347 0.261039 6.78969 0.684316 6.78969 0.684316C1.94931 0.684316 1.23434 4.4523 1.23434 4.4523C1.03258 5.20987 1.61931 5.2282 1.61931 5.2282L3.98453 5.46821C3.98453 5.46821 4.38782 5.5605 4.53461 5.08026C4.53461 5.08026 4.84608 3.43639 6.58793 3.43639C8.4832 3.43639 8.46355 5.06348 8.46355 5.06348V6.4256C4.68008 6.55212 2.92675 7.6027 2.92675 7.6027C0.590665 8.92751 0.737677 11.5588 0.737677 11.5588C0.737677 15.8459 4.82135 15.6617 4.82135 15.6617C7.43336 15.6617 8.97854 13.7483 8.97854 13.7483C9.43834 14.5582 10.2847 15.3305 10.2847 15.3305C10.708 15.7898 11.1493 15.4043 11.1493 15.4043L13.0624 13.7668C13.4854 13.4537 13.1728 13.0673 13.1728 13.0673ZM6.09612 13.0143C4.86749 13.0143 4.41078 11.7931 4.61474 10.5928C4.81893 9.39252 5.87936 8.44925 8.46377 8.47685V9.2066C8.55538 12.3945 7.11881 13.0143 6.09612 13.0143ZM47.5344 13.0673L46.7252 11.8348C46.4676 11.3747 46.4859 10.8593 46.4859 10.8593V5.17388C46.5963 0.261039 41.1513 0.684316 41.1513 0.684316C36.3109 0.684316 35.5959 4.4523 35.5959 4.4523C35.3942 5.20987 35.9809 5.2282 35.9809 5.2282L38.3461 5.46821C38.3461 5.46821 38.7494 5.5605 38.8962 5.08026C38.8962 5.08026 39.2077 3.43639 40.9495 3.43639C42.8448 3.43639 42.8252 5.06348 42.8252 5.06348V6.4256C39.0419 6.55212 37.2884 7.6027 37.2884 7.6027C34.9523 8.92751 35.0993 11.5588 35.0993 11.5588C35.0993 15.8459 39.183 15.6617 39.183 15.6617C41.795 15.6617 43.3401 13.7483 43.3401 13.7483C43.8002 14.5582 44.646 15.3305 44.646 15.3305C45.0694 15.7898 45.5109 15.4043 45.5109 15.4043L47.4238 13.7668C47.847 13.4537 47.5344 13.0673 47.5344 13.0673ZM40.4577 13.0143C39.2291 13.0143 38.7724 11.7931 38.9763 10.5928C39.1805 9.39252 40.241 8.44925 42.8252 8.47685V9.2066C42.917 12.3945 41.4806 13.0143 40.4577 13.0143Z" fill="white"/>
<path d="M54.0453 23.8288C54.0453 23.8288 53.8289 24.2053 54.0947 24.2894C54.0947 24.2894 54.3949 24.4067 54.7693 24.0591C54.7693 24.0591 57.4996 21.6733 57.5654 17.3297C57.5654 17.3297 57.5855 16.7872 57.3678 16.6388C57.3678 16.6388 56.5125 15.8819 53.4367 16.1122C53.4367 16.1122 50.7556 16.2933 49.2919 17.5931C49.2919 17.5931 49.1603 17.7082 49.1603 17.8561C49.1603 17.8561 49.1288 18.1756 49.9334 18.0372C49.9334 18.0372 52.6142 17.6585 54.2097 17.8561C54.2097 17.8561 55.0324 17.9548 55.2626 18.2348C55.2626 18.2348 55.641 18.5474 55.4434 19.5837C55.4434 19.5841 54.9004 22.2165 54.0453 23.8288Z" fill="#F3971B"/>
<path d="M53.5046 19.6628C53.5046 19.6628 53.905 20.1817 53.2589 20.6292C53.2589 20.6292 46.357 26.1515 34.7682 26.1515C34.7682 26.1515 22.839 26.7402 12.8782 17.6873C12.8782 17.6873 12.529 17.3806 12.7457 17.0955C12.7457 17.0955 12.9395 16.8332 13.4413 17.1185C13.4413 17.1185 22.8114 22.9589 35.1177 22.9589C35.1177 22.9589 43.6713 23.2901 52.4457 19.5365C52.4457 19.5365 53.1448 19.1742 53.5046 19.6628Z" fill="#F3971B"/>
</svg>
