<svg width="88" height="22" viewBox="0 0 88 22" fill="none" xmlns="http://www.w3.org/2000/svg">
<path d="M26.8935 8.80435C27.9003 8.80435 28.7164 7.98791 28.7164 6.98093C28.7164 5.97379 27.9003 5.15752 26.8935 5.15752C25.8867 5.15752 25.0706 5.97379 25.0706 6.98093C25.0706 7.98791 25.8867 8.80435 26.8935 8.80435ZM87.0543 15.0343C86.777 14.8393 86.5629 14.807 86.3853 15.1857C83.3236 21.8169 78.1642 18.5078 78.6767 18.799C79.8211 18.2755 82.831 15.8616 82.3761 12.5285C82.0998 10.4915 80.3515 9.58797 78.4958 9.91149C75.2565 10.4762 74.0648 13.9701 74.6715 17.0634C74.7776 17.5946 74.9673 18.0327 75.1568 18.4619C71.4962 21.4387 70.0426 15.7972 69.8776 15.123C69.8711 15.0869 72.7041 12.7256 73.492 7.09862C74.3179 1.20126 72.4366 0.127453 70.5128 0.160955C66.9529 0.222979 65.991 7.66078 67.2833 13.8597C67.1751 13.8878 66.6713 14.1669 65.8619 14.1981C65.2795 12.3654 62.7908 10.759 62.1395 11.3781C60.5094 12.9266 62.5348 15.954 63.96 16.1915C63.1039 21.4645 57.7498 20.1585 58.7464 13.5523C60.49 10.3146 61.816 5.50028 61.5794 2.59395C61.4956 1.56498 60.7348 0.186383 59.0143 0.254763C55.7051 0.385682 55.3453 7.82555 55.7332 13.1059C55.714 12.9759 55.5298 13.7475 54.1737 14.1311C53.853 12.3507 50.9861 10.5635 50.3113 11.4227C49.048 13.0309 51.2373 15.8982 52.2744 16.0982C51.4182 21.371 46.0643 20.0651 47.061 13.4588C48.8045 10.2213 50.1304 5.40699 49.8938 2.50066C49.8099 1.47152 49.0493 0.0929188 47.3287 0.161127C44.0194 0.292218 43.6597 7.73208 44.0476 13.0125C44.0282 12.8804 43.8397 13.6774 42.4283 14.0547C42.3811 11.7447 39.5038 10.6855 38.8126 11.4226C37.5807 12.7364 39.0947 15.4321 40.4953 16.0982C39.6391 21.371 34.2852 20.0651 35.2819 13.4588C37.0254 10.2213 38.3514 5.40699 38.1147 2.50066C38.031 1.47152 37.2702 0.0929188 35.5496 0.161127C32.2405 0.292218 31.9742 8.10611 32.3622 13.3863C31.2722 18.0563 27.6169 23.8882 28.0918 12.2057C28.1387 11.3861 28.1899 11.075 27.7814 10.7681C27.4752 10.5297 26.779 10.6444 26.3985 10.6539C25.936 10.6724 25.82 10.943 25.7178 11.3521C25.4796 12.4084 25.4369 13.4324 25.4028 14.8295C25.3805 15.4831 25.3281 15.7881 25.0764 16.6792C24.825 17.5702 23.3909 19.1988 22.6058 18.9265C21.5165 18.552 21.8739 15.4769 22.078 13.3642C22.2481 11.6945 21.7034 10.9447 20.308 10.6721C19.491 10.5018 18.9947 10.5279 18.1439 10.2597C17.3393 10.0062 17.1574 8.48427 15.4413 8.99145C14.5027 9.26909 15.1061 11.2578 14.8805 12.7317C13.7715 19.9823 11.4639 20.1814 10.3934 16.6593C15.2149 4.85067 11.7881 0.195317 9.78226 0.195317C7.69305 0.195317 5.3049 1.63439 6.31617 10.842C5.82445 10.6985 5.67326 10.6212 5.13498 10.6212C2.09069 10.6212 0.0166016 13.0822 0.0166016 16.1181C0.0166016 19.154 2.09086 21.6151 5.13515 21.6151C6.93228 21.6151 8.19405 20.7978 9.14965 19.5335C9.77315 20.4264 10.5324 21.6289 11.9208 21.5748C16.0591 21.4136 17.2627 12.9247 17.4048 12.4512C17.8472 12.5194 18.2657 12.6484 18.6743 12.7166C19.355 12.8188 19.4044 13.0882 19.389 13.7729C19.2086 19.5464 20.274 21.5679 22.6907 21.5679C24.0371 21.5679 25.2372 20.245 26.064 19.299C26.6814 20.5735 27.6654 21.5289 28.9854 21.5677C32.184 21.6473 33.4086 16.5492 33.297 17.2201C33.2093 17.7465 34.3347 21.539 37.6276 21.5528C41.7065 21.57 42.4647 17.0844 42.5551 16.333C42.5664 16.1836 42.5714 16.199 42.5551 16.333L42.552 16.3786C43.8469 16.1377 44.5151 15.4434 44.5151 15.4434C44.5151 15.4434 45.5549 21.6225 49.4065 21.553C53.4062 21.4804 54.1605 17.4257 54.2594 16.6351C54.2725 16.4475 54.2802 16.4695 54.2594 16.6351C54.2589 16.6428 54.2584 16.6505 54.2579 16.6583C55.7961 16.0987 56.2007 15.537 56.2007 15.537C56.2007 15.537 57.0271 21.5933 61.0921 21.6462C64.7146 21.6937 66.0571 17.9841 66.065 16.4315C66.676 16.438 67.8061 16.069 67.7797 16.048C67.7797 16.048 69.1065 21.3432 72.812 21.6151C74.5517 21.7428 75.8568 20.6362 76.6007 20.1314C78.349 21.5473 84.1708 23.3557 87.8468 17.1234C88.3657 16.2289 87.2501 15.1723 87.0543 15.0343ZM4.98825 19.5593C3.21209 19.5593 2.07316 17.917 2.07316 16.1461C2.07316 14.3754 3.11862 12.7331 4.89479 12.7331C5.69405 12.7331 6.13869 12.8211 6.76116 13.3625C6.87404 13.8073 7.19394 14.8333 7.3496 15.2993C7.55818 15.9228 7.80627 16.4535 8.05643 17.0311C7.69906 18.5126 6.5275 19.5593 4.98825 19.5593ZM9.31648 13.4145C9.2426 13.2968 9.25806 13.3692 9.17542 13.258C8.84984 12.3723 8.2224 10.3955 8.14972 8.1501C8.0676 5.61006 8.49094 2.63278 9.73896 2.63278C10.5846 2.63278 11.4833 8.66673 9.31631 13.4145H9.31648ZM34.3252 10.768C34.1249 9.26067 34.1144 2.5412 35.7276 2.72624C36.6182 3.08704 35.1628 9.42767 34.3252 10.768ZM46.1043 10.768C45.904 9.26067 45.8935 2.5412 47.5066 2.72624C48.3973 3.08704 46.9419 9.42767 46.1043 10.768ZM57.79 10.8616C57.5895 9.35414 57.5792 2.63467 59.1921 2.81971C60.0828 3.18051 58.6274 9.52131 57.79 10.8616ZM70.6908 2.33297C72.1656 2.18006 72.1048 8.62051 69.1445 12.6866C68.7627 11.2169 68.1774 2.83758 70.6908 2.3328V2.33297ZM76.8897 16.1915C76.416 13.7987 77.64 12.2271 78.9017 12.0548C79.3428 11.9844 79.9819 12.2701 80.1094 12.8042C80.319 13.8109 80.079 15.3041 77.255 17.1986C77.2591 17.2148 76.9954 16.7244 76.8899 16.1915H76.8897Z" fill="white"/>
</svg>
