<svg width="16" height="17" viewBox="0 0 16 17" fill="none" xmlns="http://www.w3.org/2000/svg">
<g clip-path="url(#clip0_74_1982)">
<g clip-path="url(#clip1_74_1982)">
<g clip-path="url(#clip2_74_1982)">
<path fill-rule="evenodd" clip-rule="evenodd" d="M8 0.140015C6.41775 0.140015 4.87103 0.609206 3.55544 1.48826C2.23985 2.36731 1.21447 3.61674 0.608967 5.07855C0.00346625 6.54036 -0.15496 8.14889 0.153721 9.70074C0.462403 11.2526 1.22433 12.678 2.34315 13.7969C3.46197 14.9157 4.88743 15.6776 6.43928 15.9863C7.99113 16.295 9.59966 16.1366 11.0615 15.5311C12.5233 14.9255 13.7727 13.9002 14.6518 12.5846C15.5308 11.269 16 9.72227 16 8.14001C16 6.01828 15.1571 3.98345 13.6569 2.48316C12.1566 0.98287 10.1217 0.140015 8 0.140015ZM13.284 3.82801C14.2688 5.02761 14.8137 6.52801 14.828 8.08001C13.2624 7.773 11.66 7.69987 10.073 7.86301C10.021 7.75001 9.973 7.62901 9.925 7.50701C9.786 7.17701 9.625 6.83901 9.474 6.51801C10.9552 5.96571 12.2678 5.0389 13.284 3.82801ZM8 1.32001C9.66933 1.31957 11.2808 1.93157 12.529 3.04001C11.5942 4.18592 10.3509 5.04025 8.946 5.50201C8.18238 4.11533 7.33028 2.77923 6.395 1.50201C6.92111 1.37916 7.45975 1.31808 8 1.32001ZM5.093 1.96201C6.00869 3.23106 6.8546 4.54901 7.627 5.91001C5.56406 6.44839 3.442 6.72721 1.31 6.74001C1.53014 5.7061 1.98607 4.73699 2.64225 3.90822C3.29843 3.07945 4.13714 2.41341 5.093 1.96201ZM1.163 8.14901V7.94001C3.53732 7.95146 5.90113 7.62416 8.183 6.96801C8.383 7.35001 8.565 7.74002 8.738 8.13101L8.469 8.20901C6.1634 9.0397 4.20641 10.6256 2.916 12.709C1.78839 11.4578 1.16392 9.83339 1.163 8.14901ZM8 14.977C6.48158 14.9804 5.00589 14.4744 3.809 13.54C4.99343 11.4906 6.90876 9.96461 9.171 9.26801C9.188 9.25902 9.197 9.25902 9.214 9.25101C9.86374 10.9273 10.352 12.6619 10.672 14.431C9.82801 14.7937 8.91862 14.9795 8 14.977ZM11.809 13.806C11.5069 12.149 11.0629 10.521 10.482 8.94001C11.9044 8.7326 13.3548 8.83494 14.734 9.24002C14.5872 10.1615 14.2516 11.0427 13.7482 11.8284C13.2449 12.6141 12.5847 13.2874 11.809 13.806Z" fill="white"/>
</g>
</g>
</g>
<defs>
<clipPath id="clip0_74_1982">
<rect width="16" height="16" fill="white" transform="translate(0 0.140015)"/>
</clipPath>
<clipPath id="clip1_74_1982">
<rect width="16" height="16" fill="white" transform="translate(0 0.140015)"/>
</clipPath>
<clipPath id="clip2_74_1982">
<rect width="16" height="16" fill="white" transform="translate(0 0.140015)"/>
</clipPath>
</defs>
</svg>
