<svg width="16" height="17" viewBox="0 0 16 17" fill="none" xmlns="http://www.w3.org/2000/svg">
<g clip-path="url(#clip0_74_1978)">
<g clip-path="url(#clip1_74_1978)">
<g clip-path="url(#clip2_74_1978)">
<path d="M15.3005 0.140015H0.700488C0.518552 0.151359 0.347021 0.228751 0.218122 0.357649C0.0892244 0.486547 0.0118327 0.658078 0.000488281 0.840014V15.44C0.000488281 15.6257 0.0742385 15.8037 0.205514 15.935C0.336789 16.0663 0.514837 16.14 0.700488 16.14H8.49149V10.157H6.47049V7.65701H8.48749V5.64001C8.4515 5.22298 8.50835 4.80315 8.65394 4.41069C8.79953 4.01824 9.03025 3.66291 9.32951 3.37024C9.62878 3.07758 9.98916 2.85483 10.3848 2.71803C10.7804 2.58122 11.2014 2.53375 11.6175 2.57901C12.5225 2.57901 13.2175 2.64901 13.4965 2.64901V4.80502H12.2435C11.2705 4.80502 10.9915 5.29201 10.9915 5.98701V7.65701H13.4915L13.0045 10.157H10.9905L11.0605 16.14H15.3005C15.4861 16.14 15.6642 16.0663 15.7955 15.935C15.9267 15.8037 16.0005 15.6257 16.0005 15.44V0.840014C15.9773 0.662488 15.8961 0.497601 15.7695 0.371005C15.6429 0.244409 15.478 0.163201 15.3005 0.140015Z" fill="white"/>
</g>
</g>
</g>
<defs>
<clipPath id="clip0_74_1978">
<rect width="16" height="16" fill="white" transform="translate(0 0.140015)"/>
</clipPath>
<clipPath id="clip1_74_1978">
<rect width="16" height="16" fill="white" transform="translate(0 0.140015)"/>
</clipPath>
<clipPath id="clip2_74_1978">
<rect width="15.999" height="16" fill="white" transform="translate(0.000488281 0.140015)"/>
</clipPath>
</defs>
</svg>
