<svg width="88" height="30" viewBox="0 0 88 30" fill="none" xmlns="http://www.w3.org/2000/svg">
<path d="M10.8375 0.640869H11.6201C14.3369 0.69993 17.0093 1.79255 18.9288 3.72678C18.2201 4.45027 17.4966 5.14424 16.8026 5.86773C15.7248 4.89323 14.4254 4.14021 13.008 3.87443C10.9114 3.43148 8.65229 3.83014 6.89524 5.02611C4.97578 6.28115 3.67645 8.40733 3.39591 10.6812C3.08585 12.9255 3.72075 15.2879 5.18249 17.0302C6.58518 18.7282 8.72612 19.7913 10.9409 19.8651C13.008 19.9832 15.1637 19.3483 16.6697 17.9013C17.8509 16.8825 18.3973 15.3322 18.5744 13.8261C16.1234 13.8261 13.6724 13.8409 11.2214 13.8261V10.7845H21.5422C22.0738 14.0476 21.306 17.7241 18.8254 20.057C17.1718 21.7107 14.8832 22.6852 12.5503 22.8772C10.2912 23.0986 7.95833 22.6705 5.95028 21.5778C3.54357 20.2933 1.6241 18.1228 0.679136 15.5684C-0.20677 13.2208 -0.221535 10.563 0.605311 8.20062C1.35833 6.04491 2.80531 4.14021 4.66571 2.81134C6.45229 1.49725 8.62276 0.773755 10.8375 0.640869Z" fill="#3780FF"/>
<path d="M70.0454 1.40869H73.2051V22.4932C72.1568 22.4932 71.0937 22.508 70.0454 22.4785C70.0602 15.4651 70.0454 8.43688 70.0454 1.40869Z" fill="#38B137"/>
<path d="M28.5702 8.7174C30.5192 8.34828 32.6306 8.7617 34.24 9.92814C35.7017 10.9617 36.7205 12.5859 37.0306 14.3577C37.4292 16.41 36.9272 18.6543 35.5984 20.2785C34.1662 22.0946 31.8185 23.0691 29.5299 22.9214C27.4333 22.8033 25.3957 21.755 24.1554 20.0422C22.7527 18.1523 22.4131 15.5537 23.1809 13.3389C23.9487 10.9617 26.1192 9.14559 28.5702 8.7174ZM29.0131 11.5228C28.2158 11.7295 27.4776 12.1872 26.946 12.8369C25.5138 14.5496 25.6024 17.3402 27.1822 18.9349C28.0829 19.8503 29.4413 20.2785 30.6963 20.0275C31.8628 19.8208 32.8816 19.0382 33.4427 18.0047C34.4172 16.2476 34.1366 13.8261 32.6453 12.453C31.6856 11.5671 30.2829 11.1979 29.0131 11.5228Z" fill="#FA3913"/>
<path d="M44.2213 8.71751C46.4508 8.28933 48.887 8.90946 50.5555 10.4746C53.2723 12.9108 53.5676 17.4732 51.2495 20.2786C49.8468 22.0504 47.573 23.0249 45.3287 22.9215C43.1877 22.8625 41.0763 21.7994 39.8065 20.0423C38.3743 18.1081 38.0642 15.4504 38.8763 13.1913C39.6884 10.888 41.8146 9.13094 44.2213 8.71751ZM44.6642 11.5229C43.8669 11.7296 43.1287 12.1873 42.5971 12.8222C41.1797 14.5054 41.2387 17.2517 42.7595 18.8611C43.6602 19.8209 45.0629 20.2933 46.3622 20.0276C47.5139 19.8061 48.5474 19.0383 49.1085 18.0047C50.0683 16.2329 49.7877 13.8115 48.2817 12.4383C47.3219 11.5524 45.9193 11.198 44.6642 11.5229Z" fill="#FCBD06"/>
<path d="M57.4954 9.57361C59.1934 8.51053 61.4525 8.21523 63.2834 9.13066C63.8592 9.38167 64.3317 9.80986 64.7894 10.238C64.8042 9.83939 64.7894 9.42596 64.8042 9.01254C65.7934 9.02731 66.7827 9.01254 67.7867 9.02731V22.0501C67.7719 24.0139 67.2699 26.0957 65.8525 27.528C64.3021 29.1078 61.925 29.5951 59.784 29.2702C57.4954 28.9306 55.5021 27.2622 54.6162 25.1508C55.5021 24.7226 56.4323 24.383 57.3478 23.9843C57.8646 25.1951 58.9129 26.2286 60.227 26.4649C61.5411 26.7011 63.0619 26.3763 63.9183 25.2837C64.8337 24.1615 64.8337 22.6259 64.7894 21.2528C64.1102 21.9172 63.3276 22.5078 62.3827 22.7293C60.3303 23.3051 58.0713 22.5964 56.4914 21.2085C54.8968 19.8206 53.9518 17.6796 54.0404 15.5535C54.0847 13.1468 55.4431 10.8286 57.4954 9.57361ZM60.5518 11.4635C59.6511 11.6112 58.8095 12.1132 58.2337 12.8072C56.8458 14.4609 56.8458 17.1038 58.2485 18.728C59.0458 19.6877 60.3303 20.2192 61.5706 20.0864C62.737 19.9682 63.8149 19.23 64.3907 18.2112C65.3652 16.4837 65.2028 14.136 63.8887 12.63C63.0766 11.6998 61.7773 11.2421 60.5518 11.4635Z" fill="#3780FF"/>
<path d="M76.9999 10.3266C78.7717 8.67288 81.5033 8.11181 83.7771 8.98295C85.9328 9.79503 87.306 11.8474 88 13.9588C84.7959 15.2877 81.6067 16.6017 78.4026 17.9306C78.8456 18.7722 79.5248 19.54 80.4402 19.8501C81.7248 20.3078 83.2603 20.1454 84.3382 19.289C84.7664 18.9642 85.106 18.536 85.4308 18.1226C86.2429 18.6689 87.055 19.2004 87.8671 19.7467C86.7154 21.4742 84.7812 22.685 82.6993 22.8769C80.3959 23.1575 77.9449 22.2715 76.4536 20.4702C74.0026 17.6353 74.2388 12.8809 76.9999 10.3266ZM78.5798 13.0581C78.0778 13.7816 77.8711 14.6675 77.8858 15.5387C80.0268 14.6528 82.1677 13.7668 84.3087 12.8662C83.9543 12.0393 83.0979 11.5373 82.2268 11.4044C80.8241 11.1534 79.3624 11.9064 78.5798 13.0581Z" fill="#FA3913"/>
</svg>
