<svg width="16" height="17" viewBox="0 0 16 17" fill="none" xmlns="http://www.w3.org/2000/svg">
<g clip-path="url(#clip0_74_2002)">
<g clip-path="url(#clip1_74_2002)">
<g clip-path="url(#clip2_74_2002)">
<path d="M11.7895 0.140015H4.21053C1.88512 0.140015 0 2.02513 0 4.35054V11.9295C0 14.2549 1.88512 16.14 4.21053 16.14H11.7895C14.1149 16.14 16 14.2549 16 11.9295V4.35054C16 2.02513 14.1149 0.140015 11.7895 0.140015Z" fill="white"/>
<path d="M7.99992 11.9295C10.0928 11.9295 11.7894 10.2329 11.7894 8.14006C11.7894 6.04719 10.0928 4.35059 7.99992 4.35059C5.90705 4.35059 4.21045 6.04719 4.21045 8.14006C4.21045 10.2329 5.90705 11.9295 7.99992 11.9295Z" fill="#333333"/>
<path d="M13.0527 4.35053C13.7503 4.35053 14.3159 3.785 14.3159 3.08738C14.3159 2.38975 13.7503 1.82422 13.0527 1.82422C12.3551 1.82422 11.7896 2.38975 11.7896 3.08738C11.7896 3.785 12.3551 4.35053 13.0527 4.35053Z" fill="#333333"/>
</g>
</g>
</g>
<defs>
<clipPath id="clip0_74_2002">
<rect width="16" height="16" fill="white" transform="translate(0 0.140015)"/>
</clipPath>
<clipPath id="clip1_74_2002">
<rect width="16" height="16" fill="white" transform="translate(0 0.140015)"/>
</clipPath>
<clipPath id="clip2_74_2002">
<rect width="16" height="16" fill="white" transform="translate(0 0.140015)"/>
</clipPath>
</defs>
</svg>
