<svg width="88" height="20" viewBox="0 0 88 20" fill="none" xmlns="http://www.w3.org/2000/svg">
<path d="M36.883 4.7964C35.294 4.7964 33.4869 5.53293 32.3828 7.0076L32.3835 7.00475L32.3828 7.00547L32.3835 5.02786H28.5936V18.8293H32.3828V10.9761C32.3828 9.5628 33.4786 8.06022 35.5077 8.06022C37.0757 8.06022 38.6985 9.15107 38.6985 10.9761V18.8293H42.4884V10.2739C42.4884 7.09951 40.2172 4.7964 36.883 4.7964ZM69.424 5.02857L65.9979 14.4297L62.5717 5.02857H58.2425L63.9211 18.8256H68.074L73.7525 5.02857H69.424ZM17.2795 9.18627C17.9248 8.3196 18.9529 7.8108 20.1945 7.8108C21.5602 7.8108 22.5963 8.59071 23.1319 9.742L16.5108 12.489C16.33 11.0792 16.6907 9.97667 17.2795 9.18627ZM24.5604 14.5861C22.9653 15.7665 22.054 16.0481 20.5995 16.0481C19.2905 16.0481 18.2656 15.6417 17.5431 14.929L27.232 10.9096C27.0204 9.41187 26.4519 8.07373 25.5772 7.05631C24.3042 5.57791 22.4199 4.79568 20.1257 4.79568C15.9586 4.79568 12.8164 7.86982 12.8164 11.9303C12.8164 16.096 15.966 19.064 20.5435 19.064C23.1081 19.064 25.7303 17.8485 26.957 16.4284L24.5604 14.5861ZM12.4551 15.3495H3.8416V0.900391H0V18.8293H12.4551V15.3495ZM80.5577 8.04333C78.4412 8.04333 76.9044 9.64725 76.9044 11.9289C76.9044 14.1073 78.5323 15.8144 80.6085 15.8144C82.7257 15.8144 84.2617 14.1664 84.2617 11.9289C84.2617 9.75036 82.6345 8.04333 80.5577 8.04333ZM80.5577 19.062C76.413 19.062 73.1653 15.9742 73.1653 11.9289C73.1653 7.92884 76.4354 4.79568 80.6085 4.79568C84.7533 4.79568 88 7.88333 88 11.9289C88 15.928 84.7307 19.0618 80.5577 19.0618V19.062ZM51.3792 8.04333C49.2628 8.04333 47.7268 9.64725 47.7268 11.9289C47.7268 14.1073 49.354 15.8144 51.4308 15.8144C53.5472 15.8144 55.0832 14.1664 55.0832 11.9289C55.0832 9.75036 53.456 8.04333 51.3792 8.04333ZM51.3792 19.062C47.2345 19.062 43.9877 15.9742 43.9877 11.9289C43.9877 7.92884 47.2569 4.79568 51.4308 4.79568C55.5748 4.79568 58.8222 7.88333 58.8222 11.9289C58.8222 15.928 55.5524 19.0618 51.3792 19.0618" fill="white"/>
</svg>
