<svg width="16" height="16" viewBox="0 0 16 16" fill="none" xmlns="http://www.w3.org/2000/svg">
<g clip-path="url(#clip0_74_1986)">
<g clip-path="url(#clip1_74_1986)">
<g clip-path="url(#clip2_74_1986)">
<path fill-rule="evenodd" clip-rule="evenodd" d="M15.9922 9.84225V15.62H12.609V10.2265C12.609 8.87038 12.1217 7.94913 10.9033 7.94913C10.5234 7.94997 10.153 8.06807 9.84265 8.2873C9.53233 8.50654 9.29726 8.81621 9.16952 9.17403C9.07716 9.43618 9.0358 9.71357 9.04768 9.99126V15.6144H5.67381C5.67381 15.6144 5.7113 6.48337 5.67381 5.53774H9.04768V6.96602C9.04503 6.97918 9.0385 6.99126 9.02894 7.00069H9.04768V6.96602C9.3577 6.43721 9.80592 6.00285 10.3442 5.7096C10.8825 5.41635 11.4905 5.27529 12.1029 5.30157C14.324 5.30626 15.9922 6.74578 15.9922 9.84225ZM1.91569 0.641878C2.16496 0.631484 2.41378 0.671208 2.64742 0.758698C2.88106 0.846187 3.09477 0.979665 3.2759 1.15123C3.45703 1.32279 3.6019 1.52895 3.70193 1.7575C3.80195 1.98606 3.85511 2.23236 3.85824 2.48182C3.86138 2.73129 3.81443 2.97884 3.72018 3.20984C3.62593 3.44083 3.48629 3.65057 3.30953 3.82663C3.13276 4.00269 2.92248 4.1415 2.69111 4.23483C2.45974 4.32817 2.212 4.37413 1.96255 4.37001H1.9438C1.69424 4.37958 1.44529 4.33893 1.21174 4.25047C0.978179 4.16201 0.764768 4.02753 0.584165 3.85503C0.403562 3.68253 0.259445 3.47551 0.160365 3.24626C0.0612856 3.017 0.00926068 2.77018 0.00737726 2.52044C0.00549383 2.2707 0.0537903 2.02312 0.149401 1.7924C0.245012 1.56168 0.38599 1.35251 0.563971 1.1773C0.741952 1.0021 0.95331 0.864421 1.18551 0.772447C1.4177 0.680472 1.66601 0.636071 1.91569 0.641878ZM3.81818 15.6191H0.0413143V5.31001H3.81818V15.6191Z" fill="white"/>
</g>
</g>
</g>
<defs>
<clipPath id="clip0_74_1986">
<rect width="16" height="14.98" fill="white" transform="translate(0 0.640015)"/>
</clipPath>
<clipPath id="clip1_74_1986">
<rect width="16" height="14.98" fill="white" transform="translate(0 0.640015)"/>
</clipPath>
<clipPath id="clip2_74_1986">
<rect width="15.9847" height="14.98" fill="white" transform="translate(0.0078125 0.640015)"/>
</clipPath>
</defs>
</svg>
