<svg width="16" height="17" viewBox="0 0 16 17" fill="none" xmlns="http://www.w3.org/2000/svg">
<g clip-path="url(#clip0_74_2017)">
<g clip-path="url(#clip1_74_2017)">
<g clip-path="url(#clip2_74_2017)">
<path d="M0.218245 1.95745C0.218245 2.1071 0.221363 2.11022 1.02887 3.07985C1.59007 3.75953 1.84573 4.09002 1.86755 4.17108C1.88938 4.25214 1.90185 5.52732 1.90185 8.01532V11.7411L1.82702 11.897C1.7865 11.9843 1.36248 12.5268 0.876101 13.1129C0.0311779 14.1355 0 14.1761 0 14.3039V14.438H2.36952H4.73904V14.2946C4.73904 14.1543 4.72657 14.1387 3.83488 13.0599C3.15832 12.2399 2.92137 11.9313 2.88395 11.8222C2.84342 11.6943 2.83719 11.2952 2.84342 8.51729L2.85278 5.35896L4.93234 9.89223L7.0119 14.4224L7.25509 14.4317L7.49828 14.4411L9.2723 9.9421C10.2482 7.46661 11.0588 5.43067 11.0744 5.41196C11.0869 5.39637 11.0962 7.01451 11.0931 9.10342L11.0837 12.8261L10.3729 13.5151L9.66203 14.2073L9.67139 14.3288L9.68076 14.4535L12.8079 14.4629L15.9319 14.4691V14.3351C15.9319 14.201 15.9288 14.1979 15.246 13.5182C14.7908 13.0662 14.5601 12.8167 14.5601 12.773C14.5601 12.7357 14.5601 10.628 14.5601 8.08393C14.5601 4.40803 14.5663 3.44775 14.5975 3.40722C14.6193 3.37604 14.9373 3.06738 15.3021 2.71819L15.9631 2.08528V1.9481V1.81091L13.7588 1.81715L11.5514 1.8265L10.0081 5.6645C9.16005 7.77527 8.44921 9.5337 8.43362 9.57112C8.40557 9.63345 8.15615 9.10656 6.60972 5.72686L4.8201 1.81091H2.51917H0.218245V1.95745Z" fill="white"/>
</g>
</g>
</g>
<defs>
<clipPath id="clip0_74_2017">
<rect width="16" height="16" fill="white" transform="translate(0 0.140015)"/>
</clipPath>
<clipPath id="clip1_74_2017">
<rect width="16" height="16" fill="white" transform="translate(0 0.140015)"/>
</clipPath>
<clipPath id="clip2_74_2017">
<rect width="16" height="16" fill="white" transform="translate(0 0.140015)"/>
</clipPath>
</defs>
</svg>
