<svg width="102" height="22" viewBox="0 0 102 22" fill="none" xmlns="http://www.w3.org/2000/svg">
<path d="M101.599 9.97101V8.19125H99.3892V5.42439L99.3148 5.4473L97.2389 6.08246L97.198 6.09489V8.19135H93.9215V7.02344C93.9215 6.47962 94.0431 6.06346 94.2827 5.78593C94.5207 5.51172 94.8611 5.37231 95.2952 5.37231C95.6073 5.37231 95.9305 5.44583 96.2557 5.59082L96.3372 5.62724V3.7529L96.2989 3.73881C95.9955 3.62975 95.5829 3.57483 95.0714 3.57483C94.4267 3.57483 93.841 3.71512 93.3302 3.99314C92.8191 4.27156 92.417 4.66902 92.1353 5.17436C91.8547 5.67912 91.7122 6.2621 91.7122 6.90724V8.19125H90.1733V9.97101H91.7122V17.4688H93.9215V9.97101H97.198V14.7357C97.198 16.6981 98.1236 17.6925 99.949 17.6925C100.249 17.6925 100.565 17.6574 100.887 17.5886C101.215 17.5179 101.439 17.4473 101.57 17.3719L101.599 17.3547V15.5585L101.509 15.6179C101.39 15.6978 101.24 15.7631 101.065 15.8116C100.889 15.8611 100.743 15.8858 100.629 15.8858C100.201 15.8858 99.8848 15.7706 99.6885 15.5432C99.49 15.3137 99.3893 14.9125 99.3893 14.3511V9.97101H101.599ZM85.2397 15.8861C84.4379 15.8861 83.8057 15.6202 83.3601 15.0965C82.9119 14.5701 82.6847 13.8196 82.6847 12.8661C82.6847 11.8824 82.9119 11.1124 83.3603 10.5767C83.8061 10.0445 84.4323 9.77444 85.2217 9.77444C85.9878 9.77444 86.5976 10.0324 87.0344 10.5416C87.4733 11.0534 87.6961 11.8172 87.6961 12.8124C87.6961 13.8198 87.4866 14.5937 87.0735 15.1114C86.6632 15.6251 86.0463 15.8861 85.2397 15.8861ZM85.3379 7.96775C83.8081 7.96775 82.593 8.41602 81.7266 9.30013C80.8608 10.1843 80.4219 11.4079 80.4219 12.9373C80.4219 14.3899 80.8504 15.5583 81.6956 16.4095C82.5408 17.261 83.6911 17.6923 85.1142 17.6923C86.5972 17.6923 87.7881 17.2378 88.6541 16.3415C89.52 15.4461 89.9586 14.234 89.9586 12.7404C89.9586 11.2651 89.547 10.088 88.7347 9.24247C87.9221 8.39654 86.7791 7.96775 85.3379 7.96775ZM76.8599 7.96775C75.8193 7.96775 74.9585 8.23393 74.3009 8.75876C73.6393 9.28672 73.3037 9.97914 73.3037 10.817C73.3037 11.2526 73.3762 11.6395 73.5187 11.9676C73.6621 12.2968 73.8841 12.5867 74.1789 12.83C74.4715 13.0713 74.9232 13.3241 75.5218 13.5813C76.025 13.7883 76.4002 13.9634 76.6386 14.1015C76.8716 14.2368 77.0369 14.3727 77.1303 14.5052C77.2211 14.6348 77.2671 14.8122 77.2671 15.0311C77.2671 15.6544 76.8003 15.9577 75.8398 15.9577C75.4836 15.9577 75.0772 15.8833 74.6321 15.7366C74.1901 15.5922 73.773 15.3807 73.3953 15.1095L73.3035 15.0437V17.1707L73.3372 17.1864C73.6498 17.3307 74.0439 17.4524 74.5084 17.5481C74.9721 17.644 75.3933 17.6927 75.7593 17.6927C76.8885 17.6927 77.7979 17.4253 78.4614 16.8973C79.1292 16.3657 79.4676 15.657 79.4676 14.7901C79.4676 14.1647 79.2854 13.6284 78.9263 13.1959C78.5697 12.7669 77.9507 12.3731 77.0873 12.025C76.3995 11.7489 75.9589 11.5197 75.7771 11.3438C75.6018 11.1739 75.5129 10.9335 75.5129 10.6292C75.5129 10.3594 75.6227 10.1432 75.8482 9.96817C76.0754 9.79225 76.3917 9.70278 76.7884 9.70278C77.1564 9.70278 77.533 9.76093 77.9076 9.87488C78.2819 9.98883 78.6106 10.1415 78.885 10.3281L78.9753 10.3898V8.37216L78.9406 8.35728C78.6874 8.24872 78.3536 8.15581 77.9481 8.08043C77.5445 8.00554 77.1784 7.96775 76.8599 7.96775ZM67.5444 15.8861C66.7427 15.8861 66.1103 15.6202 65.6649 15.0965C65.2165 14.5701 64.9898 13.8198 64.9898 12.8661C64.9898 11.8824 65.2168 11.1124 65.6654 10.5767C66.1108 10.0445 66.7369 9.77444 67.5267 9.77444C68.2924 9.77444 68.9022 10.0324 69.3391 10.5416C69.7782 11.0534 70.0009 11.8172 70.0009 12.8124C70.0009 13.8198 69.7913 14.5937 69.3782 15.1114C68.9679 15.6251 68.3513 15.8861 67.5444 15.8861ZM67.6429 7.96775C66.1127 7.96775 64.8975 8.41602 64.0316 9.30013C63.1658 10.1843 62.7265 11.4079 62.7265 12.9373C62.7265 14.3905 63.1553 15.5583 64.0006 16.4095C64.8458 17.261 65.996 17.6923 67.4191 17.6923C68.9018 17.6923 70.093 17.2378 70.959 16.3415C71.8247 15.4461 72.2636 14.234 72.2636 12.7404C72.2636 11.2651 71.8518 10.088 71.0394 9.24247C70.2266 8.39654 69.0837 7.96775 67.6429 7.96775ZM59.373 9.79793V8.19125H57.1907V17.4686H59.373V12.7229C59.373 11.9159 59.556 11.253 59.917 10.7522C60.2735 10.2575 60.7484 10.0067 61.3284 10.0067C61.525 10.0067 61.7456 10.0392 61.9846 10.1033C62.2211 10.167 62.3924 10.2362 62.4934 10.3091L62.5852 10.3755V8.17539L62.5498 8.16022C62.3466 8.07387 62.0591 8.03031 61.6953 8.03031C61.1469 8.03031 60.6561 8.20652 60.2358 8.55347C59.8668 8.85842 59.6001 9.27653 59.3962 9.79793H59.373ZM53.2826 7.96775C52.2814 7.96775 51.3884 8.18244 50.6288 8.60565C49.8677 9.02983 49.279 9.63542 48.8785 10.4055C48.4798 11.1737 48.2773 12.071 48.2773 13.0717C48.2773 13.9483 48.4736 14.7527 48.8616 15.4617C49.2498 16.1718 49.7991 16.7274 50.4946 17.1127C51.1891 17.4975 51.9917 17.6926 52.8804 17.6926C53.9175 17.6926 54.803 17.4853 55.513 17.0764L55.5416 17.0599V15.0606L55.4499 15.1275C55.1283 15.3618 54.7689 15.5488 54.3823 15.6835C53.9965 15.8181 53.6449 15.8861 53.3365 15.8861C52.4802 15.8861 51.7928 15.6182 51.2938 15.0899C50.7938 14.561 50.5402 13.8183 50.5402 12.8836C50.5402 11.9431 50.8046 11.1813 51.3257 10.6192C51.8453 10.0587 52.534 9.77444 53.3726 9.77444C54.0898 9.77444 54.7888 10.0173 55.4501 10.497L55.5416 10.5635V8.45684L55.5121 8.4402C55.2632 8.30089 54.9238 8.18587 54.5025 8.09864C54.0829 8.01161 53.6725 7.96775 53.2826 7.96775ZM46.7743 8.19135H44.592V17.4686H46.7743V8.19135ZM45.7055 4.23916C45.3463 4.23916 45.0331 4.36143 44.7757 4.60372C44.5173 4.8467 44.3862 5.15263 44.3862 5.51368C44.3862 5.86904 44.5157 6.16939 44.7717 6.40591C45.026 6.64174 45.3403 6.76127 45.7056 6.76127C46.0709 6.76127 46.3863 6.64174 46.6437 6.4063C46.9027 6.16939 47.0341 5.86914 47.0341 5.51368C47.0341 5.16526 46.9062 4.86247 46.6543 4.61351C46.4026 4.36505 46.0833 4.23916 45.7055 4.23916ZM40.2605 7.50685V17.4686H42.4877V4.52316H39.4052L35.4872 14.1387L31.685 4.52316H28.4771V17.4685H30.57V7.50587H30.6418L34.6568 17.4686H36.2363L40.1887 7.50685H40.2605Z" fill="white"/>
<path d="M10.6661 10.4636H0.399902V0.197388H10.6661V10.4636Z" fill="#F1511B"/>
<path d="M22.0013 10.4636H11.7354V0.197388H22.0013V10.4636Z" fill="#80CC28"/>
<path d="M10.6658 21.8026H0.399902V11.5365H10.6658V21.8026Z" fill="#00ADEF"/>
<path d="M22.0013 21.8026H11.7354V11.5365H22.0013V21.8026Z" fill="#FBBC09"/>
</svg>
