<svg width="88" height="24" viewBox="0 0 88 24" fill="none" xmlns="http://www.w3.org/2000/svg">
<path d="M12.1003 22.3583C10.7765 22.5907 9.42941 22.6604 8.03593 22.846L3.78563 10.3974V23.3803C2.46185 23.5196 1.25417 23.7054 0 23.8912V0.108643H3.53031L8.36103 13.6027V0.108643H12.1003V22.3583ZM19.4162 8.81808C20.8563 8.81808 23.0626 8.74839 24.3864 8.74839V12.4643C22.7373 12.4643 20.8098 12.4643 19.4162 12.534V18.0617C21.5994 17.9224 23.7826 17.7364 25.9889 17.6667V21.2432L15.7001 22.0563V0.108643H25.9889V3.82467H19.4162V8.81808ZM39.8078 3.82476H35.9525V20.9185C34.6983 20.9185 33.4441 20.9185 32.2366 20.9648V3.82476H28.3813V0.108643H39.808L39.8078 3.82476ZM45.8463 8.56268H50.9327V12.2786H45.8463V20.7095H42.1997V0.108643H52.5816V3.82467H45.8463V8.56268ZM58.6201 17.4578C60.7337 17.5041 62.8702 17.667 64.9374 17.7829V21.4526C61.6162 21.2434 58.295 21.0346 54.9042 20.9648V0.108643H58.6201V17.4578ZM68.0727 21.708C69.2572 21.7778 70.5114 21.8475 71.7191 21.9867V0.108643H68.0727V21.708ZM88 0.108643L83.2852 11.4193L88 23.8912C86.6064 23.7054 85.2129 23.4499 83.8193 23.2176L81.1485 16.3431L78.4315 22.6604C77.0841 22.4279 75.7836 22.3583 74.4367 22.1725L79.2211 11.2799L74.9011 0.108643H78.8956L81.3343 6.35623L83.9356 0.108643H88Z" fill="white"/>
</svg>
