<svg width="16" height="17" viewBox="0 0 16 17" fill="none" xmlns="http://www.w3.org/2000/svg">
<g clip-path="url(#clip0_74_2013)">
<g clip-path="url(#clip1_74_2013)">
<g clip-path="url(#clip2_74_2013)">
<path d="M7.37718 0.210896C6.02458 0.335559 4.81846 0.753181 3.86478 1.42325C3.48767 1.68816 2.79267 2.38316 2.52154 2.76338C2.28467 3.09997 1.95432 3.74199 1.8203 4.13779C1.59902 4.76735 1.48059 5.58389 1.51176 6.22279C1.57409 7.49751 2.21299 8.8345 3.07006 9.48272C3.29445 9.65413 3.69337 9.85359 3.75882 9.82866C3.78375 9.81936 3.8305 9.77257 3.85855 9.72897C3.92088 9.63233 4.17956 8.62254 4.18267 8.46987C4.18267 8.39504 4.14839 8.31714 4.06113 8.20495C3.52819 7.50369 3.30068 6.7121 3.37548 5.80206C3.52819 3.90717 4.90572 2.38627 6.82554 1.98735C7.71377 1.80347 8.75161 1.85022 9.55257 2.11202C10.126 2.29901 10.6184 2.59508 11.0174 2.99401C12.0053 3.97574 12.3949 5.51221 12.0676 7.12657C11.7965 8.45426 11.0392 9.54194 10.0668 9.99077C9.2471 10.3709 8.39942 10.2993 7.87582 9.80374C7.47379 9.4235 7.36783 8.97474 7.53301 8.34207C7.57352 8.18003 7.71377 7.7094 7.84467 7.30111C8.14074 6.36304 8.21864 6.08566 8.28098 5.75842C8.43684 4.91071 8.19684 4.28427 7.61404 4.01625C7.38341 3.90717 6.95955 3.88535 6.68841 3.96327C6.36117 4.05988 6.14613 4.19078 5.88122 4.4588C5.68799 4.65203 5.60072 4.77046 5.50099 4.97616C5.2953 5.39066 5.22985 5.70855 5.22985 6.26954C5.23297 6.78063 5.29218 7.13595 5.44178 7.50369L5.51969 7.69384L4.92754 10.0842C4.6003 11.3963 4.31357 12.5682 4.28864 12.6897C4.22319 12.9951 4.19514 14.2355 4.24189 14.7685C4.30422 15.4385 4.39461 16.0494 4.44447 16.0961C4.4694 16.1211 4.50991 16.1336 4.53797 16.1242C4.65639 16.0775 5.42307 14.8308 5.78772 14.0922C6.11496 13.4283 6.15859 13.2975 6.5544 11.8514C6.85982 10.7294 6.87852 10.6764 6.92527 10.7449C7.1559 11.1034 7.6639 11.4493 8.21864 11.6238C8.61755 11.7485 8.89497 11.7796 9.42476 11.761C10.3629 11.7267 11.1545 11.468 11.9586 10.9382C12.4167 10.6327 13.0369 10.0032 13.3673 9.50146C14.0467 8.47918 14.3926 7.38219 14.4549 6.05138C14.5267 4.54607 14.0031 3.15607 12.959 2.08085C11.9929 1.08666 10.7867 0.488272 9.27827 0.254528C8.90122 0.195313 7.80727 0.17038 7.37718 0.210896Z" fill="white"/>
</g>
</g>
</g>
<defs>
<clipPath id="clip0_74_2013">
<rect width="16" height="16" fill="white" transform="translate(0 0.140015)"/>
</clipPath>
<clipPath id="clip1_74_2013">
<rect width="16" height="16" fill="white" transform="translate(0 0.140015)"/>
</clipPath>
<clipPath id="clip2_74_2013">
<rect width="16" height="16" fill="white" transform="translate(0 0.140015)"/>
</clipPath>
</defs>
</svg>
