<svg width="88" height="24" viewBox="0 0 88 24" fill="none" xmlns="http://www.w3.org/2000/svg">
<path fill-rule="evenodd" clip-rule="evenodd" d="M28.1528 18.4099L29.2511 15.8579C30.4373 16.7449 32.0178 17.2061 33.5772 17.2061C34.7282 17.2061 35.4568 16.7625 35.4568 16.0902C35.4392 14.2105 28.5612 15.6819 28.5084 10.9686C28.4908 8.57503 30.6168 6.73055 33.63 6.73055C35.4216 6.73055 37.2098 7.17407 38.4876 8.18431L37.4597 10.7891C36.2911 10.0429 34.8373 9.51135 33.454 9.51135C32.5141 9.51135 31.8946 9.95487 31.8946 10.5216C31.9122 12.3661 38.8431 11.3558 38.9135 15.8579C38.9135 18.3043 36.8402 20.0256 33.8623 20.0256C31.6799 20.0221 29.677 19.5081 28.1528 18.4099ZM70.326 14.9357C69.7768 15.8931 68.749 16.5478 67.5592 16.5478C65.8028 16.5478 64.3877 15.1293 64.3877 13.3763C64.3877 11.6233 65.8063 10.2048 67.5592 10.2048C68.7455 10.2048 69.7768 10.8595 70.326 11.8169L73.3567 10.1344C72.2232 8.11391 70.0408 6.73055 67.5592 6.73055C63.8879 6.73055 60.91 9.70847 60.91 13.3798C60.91 17.0512 63.8879 20.0291 67.5592 20.0291C70.0584 20.0291 72.2232 18.6633 73.3567 16.6253L70.326 14.9357ZM40.4376 1.21472H44.2322V19.7757H40.4376V1.21472ZM74.8456 1.21472V19.7757H78.6402V14.207L83.1423 19.7757H87.9999L82.2728 13.1616L87.5739 6.99103H82.9275L78.6367 12.1126V1.21472H74.8456Z" fill="white"/>
<path d="M55.5067 14.9709C54.9576 15.8755 53.8242 16.5478 52.5464 16.5478C50.7899 16.5478 49.3749 15.1293 49.3749 13.3763C49.3749 11.6234 50.7934 10.2048 52.5464 10.2048C53.8242 10.2048 54.9576 10.9123 55.5067 11.8346V14.9709ZM55.5067 6.99457V8.50113C54.8872 7.45569 53.3454 6.72705 51.7298 6.72705C48.3963 6.72705 45.7739 9.66977 45.7739 13.3587C45.7739 17.0477 48.3963 20.0256 51.7298 20.0256C53.3419 20.0256 54.8837 19.3005 55.5067 18.2515V19.7581H59.3013V6.99457H55.5067Z" fill="white"/>
<path fill-rule="evenodd" clip-rule="evenodd" d="M4.69918 14.9534C4.69918 16.2487 3.65374 17.2942 2.35838 17.2942C1.06302 17.2942 0.0175781 16.2452 0.0175781 14.9534C0.0175781 13.6615 1.06302 12.6125 2.35838 12.6125H4.69918V14.9534ZM5.86782 14.9534C5.86782 13.658 6.91326 12.6125 8.20862 12.6125C9.50398 12.6125 10.5494 13.658 10.5494 14.9534V20.8036C10.5494 22.099 9.50398 23.1444 8.20862 23.1444C6.91326 23.1444 5.86782 22.099 5.86782 20.8036V14.9534Z" fill="#E01E5A"/>
<path fill-rule="evenodd" clip-rule="evenodd" d="M8.20864 5.55844C6.91328 5.55844 5.86784 4.513 5.86784 3.21764C5.86784 1.92227 6.91328 0.876831 8.20864 0.876831C9.504 0.876831 10.5494 1.92227 10.5494 3.21764V5.55844H8.20864ZM8.20864 6.74469C9.504 6.74469 10.5494 7.79013 10.5494 9.08549C10.5494 10.3809 9.504 11.4263 8.20864 11.4263H2.3408C1.04544 11.4263 0 10.3773 0 9.08549C0 7.79365 1.04544 6.74469 2.3408 6.74469H8.20864Z" fill="#36C5F0"/>
<path fill-rule="evenodd" clip-rule="evenodd" d="M17.5861 9.08549C17.5861 7.79013 18.6315 6.74469 19.9269 6.74469C21.2222 6.74469 22.2677 7.79013 22.2677 9.08549C22.2677 10.3809 21.2222 11.4263 19.9269 11.4263H17.5861V9.08549ZM16.4174 9.08549C16.4174 10.3809 15.372 11.4263 14.0766 11.4263C12.7813 11.4263 11.7358 10.3809 11.7358 9.08549V3.21764C11.7358 1.92227 12.7813 0.876831 14.0766 0.876831C15.372 0.876831 16.4174 1.92227 16.4174 3.21764V9.08549Z" fill="#2EB67D"/>
<path fill-rule="evenodd" clip-rule="evenodd" d="M14.0766 18.4628C15.372 18.4628 16.4174 19.5082 16.4174 20.8036C16.4174 22.099 15.372 23.1444 14.0766 23.1444C12.7813 23.1444 11.7358 22.099 11.7358 20.8036V18.4628H14.0766ZM14.0766 17.2942C12.7813 17.2942 11.7358 16.2487 11.7358 14.9534C11.7358 13.658 12.7813 12.6125 14.0766 12.6125H19.9445C21.2398 12.6125 22.2853 13.658 22.2853 14.9534C22.2853 16.2487 21.2398 17.2942 19.9445 17.2942H14.0766Z" fill="#ECB22E"/>
</svg>
