<svg width="88" height="20" viewBox="0 0 88 20" fill="none" xmlns="http://www.w3.org/2000/svg">
<path fill-rule="evenodd" clip-rule="evenodd" d="M24.9981 0.762432C26.208 1.08836 27.159 2.03927 27.4805 3.2448C28.0654 5.4325 28.0654 10 28.0654 10C28.0654 10 28.0654 14.5674 27.4805 16.7551C27.1545 17.965 26.2036 18.916 24.9981 19.2375C22.8104 19.8224 14.0327 19.8224 14.0327 19.8224C14.0327 19.8224 5.25951 19.8224 3.06731 19.2375C1.85739 18.9115 0.90637 17.9606 0.584941 16.7551C0 14.5674 0 9.99989 0 9.99989C0 9.99989 0 5.4325 0.584941 3.2448C0.91087 2.03488 1.86189 1.08386 3.06731 0.762432C5.25951 0.17749 14.0327 0.17749 14.0327 0.17749C14.0327 0.17749 22.8104 0.17749 24.9981 0.762432ZM18.5193 9.99995L11.2284 14.2103V5.78975L18.5193 9.99995Z" fill="#FF0000"/>
<path fill-rule="evenodd" clip-rule="evenodd" d="M40.7356 18.0496C40.1819 17.6746 39.7846 17.0942 39.5525 16.304C39.3202 15.5137 39.1996 14.4645 39.1996 13.1518V11.3659C39.1996 10.0399 39.3336 8.97734 39.6015 8.17354C39.8694 7.36997 40.2891 6.78514 40.8561 6.41895C41.4231 6.05287 42.1688 5.86539 43.0929 5.86539C44.0038 5.86539 44.7315 6.05287 45.2806 6.42795C45.8298 6.80291 46.2316 7.38785 46.4861 8.18254C46.7407 8.97734 46.8657 10.0399 46.8657 11.3614V13.1474C46.8657 14.46 46.7407 15.5137 46.495 16.3084C46.2495 17.103 45.8478 17.688 45.2896 18.0541C44.7359 18.4201 43.9814 18.6079 43.0304 18.6079C42.0571 18.6121 41.2892 18.4246 40.7356 18.0496ZM43.8474 16.1209C43.9993 15.719 44.0797 15.0627 44.0797 14.1564V10.3212C44.0797 9.4371 44.0038 8.79425 43.8474 8.38352C43.6957 7.97718 43.4233 7.77181 43.0349 7.77181C42.6599 7.77181 42.3964 7.97718 42.2402 8.38352C42.0884 8.78975 42.0081 9.4371 42.0081 10.3212V14.1564C42.0081 15.0672 42.0795 15.7235 42.2268 16.1209C42.3741 16.5227 42.642 16.7236 43.0305 16.7236C43.4233 16.7236 43.6912 16.5227 43.8474 16.1209ZM83.3604 13.183V13.8037C83.3604 14.5939 83.3828 15.1832 83.4319 15.5806C83.4765 15.9735 83.5748 16.2637 83.7221 16.4424C83.8694 16.6209 84.097 16.7147 84.4051 16.7147C84.8204 16.7147 85.1061 16.554 85.2579 16.2324C85.4098 15.911 85.4944 15.3752 85.5079 14.6252L87.8965 14.7636C87.91 14.8707 87.9144 15.018 87.9144 15.2055C87.9144 16.3441 87.6018 17.1923 86.9813 17.7549C86.3607 18.3175 85.4812 18.5987 84.3427 18.5987C82.9764 18.5987 82.021 18.1701 81.4718 17.3129C80.9227 16.4557 80.6504 15.1341 80.6504 13.3394V11.1918C80.6504 9.34342 80.9361 7.99944 81.503 7.14684C82.0701 6.2985 83.0433 5.87428 84.4231 5.87428C85.374 5.87428 86.1018 6.04849 86.6107 6.39669C87.1197 6.74488 87.4769 7.28506 87.6868 8.02183C87.8921 8.75848 87.9993 9.77653 87.9993 11.0712V13.1786H83.3604V13.183ZM83.7131 8.00394C83.5746 8.17816 83.481 8.46382 83.4318 8.85678C83.3827 9.24962 83.3604 9.85245 83.3604 10.6515V11.5356H85.3874V10.6515C85.3874 9.86121 85.3606 9.26301 85.307 8.85678C85.2534 8.45044 85.1552 8.16027 85.0168 7.99506C84.8783 7.82985 84.6596 7.74505 84.3649 7.74505C84.0703 7.74055 83.8515 7.82984 83.7131 8.00394ZM33.9938 12.9509L30.8418 1.5703H33.5919L34.6948 6.72711C34.9761 7.99956 35.1814 9.08003 35.3154 9.9774H35.3957C35.4895 9.33442 35.6948 8.25846 36.0164 6.74488L37.1593 1.5658H39.9095L36.7218 12.9509V18.4113H33.9938V12.9509ZM55.8085 6.10652V18.4068H53.6431L53.4019 16.9022H53.3439C52.7546 18.0407 51.8706 18.6077 50.6963 18.6077C49.8794 18.6077 49.2766 18.3398 48.8882 17.8041C48.4997 17.2683 48.3078 16.4334 48.3078 15.2949V6.10652H51.0759V15.1386C51.0759 15.6878 51.1339 16.0807 51.2545 16.3129C51.3751 16.545 51.5759 16.6656 51.8572 16.6656C52.0983 16.6656 52.3305 16.594 52.5492 16.4468C52.768 16.2995 52.9332 16.1119 53.0404 15.8842V6.10641L55.8085 6.10652ZM70.0153 6.10652V18.4068H67.8499L67.6087 16.9022H67.5507C66.9614 18.0407 66.0774 18.6077 64.9031 18.6077C64.0862 18.6077 63.4834 18.3398 63.095 17.8041C62.7065 17.2683 62.5146 16.4334 62.5146 15.2949V6.10652H65.2827V15.1386C65.2827 15.6878 65.3407 16.0807 65.4613 16.3129C65.5818 16.545 65.7827 16.6656 66.064 16.6656C66.3051 16.6656 66.5373 16.594 66.756 16.4468C66.9748 16.2995 67.14 16.1119 67.2472 15.8842V6.10641L70.0153 6.10652Z" fill="white"/>
<path fill-rule="evenodd" clip-rule="evenodd" d="M63.3356 3.79839H60.5854V18.4069H57.8753V3.79839H55.125V1.57054H63.3311V3.79839H63.3356ZM79.1809 8.07549C79.0113 7.29868 78.7434 6.73612 78.3684 6.38793C77.9934 6.03962 77.48 5.86552 76.8235 5.86552C76.3147 5.86552 75.8414 6.00835 75.3994 6.29863C74.9574 6.58429 74.6181 6.96387 74.3769 7.43263H74.3547V0.949829H71.6847V18.4114H73.9706L74.2519 17.2461H74.31C74.5243 17.6614 74.8457 17.9873 75.2743 18.2283C75.7029 18.4694 76.1763 18.59 76.6986 18.59C77.6362 18.59 78.3237 18.1569 78.7658 17.2952C79.2077 16.4336 79.4266 15.0852 79.4266 13.2502V11.3035C79.4311 9.92838 79.3462 8.85241 79.1809 8.0756V8.07549ZM76.6405 13.0939C76.6405 13.9913 76.6048 14.6922 76.529 15.2013C76.4574 15.7103 76.3325 16.0719 76.1584 16.2862C75.9842 16.5005 75.7521 16.6077 75.4574 16.6077C75.2296 16.6077 75.0199 16.5541 74.8234 16.4469C74.6314 16.3398 74.4707 16.179 74.3502 15.9647V8.97747C74.444 8.64255 74.6047 8.37027 74.8324 8.15602C75.06 7.94166 75.3056 7.83448 75.5735 7.83448C75.8547 7.83448 76.0735 7.94604 76.2253 8.16479C76.3771 8.38365 76.4843 8.75861 76.5467 9.27652C76.6049 9.79893 76.636 10.5401 76.636 11.5044V13.0939H76.6405Z" fill="white"/>
</svg>
