<svg width="16" height="13" viewBox="0 0 16 13" fill="none" xmlns="http://www.w3.org/2000/svg">
<g clip-path="url(#clip0_74_2009)">
<g clip-path="url(#clip1_74_2009)">
<g clip-path="url(#clip2_74_2009)">
<path d="M6.01768 3.06777L10.9865 6.04128L6.01768 9.05672V3.06777ZM8.0145 0.140015C8.0145 0.140015 4.68722 0.140015 2.42507 0.292502C2.1246 0.299157 1.82842 0.36524 1.55361 0.48694C1.27881 0.608639 1.03082 0.783545 0.823954 1.00157C0.461664 1.49737 0.232503 2.07775 0.158347 2.68732C0.158347 2.68732 0.00585938 4.0597 0.00585938 5.4603V6.75034C0.00585938 8.12273 0.158347 9.52257 0.158347 9.52257C0.232403 10.1322 0.461574 10.7126 0.823954 11.2083C1.2893 11.666 1.90344 11.9414 2.55469 11.9845C3.84016 12.137 7.98781 12.137 7.98781 12.137C7.98781 12.137 11.3151 12.137 13.5772 11.9372C13.8771 11.9301 14.1725 11.8637 14.4466 11.742C14.7208 11.6204 14.9681 11.4457 15.1745 11.2281C15.5369 10.7321 15.766 10.1514 15.8402 9.54163C15.8402 9.54163 15.9926 8.16924 15.9926 6.76941V5.46411C15.9891 4.53779 15.9382 3.61226 15.8402 2.69113C15.7661 2.08178 15.5369 1.50162 15.1745 1.00614C14.9823 0.77117 14.7377 0.584549 14.4603 0.461271C14.1829 0.337993 13.8804 0.281494 13.5772 0.296314C11.3372 0.143827 8.01145 0.143827 8.01145 0.143827L8.0145 0.140015Z" fill="white"/>
</g>
</g>
</g>
<defs>
<clipPath id="clip0_74_2009">
<rect width="16" height="12" fill="white" transform="translate(0 0.140015)"/>
</clipPath>
<clipPath id="clip1_74_2009">
<rect width="16" height="12" fill="white" transform="translate(0 0.140015)"/>
</clipPath>
<clipPath id="clip2_74_2009">
<rect width="15.9914" height="12" fill="white" transform="translate(0.00439453 0.140015)"/>
</clipPath>
</defs>
</svg>
