<svg width="1594" height="553" viewBox="0 0 1594 553" fill="none" xmlns="http://www.w3.org/2000/svg">
<path d="M969.131 140.532H874.75V165.972H969.131V140.532Z" fill="#D3AA97"/>
<path d="M957.868 140.532H951.459V165.972H957.868V140.532Z" fill="#C19280"/>
<path d="M945.244 140.532H941.942V165.972H945.244V140.532Z" fill="#C19280"/>
<path d="M988.516 165.799H1082.9V149.098H988.516V165.799Z" fill="#9AADCC"/>
<path d="M999.784 165.799H1006.19V149.098H999.784V165.799Z" fill="#B8C7DD"/>
<path d="M1012.26 165.799H1015.56V149.098H1012.26V165.799Z" fill="#B8C7DD"/>
<path d="M949.71 120.918H866.593V140.532H949.71V120.918Z" fill="#EDCFBC"/>
<path d="M884.071 120.918H877.662V140.532H884.071V120.918Z" fill="#DDB9A6"/>
<path d="M938.834 120.918H933.979V140.532H938.834V120.918Z" fill="#DDB9A6"/>
<path d="M957.284 177.042V408.333C957.284 414.936 953.4 418.82 945.438 420.179C937.476 421.539 918.639 422.704 918.639 422.704" stroke="#4A1A1A" stroke-width="2" stroke-miterlimit="10"/>
<path d="M957.285 177.042V408.333C957.285 414.936 961.169 418.82 969.131 420.179C977.093 421.539 995.931 422.704 995.931 422.704" stroke="#4A1A1A" stroke-width="2" stroke-miterlimit="10"/>
<path d="M1119.83 165.778H795.128V180.926H1119.83V165.778Z" fill="#E5DDD2"/>
<path d="M1044.09 144.999C1044.09 144.999 1045.26 144.804 1045.84 144.028C1046.81 142.668 1045.06 141.115 1044.09 140.338C1042.73 139.367 1040.59 139.173 1040.01 137.425C1039.24 135.483 1040.6 133.153 1042.15 132.182C1043.51 131.211 1045.26 130.822 1046.81 130.24C1048.56 129.657 1050.31 128.492 1051.28 126.938C1052.64 124.996 1052.25 122.277 1052.44 119.947C1053.02 111.014 1062.15 106.547 1069.92 106.353C1073.8 106.353 1079.63 107.712 1082.15 110.625C1082.93 111.596 1083.71 112.762 1083.9 114.121C1084.29 116.063 1083.51 118.005 1082.15 119.559C1080.79 121.112 1079.05 121.889 1077.49 123.248C1075.94 124.608 1077.1 126.161 1076.72 127.909C1076.33 129.851 1075.16 130.628 1073.41 131.405C1069.92 133.347 1066.04 133.735 1062.15 134.9C1060.99 135.289 1059.82 135.677 1058.85 136.454C1057.68 137.425 1056.91 138.978 1055.94 140.144C1054.19 142.474 1051.66 144.028 1048.95 144.61" fill="#EFF4F9"/>
<path d="M1051.08 164.419H1047C1039.24 164.419 1033.02 158.204 1033.02 150.436V141.503H1064.87V150.436C1065.07 158.204 1058.66 164.419 1051.08 164.419Z" fill="#F2ECE7"/>
<path d="M1029.53 160.923C1029.53 160.923 1029.72 165.972 1040.6 165.972H1057.49C1068.37 165.972 1068.56 160.923 1068.56 160.923H1029.53Z" fill="white"/>
<path d="M825.617 160.923C825.617 160.923 825.811 165.972 836.687 165.972H853.582C864.457 165.972 864.651 160.923 864.651 160.923H825.617Z" fill="#AFB9B8"/>
<path d="M1064.29 159.37H1052.25V144.416H1064.29C1068.37 144.416 1071.86 147.718 1071.86 151.99C1071.67 156.068 1068.37 159.37 1064.29 159.37ZM1054.97 156.651H1064.29C1066.81 156.651 1068.95 154.515 1068.95 151.99C1068.95 149.465 1066.81 147.329 1064.29 147.329H1054.97V156.651Z" fill="#F2ECE7"/>
<path opacity="0.3" d="M478.778 514.172C478.778 530.679 372.356 544.078 241.078 544.078C109.799 544.078 3.37793 530.679 3.37793 514.172C3.37793 497.665 109.799 484.265 241.078 484.265C372.356 484.265 478.778 497.665 478.778 514.172Z" fill="#606060"/>
<path opacity="0.3" d="M991.658 486.984C991.658 503.49 885.236 516.89 753.958 516.89C622.679 516.89 516.258 503.49 516.258 486.984C516.258 470.477 622.679 457.077 753.958 457.077C885.236 457.077 991.658 470.477 991.658 486.984Z" fill="#606060"/>
<path opacity="0.3" d="M1326.84 504.461C1470.99 504.461 1587.85 491.072 1587.85 474.555C1587.85 458.038 1470.99 444.648 1326.84 444.648C1182.7 444.648 1065.84 458.038 1065.84 474.555C1065.84 491.072 1182.7 504.461 1326.84 504.461Z" fill="#606060"/>
<path d="M678.802 365.998C678.802 365.998 531.599 387.942 512.373 434.938C493.147 481.935 551.795 514.172 647.536 494.558C647.536 494.558 753.374 465.622 766.58 440.57C779.785 415.713 749.684 368.716 749.684 368.716C749.684 368.716 740.169 362.308 737.062 362.308C733.954 362.308 678.802 365.998 678.802 365.998Z" fill="#160539"/>
<path d="M791.632 454.358C741.334 438.628 711.039 420.179 660.935 416.489C658.411 441.541 660.741 467.175 659.964 492.615C711.233 492.033 762.113 490.479 802.118 487.76C803.866 477.662 806.585 467.564 808.721 457.465C808.721 456.689 791.437 455.135 791.632 454.358Z" fill="#FC4F5A"/>
<path d="M668.703 453.582C667.732 468.147 667.15 483.1 671.228 497.276C664.237 499.607 656.857 500.772 649.672 500.966C648.701 500.966 647.536 500.966 646.565 500.384C645.399 499.607 645.011 497.859 644.623 496.5C643.263 489.314 641.904 481.935 640.739 474.749C637.826 456.495 636.078 437.075 642.875 419.985C645.011 414.548 648.507 408.916 653.944 406.78C657.051 405.42 660.547 405.42 664.043 405.809C667.927 406.003 676.277 406.585 678.996 410.081C681.909 413.771 678.025 418.043 676.277 421.345C670.84 431.055 669.48 442.318 668.703 453.582Z" fill="#27135B"/>
<path d="M562.088 417.266L561.506 415.518C575.877 411.44 589.859 407.75 604.424 406.585C620.931 405.226 635.496 407.362 647.536 412.994L646.759 414.742C634.913 409.304 620.542 407.168 604.424 408.333C590.247 409.692 576.459 413.382 562.088 417.266Z" fill="#AADAE1"/>
<path d="M647.147 503.879C643.069 500.772 641.904 495.334 641.127 490.285C638.602 473.973 637.437 457.466 637.631 440.959C637.631 434.939 638.02 428.53 639.962 422.316C642.292 415.519 646.564 410.275 651.808 407.945L652.585 409.693C647.73 412.023 643.651 416.878 641.709 423.092C639.767 428.918 639.573 435.133 639.379 441.153C639.185 457.466 640.35 473.973 642.875 490.091C643.651 494.558 644.622 499.607 648.118 502.326L647.147 503.879Z" fill="#AADAE1"/>
<path d="M763.861 444.843C763.861 444.843 787.553 445.619 801.342 437.269C801.342 437.269 834.744 454.747 865.233 458.825C895.722 463.097 962.915 453.193 962.915 453.193L970.683 431.443L1003.11 421.539C1003.11 421.539 989.521 376.873 791.049 346.772C592.577 316.671 737.256 386.194 737.256 386.194L759.2 419.597L763.861 444.843Z" fill="#160539"/>
<path d="M868.34 215.882C833.772 178.79 840.375 212.192 838.433 233.165C835.52 265.791 856.494 294.727 870.476 324.439C881.739 348.131 895.139 372.406 917.666 385.612C921.55 387.942 926.211 389.884 930.678 388.913C936.309 387.554 939.028 391.632 939.611 385.806C940.193 380.174 943.301 375.708 937.475 359.201C934.367 349.685 873.972 221.708 868.34 215.882Z" fill="#FC4F5A"/>
<path d="M825.228 83.8262C825.228 83.8262 822.315 77.4176 813.188 70.4264C804.06 63.4352 800.176 53.3369 810.08 44.0153C819.985 34.888 837.851 38.5777 839.599 58.9687C841.347 79.3596 841.541 85.9623 841.541 85.9623L825.228 83.8262Z" fill="#160539"/>
<path d="M840.764 73.3396C831.443 73.3396 824.451 77.0294 821.927 78.583C824.451 81.6902 825.422 83.8264 825.422 83.8264L841.735 85.9625C841.541 85.9625 841.347 82.6612 840.764 73.3396Z" fill="white"/>
<path d="M891.061 147.33C885.041 140.533 890.867 134.512 891.255 119.948C891.255 119.948 892.421 90.0408 866.204 81.3019C843.094 73.5339 825.228 77.4179 805.419 95.8668C785.611 114.316 771.24 112.18 745.023 115.869C725.215 118.782 721.719 124.22 712.98 136.454C712.98 136.454 702.882 150.048 686.958 160.147C673.17 168.886 676.471 205.978 735.119 194.132C793.767 182.285 826.199 196.656 835.326 213.552C844.453 230.447 899.023 254.139 904.267 200.734C907.568 168.692 891.061 147.33 891.061 147.33Z" fill="#160539"/>
<path d="M840.764 195.685C840.764 195.685 885.624 211.221 903.296 282.881L859.796 304.825L828.918 246.759L843.677 205.395L840.764 195.685Z" fill="#FDBC0B"/>
<path d="M796.098 482.323L814.547 525.047C815.907 527.766 818.82 529.125 821.733 528.348L821.927 451.057L795.71 455.524L796.098 482.323Z" fill="white"/>
<path d="M829.889 449.115L829.695 528.737L821.927 529.125L822.121 449.503L829.889 449.115Z" fill="black"/>
<path d="M808.139 460.961C811.635 460.767 814.353 463.68 814.353 467.564C814.353 471.253 811.44 474.555 807.945 474.749C804.449 474.943 801.73 472.03 801.73 468.146C801.73 464.262 804.449 460.961 808.139 460.961Z" stroke="black" stroke-width="0.9675" stroke-miterlimit="10" stroke-linecap="round" stroke-linejoin="round"/>
<path d="M799.594 496.888L804.449 490.479" stroke="black" stroke-width="0.9675" stroke-miterlimit="10" stroke-linecap="round" stroke-linejoin="round"/>
<path d="M802.118 502.326L807.167 495.917" stroke="black" stroke-width="0.9675" stroke-miterlimit="10" stroke-linecap="round" stroke-linejoin="round"/>
<path d="M804.837 508.152L810.274 501.549" stroke="black" stroke-width="0.9675" stroke-miterlimit="10" stroke-linecap="round" stroke-linejoin="round"/>
<path d="M796.681 57.6094C802.701 72.3686 818.82 81.3017 833.19 86.1567C833.967 86.3509 834.355 85.3799 833.579 84.9915C819.402 80.3308 803.478 71.5918 797.652 57.0268C797.458 56.4442 796.487 56.8327 796.681 57.6094Z" fill="#160539"/>
<path d="M804.449 369.882C796.098 355.705 794.739 359.395 794.156 349.879C793.768 341.723 796.875 333.761 800.37 326.381C803.478 319.972 808.138 314.535 813.77 310.262C820.567 305.213 828.918 302.106 835.132 296.669C841.735 290.843 846.007 282.298 846.59 273.559C846.978 266.956 845.619 260.159 846.978 253.751C847.949 249.09 850.474 244.817 852.222 240.351C855.717 230.835 855.717 220.154 851.833 210.832C841.735 185.587 814.353 185.975 792.602 177.042C758.423 163.059 714.729 191.801 707.543 226.174C704.63 240.351 706.766 255.11 706.572 269.675C706.572 270.646 706.572 271.811 706.572 272.782C705.99 289.483 701.523 305.796 693.755 320.555C685.599 335.897 679.579 348.52 678.802 366.192C678.802 366.192 710.65 370.658 721.526 387.748C735.508 409.887 794.156 411.44 810.663 403.478C827.17 395.516 804.449 369.882 804.449 369.882Z" fill="#FDBC0B"/>
<path d="M718.419 250.061C733.372 242.487 748.131 231.223 756.093 216.076C759.589 209.279 761.531 201.705 760.56 193.937C759.783 187.723 757.064 182.091 753.569 177.042C731.43 184.81 712.204 204.424 707.738 225.98C705.796 235.496 705.99 245.206 706.378 255.11C710.457 253.75 714.535 252.003 718.419 250.061Z" fill="#FC4F5A"/>
<path d="M806.779 158.787C802.701 164.03 798.428 169.274 792.796 172.963C790.66 174.323 785.611 175.682 784.834 177.818C784.058 180.537 787.359 185.975 788.913 188.111C791.825 192.577 795.904 196.267 800.176 199.374C804.643 202.676 809.498 205.589 814.741 207.142C821.15 209.084 825.616 208.308 831.636 205.395C833.773 204.424 835.909 203.258 837.462 201.316C838.628 199.957 839.987 197.821 839.404 196.073C839.21 195.296 837.462 195.49 837.074 194.519C835.909 191.412 841.152 185.004 842.512 182.479C844.453 178.789 845.813 174.711 845.23 170.827C844.648 167.914 842.9 165.39 841.152 163.059C838.822 159.952 836.103 157.233 833.384 154.514C831.054 152.184 828.723 149.659 826.005 147.717C824.063 146.164 823.48 137.036 820.761 137.425C818.819 137.619 817.071 142.086 816.489 143.445C814.353 147.523 812.411 151.99 809.692 155.485C808.527 156.651 807.75 157.622 806.779 158.787Z" fill="#FC4F5A"/>
<path d="M821.539 174.711C823.869 182.868 830.86 188.499 838.628 189.859C839.793 187.334 841.347 185.004 842.706 182.479C844.648 178.789 846.008 174.711 845.425 170.827C844.843 167.914 843.095 165.39 841.347 163.059C839.017 159.952 836.298 157.233 833.579 154.515C831.443 152.378 829.307 150.242 827.17 148.494C821.15 155.68 819.014 166.167 821.539 174.711Z" fill="#190F35"/>
<path d="M879.409 287.153C879.798 287.347 880.38 286.959 880.769 286.959C881.157 286.959 880.963 286.376 880.575 286.57C880.186 286.764 879.604 286.764 879.409 286.959C879.215 286.959 879.215 287.153 879.409 287.153Z" fill="#3D599C"/>
<path d="M806.584 338.615C810.08 316.477 814.546 290.26 818.042 272.782C818.236 272.782 818.236 272.782 818.43 272.782C824.062 272.782 891.061 250.449 892.032 251.031C892.808 251.42 874.942 308.126 864.844 338.227L806.584 338.615Z" fill="white"/>
<path d="M808.526 338.615C810.08 316.477 812.216 290.454 814.352 272.976C814.547 272.976 814.547 272.976 814.741 272.976C820.373 272.588 885.429 246.759 886.4 247.342C887.177 247.73 873.583 308.32 866.009 338.227L808.526 338.615Z" fill="white"/>
<path d="M737.449 328.711C737.449 328.711 742.11 245.788 741.916 241.127C741.916 239.962 812.604 273.558 818.042 274.335C818.236 274.335 818.236 274.335 818.43 274.335C818.43 291.425 817.459 316.671 816.488 338.421L737.449 328.711Z" fill="white"/>
<path d="M742.11 324.05C740.751 296.863 746.189 237.632 747.16 237.438C748.325 237.049 816.1 273.947 821.538 275.112C821.732 275.112 821.732 275.112 821.926 275.112C820.373 292.202 817.46 317.059 814.547 338.615L742.11 324.05Z" fill="white"/>
<path d="M733.76 332.595C736.673 307.932 737.45 246.953 737.644 246.953C756.287 254.527 818.819 272.976 823.091 275.695C823.286 275.889 893.197 253.945 896.693 253.945C897.47 253.945 880.769 307.738 870.476 338.227L801.341 346.189L733.76 332.595Z" fill="#725AE8"/>
<path d="M801.341 346.189C801.341 346.189 819.401 292.396 822.703 275.695C822.897 275.695 822.897 275.695 823.091 275.695C828.723 275.695 895.722 253.362 896.693 253.945C897.275 254.333 880.768 307.738 870.476 338.227L801.341 346.189Z" fill="#35107D"/>
<path d="M827.364 487.178C827.947 487.178 828.53 486.984 829.112 486.984C849.503 485.042 870.865 481.935 891.45 481.935C910.676 480.381 930.096 478.827 949.321 476.303C965.634 474.167 982.141 471.448 996.512 463.486C1000.59 461.155 1004.67 458.242 1006.61 453.97C1007.78 451.057 1007.78 447.561 1007.78 444.454C1007.78 439.599 1007.78 434.744 1006.61 430.083C1004.09 419.402 995.735 410.663 986.025 405.614C976.315 400.565 965.246 398.623 954.176 397.846C951.652 397.652 948.933 397.652 946.408 397.652C939.417 397.846 931.844 399.012 926.018 403.09C923.105 405.032 921.357 407.75 918.25 408.916C914.754 410.275 909.899 410.469 906.209 411.246C889.897 414.936 873.972 420.762 858.825 427.559C851.057 431.054 769.881 473.001 770.852 475.138C771.047 475.526 773.183 488.149 775.902 494.558C792.991 494.363 810.081 489.12 827.364 487.178Z" fill="#FC4F5A"/>
<path d="M1009.33 444.454C1010.69 429.112 999.036 412.411 985.83 405.42C976.12 400.371 965.051 398.429 953.981 397.652C951.457 397.458 948.738 397.458 946.213 397.458C933.396 397.846 921.939 404.061 909.898 407.945C896.11 412.217 882.128 415.907 867.951 418.82C890.09 431.637 902.713 457.465 904.266 483.1C904.266 484.459 904.655 486.207 905.82 486.789C906.208 486.984 906.791 486.984 907.179 486.984C931.26 486.595 955.341 482.129 977.868 473.972C987.384 470.477 996.899 466.204 1003.31 458.436C1007.19 454.164 1008.94 449.503 1009.33 444.454Z" fill="#160539"/>
<path d="M877.467 426.393C892.226 443.289 899.606 466.204 897.47 488.343C903.296 489.702 909.316 490.091 915.336 489.508C916.695 489.314 918.249 489.12 919.026 487.954C919.608 486.983 919.802 485.818 919.608 484.653C919.22 461.349 910.481 438.822 900.188 417.848C897.47 412.217 893.586 405.808 887.371 404.643C882.905 403.866 878.438 405.808 874.36 407.75C870.864 409.498 863.29 412.411 865.815 416.877C867.563 420.373 874.748 423.286 877.467 426.393Z" fill="#27135B"/>
<path d="M830.278 253.751C812.8 251.032 795.128 246.954 778.232 241.71L778.815 239.962C795.71 245.206 812.994 249.284 830.472 251.809L830.278 253.751Z" fill="#152146"/>
<path d="M897.858 415.518L896.887 413.965C913.199 403.867 932.619 398.041 951.845 398.041V399.983C933.008 399.983 913.782 405.42 897.858 415.518Z" fill="white"/>
<path d="M916.696 490.479C916.502 490.479 916.114 490.479 915.919 490.285C915.337 489.897 915.143 489.314 915.143 488.732C915.143 488.343 915.531 487.955 915.919 487.761L916.502 489.508C916.696 489.508 916.89 489.12 916.89 488.926C916.89 488.732 916.89 488.537 916.89 488.537C916.696 488.537 916.502 488.537 916.502 488.537C916.502 488.537 916.502 488.343 916.502 487.761C914.754 464.457 908.928 441.93 899.218 420.762C894.558 410.664 889.508 405.614 883.294 405.032L883.488 403.09C892.421 404.061 897.665 413.188 900.772 419.985C910.676 441.347 916.502 464.068 918.25 487.566C918.25 487.955 918.444 489.314 917.279 490.091C917.085 490.479 916.89 490.479 916.696 490.479Z" fill="white"/>
<path d="M821.732 208.89C821.538 208.89 821.538 208.89 821.344 208.89C814.741 208.696 807.556 206.172 799.788 200.928C791.049 195.102 785.999 188.888 784.057 181.897C783.281 179.178 783.475 177.042 784.446 175.294L785.999 176.265C785.223 177.43 785.223 179.178 785.805 181.314C787.553 187.723 792.408 193.549 800.759 199.18C808.332 204.23 815.129 206.754 821.344 206.948C829.306 207.143 836.491 202.87 838.822 196.462L840.569 197.238C838.045 204.23 830.277 208.89 821.732 208.89Z" fill="#152146"/>
<path d="M540.338 478.05C538.979 478.05 537.813 477.856 536.454 477.662L536.843 475.914C540.532 476.885 544.611 476.108 547.912 474.166C551.213 472.224 553.738 468.729 554.515 465.039C555.486 461.349 554.903 456.883 552.961 452.61C551.019 448.338 547.912 444.648 545.387 441.929L546.747 440.57C549.271 443.289 552.573 447.173 554.515 451.639C556.651 456.3 557.233 461.155 556.262 465.233C555.291 469.505 552.573 473.195 548.689 475.526C546.552 477.273 543.445 478.05 540.338 478.05Z" fill="#AADAE1"/>
<path d="M998.065 459.019C991.074 459.019 984.082 453.97 981.169 446.59C977.868 438.434 979.616 429.695 981.558 423.675L983.306 424.257C981.364 429.889 979.81 438.24 982.917 445.814C985.83 452.999 993.016 457.66 999.618 456.883L999.813 458.825C999.23 459.019 998.647 459.019 998.065 459.019Z" fill="white"/>
<path d="M822.315 260.936C821.926 260.936 821.538 260.742 821.344 260.353C821.344 260.159 821.149 260.159 821.149 259.965C815.712 258.606 810.08 257.635 804.642 256.664C796.874 255.304 788.718 253.945 780.95 251.42L781.533 249.672C789.107 252.197 797.069 253.556 804.837 254.916C810.468 255.887 816.294 256.858 822.12 258.217C823.286 258.606 823.48 259.382 823.48 259.771C823.48 260.353 823.091 260.742 822.703 260.936C822.509 260.936 822.509 260.936 822.315 260.936ZM821.732 259.382L822.703 260.353C822.897 260.159 822.897 259.771 822.703 259.382C822.509 259.188 822.315 258.994 821.926 258.994C821.926 259.188 821.732 259.188 821.732 259.382Z" fill="#152146"/>
<path d="M813.382 144.999C813.382 144.999 814.935 168.109 839.016 173.741C839.016 173.741 854.94 176.459 862.126 165.778C869.311 155.097 879.798 119.753 879.798 119.753C879.798 119.753 882.128 112.762 878.438 110.432C874.748 108.101 869.893 110.432 869.893 110.432C869.893 110.432 868.922 101.887 860.766 102.858C852.61 104.023 847.561 113.15 840.569 121.501C833.578 129.852 824.062 129.075 824.062 129.075C824.062 129.075 824.451 119.559 817.071 116.646C809.692 113.733 801.535 119.171 803.283 129.269C805.225 139.562 813.382 144.999 813.382 144.999Z" fill="#FC4F5A"/>
<path d="M831.248 85.3799C821.344 87.7103 815.518 95.284 809.692 103.052C806.391 107.519 803.089 111.985 798.817 115.481C793.962 119.365 787.942 120.724 781.728 121.501C770.464 123.055 759.006 122.666 748.131 126.162C735.702 130.24 728.905 140.921 724.827 152.767C724.633 153.544 725.604 153.932 725.992 153.155C728.517 145.582 732.013 138.785 737.839 133.153C742.305 129.075 748.519 126.744 754.345 125.385C765.026 123.055 776.096 123.637 786.777 121.501C796.098 119.753 802.118 114.316 807.944 106.936C814.547 98.3912 820.373 88.6813 831.443 85.9625C832.025 86.3509 831.831 85.3799 831.248 85.3799Z" fill="white"/>
<path d="M854.51 138.759L850.888 150.445L851.815 150.733L855.438 139.046L854.51 138.759Z" fill="#160539"/>
<path d="M841.992 128.805L841.64 131.501L850.69 132.683L851.042 129.987L841.992 128.805Z" fill="#160539"/>
<path d="M866.405 135.739L864.541 137.718L870.48 143.309L872.343 141.33L866.405 135.739Z" fill="#160539"/>
<path d="M846.785 136.843C846.396 137.814 845.62 138.396 844.843 138.008C844.066 137.814 843.678 136.843 843.872 135.872C844.26 134.901 845.037 134.318 845.814 134.706C846.591 134.901 846.979 135.872 846.785 136.843Z" fill="#160539"/>
<path d="M866.398 143.251C866.01 144.222 865.233 144.805 864.456 144.417C863.679 144.028 863.291 143.251 863.485 142.281C863.873 141.31 864.65 140.727 865.427 141.115C866.398 141.31 866.786 142.281 866.398 143.251Z" fill="#160539"/>
<path d="M843.677 159.175C842.512 158.787 841.152 157.816 839.987 156.651L840.57 156.068C846.202 161.7 851.833 157.428 852.028 157.233L852.61 158.01C852.61 158.01 848.532 161.117 843.677 159.175Z" fill="#160539"/>
<path d="M843.482 122.084C849.891 113.15 862.902 95.4783 869.894 110.432C869.894 110.432 868.923 101.887 860.766 102.858C852.61 104.023 847.561 113.15 840.569 121.501C833.578 129.852 824.062 129.075 824.062 129.075C824.062 129.075 824.063 129.075 824.257 129.075C826.199 129.269 837.656 130.24 843.482 122.084Z" fill="#C92736"/>
<path d="M877.857 124.025C876.497 128.686 875.526 132.181 874.944 134.9C877.857 126.55 879.799 119.947 879.799 119.947C879.799 119.947 882.129 112.956 878.439 110.625C874.749 108.295 869.895 110.625 869.895 110.625C869.895 110.625 883.294 106.936 877.857 124.025Z" fill="#C92736"/>
<g opacity="0.4">
<path opacity="0.4" d="M845.425 148.688C844.842 150.63 841.541 151.601 838.433 150.436C835.132 149.465 833.19 146.941 833.773 144.804C834.355 142.862 837.657 141.891 840.764 143.057C844.065 144.222 846.201 146.746 845.425 148.688Z" fill="#C92736"/>
</g>
<g opacity="0.4">
<path opacity="0.4" d="M865.621 155.291C865.038 157.233 861.737 158.204 858.63 157.039C855.328 156.068 853.386 153.543 853.969 151.407C854.552 149.465 857.853 148.494 860.96 149.659C864.261 150.63 866.203 153.155 865.621 155.291Z" fill="#C92736"/>
</g>
<path d="M838.628 144.999C832.608 142.669 829.501 136.066 831.443 130.046C832.414 126.939 834.55 124.414 837.463 123.055C840.376 121.501 843.677 121.307 846.59 122.278C852.999 124.414 856.494 131.211 854.358 137.425C852.222 143.834 845.425 147.33 839.211 145.193C839.016 145.193 838.822 144.999 838.628 144.999ZM846.979 123.249C846.784 123.249 846.59 123.055 846.396 123.055C843.483 122.084 840.57 122.472 837.851 123.831C835.132 125.191 833.19 127.521 832.414 130.24C830.472 136.066 833.773 142.28 839.599 144.222C845.425 146.164 851.834 142.863 853.581 137.037C855.329 131.405 852.416 125.385 846.979 123.249Z" fill="white"/>
<path d="M863.485 156.457C857.465 154.126 854.358 147.524 856.3 141.504C858.436 135.095 865.233 131.599 871.448 133.736C877.856 135.872 881.352 142.669 879.216 148.883C878.245 151.99 876.108 154.515 873.195 155.874C870.282 157.428 866.981 157.622 864.068 156.651C864.068 156.651 863.874 156.651 863.485 156.457ZM872.03 134.901C871.836 134.901 871.642 134.707 871.448 134.707C865.622 132.765 859.213 136.066 857.465 141.892C855.523 147.718 858.825 153.932 864.651 155.874C867.564 156.845 870.477 156.457 873.195 155.097C875.914 153.738 877.856 151.408 878.633 148.689C880.381 143.057 877.468 137.037 872.03 134.901Z" fill="white"/>
<path d="M853.512 138.098L853.215 139.022L857.282 140.331L857.579 139.407L853.512 138.098Z" fill="white"/>
<path d="M833.967 126.55L813.965 117.423L814.353 116.452L834.356 125.579L833.967 126.55Z" fill="white"/>
<path d="M813.382 144.999C813.382 144.999 813.382 144.999 813.382 145.193C813.77 145.193 814.353 145.193 814.741 145.193C816.877 139.173 820.178 133.735 824.062 129.074C824.062 129.074 824.451 119.558 817.071 116.645C809.692 113.732 801.535 119.17 803.283 129.268C805.225 139.561 813.382 144.999 813.382 144.999Z" fill="#FC4F5A"/>
<path d="M818.625 133.152C818.625 133.152 820.567 125.385 817.459 121.889C814.352 118.393 809.886 121.112 809.886 121.112L809.691 120.724C809.691 120.724 814.546 117.811 817.848 121.695C821.149 125.385 819.207 133.152 819.207 133.347L818.625 133.152Z" fill="white"/>
<path d="M809.497 129.657C810.08 127.909 811.051 126.549 812.604 125.967C815.517 124.413 819.207 125.773 819.401 125.773L819.207 126.161C819.207 126.161 815.517 124.996 812.798 126.355C811.439 126.938 810.468 128.297 809.885 129.851L809.497 129.657Z" fill="white"/>
<path d="M663.072 216.27C663.072 216.27 626.757 243.264 628.31 269.675C631.612 327.352 755.316 349.685 755.316 349.685L766.968 319.39C766.968 319.39 687.347 278.996 697.251 260.353L700.164 241.128L683.657 224.232L677.443 221.513L663.072 216.27Z" fill="#FC4F5A"/>
<path d="M760.753 175.1C760.753 175.1 723.467 177.624 662.877 216.27C662.877 216.27 690.453 239.768 697.056 260.936C697.25 260.936 783.863 216.464 760.753 175.1Z" fill="#FDBC0B"/>
<path d="M766.192 319.196C766.192 319.196 774.931 320.167 777.649 317.642C780.562 314.924 782.699 311.816 782.699 311.816C782.699 311.816 786.583 315.118 783.087 320.555C783.087 320.555 801.342 323.857 806.391 326.77C811.44 329.683 805.42 331.236 805.42 331.236C805.42 331.236 811.828 335.703 807.556 337.839C807.556 337.839 809.886 342.5 803.478 343.665C802.895 343.859 802.507 344.053 802.507 344.248C801.73 345.801 800.759 347.549 799.011 347.937C795.127 349.103 790.467 350.656 789.107 350.85C787.165 351.045 783.475 351.821 773.377 351.433C769.105 351.239 755.511 349.297 755.511 349.297L766.192 319.196Z" fill="#FC4F5A"/>
<path d="M805.226 331.042C800.371 330.071 794.739 330.266 789.884 330.266C789.302 330.266 789.302 331.042 789.884 331.237C794.933 331.431 800.177 332.208 805.226 331.625C805.614 331.431 805.614 331.042 805.226 331.042Z" fill="#152146"/>
<path d="M802.118 343.859C800.176 343.471 798.04 343.471 796.098 343.471C794.156 343.277 792.214 343.277 790.272 343.277C789.689 343.277 789.689 344.053 790.272 344.248C792.214 344.248 794.35 344.248 796.292 344.442C798.234 344.636 800.176 344.83 802.118 344.442C802.506 344.248 802.506 343.859 802.118 343.859Z" fill="#152146"/>
<path d="M789.495 337.451C789.495 337.257 793.573 337.257 798.428 337.451C803.283 337.645 807.361 337.645 807.361 338.033C807.361 338.228 803.477 338.616 798.428 338.422C793.573 338.228 789.495 337.645 789.495 337.451Z" fill="#152146"/>
<path d="M791.243 494.558L769.104 546.992C767.551 550.488 763.861 552.041 760.365 551.07L759.2 456.495L791.243 461.544V494.558Z" fill="white"/>
<path d="M749.685 454.359L750.656 551.847L760.171 552.235L759.2 454.941L749.685 454.359Z" fill="black"/>
<path d="M776.484 468.535C772.211 468.341 768.716 472.03 768.91 476.691C769.104 481.352 772.6 485.236 776.872 485.236C781.145 485.43 784.64 481.74 784.446 477.08C784.252 472.613 780.756 468.729 776.484 468.535Z" stroke="black" stroke-width="0.9675" stroke-miterlimit="10" stroke-linecap="round" stroke-linejoin="round"/>
<path d="M787.165 512.424L780.95 504.85" stroke="black" stroke-width="0.9675" stroke-miterlimit="10" stroke-linecap="round" stroke-linejoin="round"/>
<path d="M784.057 519.221L777.843 511.453" stroke="black" stroke-width="0.9675" stroke-miterlimit="10" stroke-linecap="round" stroke-linejoin="round"/>
<path d="M780.756 526.406L774.153 518.25" stroke="black" stroke-width="0.9675" stroke-miterlimit="10" stroke-linecap="round" stroke-linejoin="round"/>
<path d="M663.072 216.27C663.072 216.27 689.095 237.049 697.251 260.936L663.072 216.27Z" fill="#FC4F5A"/>
<path d="M696.28 261.324C688.318 238.02 662.683 217.241 662.295 217.047L663.654 215.299C663.848 215.493 690.065 236.661 698.222 260.547L696.28 261.324Z" fill="white"/>
<path d="M903.296 282.88C903.296 282.88 892.615 287.93 885.43 291.814L903.296 282.88Z" fill="#FC4F5A"/>
<path d="M886.012 292.785L885.041 290.843C892.032 286.959 902.907 281.909 902.907 281.909L903.878 283.851C903.684 283.851 893.003 288.901 886.012 292.785Z" fill="white"/>
<path d="M755.899 234.33L754.151 232.971C771.435 211.803 767.745 185.975 767.551 185.586L769.687 185.198C769.882 185.586 773.765 212.386 755.899 234.33Z" fill="white"/>
<path d="M839.793 253.945C836.491 236.078 844.259 218.212 844.453 217.435L846.395 218.212C846.395 218.406 838.628 236.273 841.735 253.556L839.793 253.945Z" fill="white"/>
<path d="M651.42 293.367L649.478 292.59C656.663 276.278 639.768 265.791 638.991 265.403L640.156 263.655C640.351 263.655 659.576 275.307 651.42 293.367Z" fill="white"/>
<path d="M840.763 297.833C840.763 297.833 872.417 406.391 913.976 406.779C955.535 406.973 939.999 368.716 939.999 368.716L880.962 305.796C880.962 305.796 871.641 285.793 868.145 284.239C864.65 282.686 863.679 287.735 866.98 293.949C870.281 300.358 861.154 291.425 857.464 283.851C853.774 276.277 847.56 269.674 845.23 271.811C842.705 273.947 848.531 290.842 848.531 290.842C848.531 290.842 845.23 290.065 844.647 292.784C844.647 292.784 842.122 292.784 842.122 294.532C841.734 294.92 839.792 294.92 840.763 297.833Z" fill="#FC4F5A"/>
<path d="M921.356 368.716C903.296 342.111 885.818 314.535 869.505 286.764L871.059 285.793C887.565 313.369 904.849 340.946 922.91 367.551L921.356 368.716Z" fill="white"/>
<path d="M919.026 395.516C915.336 395.516 911.647 393.962 908.928 391.244L910.287 389.884C913.394 392.991 918.055 394.156 921.745 393.185C925.823 392.215 928.93 388.331 928.736 384.447H930.678C930.872 389.107 927.182 393.962 922.327 395.127C921.162 395.322 920.191 395.516 919.026 395.516Z" fill="white"/>
<path d="M856.106 305.602C854.747 300.747 852.028 295.892 849.892 291.425C849.698 290.843 848.921 291.425 849.115 291.814C851.251 296.28 852.805 301.524 855.523 305.796C855.912 305.99 856.3 305.796 856.106 305.602Z" fill="#152146"/>
<path d="M846.784 306.184C846.395 304.242 845.23 302.3 844.453 300.552C843.677 298.805 842.9 297.057 841.929 295.115C841.735 294.532 840.958 295.115 841.152 295.503C841.929 297.251 842.9 299.193 843.677 300.941C844.453 302.689 845.036 304.631 846.201 306.184C846.395 306.573 846.784 306.573 846.784 306.184Z" fill="#152146"/>
<path d="M845.231 292.979C845.426 292.979 847.173 296.474 849.115 300.941C851.057 305.407 852.805 308.903 852.611 309.097C852.417 309.291 850.281 305.796 848.339 301.329C846.397 296.863 845.037 293.173 845.231 292.979Z" fill="#152146"/>
<path d="M1101.57 433.579C1101.57 433.579 1231.49 329.876 1360.05 333.954C1488.61 338.033 1511.72 364.638 1511.72 364.638L1428.99 418.431C1428.99 418.431 1376.37 379.397 1118.08 477.856L1101.57 433.579Z" fill="#0E0623"/>
<path d="M1098.27 438.434C1088.76 444.26 1078.85 450.086 1068.75 455.135C1075.36 472.418 1070.89 488.537 1084.68 485.624C1093.81 483.682 1103.9 481.352 1114.58 478.633C1108.18 465.427 1102.35 452.222 1098.27 438.434Z" fill="#FC4F5A"/>
<path d="M1104.13 423.834L1088.77 429.334L1109.34 486.739L1124.69 481.239L1104.13 423.834Z" fill="#27135B"/>
<path d="M1105.06 423.668L1103.23 424.323L1123.41 480.631L1125.23 479.976L1105.06 423.668Z" fill="white"/>
<path d="M1089.66 429.256L1087.83 429.911L1108.4 487.316L1110.23 486.661L1089.66 429.256Z" fill="white"/>
<path d="M1478.71 174.711C1472.49 162.476 1454.43 171.798 1445.5 180.148C1436.76 188.305 1431.13 199.18 1425.69 209.667C1423.75 213.551 1310.14 369.104 1292.28 390.66C1292.28 391.049 1292.28 391.437 1292.28 391.631C1292.28 392.797 1292.47 393.379 1293.44 393.962L1293.64 394.156C1293.83 394.156 1294.03 394.35 1294.22 394.544C1295.19 394.156 1295.97 393.768 1296.16 393.573C1297.91 392.602 1299.85 389.689 1301.99 389.884C1299.85 392.02 1297.71 393.768 1296.36 396.486C1295.97 397.069 1295.77 397.651 1295.97 398.234C1296.16 398.817 1296.55 399.399 1297.13 399.788C1299.27 401.73 1301.79 403.283 1304.32 404.643C1306.45 405.614 1308.59 406.585 1310.92 406.196C1312.86 405.808 1314.61 404.643 1316.16 403.477C1324.13 397.457 1330.92 390.272 1338.69 384.058C1346.65 377.649 1354.62 371.046 1362.38 364.249C1376.75 351.626 1390.54 338.421 1403.75 324.827C1409.96 318.224 1431.91 295.891 1437.15 289.483C1444.14 281.132 1450.55 272.199 1456.18 262.877C1465.31 247.73 1475.02 232.582 1480.07 216.075C1484.15 201.705 1484.73 186.557 1478.71 174.711Z" fill="#FC4F5A"/>
<path d="M1072.06 451.445C1070.31 452.027 1068.17 452.998 1067.2 452.998C1064.09 453.581 1060.99 453.581 1058.07 453.581C1047 453.193 1037.68 450.085 1030.3 441.541C1026.42 436.88 1022.53 432.219 1018.84 427.364C1018.07 426.393 1017.29 425.228 1016.13 424.645C1014.96 424.063 1013.6 423.674 1012.44 424.451C1011.47 425.034 1011.08 426.005 1010.88 427.17C1009.72 432.413 1027.39 465.621 1027.39 465.621C1037.1 481.546 1043.12 490.09 1043.12 490.09L1046.62 496.887L1042.73 498.635C1042.73 498.635 1042.73 498.829 1042.93 498.829L1046.42 506.209C1060.99 500.383 1074.97 493.392 1088.76 486.206L1072.06 451.445Z" fill="#160539"/>
<path d="M1181.39 411.246C1166.05 426.587 1141.77 446.784 1141.97 446.978C1142.16 447.172 1141.97 447.561 1142.36 447.561C1147.4 447.561 1149.35 466.592 1155.17 465.427C1172.65 461.737 1191.1 455.135 1208.97 446.784C1200.03 434.938 1190.52 423.286 1181.39 411.246Z" fill="#FC4F5A"/>
<path d="M1147.4 435.909C1145.85 437.074 1144.3 438.628 1143.52 439.21C1140.8 440.764 1138.08 442.123 1135.17 443.094C1124.68 446.784 1114.78 447.367 1104.88 441.929C1099.44 439.016 1094.19 436.103 1088.95 432.996C1087.79 432.413 1086.62 431.637 1085.46 431.442C1084.1 431.248 1082.74 431.637 1081.96 432.608C1081.38 433.384 1081.38 434.55 1081.57 435.715C1082.35 440.958 1110.9 465.621 1110.9 465.621C1125.85 476.885 1134.39 482.711 1134.39 482.711L1140.22 487.76L1137.11 490.867L1137.31 491.061L1143.13 496.693C1154.59 486.012 1165.08 474.36 1175.37 462.708L1147.4 435.909Z" fill="#160539"/>
<path d="M1202.56 443.677L1201.78 441.929C1205.66 440.181 1209.16 437.268 1211.88 433.967L1213.24 435.132C1210.52 438.628 1206.83 441.735 1202.56 443.677Z" fill="#152146"/>
<path d="M1463.17 328.711C1463.17 328.711 1372.68 255.692 1315 277.442C1257.52 299.193 1179.25 413.382 1179.25 413.382L1206.25 449.891C1206.25 449.891 1351.31 367.551 1418.51 420.956C1418.51 420.956 1436.57 453.581 1479.87 455.523C1523.37 457.271 1547.26 413.77 1548.23 391.243C1549.2 368.716 1508.03 341.334 1508.03 341.334L1463.17 328.711Z" fill="#160539"/>
<path d="M1185.95 397.706L1173.71 407.275L1209.83 453.478L1222.07 443.909L1185.95 397.706Z" fill="#27135B"/>
<path d="M1174.49 406.932L1172.95 408.123L1209.63 455.369L1211.16 454.178L1174.49 406.932Z" fill="#FFE7E1"/>
<path d="M1186.88 397.627L1185.35 398.828L1220.9 443.998L1222.43 442.797L1186.88 397.627Z" fill="#FFE7E1"/>
<path d="M1478.71 174.711C1472.49 162.476 1454.43 171.798 1445.5 180.148C1436.76 188.305 1431.13 199.18 1425.69 209.667C1425.3 210.443 1421.22 216.075 1414.82 225.008C1423.94 230.446 1432.88 236.078 1440.84 243.069C1446.86 248.312 1452.69 254.332 1456.76 261.324C1465.7 246.565 1475.02 231.805 1479.87 215.687C1484.15 201.705 1484.73 186.557 1478.71 174.711Z" fill="#FF7373"/>
<path d="M1473.66 238.602C1473.66 238.602 1473.66 238.408 1473.46 238.408C1473.66 238.602 1473.66 238.602 1473.66 238.602Z" fill="white"/>
<path d="M1501.62 166.166C1503.76 166.166 1505.9 166.36 1507.84 166.554C1505.9 166.36 1503.76 166.166 1501.62 166.166Z" fill="white"/>
<path d="M1487.84 166.166C1489.97 166.166 1492.3 165.972 1494.44 165.972C1492.3 165.972 1489.97 165.972 1487.84 166.166Z" fill="white"/>
<path d="M1550.37 180.342C1528.04 165.583 1495.8 161.699 1469.97 166.943C1466.47 167.72 1462.78 168.69 1460.07 170.827C1455.99 173.934 1453.85 178.983 1452.69 184.032C1442.59 222.095 1461.81 260.353 1456.96 298.61C1455.99 306.96 1455.6 315.505 1455.21 324.05C1464.73 329.876 1474.05 337.838 1482.01 343.664C1492.5 351.238 1502.6 359.006 1512.11 367.939C1520.66 375.901 1529.2 383.475 1536.39 392.991C1536.97 393.573 1537.36 394.35 1537.75 394.933C1540.85 396.875 1543.77 399.399 1545.9 402.312C1549.4 396.098 1552.5 387.165 1554.64 382.698C1559.5 373.182 1563.96 363.472 1568.23 353.568C1576.78 333.177 1584.16 312.204 1588.04 290.259C1595.42 248.895 1588.04 205.2 1550.37 180.342Z" fill="#496ABF"/>
<path d="M1550.37 180.342C1528.04 165.583 1495.8 161.699 1469.97 166.943C1466.47 167.72 1462.78 168.69 1460.07 170.827C1455.99 173.934 1453.85 178.983 1452.69 184.032C1442.59 222.095 1461.81 260.353 1456.96 298.61C1455.99 306.96 1455.6 315.505 1455.21 324.05C1464.73 329.876 1474.05 337.838 1482.01 343.664C1492.5 351.238 1502.6 359.006 1512.11 367.939C1520.66 375.901 1529.2 383.475 1536.39 392.991C1536.97 393.573 1537.36 394.35 1537.75 394.933C1540.85 396.875 1543.77 399.399 1545.9 402.312C1549.4 396.098 1552.5 387.165 1554.64 382.698C1559.5 373.182 1563.96 363.472 1568.23 353.568C1576.78 333.177 1584.16 312.204 1588.04 290.259C1595.42 248.895 1588.04 205.2 1550.37 180.342Z" fill="#496ABF"/>
<path d="M1550.37 180.342C1528.04 165.583 1495.8 161.699 1469.97 166.943C1469.58 166.943 1469.19 167.137 1468.8 167.137C1470.94 168.496 1473.08 170.05 1475.21 171.215C1479.49 171.215 1483.76 170.632 1487.84 170.244C1494.24 169.661 1501.24 170.244 1507.45 172.574C1511.33 173.934 1515.8 175.682 1519.49 178.012C1524.35 181.119 1528.62 187.139 1528.81 193.16C1529.2 199.568 1525.51 205.394 1522.99 211.026C1520.27 217.046 1518.71 223.455 1518.13 229.863C1517.94 233.165 1517.74 236.854 1515.22 238.796C1513.28 240.156 1510.56 240.156 1508.42 239.379C1506.09 238.602 1504.15 237.243 1502.01 236.078C1494.24 231.805 1473.66 228.504 1471.52 241.709C1470.75 246.37 1470.94 252.002 1471.52 256.663C1473.08 267.926 1478.32 278.413 1483.18 288.706C1485.31 293.172 1488.61 297.25 1491.33 301.523C1494.05 305.989 1497.35 310.65 1498.91 315.699C1500.26 319.777 1502.01 324.827 1501.82 329.099C1501.62 332.789 1499.68 336.867 1496.19 338.032C1493.66 339.003 1490.94 338.421 1488.42 337.838C1476.57 334.925 1463.17 326.963 1455.21 317.641C1454.82 319.389 1454.82 321.525 1455.02 323.661C1464.73 329.487 1474.05 337.45 1482.01 343.276C1492.5 350.849 1502.6 358.617 1512.11 367.55C1520.66 375.513 1529.2 383.086 1536.39 392.602C1536.97 393.185 1537.36 393.962 1537.75 394.544C1540.85 396.486 1543.77 399.011 1545.9 401.924C1549.4 395.709 1552.5 386.776 1554.64 382.31C1559.5 372.794 1563.96 363.084 1568.23 353.18C1576.78 332.789 1584.16 311.815 1588.04 289.871C1595.42 248.895 1588.04 205.2 1550.37 180.342Z" fill="#3159AF"/>
<path d="M1475.99 245.399C1475.99 245.205 1475.8 245.011 1475.8 244.817C1475.99 245.011 1475.99 245.205 1475.99 245.399Z" fill="white"/>
<path d="M1473.66 238.408C1472.88 236.272 1472.11 234.136 1471.13 232.194C1471.91 234.136 1472.88 236.272 1473.66 238.408Z" fill="white"/>
<path d="M1471.13 231.999C1470.75 231.028 1470.16 229.863 1469.78 228.892C1470.16 229.863 1470.55 231.028 1471.13 231.999Z" fill="white"/>
<path d="M1475.99 244.816C1475.21 242.68 1474.63 240.738 1473.85 238.602C1474.44 240.738 1475.21 242.874 1475.99 244.816Z" fill="white"/>
<path d="M1476.96 248.506C1476.57 247.535 1476.38 246.564 1475.99 245.399C1476.96 248.7 1477.93 251.807 1478.9 255.109C1479.29 256.468 1479.68 257.633 1479.87 258.993C1479.29 255.497 1478.13 252.002 1476.96 248.506Z" fill="white"/>
<path d="M1508.03 166.36H1507.84C1508.03 166.36 1508.03 166.36 1508.03 166.36C1508.03 166.554 1508.03 166.554 1508.03 166.36Z" fill="white"/>
<path d="M1518.91 151.795C1519.88 155.485 1520.65 159.175 1522.4 162.476C1524.34 166.166 1527.45 169.079 1525.7 173.351C1524.93 175.487 1523.18 177.235 1521.63 178.983C1517.16 183.838 1512.3 188.499 1506.28 191.218C1501.62 193.354 1496.38 193.936 1491.53 193.16C1486.48 192.383 1481.82 189.858 1478.32 186.168C1476.38 184.032 1474.63 181.508 1474.05 178.789C1473.46 176.653 1473.46 174.516 1474.24 172.38C1475.02 170.05 1476.38 169.856 1478.71 169.273C1479.68 169.079 1480.46 168.885 1481.43 169.079C1481.43 168.885 1481.43 168.69 1481.62 168.302C1482.79 164.806 1481.82 161.117 1481.62 157.427C1481.43 153.737 1481.82 150.047 1483.76 146.94C1485.31 144.804 1487.64 143.445 1489.97 142.279C1493.08 140.726 1496.19 139.561 1499.49 138.395C1502.21 137.424 1505.12 136.259 1508.03 135.677C1510.17 135.288 1514.05 128.103 1516.19 129.268C1517.74 130.433 1516.58 142.085 1518.91 151.795Z" fill="#FC4F5A"/>
<path d="M1481.62 167.525C1484.15 169.661 1487.25 171.215 1490.94 170.244C1495.99 168.885 1499.68 164.224 1502.6 160.146C1506.67 154.32 1509.97 147.911 1512.69 141.503C1514.25 138.201 1515.61 134.706 1516.97 131.21C1516.77 130.239 1516.58 129.462 1516.19 129.268C1514.05 128.103 1510.36 135.288 1508.03 135.677C1505.12 136.259 1502.21 137.424 1499.49 138.395C1496.19 139.561 1493.08 140.92 1489.97 142.279C1487.64 143.445 1485.31 144.804 1483.76 146.94C1481.62 149.853 1481.43 153.737 1481.62 157.427C1481.43 160.922 1482.2 164.418 1481.62 167.525Z" fill="#160539"/>
<path d="M1496.19 193.548C1489.19 193.548 1482.2 191.024 1477.15 186.557C1473.85 183.45 1471.91 179.954 1471.91 176.459C1471.91 172.575 1474.63 168.108 1478.9 167.72L1479.1 169.662C1475.8 169.856 1473.66 173.352 1473.66 176.459C1473.66 179.372 1475.41 182.479 1478.32 185.198C1485.12 191.606 1496.19 193.548 1505.51 190.053C1514.44 186.751 1521.63 179.177 1525.12 169.662L1526.87 170.244C1523.18 180.343 1515.41 188.305 1506.09 191.8C1502.98 192.966 1499.68 193.548 1496.19 193.548Z" fill="#152146"/>
<path d="M1453.46 256.08C1446.47 246.759 1437.54 238.602 1427.44 232.776L1428.41 231.223C1438.7 237.243 1447.83 245.594 1454.82 255.109L1453.46 256.08Z" fill="#152146"/>
<path d="M1452.1 243.263C1451.91 243.069 1451.33 242.68 1450.94 242.486C1450.36 242.098 1450.16 241.904 1449.97 241.709C1445.11 236.466 1439.67 231.805 1433.65 227.533L1434.63 225.979C1440.65 230.057 1446.08 234.912 1451.13 240.35C1451.33 240.35 1451.52 240.738 1451.71 240.738C1453.07 241.709 1453.27 241.709 1453.46 242.098L1452.1 243.263C1452.1 243.263 1451.91 243.263 1452.1 243.263Z" fill="#152146"/>
<path d="M1455.02 320.749L1453.27 320.361C1457.54 293.367 1456.96 266.179 1451.33 239.38L1453.07 238.991C1458.71 266.179 1459.29 293.561 1455.02 320.749Z" fill="white"/>
<path d="M1520.27 110.625C1520.27 110.625 1522.6 108.877 1525.32 110.625C1528.03 112.373 1530.17 117.228 1527.06 123.248C1524.15 129.268 1520.85 131.987 1515.22 131.404C1509.59 130.822 1516.77 118.782 1516.77 118.782L1520.27 110.625Z" fill="#FC4F5A"/>
<path d="M1459.09 129.074C1459.09 129.074 1459.68 157.039 1487.25 157.039C1517.35 157.039 1519.88 130.433 1519.88 130.433L1516.38 97.6138C1516.38 97.6138 1514.05 82.272 1500.26 77.2229C1486.48 72.1737 1470.75 82.272 1470.75 82.272C1470.75 82.272 1464.92 88.6806 1463.95 98.9732C1462.98 109.266 1459.09 129.074 1459.09 129.074Z" fill="#FC4F5A"/>
<path d="M1464.92 84.0197C1464.92 84.0197 1473.66 84.0197 1477.54 91.9819C1481.43 99.9441 1493.47 108.489 1508.42 104.799C1508.42 104.799 1487.64 108.877 1478.71 91.7877C1469.58 74.1156 1461.23 81.4952 1461.23 81.4952L1464.92 84.0197Z" fill="#160539"/>
<path d="M1466.09 75.2808C1461.04 72.3678 1455.79 75.8634 1455.02 84.0198C1453.66 99.7499 1462.4 112.955 1462.4 112.955C1462.4 112.955 1462.78 96.0601 1467.06 89.4574C1475.99 86.156 1487.25 100.915 1498.71 104.022C1510.17 107.129 1516.58 98.3905 1516.58 98.3905L1518.32 115.286C1518.32 115.286 1527.06 109.266 1526.87 89.069C1526.68 68.2897 1485.31 57.0261 1474.05 57.4145C1462.98 57.9971 1466.09 75.2808 1466.09 75.2808Z" fill="#160539"/>
<path d="M1518.13 113.344C1518.33 116.257 1518.52 119.364 1518.91 122.277C1518.91 122.666 1519.49 122.666 1519.49 122.277C1519.3 119.364 1519.1 116.257 1518.71 113.344C1518.52 112.956 1518.13 112.956 1518.13 113.344Z" fill="#160539"/>
<path d="M1518.91 117.616C1520.27 115.091 1522.99 112.373 1525.7 114.509C1525.9 114.703 1526.29 114.315 1526.09 114.12C1522.99 111.596 1520.07 114.509 1518.52 117.228C1518.32 117.616 1518.71 118.004 1518.91 117.616Z" fill="#160539"/>
<path d="M1461.42 110.819C1461.42 110.819 1459.68 108.877 1456.96 110.819C1454.24 112.567 1452.1 117.422 1455.21 123.442C1458.12 129.462 1461.42 132.181 1467.06 131.598C1472.69 131.016 1465.5 118.976 1465.5 118.976L1461.42 110.819Z" fill="#FC4F5A"/>
<path d="M1461.62 115.286C1460.65 113.344 1458.71 111.79 1456.57 113.15C1456.38 113.344 1456.57 113.732 1456.76 113.538C1458.71 112.373 1460.26 113.927 1461.04 115.48C1461.42 115.869 1461.81 115.674 1461.62 115.286Z" fill="#160539"/>
<path d="M1466.09 127.326C1460.65 124.607 1459.29 117.81 1463.17 113.15C1463.37 112.955 1462.98 112.567 1462.78 112.761C1458.71 117.616 1460.26 124.802 1465.89 127.715C1466.09 127.715 1466.28 127.326 1466.09 127.326Z" fill="#160539"/>
<path d="M1508.62 128.297C1513.08 123.831 1512.3 116.645 1506.87 113.15C1506.67 112.955 1506.28 113.344 1506.67 113.538C1511.72 116.839 1512.5 123.636 1508.42 127.909C1508.03 128.103 1508.42 128.491 1508.62 128.297Z" fill="#160539"/>
<path d="M1475 107.462L1465.57 108.72L1465.88 111.03L1475.31 109.771L1475 107.462Z" fill="#160539"/>
<path d="M1492.75 107.817L1492.67 110.146L1502.18 110.495L1502.26 108.166L1492.75 107.817Z" fill="#160539"/>
<path d="M1479.1 117.228C1479.87 121.5 1480.65 125.578 1481.23 129.851C1481.23 130.239 1481.82 130.045 1481.62 129.657C1480.84 125.384 1480.07 121.306 1479.49 117.034C1479.68 116.839 1479.1 116.839 1479.1 117.228Z" fill="#160539"/>
<path d="M1469.19 128.103C1462.2 128.103 1456.38 122.277 1456.38 115.286C1456.38 108.295 1462.2 102.469 1469.19 102.469C1476.18 102.469 1482.01 108.295 1482.01 115.286C1482.01 122.472 1476.18 128.103 1469.19 128.103ZM1469.19 103.052C1462.4 103.052 1456.96 108.489 1456.96 115.286C1456.96 122.083 1462.4 127.521 1469.19 127.521C1475.99 127.521 1481.43 122.083 1481.43 115.286C1481.43 108.683 1475.8 103.052 1469.19 103.052Z" fill="white"/>
<path d="M1496.58 128.104C1489.58 128.104 1483.76 122.278 1483.76 115.286C1483.76 108.295 1489.58 102.469 1496.58 102.469C1503.57 102.469 1509.39 108.295 1509.39 115.286C1509.2 122.472 1503.57 128.104 1496.58 128.104ZM1496.58 103.052C1489.78 103.052 1484.34 108.489 1484.34 115.286C1484.34 122.083 1489.78 127.521 1496.58 127.521C1503.37 127.521 1508.81 122.083 1508.81 115.286C1508.62 108.684 1503.18 103.052 1496.58 103.052Z" fill="white"/>
<path d="M1483.95 115.092H1481.62V115.675H1483.95V115.092Z" fill="white"/>
<path d="M1508.62 112.373L1508.42 111.79L1522.79 109.072L1522.99 109.654L1508.62 112.373Z" fill="white"/>
<path d="M1462.78 111.984L1457.35 111.596V111.013L1462.78 111.402V111.984Z" fill="white"/>
<path d="M1476.38 107.712C1477.35 108.295 1477.35 109.654 1477.15 110.625C1477.15 111.013 1477.54 111.013 1477.74 110.625C1477.93 109.46 1477.74 107.906 1476.57 107.324C1476.38 107.129 1475.99 107.518 1476.38 107.712Z" fill="#160539"/>
<path d="M1491.14 106.935C1490.17 107.712 1489.58 108.877 1489.78 110.043C1489.78 110.431 1490.36 110.431 1490.36 110.043C1490.36 109.072 1490.75 107.906 1491.53 107.324C1491.72 107.13 1491.33 106.741 1491.14 106.935Z" fill="#160539"/>
<path d="M1485.89 137.424C1485.89 139.755 1484.73 141.503 1483.17 141.503C1481.62 141.503 1480.46 139.755 1480.46 137.424C1480.46 135.094 1481.62 133.346 1483.17 133.346C1484.73 133.346 1485.89 135.094 1485.89 137.424Z" fill="#160539"/>
<path d="M1471.52 117.228C1471.52 118.005 1470.94 118.587 1470.16 118.587C1469.39 118.587 1468.8 118.005 1468.8 117.228C1468.8 116.451 1469.39 115.868 1470.16 115.868C1470.94 115.868 1471.52 116.451 1471.52 117.228Z" fill="#160539"/>
<path d="M1498.71 117.228C1498.71 118.005 1498.13 118.587 1497.35 118.587C1496.57 118.587 1495.99 118.005 1495.99 117.228C1495.99 116.451 1496.57 115.868 1497.35 115.868C1498.13 115.868 1498.71 116.451 1498.71 117.228Z" fill="#160539"/>
<path d="M1466.09 75.8634C1466.09 75.8634 1459.87 70.2316 1454.43 74.504C1454.43 74.504 1460.45 68.2897 1469.19 75.8634C1477.74 83.6314 1466.09 75.8634 1466.09 75.8634Z" fill="#160539"/>
<path d="M1430.16 172.381C1429.96 172.381 1429.96 172.381 1429.77 172.381C1425.3 172.381 1372.48 150.825 1371.7 151.407C1370.93 151.99 1397.14 253.556 1398.89 255.498C1400.45 257.246 1434.62 273.17 1444.53 277.831C1444.14 273.753 1435.79 206.366 1430.16 172.381Z" fill="white"/>
<path d="M1432.88 172.575C1432.68 172.575 1432.68 172.575 1432.49 172.575C1428.02 172.187 1376.75 147.135 1375.98 147.718C1375.2 148.3 1394.43 251.226 1396.17 253.362C1397.53 255.304 1430.74 273.364 1440.26 278.802C1440.26 274.724 1436.37 206.948 1432.88 172.575Z" fill="white"/>
<path d="M1483.56 143.251C1482.79 142.862 1434.24 173.157 1429.96 173.934C1429.96 173.934 1429.77 173.934 1429.58 173.934C1429.77 204.035 1432.29 259.188 1433.27 275.695C1433.27 275.695 1433.46 275.695 1433.46 275.889C1433.85 276.083 1434.24 276.471 1434.24 276.666C1435.01 277.054 1435.79 277.637 1436.57 278.219C1448.22 270.063 1473.47 252.391 1474.63 250.643C1476.18 248.313 1484.53 143.833 1483.56 143.251Z" fill="white"/>
<path d="M1478.71 140.338C1477.93 139.949 1431.52 173.546 1427.25 174.517C1427.25 174.517 1427.05 174.517 1426.86 174.517C1429.19 206.56 1436.18 266.956 1437.54 278.608C1437.93 278.802 1438.51 279.19 1439.09 279.384C1449 271.422 1475.99 249.866 1476.96 247.73C1478.32 245.594 1479.68 140.726 1478.71 140.338Z" fill="white"/>
<path d="M1426.27 175.099C1430.16 175.099 1478.71 153.543 1493.47 145.969C1493.66 145.969 1502.98 246.953 1503.18 246.176C1503.37 246.176 1440.84 280.55 1440.84 280.55C1440.84 280.55 1397.14 260.353 1395.2 258.217C1393.46 256.275 1367.24 154.708 1368.01 154.126C1368.79 153.543 1421.81 175.099 1426.27 175.099Z" fill="#725AE8"/>
<path d="M1464.73 245.594C1462.98 242.293 1461.23 238.991 1459.68 235.496C1458.32 232.583 1457.15 229.67 1455.21 227.145C1453.46 224.815 1451.33 222.484 1448.41 221.513C1444.92 220.348 1441.42 221.513 1438.51 223.261C1438.32 223.261 1438.12 223.455 1438.12 223.455C1433.46 226.757 1434.63 233.165 1436.18 238.02C1437.34 242.099 1439.48 246.565 1439.48 250.838C1439.48 257.052 1435.99 262.489 1436.96 268.704C1437.54 272.782 1438.9 276.86 1440.65 280.744C1450.16 275.501 1462.59 268.704 1472.3 263.266C1470.36 257.246 1467.64 251.42 1464.73 245.594Z" fill="#6255DA"/>
<path d="M1426.47 175.099C1426.27 175.099 1426.27 175.099 1426.08 175.099C1421.61 175.099 1368.79 153.543 1368.01 154.126C1367.24 154.708 1393.46 256.275 1395.2 258.217C1396.76 259.964 1430.94 275.889 1440.84 280.55C1440.45 276.471 1432.1 209.278 1426.47 175.099Z" fill="#35107D"/>
<path d="M1589.98 240.932C1589.98 240.932 1593.87 288.9 1557.94 330.07C1522.01 371.434 1444.92 284.821 1444.92 284.821L1467.06 255.692C1467.06 255.692 1522.21 286.181 1522.79 283.462C1523.96 276.471 1529.78 246.176 1529.78 246.176L1589.98 240.932Z" fill="#FC4F5A"/>
<path d="M1469.19 257.051C1469.19 257.051 1460.06 251.031 1459.68 246.37C1459.29 241.515 1459.68 236.854 1459.68 236.854C1459.68 236.854 1453.27 236.854 1452.3 244.622C1452.3 244.622 1432.49 232.97 1425.3 231.805C1418.12 230.64 1422.58 236.854 1422.58 236.854C1422.58 236.854 1412.87 235.883 1415.2 241.515C1415.2 241.515 1409.38 244.04 1414.23 250.254C1414.82 250.836 1414.82 251.225 1414.82 251.613C1414.23 253.749 1413.85 256.08 1415.01 258.022C1417.54 262.294 1420.84 267.538 1422 268.703C1423.75 270.451 1426.66 274.14 1436.37 282.103C1440.45 285.404 1454.82 294.531 1454.82 294.531L1469.19 257.051Z" fill="#FC4F5A"/>
<path d="M1422.58 236.466C1428.02 239.573 1432.88 244.234 1437.73 248.312C1438.32 248.7 1437.54 249.477 1436.96 249.089C1432.1 245.205 1426.47 241.709 1422.2 237.048C1422 236.66 1422.39 236.272 1422.58 236.466Z" fill="#160539"/>
<path d="M1415.2 251.031C1417.34 252.196 1419.28 253.944 1421.23 255.497C1423.17 257.051 1425.11 258.604 1426.86 260.158C1427.44 260.546 1426.66 261.323 1426.08 260.935C1424.14 259.381 1422.2 257.828 1420.25 256.274C1418.31 254.915 1416.37 253.555 1414.82 251.613C1414.62 251.225 1414.82 250.836 1415.2 251.031Z" fill="#160539"/>
<path d="M1432.29 255.303C1432.49 255.109 1428.6 252.002 1423.94 248.118C1419.28 244.234 1415.4 241.126 1415.2 241.515C1415.01 241.709 1418.51 245.205 1423.36 249.089C1428.02 252.778 1432.1 255.497 1432.29 255.303Z" fill="#160539"/>
<path d="M1527.26 255.109C1537.55 249.477 1549.4 247.341 1560.85 245.011C1568.04 243.651 1575.03 242.486 1582.22 241.709C1584.74 241.321 1587.46 241.127 1589.98 240.933C1589.4 236.272 1588.43 231.611 1587.07 226.95C1582.8 211.414 1576.58 191.412 1562.8 182.673C1548.81 173.934 1532.89 196.849 1528.81 209.278C1524.93 221.513 1525.7 234.524 1526.68 247.341C1526.87 249.866 1527.06 252.39 1527.26 255.109Z" fill="#496ABF"/>
<path d="M1527.06 256.275L1526.29 254.527C1529.98 252.585 1534.06 251.614 1538.13 250.643C1556.19 246.177 1574.84 241.71 1593.48 238.991L1593.67 240.739C1575.03 243.458 1556.39 248.119 1538.52 252.391C1534.64 253.362 1530.75 254.333 1527.06 256.275Z" fill="white"/>
<path d="M1527.06 246.176L1526.48 244.429C1546.29 238.02 1566.87 232.582 1587.27 228.31L1587.65 230.058C1567.26 234.33 1546.87 239.574 1527.06 246.176Z" fill="white"/>
<path d="M1547.07 403.866C1520.07 375.513 1490.17 349.296 1458.12 326.381L1459.29 324.827C1491.33 347.742 1521.24 373.959 1548.43 402.507L1547.07 403.866Z" fill="#FFE7E1"/>
<path d="M1220.04 443.288L1219.06 441.54C1220.23 440.958 1329.76 381.533 1399.48 408.915L1398.7 410.663C1329.95 383.863 1221.2 442.706 1220.04 443.288Z" fill="white"/>
<path d="M1327.82 294.532C1318.88 294.532 1312.28 288.317 1312.08 288.123L1313.44 286.764C1313.44 286.764 1320.44 293.367 1329.17 292.59C1334.81 292.201 1340.05 288.9 1344.71 282.88L1346.26 284.045C1341.21 290.454 1335.58 294.143 1329.37 294.532C1328.79 294.532 1328.2 294.532 1327.82 294.532Z" fill="white"/>
<path d="M1507.64 417.46C1490.94 395.904 1510.95 369.299 1511.14 369.104L1512.69 370.27C1512.5 370.464 1493.47 395.71 1509.2 416.295L1507.64 417.46Z" fill="white"/>
<path d="M1343.75 364.077L1341.97 364.863L1358.55 402.339L1360.32 401.554L1343.75 364.077Z" fill="white"/>
<path d="M1364.71 400.176L1362.97 399.205L1375.2 372.018L1376.95 372.794L1364.71 400.176Z" fill="white"/>
<path d="M331.185 222.872C338.176 214.133 338.176 201.122 333.322 190.829C328.661 180.537 319.922 172.769 310.989 166.166C301.667 159.369 291.18 153.543 279.528 152.766C274.673 152.378 269.624 153.155 265.546 156.068C260.108 159.952 258.166 167.137 257.972 173.74C257.778 179.566 258.361 185.392 260.691 190.829C266.517 205.394 282.053 222.678 297.395 227.145C308.464 230.252 320.893 227.145 331.185 222.872Z" fill="#DDEDED"/>
<path d="M405.369 185.198C394.688 176.653 390.804 162.088 392.552 148.689C395.077 128.104 406.34 105.965 423.818 93.3419C430.227 88.6811 438.577 85.9623 446.345 87.9043C462.269 91.9825 466.736 111.208 464.212 125.191C460.91 143.445 448.093 159.564 434.887 172.381C426.925 179.955 417.021 186.363 405.369 185.198Z" fill="#FCB72D"/>
<path d="M382.065 113.538C377.599 112.373 371.773 108.683 369.831 104.799C359.344 82.8549 358.373 55.6671 370.996 33.1399C377.793 21.0996 390.416 7.69985 404.592 2.06807C411.389 -0.65072 419.934 -1.03912 425.76 3.03907C433.14 8.08824 435.082 18.575 436.247 26.343C437.606 34.8877 437.412 43.6267 436.053 52.1715C433.14 69.261 425.566 86.1563 413.137 99.9445C411.195 102.081 409.253 104.023 407.117 105.965C402.456 110.043 393.911 113.927 382.065 113.538Z" fill="#725AE8"/>
<path d="M417.215 220.154C415.467 218.018 414.108 213.94 414.691 211.415C417.798 196.073 427.314 180.926 441.49 172.964C449.064 168.691 460.133 165.778 468.872 167.332C473.145 168.109 477.223 170.827 478.582 174.906C480.33 180.149 477.223 186.557 475.087 191.024C472.562 196.073 469.261 200.734 465.571 205.006C457.997 213.357 448.093 219.96 437.218 223.261C435.47 223.844 433.916 224.232 432.169 224.426C428.285 225.203 422.653 224.232 417.215 220.154Z" fill="#EFF5F9"/>
<path d="M339.924 87.3217C335.846 81.4957 330.797 76.4465 324.971 72.5625C311.765 63.6294 289.044 58.9686 277.781 73.7277C272.343 80.7189 273.897 90.6231 276.615 98.9736C283.801 119.947 298.172 138.202 317.009 150.048C328.078 157.039 344.974 160.729 352.936 147.329C357.985 138.979 354.489 125.773 352.547 116.84C350.217 106.159 346.139 95.8664 339.924 87.3217Z" fill="#FCB72D"/>
<path d="M360.509 272.782C359.15 241.322 357.79 208.696 351.188 177.236C344.391 145.387 328.078 104.023 302.832 83.8261L303.997 82.2725C329.437 102.858 345.944 144.416 352.935 176.653C359.732 208.114 361.092 240.933 362.451 272.393L360.509 272.782Z" fill="#A5C6C4"/>
<path d="M383.619 298.999H381.677C381.871 221.125 410.807 153.543 435.47 119.364L437.024 120.529C412.36 154.32 383.813 221.513 383.619 298.999Z" fill="#A5C6C4"/>
<path d="M373.715 292.59L373.521 275.695C372.55 181.702 371.773 100.333 408.865 21.2937L410.613 22.0705C373.521 100.721 374.492 181.896 375.463 275.695L375.657 292.59H373.715Z" fill="#A5C6C4"/>
<path d="M350.023 297.057L348.081 296.862C351.382 248.313 323.418 199.18 280.111 177.041L280.888 175.294C325.166 197.821 353.519 247.924 350.023 297.057Z" fill="#A5C6C4"/>
<path d="M385.95 309.291L384.008 309.097C386.532 266.373 405.37 209.279 449.453 188.111L450.23 189.859C406.923 210.638 388.474 267.15 385.95 309.291Z" fill="#A5C6C4"/>
<path d="M313.901 259.576V294.921C314.096 386.583 343.614 400.371 343.614 400.371L408.671 400.176C408.671 400.176 438.189 386.388 437.995 294.726V259.382L313.901 259.576Z" fill="white"/>
<path d="M343.42 401.73L343.226 401.536C342.06 400.954 312.931 386.389 312.736 294.921V258.217L439.354 258.023V294.727C439.548 386.194 410.613 400.759 409.253 401.342L408.671 401.536L343.42 401.73ZM315.067 260.936V295.115C315.261 380.368 341.089 397.652 343.808 399.206L408.088 399.012C410.807 397.458 436.635 380.174 436.441 294.727V260.548L315.067 260.936Z" fill="#EFF5F9"/>
<path d="M141.842 320.555C162.815 300.941 176.021 274.53 192.139 250.643C208.452 226.951 230.202 204.23 258.555 199.181C277.975 195.685 297.978 201.123 315.067 211.027C332.157 220.931 346.333 234.719 359.345 249.478C384.591 277.637 407.312 308.515 424.79 341.917C441.879 374.543 458.775 411.44 462.465 448.338C463.436 458.242 463.436 468.729 459.357 477.857C453.92 490.48 442.462 500.384 429.645 505.044C390.611 518.833 327.69 522.522 275.645 523.105C213.695 523.882 154.465 523.493 109.605 523.493C33.0901 523.493 -4.97295 519.221 1.82402 480.77C5.51381 459.99 37.1683 432.22 45.9072 424.258" fill="#EFF5F9"/>
<path d="M362.646 249.867C378.57 267.345 377.405 293.368 384.591 314.535C392.358 337.451 407.118 357.259 420.323 377.262C434.694 398.624 448.482 421.539 451.589 447.562C454.502 470.671 446.734 495.335 427.509 509.705C426.538 510.482 427.509 512.036 428.48 511.259C445.375 499.607 452.949 479.799 453.92 459.99C455.279 434.356 443.044 410.081 430.033 388.914C414.691 364.25 396.242 341.529 386.144 314.147C378.182 292.785 379.93 266.568 363.229 249.09C362.84 248.508 362.063 249.284 362.646 249.867Z" fill="white"/>
<path d="M362.84 266.374C361.286 287.93 370.802 307.544 379.153 326.77C384.008 337.645 387.697 349.102 392.164 359.978C396.631 370.659 403.039 379.98 409.642 389.496C435.276 426.2 435.665 475.332 411.196 512.618C410.419 513.783 412.167 514.754 412.943 513.589C435.082 481.158 437.218 437.851 420.129 402.701C414.885 392.02 407.312 382.893 401.097 372.989C394.3 362.114 390.416 349.685 385.755 337.645C376.822 314.341 362.646 292.008 364.005 266.179C363.811 265.791 362.84 265.791 362.84 266.374Z" fill="white"/>
<path d="M340.896 228.505C350.8 250.643 347.692 276.084 352.742 299.387C357.791 322.886 367.889 345.218 377.405 367.163C387.892 391.438 399.544 415.519 408.865 440.376C413.138 451.834 414.497 463.68 413.332 475.72C412.749 481.935 411.001 488.149 408.865 493.975C408.088 496.305 400.903 513.783 397.213 510.288C396.242 509.317 394.689 510.87 395.66 511.841C401.097 516.891 406.341 504.656 407.894 501.355C412.943 491.256 415.468 479.798 415.856 468.535C416.439 455.912 412.749 444.066 408.088 432.608C402.457 418.82 396.242 405.42 390.416 391.826C378.182 363.862 364.588 335.897 356.626 306.379C349.634 280.744 353.713 252.003 342.061 227.534C341.672 227.339 340.701 227.922 340.896 228.505Z" fill="white"/>
<path d="M316.233 212.969C328.856 236.078 330.021 262.101 330.603 287.735C331.186 314.146 333.128 339.392 341.09 364.832C349.441 391.438 362.064 416.489 368.472 443.677C371.579 456.3 372.745 469.506 372.162 482.517C371.774 489.314 370.414 495.917 368.666 502.326C367.695 505.821 366.336 509.317 364.782 512.618C364.2 513.977 363.423 515.337 362.646 516.696C361.675 518.832 360.122 520.386 357.791 521.163C358.18 520.386 356.82 519.803 356.432 520.58C355.461 522.328 356.043 523.493 357.791 524.464C360.704 525.824 363.617 519.221 364.588 517.667C370.997 506.21 373.716 493.198 374.492 480.187C376.24 449.309 364.006 419.791 353.13 391.632C347.11 376.096 341.478 360.366 337.789 344.053C334.293 327.935 333.322 311.428 332.74 294.921C331.963 266.956 331.963 237.244 317.204 212.386C316.815 211.803 315.844 212.386 316.233 212.969Z" fill="white"/>
<path d="M297.589 210.833C310.794 238.215 306.716 269.093 308.658 298.417C310.6 328.712 317.397 359.395 324.388 388.914C327.884 403.673 332.933 417.461 337.594 431.832C342.449 446.785 329.826 459.99 328.272 474.555C326.719 488.926 328.661 503.103 326.913 517.473C326.33 522.134 331.574 525.047 331.379 519.998C331.379 519.61 331.185 519.221 330.797 519.221C330.603 519.221 330.408 519.027 330.02 519.027C329.243 518.833 328.661 519.998 329.437 520.386C328.466 519.998 330.214 503.879 330.214 502.326C330.214 495.529 329.826 488.732 329.826 481.935C330.02 473.779 331.574 466.205 334.875 458.825C337.011 453.776 339.342 448.921 340.507 443.484C343.031 432.22 335.263 419.403 331.962 408.722C327.69 395.128 324.582 381.146 321.669 367.163C316.038 339.393 310.406 311.428 309.629 283.269C308.852 258.412 309.629 232.972 298.171 210.056C298.171 209.862 297.395 210.25 297.589 210.833Z" fill="white"/>
<path d="M285.16 207.725C290.986 237.632 287.49 267.927 285.16 298.028C283.995 312.205 283.218 326.575 283.801 340.946C284.383 355.511 286.908 369.882 289.821 384.253C292.734 399.012 295.453 413.577 297.783 428.53C299.142 437.852 302.832 448.921 296.035 456.883C292.151 461.35 288.85 465.816 285.937 471.06C275.644 490.285 276.033 514.56 286.131 533.786C286.519 534.563 287.49 534.563 288.073 533.98C289.627 532.427 291.18 531.067 292.734 529.514C293.511 528.737 292.54 527.572 291.569 528.154C289.821 529.514 288.073 530.873 286.325 532.427C286.908 532.427 287.49 532.621 288.267 532.621C276.227 509.317 279.334 480.381 296.229 460.379C298.754 457.271 302.055 454.164 302.25 449.892C302.638 443.483 301.279 437.075 300.308 430.86C297.977 415.13 295.064 399.4 291.957 383.864C288.85 368.911 286.325 353.957 285.743 338.616C285.16 323.468 286.325 308.126 287.49 292.979C289.627 264.432 291.957 235.884 286.131 207.725C286.131 206.754 284.966 207.143 285.16 207.725Z" fill="white"/>
<path d="M273.315 208.696C268.654 273.753 262.245 339.004 266.518 404.449C267.489 419.791 271.761 436.686 269.042 451.834C267.683 459.796 261.274 465.039 256.614 471.254C252.924 476.109 250.788 481.935 249.04 487.761C245.156 500.578 238.553 535.922 257.973 540.194C259.332 540.583 260.109 538.447 258.556 538.058C245.544 534.368 247.486 516.308 248.263 506.015C249.428 491.645 253.312 478.439 263.022 467.37C270.984 458.242 272.926 449.503 271.955 437.463C270.79 422.704 269.237 407.945 268.266 392.991C264.964 331.43 270.79 269.869 274.286 208.502C274.48 207.92 273.509 207.92 273.315 208.696Z" fill="white"/>
<path d="M260.109 200.734C242.048 263.655 240.106 329.683 240.495 394.739C240.689 411.052 240.883 427.365 241.271 443.872C241.271 447.367 241.466 450.669 241.271 454.164C241.077 461.35 236.611 465.428 231.367 469.312C225.735 473.39 220.492 477.857 216.026 483.1C203.208 498.053 200.49 526.212 221.852 535.145C223.017 535.728 223.988 533.592 222.823 533.009C209.617 526.406 205.927 511.259 210.394 497.859C215.055 483.682 227.677 476.303 238.164 466.981C247.097 459.019 243.796 443.483 243.602 432.996C243.408 417.461 243.019 402.119 243.019 386.583C242.631 324.245 245.35 261.519 261.274 201.123C261.274 200.346 260.303 200.152 260.109 200.734Z" fill="white"/>
<path d="M239.524 207.531C217.385 270.257 222.629 337.256 219.133 402.701C218.745 410.664 217.968 418.431 217.385 426.394C216.414 435.715 216.414 446.396 212.725 454.941C209.812 461.35 200.878 464.068 195.247 466.981C190.197 469.506 185.925 473.196 182.235 477.274C168.059 492.81 164.369 518.444 175.438 536.699C176.215 538.058 178.351 536.893 177.574 535.534C165.922 512.812 172.914 483.682 195.052 470.283C204.762 464.263 214.667 462.515 217.191 449.892C220.298 434.55 221.075 418.431 222.046 402.896C225.736 337.839 219.91 271.034 241.078 208.114C240.883 207.143 239.718 206.754 239.524 207.531Z" fill="white"/>
<path d="M215.055 213.551C192.722 281.133 199.519 353.375 185.925 422.51C184.177 431.055 182.624 440.182 178.74 448.144C175.05 455.718 167.088 459.602 159.708 463.097C147.474 468.729 137.764 474.555 130.967 486.596C124.752 498.053 123.004 511.647 122.81 524.464C122.616 535.145 127.471 549.322 140.677 547.38C142.036 547.186 141.648 545.049 140.288 545.049C119.509 546.603 125.335 513.589 128.248 501.355C131.743 486.984 139.9 475.526 153.3 468.923C163.786 463.68 174.661 460.379 181.07 449.503C184.371 443.872 185.537 437.075 186.896 430.86C188.838 422.316 190.392 413.771 191.751 405.226C201.655 341.529 197.189 275.889 216.803 213.94C216.803 212.969 215.443 212.58 215.055 213.551Z" fill="white"/>
<path d="M187.284 252.391C176.797 279.967 169.806 308.515 166.699 337.839C163.397 368.717 166.505 401.148 152.522 429.889C146.308 442.512 136.598 451.445 125.14 459.408C116.207 465.428 106.497 471.254 99.8943 479.993C87.4655 496.305 89.9901 520.386 107.468 532.038C108.633 532.815 109.993 531.067 108.827 530.29C98.5349 522.134 93.2915 510.094 95.0393 497.082C96.7871 484.653 106.885 475.914 116.401 468.923C124.752 462.903 133.685 457.66 141.259 450.474C149.998 442.318 155.629 431.443 159.513 420.374C168.641 394.933 166.505 366.969 168.835 340.558C171.36 310.651 178.157 280.938 188.449 252.78C188.643 252.003 187.478 251.614 187.284 252.391Z" fill="white"/>
<path d="M160.096 294.727C155.63 307.155 151.358 319.584 147.862 332.401C144.172 345.995 142.813 360.172 140.677 373.96C136.598 399.594 126.112 422.316 107.663 440.57C90.9616 457.077 66.1041 463.097 55.2289 485.042C47.4609 500.772 52.5101 522.522 69.7939 529.125C70.9591 529.513 71.5417 527.766 70.5707 527.377C60.0839 521.94 54.4521 511.841 54.2579 500.189C54.0637 488.149 62.0259 477.274 70.7649 469.894C79.8922 462.126 91.35 457.466 101.06 450.086C108.828 444.066 115.625 436.686 121.645 428.918C135.045 411.44 140.871 391.049 143.978 369.493C145.726 357.259 147.085 345.024 149.998 332.984C152.911 320.167 157.183 307.738 161.456 295.115C161.456 294.338 160.291 293.95 160.096 294.727Z" fill="white"/>
<path d="M137.569 315.7C121.257 360.949 105.138 407.945 68.4346 440.959C59.8898 448.727 49.9856 454.164 40.2757 460.184C32.3135 465.039 27.8469 472.419 24.5456 480.77C17.3602 499.801 18.3312 523.105 26.8759 541.554C27.4585 542.719 29.5947 541.942 29.0121 540.583C21.2442 518.833 19.4964 494.169 30.9541 473.196C36.5859 463.097 48.2379 458.825 57.3652 452.611C65.7158 446.979 73.2896 440.182 80.0865 432.802C110.576 400.759 125.723 357.065 138.929 315.7C139.317 315.312 137.958 314.923 137.569 315.7Z" fill="white"/>
<path d="M111.935 346.966C96.9814 358.812 93.0975 378.426 84.9411 394.933C74.2601 416.101 53.8692 430.278 36.3913 445.231C20.6611 458.631 5.70781 474.555 1.24123 495.334C-2.25436 510.87 1.43543 529.708 14.8352 539.417C15.8062 540 16.7772 538.641 16.0004 537.864C1.82383 524.27 -0.118164 504.656 6.67881 486.595C14.2526 466.204 33.0899 451.445 49.2084 438.045C63.7734 426.005 78.1441 413.188 87.0773 396.098C95.622 379.786 98.535 360.56 112.906 347.937C113.683 347.549 112.712 346.383 111.935 346.966Z" fill="white"/>
<g opacity="0.62">
<path opacity="0.62" d="M413.138 385.418C401.875 384.058 390.805 380.174 381.095 374.348C378.376 372.795 375.464 370.659 374.104 367.746C371.774 363.085 373.91 357.453 376.24 352.792C380.707 343.665 386.144 334.926 389.64 325.41C393.136 315.894 394.883 305.213 391.582 295.504C390.028 291.231 388.475 286.765 386.921 282.492C378.182 271.034 369.055 259.965 359.539 249.478C346.528 234.913 332.157 220.931 315.262 211.027C298.172 201.123 278.17 195.685 258.75 199.181C230.397 204.23 208.646 226.757 192.334 250.643C176.021 274.336 163.01 300.747 142.036 320.361L46.4901 424.258C37.5569 432.414 6.09663 459.99 2.40685 480.77C-4.39013 519.221 33.8671 523.493 110.187 523.493C125.918 523.493 143.395 523.493 162.233 523.493C172.331 519.998 182.43 516.502 192.334 513.007C209.229 507.181 226.901 501.16 244.573 503.297C255.448 504.462 264.964 509.705 275.839 510.094C288.851 510.482 301.668 510.87 314.679 511.453C315.456 511.453 316.233 511.453 316.815 511.065C318.369 509.899 316.815 507.375 315.65 505.627C313.708 502.131 315.262 497.665 318.175 494.946C321.088 492.227 324.778 490.868 328.661 489.703C362.646 477.857 396.049 462.903 425.761 442.512C433.723 437.075 441.685 430.86 446.346 422.316C451.007 413.771 451.395 402.313 445.181 395.128C437.219 386.583 424.402 386.777 413.138 385.418Z" fill="#D7E9F2"/>
</g>
<path d="M210.976 493.392C210.976 493.392 187.478 499.024 182.04 501.549C172.33 506.209 160.873 515.337 156.406 513.977C152.91 513.006 154.076 506.404 156.212 501.354C157.96 497.276 163.786 493.781 169.612 488.149C174.078 483.682 179.516 486.401 182.623 485.624C184.565 485.042 211.947 468.923 211.947 468.923" fill="#FC4F5A"/>
<path d="M220.104 440.376C224.57 444.843 246.903 445.231 246.903 445.231L194.081 482.518L198.353 497.471C198.353 497.471 366.336 480.187 423.236 436.298C453.143 413.189 446.54 393.38 436.053 380.951C405.952 344.83 278.364 371.047 278.364 371.047L212.724 366.192" fill="#021C3D"/>
<path d="M267.294 493.393C267.294 493.393 289.821 498.83 295.065 501.161C304.386 505.627 312.737 514.366 317.009 513.007C320.311 512.036 320.311 505.627 318.369 500.772C316.815 496.888 311.96 493.975 307.105 487.955C303.998 484.071 297.589 487.761 294.676 486.984C292.929 486.596 266.518 469.312 266.518 469.312" fill="#FC4F5A"/>
<path d="M261.08 440.376C256.613 444.843 242.242 450.863 242.242 450.863L287.102 482.518L282.83 497.471C282.83 497.471 120.091 477.468 60.0834 437.658C30.3709 418.043 32.7013 394.739 45.13 384.253C85.1351 349.685 202.82 370.853 202.82 370.853L259.72 373.572L261.08 440.376Z" fill="#021C3D"/>
<path d="M110.575 377.068C110.575 377.068 134.267 380.175 167.67 399.595C184.177 409.305 287.102 482.518 287.102 482.518" stroke="#4E6A89" stroke-width="0.75" stroke-miterlimit="10"/>
<path d="M370.608 377.068C370.608 377.068 346.916 380.175 313.514 399.595C297.007 409.305 241.271 449.116 241.271 449.116" stroke="#4E6A89" stroke-width="0.75" stroke-miterlimit="10"/>
<path d="M195.44 483.683C213.113 488.149 240.3 491.062 240.3 491.062" stroke="#4E6A89" stroke-width="0.75" stroke-miterlimit="10"/>
<path d="M171.165 223.845C170.389 272.977 154.853 332.985 149.415 365.027C165.922 381.534 215.249 390.079 243.602 391.827C271.955 393.575 324.777 386.584 347.11 364.445C347.11 364.445 323.806 218.019 313.708 197.045L274.868 154.321L217.967 159.37L171.165 223.845Z" fill="#F59D00"/>
<path d="M140.482 227.146C153.299 228.117 166.116 228.7 178.933 230.253C187.867 225.398 196.8 220.543 205.539 215.3L222.24 154.127C222.24 154.127 184.954 157.817 155.824 186.947C147.279 195.492 136.986 209.668 127.471 225.981C131.743 226.369 136.21 226.758 140.482 227.146Z" fill="#F59D00"/>
<path d="M269.042 152.962C269.042 152.962 298.949 157.04 324.583 176.654C340.896 189.083 351.771 208.309 360.316 226.563C369.249 245.789 376.434 266.568 379.736 287.542C382.649 305.602 380.124 328.906 357.791 331.819C344.197 333.567 331.574 323.663 322.641 314.73C304.386 296.669 290.404 273.56 279.14 250.644C278.946 250.45 278.946 250.256 278.752 249.867" fill="#F59D00"/>
<path d="M229.037 111.015L230.591 151.991C230.591 151.991 223.017 154.127 217.968 154.515C217.385 156.846 217.191 170.828 242.825 170.828C268.265 170.828 275.062 154.321 275.062 154.321L263.022 151.602L257.002 113.539" fill="#FC4F5A"/>
<path d="M169.224 253.363C169.224 253.363 174.467 228.117 183.789 206.367" stroke="#A87162" stroke-width="0.5" stroke-miterlimit="10"/>
<path d="M315.844 183.257C317.786 183.063 320.311 181.703 322.253 182.674C324.001 183.451 324.972 185.005 327.108 185.393C328.273 185.587 328.661 183.839 327.496 183.645C325.36 183.257 324.389 181.315 322.253 180.732C319.922 180.15 317.98 181.315 315.65 181.315C314.679 181.509 314.679 183.257 315.844 183.257Z" fill="white"/>
<path d="M287.103 225.204C288.269 225.204 288.269 223.456 287.103 223.456C285.938 223.456 285.938 225.204 287.103 225.204Z" fill="white"/>
<path d="M328.273 253.168C327.691 254.528 327.108 256.276 328.273 257.441C329.244 258.606 330.798 258.994 331.769 260.159C332.546 260.936 333.711 259.771 332.934 258.994C332.157 258.218 331.186 257.635 330.409 257.052C329.244 256.276 329.244 255.305 329.827 254.139C330.215 252.974 328.662 252.003 328.273 253.168Z" fill="white"/>
<path d="M335.653 218.795C337.012 218.795 338.372 219.184 339.537 220.155C340.508 220.932 341.285 219.378 340.508 218.601C339.148 217.63 337.595 217.048 335.847 217.048C334.488 217.048 334.488 218.795 335.653 218.795Z" fill="white"/>
<path d="M233.504 251.226C232.145 253.751 231.562 257.052 233.504 259.577C234.281 260.548 235.446 259.188 234.67 258.412C233.31 256.664 234.087 253.945 235.058 252.197C235.446 251.226 233.893 250.255 233.504 251.226Z" fill="white"/>
<path d="M210.783 293.562C213.308 293.174 215.444 292.008 217.774 291.62C218.939 291.426 218.939 289.678 217.774 289.872C215.25 290.261 213.113 291.426 210.783 291.814C209.618 291.814 209.618 293.562 210.783 293.562Z" fill="white"/>
<path d="M142.036 258.994C142.036 261.519 143.784 263.461 146.309 264.238C147.474 264.626 147.862 262.878 146.697 262.49C145.143 261.907 143.784 260.742 143.784 258.8C143.784 257.829 142.036 257.829 142.036 258.994Z" fill="white"/>
<path d="M240.884 357.453C240.884 359.978 242.632 361.92 245.156 362.697C246.321 363.085 246.71 361.337 245.545 360.949C243.991 360.366 242.632 359.201 242.632 357.259C242.632 356.288 240.884 356.288 240.884 357.453Z" fill="white"/>
<path d="M259.72 319.39C263.216 317.254 266.712 315.312 270.401 318.225C271.372 319.002 272.149 317.448 271.372 316.672C267.1 313.37 263.022 315.506 258.944 317.837C257.778 318.614 258.749 319.973 259.72 319.39Z" fill="white"/>
<path d="M320.117 356.676C323.612 354.54 327.108 352.598 330.798 355.511C331.769 356.288 332.546 354.734 331.769 353.957C327.496 350.656 323.418 352.792 319.34 355.123C318.175 355.705 319.146 357.259 320.117 356.676Z" fill="white"/>
<path d="M165.922 356.676C169.418 354.54 172.913 352.598 176.603 355.511C177.574 356.288 178.351 354.734 177.574 353.957C173.302 350.656 169.224 352.792 165.145 355.123C164.174 355.705 164.951 357.259 165.922 356.676Z" fill="white"/>
<path d="M292.734 309.292C295.065 308.904 297.784 306.962 297.784 304.437C297.784 303.272 296.036 303.272 296.036 304.437C296.036 306.185 293.705 307.35 292.152 307.544C291.181 307.739 291.569 309.486 292.734 309.292Z" fill="white"/>
<path d="M306.523 365.415C308.853 365.027 311.572 363.085 311.572 360.56C311.572 359.395 309.824 359.395 309.824 360.56C309.824 362.308 307.494 363.473 305.94 363.667C304.969 363.862 305.552 365.609 306.523 365.415Z" fill="white"/>
<path d="M286.52 354.734C286.132 353.375 285.549 352.016 285.743 350.656C285.743 349.297 287.297 348.326 288.268 347.549C289.239 346.772 287.88 345.607 287.103 346.384C285.743 347.355 284.578 348.52 284.19 350.268C283.801 351.821 284.578 353.763 284.967 355.317C285.161 356.288 286.714 355.9 286.52 354.734Z" fill="white"/>
<path d="M184.954 253.751C186.702 255.11 189.032 255.304 190.78 253.751C191.557 252.974 190.392 251.809 189.615 252.586C188.644 253.362 187.284 253.362 186.313 252.586C185.342 251.809 184.177 252.974 184.954 253.751Z" fill="white"/>
<path d="M154.853 213.746C156.795 212.192 157.961 210.25 158.932 208.114C159.514 207.143 157.961 206.172 157.378 207.143C156.213 209.085 155.242 211.027 153.494 212.387C152.717 213.358 153.882 214.523 154.853 213.746Z" fill="white"/>
<path d="M221.076 198.987C222.241 198.404 223.794 198.404 225.154 198.404C226.319 198.404 226.319 196.656 225.154 196.656C223.406 196.656 221.658 196.656 220.299 197.433C219.328 198.016 220.105 199.569 221.076 198.987Z" fill="white"/>
<path d="M207.287 179.955C208.647 178.596 211.365 179.178 213.113 179.178C214.278 179.178 214.278 177.431 213.113 177.431C210.783 177.431 208.064 176.848 206.122 178.596C205.151 179.373 206.51 180.732 207.287 179.955Z" fill="white"/>
<path d="M277.976 183.839C277.782 186.364 276.617 188.694 276.811 191.219C276.811 193.743 278.947 195.103 281.083 195.879C282.054 196.268 282.637 194.52 281.472 194.132C278.947 193.161 278.17 191.607 278.753 189.082C279.141 187.335 279.724 185.587 279.724 183.645C279.918 182.674 278.17 182.674 277.976 183.839Z" fill="white"/>
<path d="M260.109 224.039C260.886 224.039 261.469 224.233 262.245 224.427C263.411 224.815 263.799 223.068 262.634 222.679C261.857 222.485 260.886 222.291 260.109 222.097C258.944 222.291 258.944 224.039 260.109 224.039Z" fill="white"/>
<path d="M336.235 277.638C337.983 277.249 338.954 278.609 338.954 280.356C338.954 281.522 340.702 281.522 340.702 280.356C340.702 278.997 340.314 277.832 339.537 276.861C338.566 275.696 337.206 275.696 335.847 275.89C334.488 276.084 335.07 277.832 336.235 277.638Z" fill="white"/>
<path d="M354.296 255.693C355.849 255.693 357.209 255.693 358.762 255.693C359.927 255.693 359.927 253.945 358.762 253.945C357.209 253.945 355.849 253.945 354.296 253.945C353.325 253.945 353.325 255.693 354.296 255.693Z" fill="white"/>
<path d="M206.316 366.58C205.733 367.94 204.762 368.911 203.791 369.882C203.015 370.658 204.18 372.018 204.957 371.047C206.122 369.882 207.481 368.522 208.064 366.969C208.452 365.998 206.704 365.415 206.316 366.58Z" fill="white"/>
<path d="M303.415 101.692L280.888 91.0115L280.306 91.9825L303.027 102.858C303.221 102.469 303.221 102.081 303.415 101.692Z" fill="#581550"/>
<path d="M224.57 64.0178C224.57 64.0178 193.498 64.7945 201.655 93.3418C209.811 121.889 229.814 82.0783 229.814 82.0783L238.747 56.6382L224.57 64.0178Z" fill="#581550"/>
<path d="M274.674 142.086C301.085 132.959 290.404 83.4379 290.404 83.4379L286.714 70.8149C286.714 70.8149 268.848 63.047 268.459 62.8528C268.071 62.6586 253.506 56.25 250.982 56.0558C248.263 55.8616 243.602 65.7658 243.602 65.7658L228.066 93.1479C225.93 80.7191 213.695 79.1655 213.695 92.1769C213.695 107.713 229.037 110.82 229.037 110.82C229.037 110.82 239.912 154.321 274.674 142.086Z" fill="#FC4F5A"/>
<path d="M224.571 89.652C220.298 89.0695 216.22 92.7592 216.609 97.2258C216.609 98.0026 217.774 98.0026 217.774 97.2258C217.385 93.536 220.687 90.2347 224.377 90.8172C224.959 90.8172 225.348 89.652 224.571 89.652Z" fill="#1C232B"/>
<path d="M218.745 92.7595C220.492 93.5363 221.852 95.0899 222.434 96.8377C222.629 97.4202 223.599 97.2261 223.405 96.6435C222.823 94.5073 221.269 92.7595 219.133 91.7885C218.55 91.5943 217.968 92.5653 218.745 92.7595Z" fill="#1C232B"/>
<path d="M227.871 93.3422L243.407 65.9601C243.407 65.9601 248.068 56.0559 250.787 56.2501C253.505 56.4443 267.876 62.8529 268.265 63.0471C268.653 63.2413 286.519 71.0093 286.519 71.0093L290.209 83.6322C290.209 83.6322 290.792 86.351 291.374 90.8176C277.586 86.9336 271.954 71.9803 271.954 71.9803C266.711 86.351 248.068 76.0584 248.068 76.0584C250.204 93.7306 227.871 93.3422 227.871 93.3422Z" fill="#C92736"/>
<path d="M271.955 70.8148C271.955 70.8148 279.723 91.4 299.337 90.6232C318.951 89.8464 320.31 70.038 306.328 63.6295C306.328 63.6295 317.397 46.5399 303.998 38.3836C290.598 30.2272 280.694 40.9082 280.694 40.9082C280.694 40.9082 271.372 17.7985 255.448 22.8476C239.523 27.8968 241.077 44.0154 241.077 44.0154C241.077 44.0154 221.657 35.4706 216.414 46.3457C211.17 57.2209 218.55 64.2121 218.55 64.2121L214.472 86.7392C214.472 86.7392 219.521 75.4756 227.871 93.1478C227.871 93.1478 250.204 92.5652 248.262 74.6988C248.262 74.893 266.905 85.1856 271.955 70.8148Z" fill="#581550"/>
<path d="M276.365 101.873L275.439 102.168L279.391 114.565L280.316 114.27L276.365 101.873Z" fill="#160539"/>
<path d="M267.072 96.4908L258.456 100.969L259.8 103.554L268.415 99.0755L267.072 96.4908Z" fill="#160539"/>
<path d="M284.089 92.0503L283.665 94.9321L292.31 96.2054L292.735 93.3236L284.089 92.0503Z" fill="#160539"/>
<path d="M267.489 105.188C267.877 106.159 267.294 107.13 266.518 107.518C265.741 107.713 264.77 107.13 264.381 106.159C263.993 105.188 264.576 104.217 265.352 103.829C266.323 103.44 267.294 104.023 267.489 105.188Z" fill="#160539"/>
<path d="M288.656 98.5851C289.044 99.5561 288.461 100.527 287.685 100.915C286.908 101.11 285.937 100.527 285.548 99.5561C285.16 98.5851 285.743 97.6141 286.519 97.2257C287.49 97.0315 288.461 97.6141 288.656 98.5851Z" fill="#160539"/>
<path d="M284.384 120.142C284.772 121.695 284.384 123.249 283.219 123.637C282.054 124.025 280.888 123.054 280.306 121.501C279.917 119.947 280.306 118.394 281.471 118.005C282.636 117.617 283.996 118.588 284.384 120.142Z" fill="#160539"/>
<path d="M274.673 113.927C275.256 116.063 273.12 118.782 269.624 119.753C266.129 120.724 262.827 119.947 262.05 117.811C261.468 115.675 263.604 112.956 267.1 111.985C270.595 110.82 273.897 111.596 274.673 113.927Z" fill="#C92736"/>
<path d="M288.85 105.188C285.355 106.159 283.024 108.878 283.801 111.014C284.384 113.15 287.879 114.121 291.375 112.956C291.763 112.762 292.346 112.568 292.734 112.373C292.928 109.655 292.928 107.13 292.928 104.605C291.569 104.605 290.21 104.8 288.85 105.188Z" fill="#C92736"/>
<path d="M265.352 117.228C258.749 118.782 251.952 115.092 250.01 108.489C249.039 105.188 249.427 101.692 250.981 98.5852C252.534 95.478 255.253 93.3419 258.555 92.3709C265.352 90.2347 272.537 94.1187 274.673 100.916C275.644 104.217 275.256 107.713 273.702 110.82C272.149 113.927 269.43 116.063 266.128 117.034C265.74 117.034 265.546 117.034 265.352 117.228ZM259.526 93.1477C259.331 93.1477 259.137 93.3419 258.943 93.3419C255.836 94.3129 253.311 96.2548 251.952 99.1678C250.398 101.887 250.204 105.188 250.981 108.295C252.923 114.51 259.526 118.199 265.934 116.257C269.041 115.286 271.566 113.344 272.925 110.431C274.479 107.713 274.673 104.411 273.702 101.304C271.76 95.0896 265.546 91.5941 259.526 93.1477Z" fill="#581550"/>
<path d="M294.481 112.179C287.879 113.732 281.082 110.043 279.14 103.44C278.169 100.138 278.557 96.6429 280.111 93.5357C281.664 90.4285 284.383 88.2923 287.684 87.3213C294.481 85.1851 301.667 89.0691 303.803 95.8661C305.939 102.663 302.055 109.848 295.258 111.985C294.87 111.985 294.676 111.985 294.481 112.179ZM288.461 87.9039C288.267 87.9039 288.073 88.0981 287.879 88.0981C284.772 89.0691 282.247 91.0111 280.888 93.9241C279.334 96.6429 279.14 99.9442 280.111 103.051C282.053 109.266 288.655 112.956 295.064 111.014C301.278 109.072 304.968 102.469 303.026 96.0603C300.89 90.0401 294.676 86.5445 288.461 87.9039Z" fill="#581550"/>
<path d="M278.489 100.683L274.226 102.013L274.515 102.94L278.779 101.61L278.489 100.683Z" fill="#581550"/>
<path d="M250.204 102.469L227.677 91.7881L227.095 92.7591L249.816 103.634C250.01 103.246 250.204 102.857 250.204 102.469Z" fill="#581550"/>
<path d="M305.94 68.4848C309.63 72.9514 314.679 82.0788 307.105 85.3802C306.911 85.5744 306.911 85.9628 307.299 85.7686C308.853 85.186 310.407 84.0208 311.183 82.4672C311.766 81.1078 311.766 79.36 311.572 77.8064C310.795 74.3108 308.853 70.8152 306.523 68.0964C305.94 67.9022 305.746 68.0965 305.94 68.4848Z" fill="white"/>
<path d="M304.192 85.9625C303.997 86.1567 303.997 86.1567 304.192 85.9625C303.997 86.1567 303.998 86.1567 303.998 86.1567C303.998 86.1567 303.998 86.1567 303.803 86.1567H303.609H303.415C303.221 86.1567 303.221 86.3509 303.221 86.3509C303.221 86.5451 303.415 86.5451 303.415 86.5451C303.803 86.5451 303.997 86.5451 304.192 86.3509C304.386 86.1567 304.58 85.9625 304.774 85.7683C304.774 85.5741 304.774 85.5741 304.774 85.3799C304.386 85.7683 304.192 85.9625 304.192 85.9625Z" fill="white"/>
<path d="M295.841 86.9337C294.87 86.9337 294.094 86.5453 293.317 86.3511C292.928 86.3511 292.928 86.7395 293.123 86.7395C294.094 86.9337 294.87 87.3221 295.647 87.3221C295.841 87.3221 295.841 87.1279 295.841 87.1279C296.036 87.1279 296.036 86.9337 295.841 86.9337Z" fill="white"/>
<path d="M275.256 71.98C275.256 70.8148 274.867 69.8438 274.479 68.8728C273.896 67.7076 273.314 66.7366 272.343 65.9598C271.178 64.7946 268.653 63.241 267.488 65.183C266.905 66.154 266.905 67.3192 266.905 68.2902C266.905 68.6786 267.294 68.6786 267.294 68.2902C267.294 67.125 267.294 64.4062 269.041 64.7946C270.983 65.183 272.537 67.125 273.508 68.6786C274.091 69.6496 274.479 70.8148 274.285 71.7858C274.867 72.3684 275.256 72.3684 275.256 71.98Z" fill="white"/>
<path d="M243.796 71.5918C244.184 73.728 244.573 75.8641 244.184 78.0003C243.796 79.9423 242.825 81.6901 241.465 83.2437C237.581 86.9335 231.755 88.4871 226.512 88.4871C226.124 88.4871 226.124 89.0697 226.512 88.8755C231.95 88.8755 237.97 87.1277 241.854 83.2437C243.407 81.8843 244.378 80.1365 244.573 78.0003C244.961 75.8641 244.573 73.5338 244.184 71.2034C244.184 71.2034 243.796 71.3976 243.796 71.5918Z" fill="white"/>
<path d="M276.422 40.7136C277.004 37.0239 274.091 33.3341 271.567 31.0037C268.265 28.0907 263.799 26.5371 259.332 26.5371C255.06 26.5371 251.564 27.8965 249.234 31.3921C248.069 33.1399 247.292 35.2761 246.903 37.4123C246.515 39.7427 246.321 42.073 247.098 44.4034C247.098 44.7918 247.68 44.5976 247.486 44.2092C246.903 42.2672 247.098 40.1311 247.292 38.1891C247.486 36.0529 248.069 34.1109 249.234 32.3631C250.399 30.6153 251.953 28.8675 253.895 28.0907C255.642 27.5081 257.39 27.3139 259.332 27.3139C263.41 27.3139 267.683 28.8675 270.79 31.3921C273.314 33.5283 276.422 37.2181 275.839 40.9078C275.839 40.9078 276.227 41.102 276.422 40.7136Z" fill="white"/>
<path d="M246.515 45.7631C246.127 46.3457 246.127 46.9283 245.738 47.3167C245.544 47.8993 245.156 48.2877 244.573 48.4819C244.185 48.4819 244.379 49.0645 244.767 48.8703C246.127 48.4819 246.321 46.9283 246.903 45.7631C247.098 45.7631 246.709 45.5689 246.515 45.7631Z" fill="white"/>
<path d="M217.967 47.7053C216.802 50.4241 215.442 53.5313 216.413 56.4443C216.802 57.9979 217.773 59.3573 218.744 60.5225C219.715 61.8819 220.88 63.2413 222.045 64.7949C222.239 64.9891 222.628 64.7949 222.434 64.6007C220.686 62.2703 218.55 59.9399 217.19 57.2211C215.831 54.1139 216.996 50.8125 218.355 48.0937C218.355 47.7053 217.967 47.5111 217.967 47.7053Z" fill="white"/>
<path d="M303.997 63.047C303.609 62.4644 303.415 61.8818 303.415 61.105C303.415 60.5224 303.609 59.7456 304.191 59.163C304.386 58.9688 303.997 58.5804 303.803 58.7746C303.22 59.3572 303.026 60.134 302.832 60.9108C302.832 61.6876 302.832 62.6586 303.415 63.2412C303.803 63.6296 304.191 63.2412 303.997 63.047Z" fill="white"/>
<path d="M306.328 55.6675C306.522 55.2791 306.716 54.6965 306.91 54.3081C306.91 54.1139 306.91 54.1139 306.716 53.9197C306.522 53.9197 306.522 53.9197 306.328 54.1139C306.328 54.3081 306.134 54.5023 306.134 54.6965V54.8907C306.134 55.0849 305.939 55.0849 305.939 55.2791C305.939 55.4733 305.939 55.4733 305.939 55.6675C306.134 55.8617 306.328 55.8617 306.328 55.6675Z" fill="white"/>
<path d="M245.738 51.5889C244.961 47.5107 240.688 43.8209 237.97 40.908C234.862 37.6066 231.367 33.7226 227.483 31.3922C227.289 31.3922 227.483 31.198 227.677 31.198C232.144 33.7226 235.833 37.995 239.329 41.879C241.854 44.5977 245.543 47.8991 246.126 51.5889C245.932 51.7831 245.738 51.7831 245.738 51.5889Z" fill="#581550"/>
<path d="M248.068 52.1718C246.515 48.482 243.019 46.1516 239.912 43.6271C236.028 40.5199 231.756 37.9953 226.901 37.0243C226.707 37.0243 226.901 36.8301 226.901 36.8301C231.367 37.6069 235.446 39.7431 238.941 42.4619C242.437 45.1806 246.515 47.8994 248.263 51.9776C248.263 52.1718 248.068 52.1718 248.068 52.1718Z" fill="#581550"/>
<path d="M261.856 144.222C261.856 144.222 250.01 141.503 246.126 132.764C246.126 132.764 249.233 149.66 262.633 151.408L261.856 144.222Z" fill="#160539"/>
<path d="M327.302 298.611C327.302 298.611 353.324 361.143 371.579 348.908C389.834 336.48 372.162 263.849 372.162 263.849" fill="#FC4F5A"/>
<path d="M299.531 162.283C299.531 162.283 340.119 179.761 355.461 203.259C362.258 213.746 378.182 246.954 386.921 279.579C368.86 305.214 343.42 308.127 321.864 303.466C308.076 267.539 303.415 224.621 303.415 224.621" fill="#F59D00"/>
<path d="M393.135 247.925C391.97 245.594 391.193 243.846 391.193 239.574C391.193 235.302 392.941 230.447 394.106 226.174C395.077 222.873 396.048 219.571 397.019 216.27C397.408 215.299 397.796 214.134 398.767 213.745C399.738 213.357 400.709 213.94 401.486 214.716C402.069 215.493 402.263 216.464 402.457 217.435C402.651 219.183 402.651 220.931 402.263 222.679C402.069 223.65 401.874 224.621 401.874 225.786C401.874 226.757 402.457 227.922 403.428 228.31C405.564 229.281 407.312 226.563 409.448 225.98C409.642 225.98 410.031 225.98 410.225 225.98C410.613 226.174 410.807 226.757 411.002 227.145C411.778 231.029 409.06 234.719 406.729 238.02C404.399 241.128 402.457 246.759 400.127 249.867" fill="#FC4F5A"/>
<path d="M433.722 169.663L407.117 235.302L374.491 209.862C372.549 209.862 371.384 208.502 371.773 206.949L392.358 145.776C392.746 144.805 393.911 144.222 395.077 144.222L433.722 169.663Z" fill="#152E4A"/>
<path d="M426.343 172.187L401.097 234.331L370.219 210.25C368.277 210.25 367.112 208.89 367.694 207.531L387.114 149.854C387.503 148.883 388.668 148.3 389.833 147.912L426.343 172.187Z" fill="#FFF1DC"/>
<path d="M423.818 168.691L421.876 167.332L376.045 167.914L361.092 212.969L411.195 210.444L423.818 168.691Z" fill="#EFCEA3"/>
<path d="M426.343 172.187L389.834 148.106L392.747 146.941L429.451 171.022L404.205 233.36L402.263 231.806L426.343 172.187Z" fill="#EFCEA3"/>
<path d="M433.723 169.663L407.117 235.302L354.295 236.467C352.353 236.467 351.188 235.108 351.576 233.554L372.161 172.187C372.55 171.216 373.715 170.634 374.88 170.634L433.723 169.663Z" fill="#152E4A"/>
<path opacity="0.35" d="M421.682 176.46L417.215 187.723L374.686 189.277L378.375 177.819L421.682 176.46Z" fill="#2A3047"/>
<path d="M404.399 250.449C407.7 247.342 412.943 240.351 415.274 228.699C415.274 226.563 413.914 226.563 412.943 224.621C411.584 222.096 410.03 218.795 407.312 217.435C405.564 216.659 403.816 215.882 402.068 215.105C401.097 214.717 399.738 214.522 399.349 215.299C398.961 215.882 399.349 216.659 399.738 217.241C401.874 220.543 406.535 222.096 407.894 225.98C408.088 226.369 408.088 226.563 407.894 226.951C407.7 227.34 407.506 227.534 407.312 227.728C404.981 229.67 402.845 231.612 400.903 233.942C397.796 237.826 394.689 244.041 397.796 248.896" fill="#FC4F5A"/>
<path d="M413.526 234.719C413.526 234.719 417.41 223.261 417.021 217.047C416.827 213.357 415.079 209.862 413.137 206.56C412.749 205.978 412.555 205.395 411.972 205.007C411.39 204.618 410.613 204.618 410.224 205.201C410.03 205.395 410.03 205.783 410.03 206.172C409.836 210.25 411.778 214.134 412.166 218.212C412.361 219.96 410.03 227.922 409.836 230.252" fill="#FC4F5A"/>
<path d="M352.548 323.662C356.044 310.457 393.136 247.925 393.136 247.925L401.098 241.71L404.399 250.449C404.399 250.449 396.437 346.966 372.162 352.792C350.8 358.036 338.954 323.468 338.954 323.468" fill="#FC4F5A"/>
<path d="M364.005 299.387C364.005 299.387 363.423 300.747 362.646 302.883C361.675 304.825 360.51 307.544 359.345 310.262C358.179 312.981 356.82 315.506 355.655 317.448C354.49 319.39 353.713 320.555 353.713 320.555C353.713 320.555 354.101 319.196 354.878 317.059C355.655 314.923 356.82 312.204 358.179 309.68C358.762 308.32 359.345 306.961 360.121 305.796C360.704 304.631 361.481 303.465 362.063 302.494C363.034 300.552 364.005 299.387 364.005 299.387Z" fill="#DFEAEF"/>
<path d="M275.063 311.622L279.529 312.204C288.074 313.175 295.648 307.155 296.619 298.805L297.784 289.095L262.828 284.822L261.663 294.532C260.498 303.077 266.518 310.651 275.063 311.622Z" fill="white"/>
<path d="M250.982 294.921C251.564 290.454 255.643 287.153 260.109 287.735L273.315 289.289L271.373 305.796L258.167 304.242C253.701 303.465 250.399 299.387 250.982 294.921ZM270.013 291.813L259.721 290.648C256.808 290.26 254.283 292.396 253.895 295.309C253.506 298.222 255.643 300.747 258.556 301.135L268.848 302.3L270.013 291.813Z" fill="white"/>
<path d="M257.196 304.63C259.332 303.659 258.555 299.581 255.836 299.969C256.613 299.581 257.39 298.804 257.584 297.833C257.778 296.474 256.225 294.92 254.089 295.309C254.865 294.726 255.06 293.367 254.283 292.396C253.506 291.425 252.147 291.231 250.981 291.425C248.457 291.619 246.126 292.978 243.99 294.338C240.106 296.668 236.611 299.387 233.115 302.3C231.561 303.465 229.814 304.63 228.26 305.99C227.872 306.378 227.095 307.155 226.512 307.349L156.018 305.601L172.719 242.681L124.752 230.64C124.752 230.64 93.2916 326.575 107.08 336.285C134.073 355.899 225.93 321.72 229.037 320.555C229.619 320.36 230.202 320.166 230.785 319.972C240.883 322.691 247.292 314.534 249.816 311.621C250.205 311.233 250.981 310.65 251.37 311.039C251.564 311.233 251.564 311.427 251.758 311.816C252.729 314.729 255.836 312.204 257.002 311.039C257.973 310.068 258.749 309.097 259.138 307.737C259.138 306.378 258.555 304.824 257.196 304.63Z" fill="#FC4F5A"/>
<path d="M197.771 161.312C176.021 167.332 155.63 181.12 140.482 200.928C125.14 220.931 111.741 252.197 102.613 286.764C102.613 286.764 144.56 299.193 168.835 295.697C173.496 284.434 190.586 221.902 190.586 221.902" fill="#F59D00"/>
<path d="M168.835 295.697C174.078 282.88 184.759 236.661 190.585 221.902" stroke="white" stroke-width="0.5" stroke-miterlimit="10" stroke-linejoin="round"/>
</svg>
