<svg width="90" height="102" viewBox="0 0 90 102" fill="none" xmlns="http://www.w3.org/2000/svg">
<path d="M89.028 46.1421C89.028 45.8421 88.928 45.6421 88.928 45.3421C88.828 45.0421 88.728 44.6421 88.628 44.3421C88.628 44.2421 88.528 44.1421 88.528 44.1421C88.128 43.3421 87.628 42.6421 86.828 42.0421L86.728 41.9421C84.528 40.1421 81.228 40.2421 79.128 42.3421L69.328 51.8421C69.228 51.9421 69.228 51.9421 69.128 52.0421C69.128 52.0421 69.028 52.0421 69.028 52.1421C68.928 52.2421 68.728 52.2421 68.628 52.2421C68.528 52.2421 68.428 52.2421 68.328 52.2421C67.928 52.2421 67.428 52.1421 67.028 52.1421C66.928 52.1421 66.728 52.1421 66.628 52.1421L66.728 51.6421L75.628 13.0421C76.428 9.74206 74.428 6.34206 71.128 5.44206C67.728 4.54206 64.328 6.64206 63.528 10.0421L55.828 43.1421C55.728 43.4421 55.328 43.4421 55.228 43.1421L50.428 6.54206C50.028 3.14206 47.028 0.64206 43.628 1.04206C40.128 1.44206 37.628 4.54206 38.128 8.04206L42.728 43.1421C42.728 43.4421 42.428 43.5421 42.228 43.2421L27.728 13.7421C26.128 10.6421 22.328 9.44206 19.228 11.1421C16.228 12.7421 15.228 16.5421 16.728 19.5421L30.028 46.9421C30.128 47.1421 29.828 47.4421 29.628 47.2421L11.828 29.2421C9.528 26.8421 5.628 26.5421 3.028 28.8421C0.428002 31.2421 0.327999 35.2421 2.728 37.7421L20.928 56.2421C21.128 56.4421 21.328 56.8421 21.328 57.1421L21.228 73.8421C21.228 78.4421 22.328 82.9421 24.328 87.0421L24.528 87.5421C24.928 88.3421 25.128 89.1421 25.128 90.0421V98.3421C25.128 99.8421 26.328 101.042 27.828 101.042L55.828 101.142C57.328 101.142 58.528 99.9421 58.528 98.5421V89.3421C58.528 88.8421 58.828 88.3421 59.228 88.0421H59.328C65.028 84.2421 69.828 79.2421 73.428 73.3421C75.428 70.0421 77.828 66.2421 80.128 62.5421C80.328 62.1421 80.628 61.8421 80.828 61.4421C83.528 57.0421 86.228 52.7421 88.028 49.7421C88.428 49.1421 88.628 48.4421 88.828 47.7421V47.6421C89.028 47.1421 89.028 46.6421 89.028 46.1421Z" stroke="white" stroke-width="1.4" stroke-miterlimit="10"/>
</svg>
