<svg width="56" height="56" viewBox="0 0 56 56" fill="none" xmlns="http://www.w3.org/2000/svg">
<circle cx="28" cy="28" r="27.5" fill="black" stroke="white"/>
<path d="M37.333 27.2177C37.4993 27.3855 37.5925 27.6122 37.5925 27.8483C37.5925 28.0845 37.4993 28.3112 37.333 28.479L29.367 36.4451C29.1971 36.6075 28.9714 36.6986 28.7363 36.6995C28.6188 36.699 28.5025 36.6765 28.3933 36.6332C28.2322 36.5655 28.0948 36.4516 27.9983 36.3059C27.9018 36.1602 27.8507 35.9892 27.8512 35.8144V28.7335H19.8851C19.6504 28.7335 19.4252 28.6402 19.2592 28.4742C19.0933 28.3082 19 28.0831 19 27.8483C19 27.6136 19.0933 27.3885 19.2592 27.2225C19.4252 27.0565 19.6504 26.9632 19.8851 26.9632H27.8512V19.8823C27.8507 19.7075 27.9018 19.5365 27.9983 19.3908C28.0948 19.2451 28.2322 19.1312 28.3933 19.0635C28.5568 18.9998 28.735 18.9836 28.9073 19.0169C29.0796 19.0502 29.239 19.1315 29.367 19.2516L37.333 27.2177Z" fill="white"/>
</svg>
