<svg width="42" height="43" viewBox="0 0 42 43" fill="none" xmlns="http://www.w3.org/2000/svg">
<g clip-path="url(#clip0_580_3163)">
<path opacity="0.4" d="M42 21.4404C42 25.5938 40.7684 29.654 38.4609 33.1074C36.1534 36.5608 32.8736 39.2525 29.0364 40.8419C25.1991 42.4313 20.9767 42.8472 16.9031 42.0369C12.8295 41.2266 9.08767 39.2266 6.15077 36.2897C3.21386 33.3528 1.21381 29.6109 0.403519 25.5373C-0.406771 21.4637 0.00909901 17.2413 1.59854 13.4041C3.18798 9.56683 5.8796 6.28708 9.33303 3.97957C12.7865 1.67206 16.8466 0.44043 21 0.44043C26.5696 0.44043 31.911 2.65292 35.8493 6.59119C39.7875 10.5295 42 15.8709 42 21.4404Z" fill="white" fillOpacity="0.59"/>
<path d="M12.7177 28.5103L16.1932 17.5238C16.2591 17.2999 16.3799 17.0959 16.5446 16.9306C16.7093 16.7652 16.9128 16.6437 17.1365 16.577L28.0827 13.147C28.2499 13.0952 28.428 13.09 28.5979 13.132C28.7678 13.174 28.923 13.2616 29.0467 13.3853C29.1705 13.509 29.2581 13.6642 29.3001 13.8341C29.342 14.004 29.3368 14.1821 29.285 14.3493L25.8515 25.3568C25.7824 25.5789 25.6602 25.7808 25.4955 25.9452C25.3309 26.1095 25.1287 26.2313 24.9065 26.3L13.92 29.7335C13.7506 29.7864 13.5699 29.7915 13.3977 29.7483C13.2256 29.7051 13.0688 29.6152 12.9444 29.4885C12.8201 29.3618 12.7332 29.2033 12.6932 29.0304C12.6532 28.8575 12.6617 28.6787 12.7177 28.5103Z" fill="white"/>
</g>
<defs>
<clipPath id="clip0_580_3163">
<rect width="42" height="42" fill="white" transform="translate(0 0.44043)"/>
</clipPath>
</defs>
</svg>
