<svg width="24" height="22" viewBox="0 0 24 22" fill="none" xmlns="http://www.w3.org/2000/svg">
<path opacity="0.4" d="M9.59993 16.0898H1.79304C1.32682 16.0898 0.879697 16.275 0.550029 16.6047C0.220362 16.9344 0.0351563 17.3815 0.0351562 17.8477C0.0351563 18.3139 0.220362 18.7611 0.550029 19.0907C0.879697 19.4204 1.32682 19.6056 1.79304 19.6056H9.59993C10.0662 19.6056 10.5133 19.4204 10.8429 19.0907C11.1726 18.7611 11.3578 18.3139 11.3578 17.8477C11.3578 17.3815 11.1726 16.9344 10.8429 16.6047C10.5133 16.275 10.0662 16.0898 9.59993 16.0898Z" fill="#8D8D8E"/>
<path opacity="0.4" d="M23.995 4.00907C23.9899 3.53964 23.7988 3.09141 23.4638 2.76253C23.1288 2.43366 22.6771 2.25096 22.2077 2.25445H14.4052C14.1707 2.24861 13.9375 2.28975 13.7191 2.37543C13.5008 2.46112 13.3019 2.58963 13.134 2.7534C12.9661 2.91716 12.8326 3.11286 12.7415 3.32898C12.6504 3.5451 12.6035 3.77726 12.6035 4.01179C12.6035 4.24633 12.6504 4.47849 12.7415 4.69461C12.8326 4.91072 12.9661 5.10643 13.134 5.27019C13.3019 5.43395 13.5008 5.56246 13.7191 5.64815C13.9375 5.73384 14.1707 5.77497 14.4052 5.76913H22.2077C22.6777 5.77262 23.1299 5.58947 23.465 5.25989C23.8001 4.93032 23.9907 4.48124 23.995 4.01125" fill="#8D8D8E"/>
<path d="M8.16521 4.00884C8.16065 4.54014 8.05147 5.06534 7.84393 5.55445C7.63638 6.04356 7.33453 6.487 6.9556 6.85944C6.57667 7.23189 6.1281 7.52605 5.63548 7.72513C5.14286 7.92421 4.61586 8.0243 4.08456 8.0197C3.55326 8.0243 3.02625 7.92421 2.53363 7.72513C2.04102 7.52605 1.59244 7.23189 1.21351 6.85944C0.834585 6.487 0.53273 6.04356 0.325185 5.55445C0.11764 5.06534 0.00846914 4.54014 0.00390625 4.00884C0.0136964 2.93621 0.449061 1.91136 1.21428 1.15964C1.97949 0.407925 3.01192 -0.00913537 4.08456 0.000161522C4.61572 -0.00458537 5.14261 0.095339 5.63515 0.294229C6.12769 0.493119 6.57623 0.787078 6.95515 1.15932C7.33408 1.53157 7.63598 1.9748 7.8436 2.46373C8.05122 2.95265 8.1605 3.47768 8.16521 4.00884Z" fill="white"/>
<path d="M23.9947 17.8049C24.0087 18.6148 23.7814 19.4106 23.3417 20.0909C22.9019 20.7712 22.2697 21.3053 21.5254 21.625C20.7811 21.9448 19.9584 22.0358 19.1623 21.8864C18.3661 21.7371 17.6324 21.3541 17.0546 20.7864C16.4768 20.2186 16.081 19.4917 15.9177 18.6983C15.7545 17.9048 15.831 17.0807 16.1377 16.331C16.4443 15.5812 16.9672 14.9396 17.6397 14.488C18.3122 14.0364 19.104 13.7952 19.914 13.7951C20.4453 13.7903 20.9723 13.8903 21.4649 14.0893C21.9575 14.2882 22.4061 14.5823 22.785 14.9546C23.1639 15.327 23.4658 15.7704 23.6734 16.2594C23.8809 16.7485 23.9901 17.2736 23.9947 17.8049Z" fill="white"/>
</svg>
