<svg width="96" height="50" viewBox="0 0 96 50" fill="none" xmlns="http://www.w3.org/2000/svg">
<g clip-path="url(#clip0_580_3379)">
<g clip-path="url(#clip1_580_3379)">
<path d="M57.2903 34.8514C57.0157 34.7022 56.7673 34.5092 56.5549 34.28C55.6638 33.63 54.9598 32.7567 54.5137 31.7479C55.4452 31.2492 56.2772 30.5836 56.9682 29.7843C61.8635 24.3167 60.9671 14.8423 60.8836 14.0264C60.3113 3.3248 52.4716 0.714192 47.8984 0.87717C43.3242 0.714192 35.4845 3.3248 34.9946 14.0264C34.9131 14.8433 34.0962 24.3167 38.9149 29.7882C39.6611 30.6052 40.5126 31.3193 41.447 31.9119C40.7931 33.3846 38.1805 36.7305 27.5633 39.3441C23.5615 40.3259 21.5203 44.2443 21.8463 49.8798L24.5423 49.7148C24.3793 47.1828 24.6238 42.855 28.1357 41.9586C39.3282 39.1821 42.7547 35.2618 43.816 32.9752C45.0347 33.3427 46.2995 33.5351 47.5724 33.5466H47.8993C49.3128 33.5417 50.7172 33.3212 52.0641 32.8927C53.0459 35.1793 56.3929 39.1811 67.826 42.0401C71.4193 42.9385 71.6648 47.2672 71.5008 49.7963L74.1949 49.9603C74.6033 44.2433 72.5612 40.4054 68.4779 39.4246C65.7394 38.7535 63.0627 37.8519 60.4762 36.7296H60.3947C59.6584 36.4036 58.0217 35.2598 57.2903 34.8514ZM47.8984 30.8496H47.7354C46.4513 30.914 45.169 30.6908 43.9822 30.1964C42.7954 29.7019 41.734 28.9486 40.8755 27.9915C36.7108 23.2544 37.6091 14.3534 37.6091 14.2709V14.1894C37.8545 9.69766 39.4873 6.5127 42.5093 4.87899C44.0754 4.07343 45.8112 3.65336 47.5724 3.6537H47.8993C49.716 3.62609 51.5113 4.04695 53.1264 4.87899C56.1484 6.5127 57.8636 9.69766 58.0266 14.1894V14.2709C58.0266 14.3524 58.925 23.2544 54.7602 27.9915C53.1245 29.8697 50.9194 30.7681 47.8984 30.8496Z" fill="white"/>
<path d="M0.529409 40.323L3.22445 40.16C3.14296 38.4448 3.22445 35.5053 5.59255 34.9329C13.5962 32.8908 16.2942 30.1957 17.1896 28.399C18.0923 28.6603 19.0264 28.7977 19.9661 28.8075H20.293C21.1204 28.7847 21.9431 28.6751 22.7475 28.4805C23.6459 30.1957 26.2594 32.8093 33.6092 34.769C34.658 34.2576 35.6447 33.6274 36.5497 32.8908C36.0746 32.6392 35.5825 32.421 35.077 32.2379C28.2171 30.5227 26.0935 28.399 25.4396 27.3377C26.0413 26.9141 26.5898 26.4197 27.0734 25.865C30.6667 21.7817 30.0953 14.7579 30.0138 14.105C29.6054 6.0199 23.7254 4.14172 20.2135 4.22321C16.7016 4.14172 10.8216 6.0199 10.4132 14.105C10.3317 14.8404 9.76029 21.7817 13.3537 25.865C13.7543 26.3623 14.2214 26.802 14.7419 27.1718C14.251 28.1536 12.2874 30.4382 5.02213 32.2349C1.83619 33.0547 0.20247 35.9952 0.529409 40.323ZM15.2299 24.0713C12.2894 20.7233 12.9433 14.4339 12.9433 14.3515V14.27C13.2702 7.00465 18.8233 6.83774 19.9671 6.92021H20.294C21.7667 6.92021 26.7454 7.49162 27.0684 14.27V14.3515C27.0684 14.3515 27.7213 20.7214 24.8633 24.0713C24.2711 24.7324 23.538 25.252 22.7181 25.5919C21.8982 25.9318 21.0124 26.0831 20.1261 26.0349H19.9632C19.0776 26.0826 18.1925 25.9309 17.3734 25.591C16.5542 25.2512 15.8217 24.7318 15.2299 24.0713Z" fill="white"/>
<path d="M95.4119 40.323L92.7168 40.16C92.7983 38.4448 92.7168 35.5053 90.3487 34.9329C82.3451 32.8908 79.6471 30.1957 78.7517 28.399C77.8489 28.6603 76.9149 28.7977 75.9752 28.8075H75.6482C74.8209 28.7847 73.9982 28.6751 73.1937 28.4805C72.2954 30.1957 69.6818 32.8093 62.3321 34.769C61.285 34.2575 60.3 33.6277 59.3965 32.8918C59.8716 32.6402 60.3637 32.422 60.8692 32.2389C67.729 30.5237 69.8527 28.4 70.5065 27.3387C69.9049 26.9151 69.3563 26.4207 68.8728 25.866C65.2794 21.7827 65.8508 14.7589 65.9323 14.106C66.3408 6.02088 72.2208 4.14269 75.7327 4.22418C79.2446 4.14269 85.1246 6.02088 85.533 14.106C85.6145 14.8414 86.1859 21.7827 82.5925 25.866C82.1919 26.3632 81.7248 26.803 81.2042 27.1728C81.6951 28.1546 83.6587 30.4392 90.924 32.2359C94.1051 33.0547 95.7388 35.9952 95.4119 40.323ZM80.7114 24.0713C83.6519 20.7233 82.998 14.4339 82.998 14.3515V14.27C82.671 7.00464 77.118 6.83774 75.9742 6.92021H75.6472C74.1745 6.92021 69.1958 7.49161 68.8728 14.27V14.3515C68.8728 14.3515 68.2199 20.7214 71.0779 24.0713C71.6702 24.7324 72.4033 25.252 73.2232 25.5919C74.0431 25.9318 74.9289 26.0831 75.8151 26.0349H75.9781C76.8637 26.0825 77.7487 25.9309 78.5679 25.591C79.3871 25.2512 80.1196 24.7318 80.7114 24.0713Z" fill="white"/>
</g>
</g>
<defs>
<clipPath id="clip0_580_3379">
<rect width="95" height="49.09" fill="white" transform="translate(0.470703 0.870117)"/>
</clipPath>
<clipPath id="clip1_580_3379">
<rect width="94.9646" height="49.09" fill="white" transform="translate(0.488281 0.870117)"/>
</clipPath>
</defs>
</svg>
