<svg width="54" height="53" viewBox="0 0 54 53" fill="none" xmlns="http://www.w3.org/2000/svg">
<circle cx="26.8885" cy="26.6649" r="26.1658" fill="#181818"/>
<path d="M26.5399 35.9307C26.3666 35.9307 26.2106 35.87 26.0719 35.7487C25.9506 35.6273 25.8899 35.4713 25.8899 35.2807V22.3587L22.1459 25.2447C21.9899 25.366 21.8252 25.4093 21.6519 25.3747C21.4959 25.34 21.3572 25.2447 21.2359 25.0887L19.9359 23.3987C19.8319 23.2427 19.7886 23.078 19.8059 22.9047C19.8406 22.7313 19.9359 22.5927 20.0919 22.4887L26.0199 17.9127C26.1239 17.8433 26.2192 17.8 26.3059 17.7827C26.4099 17.748 26.5226 17.7307 26.6439 17.7307H29.3999C29.5732 17.7307 29.7206 17.7913 29.8419 17.9127C29.9632 18.034 30.0239 18.19 30.0239 18.3807V35.2807C30.0239 35.4713 29.9632 35.6273 29.8419 35.7487C29.7206 35.87 29.5732 35.9307 29.3999 35.9307H26.5399Z" fill="white"/>
</svg>
