<svg width="42" height="43" viewBox="0 0 42 43" fill="none" xmlns="http://www.w3.org/2000/svg">
<g clip-path="url(#clip0_580_3183)">
<path opacity="0.4" d="M42 21.4404C42 25.5938 40.7684 29.654 38.4609 33.1074C36.1534 36.5608 32.8736 39.2525 29.0364 40.8419C25.1991 42.4313 20.9767 42.8472 16.9031 42.0369C12.8295 41.2266 9.08767 39.2266 6.15077 36.2897C3.21386 33.3528 1.21381 29.6109 0.403519 25.5373C-0.406771 21.4637 0.00909901 17.2413 1.59854 13.4041C3.18798 9.56683 5.8796 6.28708 9.33303 3.97957C12.7865 1.67206 16.8466 0.44043 21 0.44043C26.5696 0.44043 31.911 2.65292 35.8493 6.59119C39.7875 10.5295 42 15.8709 42 21.4404Z" fill="white" fillOpacity="0.59"/>
<path d="M28.359 19.1144L18.8236 28.688C18.3363 29.1677 17.6805 29.4378 16.9965 29.4404H13.6697C13.5797 29.4413 13.4904 29.4242 13.4071 29.3901C13.3238 29.356 13.2482 29.3055 13.1848 29.2417C13.1231 29.1774 13.075 29.1014 13.0433 29.0181C13.0117 28.9349 12.9971 28.8461 13.0005 28.7571L13.0853 25.3951C13.0983 24.7337 13.3673 24.1032 13.8358 23.6359L20.5924 16.8707C20.6497 16.8159 20.7259 16.7854 20.8052 16.7854C20.8845 16.7854 20.9607 16.8159 21.018 16.8707L23.3882 19.2295C23.5547 19.3926 23.7782 19.4843 24.0114 19.4852C24.1343 19.4852 24.2561 19.4609 24.3696 19.4138C24.4832 19.3667 24.5864 19.2977 24.6732 19.2107C24.76 19.1237 24.8288 19.0205 24.8757 18.9068C24.9225 18.7932 24.9464 18.6715 24.9461 18.5486C24.9464 18.3067 24.8555 18.0736 24.6915 17.8956C24.6491 17.8387 22.388 15.5937 22.388 15.5937C22.3198 15.5234 22.2816 15.4293 22.2816 15.3314C22.2816 15.2335 22.3198 15.1394 22.388 15.0691L23.3373 14.0999C23.5452 13.8909 23.7923 13.725 24.0646 13.6119C24.3368 13.4987 24.6288 13.4404 24.9237 13.4404C25.2186 13.4404 25.5105 13.4987 25.7828 13.6119C26.055 13.725 26.3022 13.8909 26.5101 14.0999L28.3517 15.9438C28.7671 16.3656 29 16.9337 29 17.5255C29 18.1173 28.7671 18.6854 28.3517 19.1072" fill="white"/>
</g>
<defs>
<clipPath id="clip0_580_3183">
<rect width="42" height="42" fill="white" transform="translate(0 0.44043)"/>
</clipPath>
</defs>
</svg>
