<svg width="98" height="99" viewBox="0 0 98 99" fill="none" xmlns="http://www.w3.org/2000/svg">
<path d="M89.2447 76.5384C74.3211 98.9217 44.0778 104.969 21.6944 90.0455C-0.689007 75.1218 -6.73634 44.8785 8.18728 22.4952C23.1109 0.111774 53.3542 -5.93556 75.7376 8.98806C98.121 23.9117 104.168 54.155 89.2447 76.5384Z" fill="white"/>
<path d="M47.2817 2.28239C59.2521 1.97201 70.8896 6.24229 79.8183 14.2214C88.7469 22.2005 94.2933 33.2867 95.3252 45.2166C96.357 57.1465 92.7965 69.0203 85.3704 78.414C77.9444 87.8077 67.213 94.0127 55.367 95.7622C43.5211 97.5118 31.4541 94.6739 21.6296 87.828C11.8051 80.9821 4.96411 70.6445 2.50323 58.9256C0.0423479 47.2068 2.1472 34.9906 8.38804 24.7711C14.6289 14.5516 24.5351 7.09944 36.0841 3.93619" stroke="#40DDB6" stroke-width="3" stroke-linecap="round" stroke-linejoin="round"/>
<path d="M29.4336 51.8306C29.5646 52.5512 29.8593 53.108 30.3178 53.501C30.7927 53.8776 31.4232 54.0659 32.2093 54.0659C33.2246 54.0659 33.9615 53.6484 34.42 52.8132C34.8785 51.9616 35.1078 50.5369 35.1078 48.5391C34.7311 49.0631 34.1989 49.4725 33.5111 49.7673C32.8397 50.062 32.111 50.2094 31.325 50.2094C30.2769 50.2094 29.3271 49.9965 28.4756 49.5708C27.6404 49.1286 26.9772 48.4818 26.4859 47.6302C25.9946 46.7623 25.749 45.7143 25.749 44.4861C25.749 42.6684 26.2894 41.2273 27.3702 40.1629C28.451 39.082 29.9248 38.5416 31.7917 38.5416C34.117 38.5416 35.7546 39.2867 36.7044 40.7769C37.6706 42.2671 38.1537 44.5106 38.1537 47.5074C38.1537 49.6363 37.9654 51.3803 37.5887 52.7395C37.2285 54.0987 36.598 55.1304 35.6973 55.8345C34.813 56.5387 33.6012 56.8908 32.0619 56.8908C30.8501 56.8908 29.8184 56.6615 28.9668 56.203C28.1153 55.7281 27.4603 55.114 27.0017 54.3607C26.5596 53.591 26.3058 52.7477 26.2403 51.8306H29.4336ZM32.0373 47.4092C32.8889 47.4092 33.5603 47.1471 34.0515 46.6231C34.5428 46.0991 34.7885 45.3949 34.7885 44.5106C34.7885 43.5445 34.5264 42.7994 34.0024 42.2753C33.4948 41.7349 32.7988 41.4647 31.9145 41.4647C31.0302 41.4647 30.326 41.7431 29.802 42.2999C29.2944 42.8403 29.0405 43.5608 29.0405 44.4615C29.0405 45.3294 29.2862 46.0418 29.7774 46.5986C30.2851 47.139 31.0384 47.4092 32.0373 47.4092ZM52.8668 41.9314H44.9081V46.1318C45.252 45.7061 45.7433 45.3622 46.382 45.1002C47.0206 44.8218 47.7002 44.6826 48.4208 44.6826C49.7308 44.6826 50.8034 44.9692 51.6386 45.5423C52.4738 46.1155 53.0797 46.8524 53.4563 47.7531C53.833 48.6374 54.0213 49.5872 54.0213 50.6025C54.0213 52.4857 53.4809 54.0004 52.4001 55.1467C51.3357 56.2931 49.8127 56.8662 47.8312 56.8662C45.9644 56.8662 44.4742 56.3995 43.3606 55.4661C42.2471 54.5327 41.6166 53.3127 41.4692 51.8061H44.8099C44.9573 52.4611 45.2848 52.9851 45.7924 53.3782C46.3165 53.7712 46.9797 53.9677 47.7821 53.9677C48.7483 53.9677 49.477 53.6647 49.9683 53.0588C50.4596 52.4529 50.7052 51.6505 50.7052 50.6516C50.7052 49.6363 50.4514 48.8666 49.9437 48.3426C49.4524 47.8022 48.7237 47.532 47.7575 47.532C47.0698 47.532 46.4966 47.7039 46.0381 48.0478C45.5796 48.3917 45.252 48.8502 45.0555 49.4234H41.764V38.9101H52.8668V41.9314ZM56.2457 43.3561C56.2457 42.1116 56.6059 41.1372 57.3265 40.4331C58.0634 39.7289 59.005 39.3768 60.1513 39.3768C61.2976 39.3768 62.231 39.7289 62.9516 40.4331C63.6885 41.1372 64.0569 42.1116 64.0569 43.3561C64.0569 44.6171 63.6885 45.5996 62.9516 46.3038C62.231 47.008 61.2976 47.36 60.1513 47.36C59.005 47.36 58.0634 47.008 57.3265 46.3038C56.6059 45.5996 56.2457 44.6171 56.2457 43.3561ZM72.0156 39.6716L62.362 56.8662H59.0214L68.6504 39.6716H72.0156ZM60.1267 41.4402C59.2261 41.4402 58.7757 42.0788 58.7757 43.3561C58.7757 44.6498 59.2261 45.2967 60.1267 45.2967C60.5689 45.2967 60.9128 45.1411 61.1584 44.83C61.4041 44.5025 61.5269 44.0112 61.5269 43.3561C61.5269 42.0788 61.0602 41.4402 60.1267 41.4402ZM67.0292 53.1571C67.0292 51.8961 67.3894 50.9218 68.11 50.234C68.8469 49.5298 69.7885 49.1778 70.9348 49.1778C72.0811 49.1778 73.0063 49.5298 73.7105 50.234C74.431 50.9218 74.7913 51.8961 74.7913 53.1571C74.7913 54.418 74.431 55.4006 73.7105 56.1047C73.0063 56.8089 72.0811 57.161 70.9348 57.161C69.7721 57.161 68.8305 56.8089 68.11 56.1047C67.3894 55.4006 67.0292 54.418 67.0292 53.1571ZM70.9102 51.2411C69.9768 51.2411 69.5101 51.8798 69.5101 53.1571C69.5101 54.4508 69.9768 55.0976 70.9102 55.0976C71.8273 55.0976 72.2858 54.4508 72.2858 53.1571C72.2858 51.8798 71.8273 51.2411 70.9102 51.2411Z" fill="#37393F"/>
</svg>
