<svg width="54" height="51" viewBox="0 0 54 51" fill="none" xmlns="http://www.w3.org/2000/svg">
<g clip-path="url(#clip0_580_3360)">
<path d="M36.4133 35.4813C36.1336 35.3294 35.8806 35.1328 35.6643 34.8993C34.7564 34.2374 34.039 33.3478 33.5843 32.3203C34.5331 31.8124 35.3805 31.1345 36.0843 30.3203C41.0713 24.7513 40.1563 15.1013 40.0773 14.2703C39.4913 3.3703 31.5053 0.711301 26.8473 0.877301C22.1893 0.711301 14.2033 3.3703 13.7043 14.2703C13.6213 15.1023 12.7893 24.7513 17.6973 30.3243C18.4577 31.1564 19.3253 31.8838 20.2773 32.4873C19.6113 33.9873 16.9503 37.3953 6.13632 40.0573C2.05832 41.0543 -0.0226773 45.0473 0.312323 50.7873L3.05732 50.6203C2.89132 48.0413 3.14032 43.6333 6.71732 42.7203C18.1173 39.8923 21.6073 35.8993 22.6883 33.5703C23.9296 33.9447 25.2178 34.1406 26.5143 34.1523H26.8473C28.287 34.1473 29.7174 33.9227 31.0893 33.4863C32.0893 35.8153 35.4983 39.8913 47.1433 42.8033C50.8033 43.7183 51.0533 48.1273 50.8863 50.7033L53.6323 50.8703C54.0483 45.0473 51.9683 41.1383 47.8093 40.1393C45.0194 39.4559 42.2924 38.5376 39.6573 37.3943H39.5773C38.8253 37.0623 37.1613 35.8973 36.4133 35.4813ZM26.8473 31.4053H26.6773C25.3694 31.4709 24.0634 31.2436 22.8546 30.74C21.6458 30.2364 20.5647 29.4691 19.6903 28.4943C15.4483 23.6693 16.3633 14.6033 16.3633 14.5193V14.4363C16.6153 9.8613 18.2773 6.6173 21.3573 4.9533C22.9525 4.13281 24.7205 3.70496 26.5143 3.7053H26.8473C28.6976 3.67718 30.5263 4.10584 32.1713 4.9533C35.2493 6.6173 36.9963 9.8613 37.1623 14.4363V14.5193C37.1623 14.6023 38.0773 23.6693 33.8353 28.4943C32.1703 30.4073 29.9253 31.3223 26.8473 31.4053Z" fill="white"/>
</g>
<defs>
<clipPath id="clip0_580_3360">
<rect width="53.407" height="50" fill="white" transform="translate(0.277344 0.870117)"/>
</clipPath>
</defs>
</svg>
