<svg width="19" height="20" viewBox="0 0 19 20" fill="none" xmlns="http://www.w3.org/2000/svg">
<g clip-path="url(#clip0_580_3175)">
<path opacity="0.4" d="M13.2356 0.44043H16.5306C16.8563 0.441778 17.1785 0.507269 17.479 0.633163C17.7794 0.759057 18.052 0.942889 18.2814 1.17416C18.5107 1.40543 18.6923 1.67962 18.8157 1.98106C18.9391 2.2825 19.0019 2.6053 19.0006 2.93101V6.25601C19.0019 6.58173 18.9391 6.90453 18.8157 7.20597C18.6923 7.50741 18.5107 7.78159 18.2814 8.01286C18.052 8.24414 17.7794 8.42797 17.479 8.55386C17.1785 8.67976 16.8563 8.74525 16.5306 8.7466H13.2356C12.9099 8.74525 12.5877 8.67976 12.2873 8.55386C11.9869 8.42797 11.7142 8.24414 11.4848 8.01286C11.2555 7.78159 11.0739 7.50741 10.9505 7.20597C10.8271 6.90453 10.7643 6.58173 10.7656 6.25601V2.93101C10.7643 2.6053 10.8271 2.2825 10.9505 1.98106C11.0739 1.67962 11.2555 1.40543 11.4848 1.17416C11.7142 0.942889 11.9869 0.759057 12.2873 0.633163C12.5877 0.507269 12.9099 0.441778 13.2356 0.44043Z" fill="white"/>
<path d="M5.62799 11.333C5.94602 11.3343 6.26066 11.3983 6.55396 11.5212C6.84726 11.6442 7.11347 11.8237 7.33739 12.0495C7.56131 12.2754 7.73856 12.5431 7.85901 12.8374C7.97946 13.1318 8.04076 13.4469 8.03941 13.765V17.0108C8.04151 17.6527 7.78871 18.2691 7.33655 18.7247C6.88439 19.1803 6.26986 19.4377 5.62799 19.4404H2.41145C2.09343 19.4391 1.77878 19.3751 1.48548 19.2522C1.19218 19.1292 0.925973 18.9497 0.702051 18.7239C0.47813 18.498 0.300883 18.2303 0.180431 17.936C0.0599779 17.6416 -0.00132115 17.3265 3.32431e-05 17.0084V13.7626C-0.00132115 13.4446 0.0599779 13.1294 0.180431 12.8351C0.300883 12.5407 0.47813 12.273 0.702051 12.0472C0.925973 11.8213 1.19218 11.6418 1.48548 11.5189C1.77878 11.3959 2.09343 11.3319 2.41145 11.3306L5.62799 11.333ZM16.5878 11.333C16.9059 11.3342 17.2206 11.3981 17.514 11.521C17.8074 11.6439 18.0737 11.8234 18.2977 12.0493C18.5217 12.2751 18.6991 12.5429 18.8196 12.8373C18.9401 13.1316 19.0014 13.4469 19 13.765V17.0108C19.0019 17.6526 18.7491 18.2689 18.2969 18.7245C17.8448 19.18 17.2304 19.4375 16.5886 19.4404H13.3721C13.0541 19.4391 12.7394 19.3751 12.4461 19.2522C12.1528 19.1292 11.8866 18.9497 11.6627 18.7239C11.4388 18.498 11.2615 18.2303 11.1411 17.936C11.0206 17.6416 10.9593 17.3265 10.9607 17.0084V13.7626C10.9593 13.4446 11.0206 13.1294 11.1411 12.8351C11.2615 12.5407 11.4388 12.273 11.6627 12.0472C11.8866 11.8213 12.1528 11.6418 12.4461 11.5189C12.7394 11.3959 13.0541 11.3319 13.3721 11.3306L16.5878 11.333ZM5.62799 0.44043C5.94602 0.441778 6.26066 0.505754 6.55396 0.628704C6.84726 0.751654 7.11347 0.93117 7.33739 1.157C7.56131 1.38284 7.73856 1.65056 7.85901 1.9449C7.97946 2.23923 8.04076 2.55441 8.03941 2.87243V6.11826C8.04076 6.43629 7.97946 6.75146 7.85901 7.0458C7.73856 7.34013 7.56131 7.60786 7.33739 7.83369C7.11347 8.05952 6.84726 8.23904 6.55396 8.36199C6.26066 8.48494 5.94602 8.54891 5.62799 8.55026H2.41145C2.09323 8.54892 1.77839 8.48486 1.48493 8.36176C1.19148 8.23866 0.925161 8.05894 0.701208 7.83285C0.477256 7.60677 0.300059 7.33876 0.179746 7.04415C0.0594339 6.74954 -0.00163409 6.43411 3.32431e-05 6.11589V2.87005C-0.00207084 2.22819 0.250732 1.61174 0.702893 1.15616C1.15505 0.700587 1.76958 0.443154 2.41145 0.44043L5.62799 0.44043Z" fill="white"/>
</g>
<defs>
<clipPath id="clip0_580_3175">
<rect width="19" height="19" fill="white" transform="translate(0 0.44043)"/>
</clipPath>
</defs>
</svg>
