<svg width="23" height="14" viewBox="0 0 23 14" fill="none" xmlns="http://www.w3.org/2000/svg">
<path d="M6.77704 13.948C6.45955 13.9477 6.15512 13.8216 5.93041 13.5973L0.353339 8.04027C0.241271 7.92877 0.152342 7.79622 0.09166 7.65024C0.0309777 7.50427 -0.000261307 7.34773 -0.000261307 7.18965C-0.000261307 7.03156 0.0309777 6.87503 0.09166 6.72905C0.152342 6.58307 0.241271 6.45052 0.353339 6.33902L5.93175 0.789946C6.15735 0.565406 6.4629 0.439683 6.7812 0.440433C7.0995 0.441183 7.40446 0.568345 7.629 0.793946C7.85354 1.01955 7.97926 1.3251 7.97851 1.6434C7.97776 1.9617 7.8506 2.26666 7.625 2.4912L2.89989 7.19498L7.625 11.8988C7.79306 12.0665 7.90757 12.2803 7.95405 12.5132C8.00053 12.746 7.97687 12.9875 7.88609 13.2069C7.7953 13.4263 7.64146 13.6138 7.44403 13.7457C7.24661 13.8777 7.01449 13.9481 6.77704 13.948Z" fill="white"/>
<path d="M15.8659 13.948C16.1834 13.9477 16.4878 13.8216 16.7125 13.5973L22.2909 8.04027C22.403 7.92877 22.4919 7.79622 22.5526 7.65024C22.6133 7.50427 22.6445 7.34773 22.6445 7.18965C22.6445 7.03156 22.6133 6.87503 22.5526 6.72905C22.4919 6.58307 22.403 6.45052 22.2909 6.33902L16.7125 0.789946C16.4869 0.565406 16.1814 0.439683 15.8631 0.440433C15.5448 0.441183 15.2398 0.568345 15.0153 0.793946C14.7907 1.01955 14.665 1.3251 14.6658 1.6434C14.6665 1.9617 14.7937 2.26666 15.0193 2.4912L19.7444 7.19498L15.0193 11.8988C14.8513 12.0664 14.7368 12.2801 14.6903 12.5129C14.6438 12.7456 14.6673 12.9869 14.7579 13.2062C14.8486 13.4256 15.0022 13.6131 15.1994 13.7452C15.3966 13.8772 15.6286 13.9478 15.8659 13.948Z" fill="#8D8D8E"/>
</svg>
