<svg width="54" height="54" viewBox="0 0 54 54" fill="none" xmlns="http://www.w3.org/2000/svg">
<circle cx="26.8885" cy="26.8787" r="26.1658" fill="#181818"/>
<path d="M27.6059 36.4045C26.3232 36.4045 25.2226 36.2485 24.3039 35.9365C23.3852 35.6245 22.6312 35.2259 22.0419 34.7405C21.4526 34.2552 21.0106 33.7265 20.7159 33.1545C20.4212 32.5652 20.2652 32.0019 20.2479 31.4645C20.2479 31.3085 20.2999 31.1785 20.4039 31.0745C20.5079 30.9705 20.6379 30.9185 20.7939 30.9185H23.6539C23.8446 30.9185 24.0006 30.9619 24.1219 31.0485C24.2432 31.1179 24.3559 31.2479 24.4599 31.4385C24.5986 31.8372 24.8239 32.1579 25.1359 32.4005C25.4479 32.6432 25.8119 32.8165 26.2279 32.9205C26.6612 33.0072 27.1206 33.0505 27.6059 33.0505C28.5766 33.0505 29.3392 32.8252 29.8939 32.3745C30.4486 31.9239 30.7259 31.2912 30.7259 30.4765C30.7259 29.6445 30.4659 29.0465 29.9459 28.6825C29.4259 28.3185 28.6892 28.1365 27.7359 28.1365H24.9539C24.7806 28.1365 24.6332 28.0759 24.5119 27.9545C24.3906 27.8332 24.3299 27.6859 24.3299 27.5125V26.2385C24.3299 26.0305 24.3646 25.8572 24.4339 25.7185C24.5206 25.5799 24.6072 25.4759 24.6939 25.4065L29.1659 21.2985H21.8339C21.6432 21.2985 21.4872 21.2379 21.3659 21.1165C21.2446 20.9952 21.1839 20.8479 21.1839 20.6745V18.5945C21.1839 18.4039 21.2446 18.2479 21.3659 18.1265C21.4872 18.0052 21.6432 17.9445 21.8339 17.9445H33.3779C33.5686 17.9445 33.7246 18.0052 33.8459 18.1265C33.9672 18.2479 34.0279 18.4039 34.0279 18.5945V20.4665C34.0279 20.6572 33.9932 20.8219 33.9239 20.9605C33.8546 21.0819 33.7679 21.1772 33.6639 21.2465L29.4259 25.4325L29.6859 25.4585C30.7086 25.5625 31.6186 25.8139 32.4159 26.2125C33.2132 26.6112 33.8372 27.1832 34.2879 27.9285C34.7559 28.6565 34.9899 29.5839 34.9899 30.7105C34.9899 31.8892 34.6692 32.9032 34.0279 33.7525C33.3866 34.6019 32.5112 35.2605 31.4019 35.7285C30.2926 36.1792 29.0272 36.4045 27.6059 36.4045Z" fill="white"/>
</svg>
