<svg width="53" height="53" viewBox="0 0 53 53" fill="none" xmlns="http://www.w3.org/2000/svg">
<circle cx="26.3889" cy="26.3889" r="26.3889" fill="#181818"/>
<path d="M25.937 26.9963L17.9052 20.9724C17.7746 20.8733 17.6687 20.7455 17.5954 20.5989C17.5221 20.4523 17.4834 20.2909 17.4824 20.127V15.3713C17.4824 15.091 17.5938 14.8222 17.792 14.624C17.9902 14.4258 18.259 14.3145 18.5392 14.3145H33.3348C33.6151 14.3145 33.8839 14.4258 34.0821 14.624C34.2803 14.8222 34.3916 15.091 34.3916 15.3713V20.0741C34.3906 20.238 34.352 20.3995 34.2787 20.5461C34.2054 20.6927 34.0994 20.8205 33.9689 20.9196L25.937 26.9963Z" stroke="white" stroke-width="2" stroke-linecap="round" stroke-linejoin="round"/>
<path d="M25.937 26.9961L17.9052 33.02C17.7746 33.1191 17.6687 33.2469 17.5954 33.3935C17.5221 33.5401 17.4834 33.7016 17.4824 33.8655V38.6212C17.4824 38.9015 17.5938 39.1703 17.792 39.3685C17.9902 39.5666 18.259 39.678 18.5392 39.678H33.3348C33.6151 39.678 33.8839 39.5666 34.0821 39.3685C34.2803 39.1703 34.3916 38.9015 34.3916 38.6212V33.9183C34.3906 33.7544 34.352 33.5929 34.2787 33.4464C34.2054 33.2998 34.0994 33.172 33.9689 33.0728L25.937 26.9961Z" stroke="white" stroke-width="2" stroke-linecap="round" stroke-linejoin="round"/>
</svg>
