<svg width="54" height="54" viewBox="0 0 54 54" fill="none" xmlns="http://www.w3.org/2000/svg">
<circle cx="26.8885" cy="26.8787" r="26.1658" fill="#181818"/>
<path d="M21.1059 36.1445C20.9152 36.1445 20.7592 36.0839 20.6379 35.9625C20.5166 35.8412 20.4559 35.6852 20.4559 35.4945V33.9345C20.4559 33.7959 20.4906 33.6139 20.5599 33.3885C20.6466 33.1459 20.8286 32.9119 21.1059 32.6865L24.5379 29.2805C25.8032 28.3099 26.8259 27.4865 27.6059 26.8105C28.4032 26.1345 28.9926 25.5192 29.3739 24.9645C29.7552 24.4099 29.9459 23.8725 29.9459 23.3525C29.9459 22.6765 29.7552 22.1219 29.3739 21.6885C29.0099 21.2379 28.4119 21.0125 27.5799 21.0125C27.0252 21.0125 26.5572 21.1339 26.1759 21.3765C25.8119 21.6019 25.5259 21.9052 25.3179 22.2865C25.1099 22.6679 24.9712 23.0839 24.9019 23.5345C24.8499 23.7599 24.7372 23.9159 24.5639 24.0025C24.4079 24.0892 24.2432 24.1325 24.0699 24.1325H21.3139C21.1406 24.1325 21.0019 24.0805 20.8979 23.9765C20.7939 23.8552 20.7419 23.7252 20.7419 23.5865C20.7592 22.7892 20.9239 22.0352 21.2359 21.3245C21.5652 20.6139 22.0246 19.9812 22.6139 19.4265C23.2032 18.8719 23.9139 18.4385 24.7459 18.1265C25.5779 17.7972 26.5226 17.6325 27.5799 17.6325C29.0359 17.6325 30.2579 17.8752 31.2459 18.3605C32.2339 18.8285 32.9792 19.4785 33.4819 20.3105C33.9846 21.1425 34.2359 22.1045 34.2359 23.1965C34.2359 24.0285 34.0626 24.7999 33.7159 25.5105C33.3866 26.2212 32.9012 26.9059 32.2599 27.5645C31.6186 28.2059 30.8559 28.8732 29.9719 29.5665L26.9039 32.6345H33.9759C34.1666 32.6345 34.3226 32.6952 34.4439 32.8165C34.5652 32.9379 34.6259 33.0939 34.6259 33.2845V35.4945C34.6259 35.6852 34.5652 35.8412 34.4439 35.9625C34.3226 36.0839 34.1666 36.1445 33.9759 36.1445H21.1059Z" fill="white"/>
</svg>
