<svg width="53" height="54" viewBox="0 0 53 54" fill="none" xmlns="http://www.w3.org/2000/svg">
<circle cx="26.3889" cy="26.9944" r="26.3889" fill="#181818"/>
<path d="M26.3592 39.447C33.2401 39.447 38.8181 33.869 38.8181 26.9881C38.8181 20.1073 33.2401 14.5293 26.3592 14.5293C19.4784 14.5293 13.9004 20.1073 13.9004 26.9881C13.9004 33.869 19.4784 39.447 26.3592 39.447Z" stroke="white" stroke-width="2" stroke-linecap="round" stroke-linejoin="round"/>
<path d="M16.1855 34.1774L17.704 33.256C17.8546 33.1631 17.9789 33.0333 18.0652 32.8788C18.1515 32.7244 18.1969 32.5504 18.1971 32.3735L18.2231 27.6885C18.2252 27.4942 18.2838 27.3048 18.3918 27.1434L20.9614 23.1072C21.0385 22.988 21.139 22.8856 21.2568 22.8063C21.3746 22.7269 21.5072 22.6722 21.6467 22.6456C21.7861 22.6189 21.9296 22.6207 22.0683 22.651C22.2071 22.6813 22.3382 22.7394 22.4539 22.8217L24.9976 24.6646C25.217 24.8176 25.4842 24.8867 25.7503 24.8593L29.8384 24.3012C30.0864 24.2671 30.3129 24.1422 30.4743 23.9508L33.3554 20.6285C33.5262 20.4259 33.6143 20.1664 33.602 19.9017L33.4592 16.748" stroke="white" stroke-width="2" stroke-linecap="round" stroke-linejoin="round"/>
<path d="M34.0307 36.8123L32.629 35.4107C32.4994 35.2811 32.3384 35.1873 32.1618 35.1382L29.3716 34.4114C29.1265 34.3443 28.9146 34.1897 28.7758 33.9768C28.6371 33.764 28.5813 33.5076 28.6189 33.2564L28.9173 31.1539C28.947 30.9771 29.0208 30.8106 29.132 30.67C29.2432 30.5293 29.3881 30.419 29.5533 30.3493L33.4986 28.7011C33.6818 28.6247 33.8831 28.6024 34.0786 28.6369C34.2742 28.6714 34.4557 28.7612 34.6017 28.8958L37.8332 31.8547" stroke="white" stroke-width="2" stroke-linecap="round" stroke-linejoin="round"/>
</svg>
