<svg width="108" height="108" viewBox="0 0 108 108" fill="none" xmlns="http://www.w3.org/2000/svg">
<path d="M53.8596 3.27276C53.8596 1.80343 55.0517 0.605366 56.5192 0.678782C67.5845 1.23236 78.2265 5.22932 86.9391 12.1446C96.3478 19.6124 102.953 30.0441 105.68 41.7426C108.406 53.4412 107.095 65.7182 101.958 76.5765C96.8206 87.4348 88.1607 96.2354 77.3866 101.547C66.6125 106.858 54.3582 108.367 42.6172 105.829C30.8763 103.291 20.3395 96.8554 12.7211 87.5682C5.10266 78.2811 0.850834 66.6894 0.657297 54.6788C0.47808 43.5568 3.78862 32.6817 10.0882 23.5678C10.9237 22.3591 12.5999 22.1431 13.7654 23.0379C14.9308 23.9327 15.1434 25.5991 14.3147 26.8124C8.74296 34.9698 5.81766 44.6723 5.97753 54.593C6.15171 65.4026 9.97835 75.8351 16.8349 84.1935C23.6915 92.552 33.1746 98.3444 43.7414 100.629C54.3083 102.913 65.3372 101.554 75.0339 96.7742C84.7306 91.994 92.5245 84.0735 97.1479 74.301C101.771 64.5285 102.952 53.4792 100.498 42.9505C98.0435 32.4218 92.099 23.0333 83.6312 16.3123C75.8596 10.1439 66.3823 6.55548 56.5189 6.00708C55.0518 5.92552 53.8596 4.7421 53.8596 3.27276Z" fill="#4EAF4E"/>
</svg>
