<svg width="229" height="108" viewBox="0 0 229 108" fill="none" xmlns="http://www.w3.org/2000/svg">
<path d="M36.446 61.6117C34.8166 61.6117 33.456 61.3604 32.364 60.8577C31.272 60.3377 30.44 59.6704 29.868 58.8557C29.3133 58.0237 29.0186 57.131 28.984 56.1777C28.984 56.0217 29.036 55.8917 29.14 55.7877C29.244 55.6837 29.374 55.6317 29.53 55.6317H33.014C33.2393 55.6317 33.4126 55.6837 33.534 55.7877C33.6726 55.8744 33.7766 55.987 33.846 56.1257C34.002 56.5244 34.2013 56.8537 34.444 57.1137C34.704 57.3737 34.9986 57.5644 35.328 57.6857C35.6746 57.807 36.056 57.8677 36.472 57.8677C36.9573 57.8677 37.408 57.7637 37.824 57.5557C38.24 57.3477 38.5693 57.0444 38.812 56.6457C39.072 56.2297 39.202 55.7357 39.202 55.1637C39.202 54.6437 39.0806 54.193 38.838 53.8117C38.6126 53.4303 38.292 53.127 37.876 52.9017C37.46 52.6764 36.992 52.5637 36.472 52.5637C36.056 52.5637 35.718 52.6157 35.458 52.7197C35.198 52.8063 34.9813 52.919 34.808 53.0577C34.6346 53.1964 34.4786 53.3177 34.34 53.4217C34.2013 53.5083 34.0453 53.5517 33.872 53.5517H30.466C30.31 53.5517 30.1713 53.4997 30.05 53.3957C29.946 53.2744 29.894 53.1357 29.894 52.9797L30.83 43.9057C30.8646 43.6457 30.96 43.455 31.116 43.3337C31.272 43.195 31.4626 43.1257 31.688 43.1257H42.114C42.3046 43.1257 42.4606 43.1863 42.582 43.3077C42.7033 43.429 42.764 43.585 42.764 43.7757V46.2197C42.764 46.4103 42.7033 46.5663 42.582 46.6877C42.4606 46.809 42.3046 46.8697 42.114 46.8697H34.574L34.236 50.2497C34.6173 49.9897 35.0593 49.7817 35.562 49.6257C36.082 49.4523 36.784 49.3657 37.668 49.3657C38.5 49.3657 39.2886 49.5043 40.034 49.7817C40.7966 50.059 41.4726 50.4577 42.062 50.9777C42.6686 51.4977 43.1366 52.1217 43.466 52.8497C43.8126 53.5603 43.986 54.3663 43.986 55.2677C43.986 56.4984 43.6826 57.5904 43.076 58.5437C42.4866 59.497 41.6286 60.251 40.502 60.8057C39.3753 61.343 38.0233 61.6117 36.446 61.6117ZM53.7486 61.5857C52.5006 61.5857 51.4172 61.4124 50.4986 61.0657C49.5799 60.7017 48.8172 60.2077 48.2106 59.5837C47.6212 58.9597 47.1706 58.2317 46.8586 57.3997C46.5466 56.5677 46.3646 55.675 46.3126 54.7217C46.2952 54.2537 46.2779 53.725 46.2606 53.1357C46.2606 52.529 46.2606 51.9223 46.2606 51.3157C46.2779 50.6917 46.2952 50.137 46.3126 49.6517C46.3646 48.6983 46.5466 47.8144 46.8586 46.9997C47.1879 46.1677 47.6559 45.4483 48.2626 44.8417C48.8866 44.2177 49.6492 43.7323 50.5506 43.3857C51.4692 43.039 52.5352 42.8657 53.7486 42.8657C54.9792 42.8657 56.0452 43.039 56.9466 43.3857C57.8479 43.7323 58.6019 44.2177 59.2086 44.8417C59.8326 45.4483 60.3092 46.1677 60.6386 46.9997C60.9679 47.8144 61.1499 48.6983 61.1846 49.6517C61.2192 50.137 61.2366 50.6917 61.2366 51.3157C61.2539 51.9223 61.2539 52.529 61.2366 53.1357C61.2366 53.725 61.2192 54.2537 61.1846 54.7217C61.1499 55.675 60.9679 56.5677 60.6386 57.3997C60.3266 58.2317 59.8672 58.9597 59.2606 59.5837C58.6712 60.2077 57.9172 60.7017 56.9986 61.0657C56.0972 61.4124 55.0139 61.5857 53.7486 61.5857ZM53.7486 57.8157C54.6499 57.8157 55.2999 57.5297 55.6986 56.9577C56.1146 56.3684 56.3312 55.5797 56.3486 54.5917C56.3832 54.089 56.4006 53.5603 56.4006 53.0057C56.4179 52.451 56.4179 51.8963 56.4006 51.3417C56.4006 50.787 56.3832 50.2757 56.3486 49.8077C56.3312 48.8543 56.1146 48.083 55.6986 47.4937C55.2999 46.9043 54.6499 46.601 53.7486 46.5837C52.8472 46.601 52.1972 46.9043 51.7986 47.4937C51.3999 48.083 51.1832 48.8543 51.1486 49.8077C51.1312 50.2757 51.1139 50.787 51.0966 51.3417C51.0966 51.8963 51.0966 52.451 51.0966 53.0057C51.1139 53.5603 51.1312 54.089 51.1486 54.5917C51.1832 55.5797 51.4086 56.3684 51.8246 56.9577C52.2406 57.5297 52.8819 57.8157 53.7486 57.8157ZM69.4444 60.4677C69.2538 60.4677 69.0978 60.407 68.9764 60.2857C68.8551 60.1644 68.7944 60.0084 68.7944 59.8177V55.0597H64.1664C63.9758 55.0597 63.8111 54.999 63.6724 54.8777C63.5511 54.7563 63.4904 54.6003 63.4904 54.4097V52.5117C63.4904 52.321 63.5511 52.165 63.6724 52.0437C63.8111 51.9223 63.9758 51.8617 64.1664 51.8617H68.7944V47.2337C68.7944 47.043 68.8551 46.887 68.9764 46.7657C69.0978 46.6443 69.2538 46.5837 69.4444 46.5837H71.5764C71.7498 46.5837 71.8971 46.6443 72.0184 46.7657C72.1571 46.887 72.2264 47.043 72.2264 47.2337V51.8617H76.8284C77.0191 51.8617 77.1751 51.9223 77.2964 52.0437C77.4178 52.165 77.4784 52.321 77.4784 52.5117V54.4097C77.4784 54.6003 77.4178 54.7563 77.2964 54.8777C77.1751 54.999 77.0191 55.0597 76.8284 55.0597H72.2264V59.8177C72.2264 60.0084 72.1571 60.1644 72.0184 60.2857C71.8971 60.407 71.7498 60.4677 71.5764 60.4677H69.4444Z" fill="white"/>
<path d="M120.276 42.6523C120.17 42.6523 120.074 42.615 119.988 42.5403C119.914 42.4657 119.876 42.3697 119.876 42.2523V31.8523C119.876 31.735 119.914 31.639 119.988 31.5643C120.074 31.4897 120.17 31.4523 120.276 31.4523H121.764C121.924 31.4523 122.042 31.495 122.116 31.5803C122.202 31.6657 122.26 31.7297 122.292 31.7723L125.236 37.1963L128.212 31.7723C128.234 31.7297 128.282 31.6657 128.356 31.5803C128.442 31.495 128.564 31.4523 128.724 31.4523H130.212C130.33 31.4523 130.426 31.4897 130.5 31.5643C130.575 31.639 130.612 31.735 130.612 31.8523V42.2523C130.612 42.3697 130.575 42.4657 130.5 42.5403C130.426 42.615 130.33 42.6523 130.212 42.6523H128.58C128.474 42.6523 128.383 42.615 128.308 42.5403C128.234 42.4657 128.196 42.3697 128.196 42.2523V35.7883L126.164 39.5963C126.111 39.6923 126.042 39.7777 125.956 39.8523C125.871 39.927 125.759 39.9643 125.62 39.9643H124.868C124.73 39.9643 124.618 39.927 124.532 39.8523C124.447 39.7777 124.378 39.6923 124.324 39.5963L122.292 35.7883V42.2523C122.292 42.3697 122.255 42.4657 122.18 42.5403C122.106 42.615 122.015 42.6523 121.908 42.6523H120.276ZM135.258 42.8123C134.692 42.8123 134.186 42.7057 133.738 42.4923C133.29 42.2683 132.932 41.9697 132.666 41.5963C132.399 41.223 132.266 40.807 132.266 40.3483C132.266 39.591 132.57 38.9937 133.178 38.5563C133.796 38.119 134.607 37.8203 135.61 37.6603L137.706 37.3563V37.0683C137.706 36.6523 137.61 36.3323 137.418 36.1083C137.226 35.8843 136.89 35.7723 136.41 35.7723C136.058 35.7723 135.775 35.8417 135.562 35.9803C135.348 36.119 135.183 36.3003 135.066 36.5243C134.98 36.663 134.858 36.7323 134.698 36.7323H133.178C133.06 36.7323 132.97 36.7003 132.906 36.6363C132.842 36.5617 132.815 36.4763 132.826 36.3803C132.826 36.199 132.895 35.9857 133.034 35.7403C133.172 35.495 133.386 35.255 133.674 35.0203C133.962 34.775 134.33 34.5723 134.778 34.4123C135.226 34.2523 135.775 34.1723 136.426 34.1723C137.098 34.1723 137.674 34.2523 138.154 34.4123C138.634 34.5723 139.018 34.7963 139.306 35.0843C139.594 35.3723 139.807 35.7083 139.946 36.0923C140.084 36.4657 140.154 36.871 140.154 37.3083V42.2523C140.154 42.3697 140.116 42.4657 140.042 42.5403C139.967 42.615 139.871 42.6523 139.754 42.6523H138.186C138.079 42.6523 137.988 42.615 137.914 42.5403C137.839 42.4657 137.802 42.3697 137.802 42.2523V41.6603C137.663 41.863 137.476 42.055 137.242 42.2363C137.007 42.407 136.724 42.5457 136.394 42.6523C136.074 42.759 135.695 42.8123 135.258 42.8123ZM135.898 41.1483C136.25 41.1483 136.564 41.0737 136.842 40.9243C137.119 40.775 137.338 40.5457 137.498 40.2363C137.658 39.927 137.738 39.5377 137.738 39.0683V38.7963L136.25 39.0363C135.674 39.1323 135.252 39.2763 134.986 39.4683C134.719 39.6603 134.586 39.895 134.586 40.1723C134.586 40.375 134.644 40.551 134.762 40.7003C134.89 40.8497 135.055 40.9617 135.258 41.0363C135.46 41.111 135.674 41.1483 135.898 41.1483ZM142.475 42.6523C142.368 42.6523 142.278 42.615 142.203 42.5403C142.128 42.4657 142.091 42.3697 142.091 42.2523V34.7323C142.091 34.6257 142.128 34.535 142.203 34.4603C142.278 34.375 142.368 34.3323 142.475 34.3323H144.043C144.15 34.3323 144.24 34.375 144.315 34.4603C144.4 34.535 144.443 34.6257 144.443 34.7323V35.3723C144.71 35.0417 145.035 34.7857 145.419 34.6043C145.814 34.423 146.267 34.3323 146.779 34.3323H147.467C147.574 34.3323 147.664 34.3697 147.739 34.4443C147.814 34.519 147.851 34.615 147.851 34.7323V36.1083C147.851 36.2257 147.814 36.3217 147.739 36.3963C147.664 36.471 147.574 36.5083 147.467 36.5083H146.059C145.59 36.5083 145.222 36.6417 144.955 36.9083C144.688 37.1643 144.555 37.5323 144.555 38.0123V42.2523C144.555 42.3697 144.518 42.4657 144.443 42.5403C144.368 42.615 144.272 42.6523 144.155 42.6523H142.475ZM149.444 42.6523C149.327 42.6523 149.231 42.615 149.156 42.5403C149.081 42.4657 149.044 42.3697 149.044 42.2523V31.6923C149.044 31.575 149.081 31.479 149.156 31.4043C149.231 31.3297 149.327 31.2923 149.444 31.2923H151.012C151.119 31.2923 151.209 31.3297 151.284 31.4043C151.359 31.479 151.396 31.575 151.396 31.6923V37.1003L153.86 34.6043C153.945 34.5297 154.02 34.4657 154.084 34.4123C154.159 34.359 154.271 34.3323 154.42 34.3323H156.228C156.335 34.3323 156.42 34.3697 156.484 34.4443C156.548 34.5083 156.58 34.5883 156.58 34.6843C156.58 34.727 156.569 34.775 156.548 34.8283C156.527 34.8817 156.489 34.9243 156.436 34.9563L153.348 38.0603L156.836 42.0443C156.932 42.1297 156.98 42.215 156.98 42.3003C156.98 42.3963 156.943 42.4817 156.868 42.5563C156.804 42.6203 156.724 42.6523 156.628 42.6523H154.772C154.612 42.6523 154.495 42.6257 154.42 42.5723C154.356 42.519 154.281 42.455 154.196 42.3803L151.396 39.2443V42.2523C151.396 42.3697 151.359 42.4657 151.284 42.5403C151.209 42.615 151.119 42.6523 151.012 42.6523H149.444ZM161.459 42.8123C160.233 42.8123 159.257 42.471 158.531 41.7883C157.817 41.1057 157.438 40.1137 157.395 38.8123C157.395 38.727 157.395 38.615 157.395 38.4763C157.395 38.327 157.395 38.2097 157.395 38.1243C157.438 37.303 157.625 36.599 157.955 36.0123C158.286 35.415 158.75 34.9617 159.347 34.6523C159.945 34.3323 160.643 34.1723 161.443 34.1723C162.339 34.1723 163.086 34.359 163.683 34.7323C164.291 35.095 164.745 35.5963 165.043 36.2363C165.353 36.8657 165.507 37.591 165.507 38.4123V38.7803C165.507 38.887 165.465 38.9777 165.379 39.0523C165.305 39.127 165.214 39.1643 165.107 39.1643H159.875C159.875 39.175 159.875 39.1963 159.875 39.2283C159.875 39.2497 159.875 39.271 159.875 39.2923C159.886 39.6337 159.95 39.9483 160.067 40.2363C160.195 40.5137 160.371 40.7377 160.595 40.9083C160.83 41.079 161.107 41.1643 161.427 41.1643C161.694 41.1643 161.913 41.127 162.083 41.0523C162.254 40.9777 162.393 40.887 162.499 40.7803C162.617 40.6737 162.702 40.583 162.755 40.5083C162.851 40.4017 162.926 40.3377 162.979 40.3163C163.043 40.2843 163.139 40.2683 163.267 40.2683H164.931C165.038 40.2683 165.123 40.3003 165.187 40.3643C165.262 40.4177 165.294 40.4977 165.283 40.6043C165.273 40.775 165.182 40.9883 165.011 41.2443C164.851 41.4897 164.611 41.735 164.291 41.9803C163.971 42.215 163.571 42.4123 163.091 42.5723C162.622 42.7323 162.078 42.8123 161.459 42.8123ZM159.875 37.7083H163.011V37.6763C163.011 37.2923 162.947 36.9617 162.819 36.6843C162.702 36.3963 162.526 36.1723 162.291 36.0123C162.057 35.8523 161.774 35.7723 161.443 35.7723C161.113 35.7723 160.83 35.8523 160.595 36.0123C160.361 36.1723 160.179 36.3963 160.051 36.6843C159.934 36.9617 159.875 37.2923 159.875 37.6763V37.7083ZM171.075 42.6523C170.414 42.6523 169.849 42.5457 169.379 42.3323C168.91 42.1083 168.553 41.767 168.307 41.3083C168.073 40.8497 167.955 40.2737 167.955 39.5803V36.2203H166.707C166.59 36.2203 166.494 36.183 166.419 36.1083C166.345 36.0337 166.307 35.9377 166.307 35.8203V34.7323C166.307 34.615 166.345 34.519 166.419 34.4443C166.494 34.3697 166.59 34.3323 166.707 34.3323H167.955V31.6923C167.955 31.575 167.993 31.479 168.067 31.4043C168.153 31.3297 168.249 31.2923 168.355 31.2923H169.923C170.041 31.2923 170.137 31.3297 170.211 31.4043C170.286 31.479 170.323 31.575 170.323 31.6923V34.3323H172.323C172.43 34.3323 172.521 34.3697 172.595 34.4443C172.67 34.519 172.707 34.615 172.707 34.7323V35.8203C172.707 35.9377 172.67 36.0337 172.595 36.1083C172.521 36.183 172.43 36.2203 172.323 36.2203H170.323V39.3883C170.323 39.7937 170.393 40.1137 170.531 40.3483C170.681 40.5723 170.937 40.6843 171.299 40.6843H172.467C172.574 40.6843 172.665 40.7217 172.739 40.7963C172.814 40.871 172.851 40.9617 172.851 41.0683V42.2523C172.851 42.3697 172.814 42.4657 172.739 42.5403C172.665 42.615 172.574 42.6523 172.467 42.6523H171.075ZM120.276 66.6523C120.159 66.6523 120.063 66.615 119.988 66.5403C119.914 66.4657 119.876 66.3697 119.876 66.2523V55.8523C119.876 55.735 119.914 55.639 119.988 55.5643C120.063 55.4897 120.159 55.4523 120.276 55.4523H127.524C127.642 55.4523 127.738 55.4897 127.812 55.5643C127.887 55.639 127.924 55.735 127.924 55.8523V57.1323C127.924 57.239 127.887 57.3297 127.812 57.4043C127.738 57.479 127.642 57.5163 127.524 57.5163H122.34V60.0283H127.172C127.29 60.0283 127.386 60.0657 127.46 60.1403C127.535 60.215 127.572 60.311 127.572 60.4283V61.6123C127.572 61.719 127.535 61.8097 127.46 61.8843C127.386 61.959 127.29 61.9963 127.172 61.9963H122.34V64.5883H127.652C127.77 64.5883 127.866 64.6257 127.94 64.7003C128.015 64.775 128.052 64.871 128.052 64.9883V66.2523C128.052 66.3697 128.015 66.4657 127.94 66.5403C127.866 66.615 127.77 66.6523 127.652 66.6523H120.276ZM129.427 66.6523C129.331 66.6523 129.245 66.6203 129.171 66.5563C129.107 66.4817 129.075 66.3963 129.075 66.3003C129.075 66.2683 129.08 66.231 129.091 66.1883C129.112 66.135 129.139 66.087 129.171 66.0443L131.875 62.3803L129.395 58.9403C129.363 58.8977 129.336 58.855 129.315 58.8123C129.304 58.7697 129.299 58.727 129.299 58.6843C129.299 58.5883 129.331 58.5083 129.395 58.4443C129.469 58.3697 129.555 58.3323 129.651 58.3323H131.315C131.443 58.3323 131.539 58.3643 131.603 58.4283C131.677 58.4923 131.731 58.551 131.763 58.6043L133.411 60.8443L135.059 58.6203C135.101 58.567 135.155 58.5083 135.219 58.4443C135.283 58.3697 135.384 58.3323 135.523 58.3323H137.107C137.203 58.3323 137.283 58.3697 137.347 58.4443C137.421 58.5083 137.459 58.5883 137.459 58.6843C137.459 58.727 137.453 58.7697 137.443 58.8123C137.432 58.855 137.405 58.8977 137.363 58.9403L134.835 62.3963L137.571 66.0443C137.603 66.087 137.624 66.1297 137.635 66.1723C137.656 66.215 137.667 66.2577 137.667 66.3003C137.667 66.3963 137.629 66.4817 137.555 66.5563C137.491 66.6203 137.411 66.6523 137.315 66.6523H135.571C135.453 66.6523 135.363 66.6257 135.299 66.5723C135.235 66.5083 135.181 66.4497 135.139 66.3963L133.363 64.0283L131.555 66.3963C131.523 66.439 131.475 66.4923 131.411 66.5563C131.347 66.6203 131.251 66.6523 131.123 66.6523H129.427ZM139.382 69.6923C139.264 69.6923 139.168 69.655 139.094 69.5803C139.019 69.5057 138.982 69.4097 138.982 69.2923V58.7323C138.982 58.615 139.019 58.519 139.094 58.4443C139.168 58.3697 139.264 58.3323 139.382 58.3323H140.902C141.019 58.3323 141.115 58.3697 141.19 58.4443C141.264 58.519 141.302 58.615 141.302 58.7323V59.3403C141.558 58.999 141.888 58.7217 142.294 58.5083C142.699 58.2843 143.206 58.1723 143.814 58.1723C144.368 58.1723 144.848 58.263 145.254 58.4443C145.67 58.615 146.016 58.8657 146.294 59.1963C146.582 59.5163 146.8 59.9057 146.95 60.3643C147.11 60.823 147.2 61.3403 147.222 61.9163C147.232 62.119 147.238 62.311 147.238 62.4923C147.238 62.6737 147.232 62.871 147.222 63.0843C147.211 63.6283 147.126 64.1297 146.966 64.5883C146.816 65.047 146.598 65.4417 146.31 65.7723C146.022 66.103 145.67 66.359 145.254 66.5403C144.848 66.7217 144.368 66.8123 143.814 66.8123C143.27 66.8123 142.795 66.7163 142.39 66.5243C141.995 66.3217 141.67 66.0497 141.414 65.7083V69.2923C141.414 69.4097 141.376 69.5057 141.302 69.5803C141.227 69.655 141.136 69.6923 141.03 69.6923H139.382ZM143.094 64.8923C143.499 64.8923 143.819 64.807 144.054 64.6363C144.288 64.455 144.454 64.2203 144.55 63.9323C144.656 63.6443 144.72 63.3297 144.742 62.9883C144.763 62.6577 144.763 62.327 144.742 61.9963C144.72 61.655 144.656 61.3403 144.55 61.0523C144.454 60.7643 144.288 60.535 144.054 60.3643C143.819 60.183 143.499 60.0923 143.094 60.0923C142.699 60.0923 142.379 60.183 142.134 60.3643C141.888 60.5457 141.712 60.775 141.606 61.0523C141.499 61.3297 141.435 61.6283 141.414 61.9483C141.403 62.1403 141.398 62.3377 141.398 62.5403C141.398 62.743 141.403 62.9457 141.414 63.1483C141.424 63.447 141.488 63.7297 141.606 63.9963C141.734 64.2523 141.915 64.4657 142.15 64.6363C142.395 64.807 142.71 64.8923 143.094 64.8923ZM152.647 66.8123C151.42 66.8123 150.444 66.471 149.719 65.7883C149.004 65.1057 148.625 64.1137 148.583 62.8123C148.583 62.727 148.583 62.615 148.583 62.4763C148.583 62.327 148.583 62.2097 148.583 62.1243C148.625 61.303 148.812 60.599 149.143 60.0123C149.473 59.415 149.937 58.9617 150.535 58.6523C151.132 58.3323 151.831 58.1723 152.631 58.1723C153.527 58.1723 154.273 58.359 154.871 58.7323C155.479 59.095 155.932 59.5963 156.231 60.2363C156.54 60.8657 156.695 61.591 156.695 62.4123V62.7803C156.695 62.887 156.652 62.9777 156.567 63.0523C156.492 63.127 156.401 63.1643 156.295 63.1643H151.063C151.063 63.175 151.063 63.1963 151.063 63.2283C151.063 63.2497 151.063 63.271 151.063 63.2923C151.073 63.6337 151.137 63.9483 151.255 64.2363C151.383 64.5137 151.559 64.7377 151.783 64.9083C152.017 65.079 152.295 65.1643 152.615 65.1643C152.881 65.1643 153.1 65.127 153.271 65.0523C153.441 64.9777 153.58 64.887 153.687 64.7803C153.804 64.6737 153.889 64.583 153.943 64.5083C154.039 64.4017 154.113 64.3377 154.167 64.3163C154.231 64.2843 154.327 64.2683 154.455 64.2683H156.119C156.225 64.2683 156.311 64.3003 156.375 64.3643C156.449 64.4177 156.481 64.4977 156.471 64.6043C156.46 64.775 156.369 64.9883 156.199 65.2443C156.039 65.4897 155.799 65.735 155.479 65.9803C155.159 66.215 154.759 66.4123 154.279 66.5723C153.809 66.7323 153.265 66.8123 152.647 66.8123ZM151.063 61.7083H154.199V61.6763C154.199 61.2923 154.135 60.9617 154.007 60.6843C153.889 60.3963 153.713 60.1723 153.479 60.0123C153.244 59.8523 152.961 59.7723 152.631 59.7723C152.3 59.7723 152.017 59.8523 151.783 60.0123C151.548 60.1723 151.367 60.3963 151.239 60.6843C151.121 60.9617 151.063 61.2923 151.063 61.6763V61.7083ZM158.678 66.6523C158.571 66.6523 158.481 66.615 158.406 66.5403C158.331 66.4657 158.294 66.3697 158.294 66.2523V58.7323C158.294 58.6257 158.331 58.535 158.406 58.4603C158.481 58.375 158.571 58.3323 158.678 58.3323H160.246C160.353 58.3323 160.443 58.375 160.518 58.4603C160.603 58.535 160.646 58.6257 160.646 58.7323V59.3723C160.913 59.0417 161.238 58.7857 161.622 58.6043C162.017 58.423 162.47 58.3323 162.982 58.3323H163.67C163.777 58.3323 163.867 58.3697 163.942 58.4443C164.017 58.519 164.054 58.615 164.054 58.7323V60.1083C164.054 60.2257 164.017 60.3217 163.942 60.3963C163.867 60.471 163.777 60.5083 163.67 60.5083H162.262C161.793 60.5083 161.425 60.6417 161.158 60.9083C160.891 61.1643 160.758 61.5323 160.758 62.0123V66.2523C160.758 66.3697 160.721 66.4657 160.646 66.5403C160.571 66.615 160.475 66.6523 160.358 66.6523H158.678ZM165.631 66.6523C165.525 66.6523 165.434 66.615 165.359 66.5403C165.285 66.4657 165.247 66.3697 165.247 66.2523V58.7323C165.247 58.615 165.285 58.519 165.359 58.4443C165.434 58.3697 165.525 58.3323 165.631 58.3323H167.231C167.349 58.3323 167.445 58.3697 167.519 58.4443C167.594 58.519 167.631 58.615 167.631 58.7323V66.2523C167.631 66.3697 167.594 66.4657 167.519 66.5403C167.445 66.615 167.349 66.6523 167.231 66.6523H165.631ZM165.583 57.0523C165.477 57.0523 165.386 57.015 165.311 56.9403C165.237 56.8657 165.199 56.7697 165.199 56.6523V55.3723C165.199 55.255 165.237 55.159 165.311 55.0843C165.386 54.999 165.477 54.9563 165.583 54.9563H167.263C167.381 54.9563 167.477 54.999 167.551 55.0843C167.637 55.159 167.679 55.255 167.679 55.3723V56.6523C167.679 56.7697 167.637 56.8657 167.551 56.9403C167.477 57.015 167.381 57.0523 167.263 57.0523H165.583ZM173.412 66.8123C172.186 66.8123 171.21 66.471 170.484 65.7883C169.77 65.1057 169.391 64.1137 169.348 62.8123C169.348 62.727 169.348 62.615 169.348 62.4763C169.348 62.327 169.348 62.2097 169.348 62.1243C169.391 61.303 169.578 60.599 169.908 60.0123C170.239 59.415 170.703 58.9617 171.3 58.6523C171.898 58.3323 172.596 58.1723 173.396 58.1723C174.292 58.1723 175.039 58.359 175.636 58.7323C176.244 59.095 176.698 59.5963 176.996 60.2363C177.306 60.8657 177.46 61.591 177.46 62.4123V62.7803C177.46 62.887 177.418 62.9777 177.332 63.0523C177.258 63.127 177.167 63.1643 177.06 63.1643H171.828C171.828 63.175 171.828 63.1963 171.828 63.2283C171.828 63.2497 171.828 63.271 171.828 63.2923C171.839 63.6337 171.903 63.9483 172.02 64.2363C172.148 64.5137 172.324 64.7377 172.548 64.9083C172.783 65.079 173.06 65.1643 173.38 65.1643C173.647 65.1643 173.866 65.127 174.036 65.0523C174.207 64.9777 174.346 64.887 174.452 64.7803C174.57 64.6737 174.655 64.583 174.708 64.5083C174.804 64.4017 174.879 64.3377 174.932 64.3163C174.996 64.2843 175.092 64.2683 175.22 64.2683H176.884C176.991 64.2683 177.076 64.3003 177.14 64.3643C177.215 64.4177 177.247 64.4977 177.236 64.6043C177.226 64.775 177.135 64.9883 176.964 65.2443C176.804 65.4897 176.564 65.735 176.244 65.9803C175.924 66.215 175.524 66.4123 175.044 66.5723C174.575 66.7323 174.031 66.8123 173.412 66.8123ZM171.828 61.7083H174.964V61.6763C174.964 61.2923 174.9 60.9617 174.772 60.6843C174.655 60.3963 174.479 60.1723 174.244 60.0123C174.01 59.8523 173.727 59.7723 173.396 59.7723C173.066 59.7723 172.783 59.8523 172.548 60.0123C172.314 60.1723 172.132 60.3963 172.004 60.6843C171.887 60.9617 171.828 61.2923 171.828 61.6763V61.7083ZM179.444 66.6523C179.337 66.6523 179.246 66.615 179.172 66.5403C179.097 66.4657 179.06 66.3697 179.06 66.2523V58.7323C179.06 58.615 179.097 58.519 179.172 58.4443C179.246 58.3697 179.337 58.3323 179.444 58.3323H181.012C181.129 58.3323 181.225 58.3697 181.3 58.4443C181.374 58.519 181.412 58.615 181.412 58.7323V59.3563C181.689 59.015 182.046 58.7323 182.484 58.5083C182.921 58.2843 183.454 58.1723 184.084 58.1723C184.713 58.1723 185.262 58.3163 185.732 58.6043C186.212 58.8817 186.585 59.2923 186.852 59.8363C187.129 60.3697 187.268 61.0203 187.268 61.7883V66.2523C187.268 66.3697 187.225 66.4657 187.14 66.5403C187.065 66.615 186.974 66.6523 186.868 66.6523H185.172C185.054 66.6523 184.958 66.615 184.884 66.5403C184.809 66.4657 184.772 66.3697 184.772 66.2523V61.8843C184.772 61.319 184.633 60.8817 184.356 60.5723C184.089 60.2523 183.694 60.0923 183.172 60.0923C182.67 60.0923 182.27 60.2523 181.972 60.5723C181.673 60.8817 181.524 61.319 181.524 61.8843V66.2523C181.524 66.3697 181.486 66.4657 181.412 66.5403C181.337 66.615 181.246 66.6523 181.14 66.6523H179.444ZM192.881 66.8123C192.102 66.8123 191.414 66.6683 190.817 66.3803C190.23 66.0923 189.766 65.6763 189.425 65.1323C189.083 64.5777 188.897 63.9163 188.865 63.1483C188.854 62.9777 188.849 62.7643 188.849 62.5083C188.849 62.2417 188.854 62.023 188.865 61.8523C188.897 61.0737 189.078 60.4123 189.409 59.8683C189.75 59.3137 190.219 58.8923 190.817 58.6043C191.414 58.3163 192.102 58.1723 192.881 58.1723C193.595 58.1723 194.203 58.2737 194.705 58.4763C195.206 58.6683 195.617 58.9137 195.937 59.2123C196.257 59.511 196.491 59.8257 196.641 60.1563C196.801 60.4763 196.886 60.759 196.897 61.0043C196.907 61.111 196.87 61.207 196.785 61.2923C196.71 61.367 196.619 61.4043 196.513 61.4043H194.801C194.694 61.4043 194.609 61.3777 194.545 61.3243C194.491 61.2603 194.438 61.175 194.385 61.0683C194.235 60.695 194.043 60.4283 193.809 60.2683C193.574 60.1083 193.281 60.0283 192.929 60.0283C192.449 60.0283 192.07 60.183 191.793 60.4923C191.515 60.8017 191.366 61.2817 191.345 61.9323C191.334 62.3483 191.334 62.727 191.345 63.0683C191.377 63.7297 191.526 64.2097 191.793 64.5083C192.07 64.807 192.449 64.9563 192.929 64.9563C193.302 64.9563 193.601 64.8763 193.825 64.7163C194.049 64.5563 194.235 64.2897 194.385 63.9163C194.427 63.8097 194.481 63.7297 194.545 63.6763C194.609 63.6123 194.694 63.5803 194.801 63.5803H196.513C196.619 63.5803 196.71 63.623 196.785 63.7083C196.87 63.783 196.907 63.8737 196.897 63.9803C196.886 64.1617 196.833 64.375 196.737 64.6203C196.651 64.8657 196.507 65.1163 196.305 65.3723C196.113 65.6283 195.862 65.8683 195.553 66.0923C195.243 66.3057 194.865 66.4817 194.417 66.6203C193.979 66.7483 193.467 66.8123 192.881 66.8123ZM202.178 66.8123C200.951 66.8123 199.975 66.471 199.25 65.7883C198.535 65.1057 198.157 64.1137 198.114 62.8123C198.114 62.727 198.114 62.615 198.114 62.4763C198.114 62.327 198.114 62.2097 198.114 62.1243C198.157 61.303 198.343 60.599 198.674 60.0123C199.005 59.415 199.469 58.9617 200.066 58.6523C200.663 58.3323 201.362 58.1723 202.162 58.1723C203.058 58.1723 203.805 58.359 204.402 58.7323C205.01 59.095 205.463 59.5963 205.762 60.2363C206.071 60.8657 206.226 61.591 206.226 62.4123V62.7803C206.226 62.887 206.183 62.9777 206.098 63.0523C206.023 63.127 205.933 63.1643 205.826 63.1643H200.594C200.594 63.175 200.594 63.1963 200.594 63.2283C200.594 63.2497 200.594 63.271 200.594 63.2923C200.605 63.6337 200.669 63.9483 200.786 64.2363C200.914 64.5137 201.09 64.7377 201.314 64.9083C201.549 65.079 201.826 65.1643 202.146 65.1643C202.413 65.1643 202.631 65.127 202.802 65.0523C202.973 64.9777 203.111 64.887 203.218 64.7803C203.335 64.6737 203.421 64.583 203.474 64.5083C203.57 64.4017 203.645 64.3377 203.698 64.3163C203.762 64.2843 203.858 64.2683 203.986 64.2683H205.65C205.757 64.2683 205.842 64.3003 205.906 64.3643C205.981 64.4177 206.013 64.4977 206.002 64.6043C205.991 64.775 205.901 64.9883 205.73 65.2443C205.57 65.4897 205.33 65.735 205.01 65.9803C204.69 66.215 204.29 66.4123 203.81 66.5723C203.341 66.7323 202.797 66.8123 202.178 66.8123ZM200.594 61.7083H203.73V61.6763C203.73 61.2923 203.666 60.9617 203.538 60.6843C203.421 60.3963 203.245 60.1723 203.01 60.0123C202.775 59.8523 202.493 59.7723 202.162 59.7723C201.831 59.7723 201.549 59.8523 201.314 60.0123C201.079 60.1723 200.898 60.3963 200.77 60.6843C200.653 60.9617 200.594 61.2923 200.594 61.6763V61.7083ZM211.105 66.8123C210.444 66.8123 209.873 66.7377 209.393 66.5883C208.924 66.4283 208.54 66.2363 208.241 66.0123C207.953 65.7883 207.735 65.5643 207.585 65.3403C207.447 65.1057 207.372 64.9083 207.361 64.7483C207.351 64.631 207.388 64.535 207.473 64.4603C207.559 64.3857 207.644 64.3483 207.729 64.3483H209.281C209.313 64.3483 209.345 64.3537 209.377 64.3643C209.409 64.375 209.441 64.4017 209.473 64.4443C209.612 64.5403 209.756 64.6523 209.905 64.7803C210.055 64.8977 210.225 64.999 210.417 65.0843C210.62 65.1697 210.871 65.2123 211.169 65.2123C211.521 65.2123 211.82 65.143 212.065 65.0043C212.311 64.855 212.433 64.647 212.433 64.3803C212.433 64.1883 212.375 64.0283 212.257 63.9003C212.151 63.7723 211.943 63.655 211.633 63.5483C211.324 63.4417 210.865 63.3243 210.257 63.1963C209.681 63.0683 209.191 62.8977 208.785 62.6843C208.38 62.471 208.076 62.2043 207.873 61.8843C207.671 61.5537 207.569 61.159 207.569 60.7003C207.569 60.2843 207.697 59.8843 207.953 59.5003C208.22 59.1163 208.609 58.8017 209.121 58.5563C209.633 58.3003 210.273 58.1723 211.041 58.1723C211.628 58.1723 212.14 58.247 212.577 58.3963C213.025 58.535 213.399 58.7163 213.697 58.9403C213.996 59.1537 214.22 59.3777 214.369 59.6123C214.529 59.8363 214.615 60.0337 214.625 60.2043C214.636 60.311 214.604 60.4017 214.529 60.4763C214.455 60.551 214.369 60.5883 214.273 60.5883H212.849C212.796 60.5883 212.748 60.583 212.705 60.5723C212.663 60.551 212.625 60.5243 212.593 60.4923C212.465 60.407 212.332 60.311 212.193 60.2043C212.065 60.087 211.911 59.9857 211.729 59.9003C211.548 59.815 211.313 59.7723 211.025 59.7723C210.673 59.7723 210.401 59.8523 210.209 60.0123C210.028 60.1617 209.937 60.3537 209.937 60.5883C209.937 60.7377 209.985 60.8763 210.081 61.0043C210.177 61.1323 210.375 61.2497 210.673 61.3563C210.972 61.463 211.425 61.575 212.033 61.6923C212.759 61.8203 213.335 62.0123 213.761 62.2683C214.188 62.5243 214.492 62.823 214.673 63.1643C214.865 63.495 214.961 63.8523 214.961 64.2363C214.961 64.7377 214.812 65.1857 214.513 65.5803C214.215 65.9643 213.777 66.2683 213.201 66.4923C212.636 66.7057 211.937 66.8123 211.105 66.8123Z" fill="white"/>
<path d="M107.069 53.8215C107.069 83.2081 83.2462 107.031 53.8596 107.031C24.473 107.031 0.650391 83.2081 0.650391 53.8215C0.650391 24.4349 24.473 0.612305 53.8596 0.612305C83.2462 0.612305 107.069 24.4349 107.069 53.8215ZM5.97131 53.8215C5.97131 80.2694 27.4116 101.71 53.8596 101.71C80.3075 101.71 101.748 80.2694 101.748 53.8215C101.748 27.3735 80.3075 5.93322 53.8596 5.93322C27.4116 5.93322 5.97131 27.3735 5.97131 53.8215Z" fill="#F1F1F1"/>
<path d="M53.8596 3.27276C53.8596 1.80343 55.0517 0.605366 56.5192 0.678782C67.5845 1.23236 78.2265 5.22932 86.9391 12.1446C96.3478 19.6124 102.953 30.0441 105.68 41.7426C108.406 53.4412 107.095 65.7182 101.958 76.5765C96.8206 87.4348 88.1607 96.2354 77.3866 101.547C66.6125 106.858 54.3582 108.367 42.6172 105.829C30.8763 103.291 20.3395 96.8554 12.7211 87.5682C5.10266 78.2811 0.850834 66.6894 0.657297 54.6788C0.47808 43.5568 3.78862 32.6817 10.0882 23.5678C10.9237 22.3591 12.5999 22.1431 13.7654 23.0379C14.9308 23.9327 15.1434 25.5991 14.3147 26.8124C8.74296 34.9698 5.81766 44.6723 5.97753 54.593C6.15171 65.4026 9.97835 75.8351 16.8349 84.1935C23.6915 92.552 33.1746 98.3444 43.7414 100.629C54.3083 102.913 65.3372 101.554 75.0339 96.7742C84.7306 91.994 92.5245 84.0735 97.1479 74.301C101.771 64.5285 102.952 53.4792 100.498 42.9505C98.0435 32.4218 92.099 23.0333 83.6312 16.3123C75.8596 10.1439 66.3823 6.55548 56.5189 6.00708C55.0518 5.92552 53.8596 4.7421 53.8596 3.27276Z" fill="#4EAF4E"/>
<circle cx="14.4139" cy="22.5932" r="7.25129" fill="white" stroke="#4EAF4E" stroke-width="4"/>
</svg>
